<svg width="56" height="80" viewBox="0 0 56 80" fill="none" xmlns="http://www.w3.org/2000/svg">
<path fill-rule="evenodd" clip-rule="evenodd" d="M6.13982 44.5702C8.06482 46.9222 12.9606 55.6352 14 60H42C43.0396 55.6386 47.9296 46.9256 49.8546 44.577C53.1524 40.5434 55.2198 35.6792 55.8188 30.545C56.418 25.4106 55.5242 20.2148 53.2408 15.5564C50.9574 10.8978 47.377 6.96598 42.9122 4.21374C38.4474 1.4615 33.2796 0.000820345 28.0044 3.45448e-07C22.7292 -0.000819655 17.5612 1.45822 13.0954 4.20906C8.62982 6.9599 5.04802 10.8906 2.76322 15.5484C0.478224 20.2062 -0.417236 25.4016 0.180224 30.5362C0.777624 35.6708 2.84342 40.5356 6.13982 44.5702ZM30 16L18 34H26V46L38 28H30V16Z" fill="#F93059"/>
<path d="M14 66C14 64.8954 14.8954 64 16 64H40C41.1046 64 42 64.8954 42 66C42 67.1046 41.1046 68 40 68H16C14.8954 68 14 67.1046 14 66ZM42 72H14V76C14 78.2092 15.7908 80 18 80H38C40.2092 80 42 78.2092 42 76V72Z" fill="#F93059"/>
</svg>
