<svg width="72" height="72" viewBox="0 0 72 72" fill="none" xmlns="http://www.w3.org/2000/svg">
<path fill-rule="evenodd" clip-rule="evenodd" d="M36 24C36 36.3534 29 46.527 20 47.8536V64V66H52V48.0914H42.5454C38.9306 48.0914 36 45.161 36 41.546C36 38.9868 37.4688 36.7706 39.6094 35.6944C39.3904 34.9558 39.2728 34.1738 39.2728 33.3642C39.2728 29.913 41.4096 26.961 44.4322 25.7588C44.2684 25.0474 44.1818 24.3068 44.1818 23.5458C44.1818 18.1232 48.5774 13.7276 54 13.7276C59.4224 13.7276 63.818 18.1232 63.818 23.5458C63.818 24.3066 63.7316 25.0474 63.5678 25.7586C66.5906 26.9608 68.7274 29.913 68.7274 33.3642C68.7274 34.1738 68.6098 34.956 68.3906 35.6944C70.5312 36.7706 72 38.9868 72 41.546C72 45.161 69.0696 48.0914 65.4546 48.0914H56V66H69C70.6568 66 72 67.3432 72 69C72 70.6568 70.6568 72 69 72H3C1.34314 72 0 70.6568 0 69C0 67.3432 1.34314 66 3 66H16V64V47.8536C7.0001 46.527 0 36.3534 0 24C0 10.7452 8.0588 0 18 0C27.9412 0 36 10.7452 36 24Z" fill="#F93059"/>
</svg>
