<svg width="52" height="57" viewBox="0 0 52 57" fill="none" xmlns="http://www.w3.org/2000/svg">
<path d="M40.9998 38.3144C40.9998 50.2436 33.4556 56.8286 25.9998 56.8286C18.5438 56.8286 10.9998 50.2436 10.9998 38.3144C10.9998 26.385 18.5438 12.0858 25.9998 12.0858C33.4556 12.0858 40.9998 26.385 40.9998 38.3144Z" fill="#F93059"/>
<path d="M30.4998 13.6286C30.4998 10.2202 28.485 7.45703 25.9998 7.45703C23.5144 7.45703 21.4998 10.2202 21.4998 13.6286C21.4998 17.037 23.5144 19.8 25.9998 19.8C28.485 19.8 30.4998 17.037 30.4998 13.6286Z" fill="#F93059"/>
<path fill-rule="evenodd" clip-rule="evenodd" d="M32.8556 1.39462C33.6476 0.624657 34.9138 0.642498 35.6838 1.43442L41.6838 7.60582C42.378 8.32002 42.441 9.43602 41.8318 10.2236C40.3434 12.148 38.9058 13.5726 37.0838 14.5742C35.2772 15.5672 33.2554 16.0538 30.7614 16.3828C29.6662 16.5274 28.6614 15.7568 28.517 14.6616C28.3724 13.5666 29.143 12.5616 30.2382 12.4172C32.5348 12.1142 33.9868 11.712 35.157 11.0688C35.9694 10.6222 36.726 10.0152 37.5606 9.10322L32.8158 4.22282C32.0458 3.43082 32.0636 2.16462 32.8556 1.39462ZM46.2886 10.248C47.3036 10.6836 47.7732 11.8596 47.3376 12.8746L44.6376 19.1648C44.4238 19.6626 44.0172 20.0526 43.5108 20.2452L35.7108 23.2122C34.6784 23.605 33.5232 23.0864 33.1304 22.054C32.7376 21.0216 33.2562 19.8662 34.2886 19.4736L41.2962 16.808L43.6618 11.2968C44.0976 10.2818 45.2736 9.81222 46.2886 10.248ZM51.1104 18.1366C52.029 18.75 52.2764 19.992 51.663 20.9106L47.463 27.2006C47.2322 27.5464 46.8994 27.8116 46.5108 27.9594L38.7108 30.9264C37.6784 31.3192 36.5232 30.8006 36.1304 29.7682C35.7376 28.7358 36.2562 27.5804 37.2886 27.1878L44.4914 24.448L48.3364 18.6894C48.9498 17.7708 50.1918 17.5232 51.1104 18.1366ZM37.6242 32.9912C38.0078 31.9554 39.1584 31.4266 40.1942 31.8102L39.4998 33.6856C40.1942 31.8102 40.1942 31.8102 40.1942 31.8102L40.199 31.812L40.2066 31.8148L40.2298 31.8236L40.3076 31.8534C40.3728 31.8786 40.4642 31.9148 40.5784 31.9614C40.8062 32.0544 41.1256 32.19 41.5066 32.365C42.2632 32.7126 43.2872 33.2276 44.325 33.8894C45.35 34.543 46.4682 35.3898 47.3496 36.4234C48.228 37.4534 48.9998 38.824 48.9998 40.4742C48.9998 42.8836 48.1234 45.5344 47.3534 47.4352C46.9556 48.417 46.559 49.2636 46.2614 49.8656C46.1122 50.1674 45.987 50.4096 45.8976 50.579C45.8528 50.6638 45.817 50.7304 45.7916 50.7772L45.7616 50.8326L45.7526 50.8486L45.7498 50.8538L45.7488 50.8556C45.7488 50.8556 45.748 50.857 43.9998 49.8856L45.7488 50.8556C45.2124 51.8212 43.994 52.1704 43.0284 51.634C42.0632 51.0978 41.7152 49.8808 42.2508 48.9154L42.2552 48.9076L42.2752 48.8708C42.2938 48.8366 42.3224 48.7834 42.3598 48.7126C42.4344 48.571 42.5436 48.3602 42.6756 48.093C42.9404 47.5572 43.2938 46.8028 43.646 45.9334C44.376 44.1312 44.9998 42.0764 44.9998 40.4742C44.9998 40.1188 44.834 39.638 44.306 39.019C43.7814 38.4036 43.0244 37.8042 42.1744 37.262C41.3372 36.728 40.4862 36.2982 39.8366 35.9996C39.5144 35.8516 39.248 35.7388 39.0656 35.6644C38.9746 35.6272 38.905 35.5996 38.8604 35.5824L38.8126 35.564L38.8052 35.5612C37.77 35.1774 37.2408 34.0268 37.6242 32.9912ZM19.1438 1.39462C18.352 0.624657 17.0858 0.642498 16.3158 1.43442L10.3158 7.60582C9.6216 8.32002 9.5584 9.43602 10.1678 10.2236C11.6562 12.148 13.0936 13.5726 14.9156 14.5742C16.7222 15.5672 18.7442 16.0538 21.2382 16.3828C22.3332 16.5274 23.338 15.7568 23.4826 14.6616C23.627 13.5666 22.8564 12.5616 21.7614 12.4172C19.4646 12.1142 18.0126 11.712 16.8424 11.0688C16.03 10.6222 15.2734 10.0152 14.4388 9.10322L19.1838 4.22282C19.9536 3.43082 19.9358 2.16462 19.1438 1.39462ZM5.7108 10.248C4.6958 10.6836 4.2262 11.8596 4.6618 12.8746L7.3618 19.1648C7.5756 19.6626 7.9822 20.0526 8.4886 20.2452L16.2886 23.2122C17.321 23.605 18.4764 23.0864 18.869 22.054C19.2618 21.0216 18.7432 19.8662 17.7108 19.4736L10.7032 16.808L8.3376 11.2968C7.9018 10.2818 6.7258 9.81222 5.7108 10.248ZM0.889203 18.1366C-0.0293972 18.75 -0.276998 19.992 0.336402 20.9106L4.5364 27.2006C4.7672 27.5464 5.1002 27.8116 5.4886 27.9594L13.2886 30.9264C14.321 31.3192 15.4764 30.8006 15.869 29.7682C16.2618 28.7358 15.7432 27.5804 14.7108 27.1878L7.5082 24.448L3.663 18.6894C3.0496 17.7708 1.8078 17.5232 0.889203 18.1366ZM14.3752 32.9912C13.9918 31.9554 12.841 31.4266 11.8052 31.8102L12.4998 33.6856C11.8052 31.8102 11.8052 31.8102 11.8052 31.8102L11.8004 31.812L11.7928 31.8148L11.7696 31.8236L11.6918 31.8534C11.6266 31.8786 11.5352 31.9148 11.4212 31.9614C11.1934 32.0544 10.8738 32.19 10.4928 32.365C9.7362 32.7126 8.7122 33.2276 7.6744 33.8894C6.6494 34.543 5.5314 35.3898 4.6498 36.4234C3.7714 37.4534 2.9998 38.824 2.9998 40.4742C2.9998 42.8836 3.876 45.5344 4.646 47.4352C5.0438 48.417 5.4404 49.2636 5.738 49.8656C5.8872 50.1674 6.0126 50.4096 6.1018 50.579C6.1466 50.6638 6.1824 50.7304 6.2078 50.7772L6.238 50.8326L6.2468 50.8486L6.2496 50.8538L6.2506 50.8556C6.2506 50.8556 6.2514 50.857 7.9998 49.8856L6.2506 50.8556C6.787 51.8212 8.0054 52.1704 8.971 51.634C9.9362 51.0978 10.2842 49.8808 9.7486 48.9154L9.7444 48.9076L9.7242 48.8708C9.7058 48.8366 9.677 48.7834 9.6398 48.7126C9.565 48.571 9.456 48.3602 9.3238 48.093C9.059 47.5572 8.7056 46.8028 8.3534 45.9334C7.6234 44.1312 6.9998 42.0764 6.9998 40.4742C6.9998 40.1188 7.1654 39.638 7.6934 39.019C8.2182 38.4036 8.975 37.8042 9.825 37.262C10.6622 36.728 11.5132 36.2982 12.1628 35.9996C12.485 35.8516 12.7514 35.7388 12.9338 35.6644C13.0248 35.6272 13.0944 35.5996 13.1392 35.5824L13.1868 35.564L13.1942 35.5612C14.2296 35.1774 14.7588 34.0268 14.3752 32.9912Z" fill="#F93059"/>
</svg>
