<svg width="72" height="72" viewBox="0 0 72 72" fill="none" xmlns="http://www.w3.org/2000/svg">
<path d="M71.4166 35.4166L36.1158 0L0.5881 35.4118C-0.19422 36.1916 -0.1963 37.458 0.58348 38.2404C1.36326 39.0226 2.62958 39.0248 3.4119 38.245L10 31.6784V69.8282C10 70.9328 10.8954 71.8282 12 71.8282H26C27.1046 71.8282 28 70.9328 28 69.8282V53.8286C28 51.6194 29.7908 49.8286 32 49.8286H40C42.2092 49.8286 44 51.6194 44 53.8286V69.8282C44 70.9328 44.8954 71.8282 46 71.8282H60C61.1046 71.8282 62 70.9328 62 69.8282V31.6352L68.5834 38.2404C69.3632 39.0226 70.6296 39.0248 71.4118 38.245C72.1942 37.4652 72.1962 36.1988 71.4166 35.4166Z" fill="#F93059"/>
</svg>
