<svg width="52" height="52" viewBox="0 0 52 52" fill="none" xmlns="http://www.w3.org/2000/svg">
<path fill-rule="evenodd" clip-rule="evenodd" d="M50.6527 43.0495L41.732 34.0869C41.2037 33.5796 40.5011 33.2966 39.7704 33.2966C39.0397 33.2966 38.3371 33.5796 37.8088 34.0869L36.9024 34.9975L30.0539 28.1161L34.0545 23.6282C34.6267 22.9932 34.9963 22.2004 35.1157 21.3523C35.377 21.394 35.6411 21.4158 35.9056 21.4176H36.3718C36.497 21.4177 36.621 21.4427 36.7366 21.4913C36.8521 21.5399 36.9568 21.611 37.0447 21.7006C37.1327 21.7902 37.2021 21.8964 37.2488 22.0131C37.2956 22.1298 37.3189 22.2547 37.3172 22.3805C37.316 23.0311 37.4436 23.6755 37.6925 24.2762C37.9414 24.8769 38.3067 25.4218 38.7671 25.8793L39.8029 26.933C40.2603 27.3949 40.804 27.7615 41.4028 28.0116C42.0016 28.2617 42.6437 28.3904 43.2922 28.3904C43.9407 28.3904 44.5827 28.2617 45.1815 28.0116C45.7803 27.7615 46.3241 27.3949 46.7814 26.933L50.3159 23.3819C50.7803 22.9111 51.1474 22.3526 51.3962 21.7387C51.6451 21.1248 51.7707 20.4675 51.7658 19.8047C51.7671 19.1521 51.6396 18.5057 51.3908 17.9029C51.1419 17.3001 50.7766 16.7529 50.3159 16.2928L49.5519 15.5252C49.0976 15.0657 48.557 14.7014 47.9614 14.4536C47.3658 14.2057 46.7271 14.0793 46.0825 14.0815C45.8321 14.0801 45.5925 13.9796 45.4155 13.8018C45.2385 13.624 45.1385 13.3832 45.1371 13.1317V12.6502C45.1394 12.0005 45.0135 11.3568 44.7668 10.7563C44.52 10.1558 44.1573 9.61028 43.6995 9.15138L42.1982 7.64236C41.272 6.71868 40.0202 6.19983 38.7151 6.19867H36.9934C34.4947 2.56917 31.4017 0.800144 27.5806 0.800144C25.2665 0.894371 22.9796 1.3372 20.7965 2.11384C20.5577 2.19011 20.3459 2.33407 20.1866 2.5284C20.0273 2.72273 19.9273 2.95916 19.8986 3.20925C19.8699 3.45933 19.9137 3.71242 20.0248 3.93808C20.1359 4.16374 20.3094 4.35237 20.5247 4.48125C24.4739 6.79705 29.6397 10.2574 28.9401 13.4047C28.8086 13.995 28.8 14.6061 28.9147 15.1999C28.0925 15.322 27.3256 15.689 26.7132 16.2536L22.2464 20.2731L16.3043 14.3023L17.9356 12.6502C18.1983 12.389 18.4069 12.078 18.5492 11.7353C18.6916 11.3926 18.7649 11.0249 18.7649 10.6535C18.7649 10.2822 18.6916 9.91449 18.5492 9.57177C18.4069 9.22904 18.1983 8.91809 17.9356 8.65687L10.1151 0.800144C9.57971 0.286563 8.86795 0 8.12774 0C7.38753 0 6.67579 0.286563 6.14043 0.800144L1.03966 5.91189C0.516691 6.44639 0.223643 7.1659 0.223643 7.91542C0.223643 8.66494 0.516691 9.38447 1.03966 9.91897L8.85954 17.7757C9.39159 18.3008 10.1076 18.595 10.8534 18.595C11.5992 18.595 12.3151 18.3008 12.8472 17.7757L14.4785 16.1367L20.3173 22.0029L15.7471 26.1139C15.5175 26.3515 15.3863 26.6679 15.38 26.999C15.3738 27.3302 15.4929 27.6513 15.7134 27.8976C15.9339 28.1438 16.2392 28.2967 16.5676 28.3254C16.896 28.3541 17.2229 28.2564 17.4824 28.0521L22.156 23.8503L24.0851 22.1074L28.4356 18.1918C28.7356 17.9106 29.1306 17.7542 29.5409 17.7542C29.9512 17.7542 30.3462 17.9106 30.6462 18.1918L32.1222 19.6747C32.4029 19.9738 32.5592 20.3693 32.5592 20.7803C32.5592 21.1914 32.4029 21.5869 32.1222 21.886L28.2119 26.27L26.4902 28.2082L10.3322 46.3282C9.91559 46.7964 9.40737 47.1731 8.83928 47.435C8.2712 47.6969 7.65545 47.8383 7.03054 47.8503C6.46698 47.8678 5.9059 47.7683 5.38241 47.5578C4.85893 47.3474 4.38431 47.0307 3.98829 46.6274L3.81989 46.4582C3.42164 46.0574 3.10754 45.5804 2.89623 45.0553C2.68491 44.5303 2.58069 43.9679 2.58972 43.4016C2.60417 42.773 2.74727 42.154 3.01014 41.5833C3.27301 41.0126 3.65003 40.5024 4.11768 40.0844L11.1352 33.7753C11.3898 33.5417 11.5421 33.2165 11.5591 32.8706C11.576 32.5247 11.4561 32.186 11.2256 31.9285C11.1118 31.8019 10.9742 31.6991 10.8208 31.626C10.6674 31.5528 10.5012 31.5108 10.3316 31.5023C10.162 31.4938 9.99243 31.519 9.83255 31.5765C9.67267 31.6339 9.52563 31.7224 9.39985 31.837L2.38297 38.1462C1.65348 38.807 1.06592 39.6105 0.656285 40.5074C0.246649 41.4044 0.0235585 42.3759 0.000654832 43.3625C-0.0119204 44.2752 0.156738 45.1814 0.496793 46.0279C0.836847 46.8744 1.34147 47.6443 1.98114 48.2926L2.14954 48.4618C3.43068 49.7379 5.16213 50.4532 6.96617 50.4516H7.05655C8.03863 50.4365 9.00694 50.2172 9.90049 49.8075C10.794 49.3978 11.5934 48.8066 12.2483 48.0711L28.3341 30.0497L35.0799 36.8273L34.1865 37.7248C33.9279 37.9843 33.7227 38.2925 33.5827 38.6318C33.4427 38.971 33.3706 39.3347 33.3706 39.7019C33.3706 40.0692 33.4427 40.4328 33.5827 40.7721C33.7227 41.1113 33.9279 41.4195 34.1865 41.679L43.0942 50.6286C43.5252 51.0622 44.0371 51.4061 44.6005 51.6407C45.1639 51.8753 45.7678 51.9961 46.3777 51.9961C46.9876 51.9961 47.5915 51.8753 48.1549 51.6407C48.7183 51.4061 49.2301 51.0622 49.6611 50.6286L50.6585 49.6272C51.5191 48.7505 52.0011 47.5684 52 46.3372C51.9989 45.1059 51.5148 43.9246 50.6527 43.0495ZM16.1105 10.8146L13.5598 13.3767L11.0091 15.9244C10.9929 15.9513 10.9702 15.9735 10.9429 15.989C10.9157 16.0044 10.885 16.0126 10.8537 16.0126C10.8224 16.0126 10.7917 16.0044 10.7644 15.989C10.7372 15.9735 10.7144 15.9513 10.6983 15.9244L2.87841 8.06763C2.84056 8.0217 2.81985 7.96394 2.81985 7.90432C2.81985 7.84469 2.84056 7.78693 2.87841 7.741L7.96682 2.62926C8.0082 2.58803 8.06394 2.56461 8.12222 2.56395C8.18443 2.56423 8.24437 2.58746 8.29062 2.62926L16.1105 10.4893C16.145 10.5364 16.1637 10.5934 16.1637 10.6519C16.1637 10.7104 16.145 10.7674 16.1105 10.8146ZM32.4752 16.3561L32.1261 15.9916C31.8569 15.7378 31.6553 15.4202 31.5399 15.0679C31.4245 14.7156 31.3989 14.3399 31.4655 13.975C32.3458 9.99474 28.7346 6.63895 24.3836 3.80316C25.4311 3.54895 26.5037 3.41377 27.5812 3.40011C30.7022 3.40011 33.1228 4.92155 35.2073 8.18653C35.3222 8.37273 35.4823 8.52653 35.6726 8.63349C35.8629 8.74045 36.0771 8.79706 36.2951 8.79798H38.7158C39.3369 8.80012 39.9322 9.04767 40.3731 9.48716L41.8621 10.9838C42.0812 11.2012 42.2547 11.4605 42.3725 11.7463C42.4903 12.0322 42.55 12.3389 42.548 12.6483V13.1304C42.5514 14.0712 42.925 14.9726 43.5872 15.6378C44.2495 16.303 45.1467 16.6782 46.0831 16.6815C46.3862 16.6792 46.6867 16.7379 46.9669 16.8541C47.2471 16.9704 47.5012 17.1418 47.7145 17.3582L48.4908 18.1389C48.9314 18.5956 49.1778 19.2066 49.1778 19.8426C49.1778 20.4786 48.9314 21.0896 48.4908 21.5463L44.9563 25.085C44.5117 25.5173 43.9171 25.759 43.2983 25.759C42.6796 25.759 42.085 25.5173 41.6404 25.085L40.5916 24.0443C40.3727 23.8239 40.1993 23.5621 40.0815 23.2741C39.9636 22.9861 39.9036 22.6775 39.905 22.3661C39.9055 21.8996 39.8144 21.4376 39.637 21.0066C39.4596 20.5755 39.1992 20.1838 38.8709 19.854C38.5426 19.5241 38.1528 19.2626 37.7237 19.0843C37.2947 18.906 36.8348 18.8145 36.3705 18.815H35.9043C35.2788 18.8151 34.6786 18.5672 34.234 18.1252C34.1306 18.0213 34.0389 17.9174 33.9499 17.826L32.4752 16.3561ZM48.8146 47.7961L47.8178 48.7976C47.4272 49.1673 46.9108 49.3733 46.3741 49.3733C45.8374 49.3733 45.321 49.1673 44.9303 48.7976L36.0064 39.8355C35.9751 39.7993 35.9578 39.7529 35.9578 39.7049C35.9578 39.6569 35.9751 39.6105 36.0064 39.5742L37.8192 37.7536L39.6319 35.9323C39.6485 35.9147 39.6688 35.9009 39.6912 35.8918C39.7137 35.8828 39.7378 35.8788 39.762 35.8801C39.7881 35.8776 39.8144 35.881 39.839 35.8901C39.8636 35.8991 39.886 35.9135 39.9043 35.9323L48.812 44.8819C49.1943 45.2694 49.409 45.7928 49.4096 46.3384C49.4102 46.8839 49.196 47.4078 48.8146 47.7961Z" fill="black"/>
</svg>
