<svg viewBox="0 0 66 66" fill="none" xmlns="http://www.w3.org/2000/svg">
<g filter="url(#filter0_d_4_463)">
<path opacity="0.1" fill-rule="evenodd" clip-rule="evenodd" d="M21.6774 11.8663L18.8786 14.6776L16.0798 17.4731C16.0621 17.5026 16.0371 17.5271 16.0073 17.544C15.9774 17.561 15.9436 17.5699 15.9093 17.5699C15.875 17.5699 15.8413 17.561 15.8114 17.544C15.7815 17.5271 15.7565 17.5026 15.7388 17.4731L7.15837 8.85221C7.11684 8.80182 7.09412 8.73844 7.09412 8.67302C7.09412 8.60759 7.11684 8.54421 7.15837 8.49382L12.7417 2.88489C12.7871 2.83965 12.8483 2.81396 12.9122 2.81323C12.9805 2.81354 13.0462 2.83904 13.097 2.88489L21.6774 11.5094C21.7153 11.5611 21.7358 11.6236 21.7358 11.6878C21.7358 11.7521 21.7153 11.8146 21.6774 11.8663ZM39.6338 17.9469L39.2507 17.5469C38.9553 17.2685 38.7342 16.92 38.6076 16.5334C38.4809 16.1468 38.4528 15.7345 38.5259 15.3342C39.4919 10.9668 35.5294 7.28457 30.7551 4.17297C31.9045 3.89404 33.0815 3.74571 34.2638 3.73073C37.6883 3.73073 40.3444 5.40014 42.6317 8.98268C42.7577 9.18699 42.9334 9.35575 43.1422 9.47311C43.3509 9.59047 43.586 9.65259 43.8252 9.6536H46.4814C47.1629 9.65595 47.8161 9.92758 48.2999 10.4098L49.9337 12.052C50.1741 12.2905 50.3645 12.5751 50.4938 12.8887C50.623 13.2024 50.6885 13.5389 50.6863 13.8784V14.4074C50.6901 15.4397 51.1 16.4287 51.8266 17.1587C52.5533 17.8886 53.5377 18.3003 54.5653 18.3039C54.8979 18.3014 55.2276 18.3658 55.535 18.4933C55.8424 18.6209 56.1213 18.8089 56.3552 19.0464L57.2071 19.903C57.6906 20.4041 57.9609 21.0746 57.9609 21.7724C57.9609 22.4703 57.6906 23.1407 57.2071 23.6418L53.3289 27.5247C52.8409 27.9991 52.1886 28.2643 51.5096 28.2643C50.8307 28.2643 50.1783 27.9991 49.6904 27.5247L48.5396 26.3828C48.2994 26.141 48.1092 25.8537 47.9799 25.5377C47.8506 25.2217 47.7848 24.8831 47.7862 24.5414C47.7868 24.0295 47.6869 23.5226 47.4922 23.0496C47.2975 22.5766 47.0118 22.1468 46.6516 21.7849C46.2913 21.423 45.8636 21.136 45.3928 20.9404C44.922 20.7448 44.4175 20.6443 43.908 20.6449H43.3965C42.7101 20.6451 42.0515 20.373 41.5637 19.888C41.4502 19.774 41.3496 19.66 41.2519 19.5597L39.6338 17.9469ZM57.5624 52.4448L56.4687 53.5436C56.0401 53.9494 55.4734 54.1753 54.8845 54.1753C54.2956 54.1753 53.729 53.9494 53.3003 53.5436L43.5085 43.7099C43.4741 43.6701 43.4552 43.6192 43.4552 43.5665C43.4552 43.5139 43.4741 43.463 43.5085 43.4232L45.4975 41.4255L47.4866 39.4271C47.5048 39.4077 47.527 39.3926 47.5516 39.3827C47.5763 39.3728 47.6028 39.3683 47.6293 39.3697C47.6579 39.3671 47.6868 39.3708 47.7138 39.3807C47.7408 39.3906 47.7653 39.4065 47.7855 39.4271L57.5595 49.2472C57.979 49.6723 58.2146 50.2466 58.2153 50.8452C58.216 51.4439 57.9809 52.0186 57.5624 52.4448Z" fill="#F93059"/>
<path fill-rule="evenodd" clip-rule="evenodd" d="M59.5793 47.2366L49.791 37.4022C49.2113 36.8457 48.4404 36.5351 47.6386 36.5351C46.8368 36.5351 46.0658 36.8457 45.4861 37.4022L44.4916 38.4014L36.977 30.8507L41.3668 25.9263C41.9946 25.2295 42.4001 24.3597 42.5311 23.429C42.8178 23.4748 43.1076 23.4988 43.3979 23.5007H43.9094C44.0468 23.5008 44.1829 23.5283 44.3096 23.5816C44.4364 23.6349 44.5513 23.7129 44.6478 23.8112C44.7443 23.9095 44.8204 24.0261 44.8717 24.1541C44.9231 24.2822 44.9486 24.4192 44.9468 24.5573C44.9454 25.2712 45.0854 25.9783 45.3585 26.6374C45.6317 27.2965 46.0325 27.8944 46.5377 28.3964L47.6742 29.5526C48.1761 30.0594 48.7727 30.4616 49.4297 30.736C50.0868 31.0105 50.7913 31.1517 51.5029 31.1517C52.2144 31.1517 52.9189 31.0105 53.576 30.736C54.233 30.4616 54.8296 30.0594 55.3315 29.5526L59.2097 25.6561C59.7192 25.1394 60.1221 24.5267 60.3951 23.8531C60.6682 23.1795 60.806 22.4583 60.8007 21.731C60.8021 21.0149 60.6622 20.3056 60.3891 19.6442C60.116 18.9828 59.7152 18.3823 59.2097 17.8775L58.3714 17.0352C57.8729 16.531 57.2797 16.1313 56.6262 15.8594C55.9727 15.5874 55.2719 15.4486 54.5645 15.4511C54.2899 15.4496 54.0269 15.3393 53.8327 15.1442C53.6385 14.9491 53.5287 14.6848 53.5272 14.4089V13.8806C53.5297 13.1677 53.3916 12.4614 53.1209 11.8025C52.8501 11.1435 52.4521 10.545 51.9498 10.0415L50.3025 8.38567C49.2861 7.37215 47.9126 6.80284 46.4806 6.80156H44.5915C41.8498 2.81905 38.4559 0.877968 34.2631 0.877968C31.7239 0.981359 29.2147 1.46726 26.8192 2.31943C26.5571 2.40312 26.3248 2.56109 26.15 2.77432C25.9752 2.98755 25.8655 3.24698 25.834 3.52139C25.8025 3.7958 25.8506 4.0735 25.9724 4.32111C26.0943 4.56872 26.2848 4.77569 26.5209 4.91711C30.8543 7.45815 36.5225 11.255 35.7549 14.7085C35.6106 15.3562 35.6012 16.0268 35.7271 16.6783C34.8248 16.8122 33.9834 17.215 33.3114 17.8345L28.4101 22.2449L21.8901 15.6934L23.68 13.8806C23.9683 13.594 24.1972 13.2528 24.3534 12.8767C24.5096 12.5007 24.59 12.0972 24.59 11.6897C24.59 11.2822 24.5096 10.8788 24.3534 10.5027C24.1972 10.1267 23.9683 9.78548 23.68 9.49886L15.0989 0.877968C14.5114 0.314435 13.7305 0 12.9183 0C12.1061 0 11.3251 0.314435 10.7377 0.877968L5.14078 6.48689C4.56695 7.07338 4.24539 7.86287 4.24539 8.68529C4.24539 9.5077 4.56695 10.2972 5.14078 10.8837L13.7212 19.5046C14.305 20.0807 15.0907 20.4035 15.909 20.4035C16.7273 20.4035 17.5129 20.0807 18.0967 19.5046L19.8867 17.7061L26.2934 24.143L21.2786 28.6537C21.0267 28.9145 20.8828 29.2617 20.8759 29.625C20.8691 29.9884 20.9998 30.3408 21.2417 30.6109C21.4836 30.8811 21.8186 31.0489 22.179 31.0804C22.5393 31.1119 22.8981 31.0047 23.1828 30.7805L28.3109 26.1701L30.4277 24.2576L35.2013 19.9612C35.5304 19.6526 35.9639 19.481 36.4141 19.481C36.8643 19.481 37.2978 19.6526 37.6269 19.9612L39.2464 21.5883C39.5544 21.9165 39.726 22.3504 39.726 22.8015C39.726 23.2525 39.5544 23.6865 39.2464 24.0147L34.9558 28.8251L33.0667 30.9518L15.3372 50.8342C14.88 51.3479 14.3223 51.7613 13.699 52.0486C13.0757 52.336 12.4 52.4911 11.7143 52.5043C11.096 52.5235 10.4803 52.4143 9.90592 52.1834C9.33151 51.9525 8.81074 51.605 8.3762 51.1625L8.19142 50.9769C7.75444 50.5371 7.40979 50.0136 7.17792 49.4375C6.94605 48.8614 6.8317 48.2443 6.8416 47.623C6.85745 46.9331 7.01447 46.254 7.30291 45.6278C7.59135 45.0016 8.00504 44.4417 8.51818 43.9831L16.2183 37.0603C16.4976 36.804 16.6647 36.4472 16.6833 36.0676C16.7019 35.6881 16.5704 35.3165 16.3174 35.0339C16.1925 34.895 16.0416 34.7822 15.8733 34.702C15.705 34.6217 15.5226 34.5756 15.3365 34.5663C15.1504 34.557 14.9643 34.5846 14.7889 34.6476C14.6135 34.7107 14.4521 34.8078 14.3141 34.9336L6.61474 41.8564C5.8143 42.5815 5.16959 43.4631 4.72012 44.4473C4.27064 45.4314 4.02585 46.4974 4.00072 47.58C3.98692 48.5815 4.17198 49.5758 4.54511 50.5046C4.91824 51.4335 5.47194 52.2783 6.17383 52.9896L6.35861 53.1753C7.76436 54.5755 9.66421 55.3604 11.6437 55.3586H11.7429C12.8205 55.3421 13.883 55.1014 14.8634 54.6519C15.8439 54.2023 16.721 53.5536 17.4396 52.7466L35.09 32.9724L42.4918 40.4092L41.5116 41.394C41.2278 41.6788 41.0026 42.0169 40.849 42.3892C40.6954 42.7614 40.6163 43.1604 40.6163 43.5634C40.6163 43.9664 40.6954 44.3654 40.849 44.7377C41.0026 45.1099 41.2278 45.4481 41.5116 45.7328L51.2856 55.5529C51.7586 56.0286 52.3202 56.4059 52.9384 56.6634C53.5566 56.9208 54.2192 57.0534 54.8885 57.0534C55.5577 57.0534 56.2203 56.9208 56.8385 56.6634C57.4567 56.4059 58.0183 56.0286 58.4913 55.5529L59.5857 54.454C60.53 53.4921 61.0588 52.195 61.0576 50.844C61.0564 49.493 60.5253 48.1968 59.5793 47.2366ZM21.6774 11.8664L18.8786 14.6777L16.0798 17.4732C16.0621 17.5027 16.0371 17.5271 16.0073 17.5441C15.9774 17.5611 15.9436 17.57 15.9093 17.57C15.875 17.57 15.8413 17.5611 15.8114 17.5441C15.7815 17.5271 15.7565 17.5027 15.7388 17.4732L7.15837 8.8523C7.11684 8.80191 7.09412 8.73853 7.09412 8.6731C7.09412 8.60768 7.11684 8.5443 7.15837 8.49391L12.7417 2.88498C12.7871 2.83974 12.8483 2.81405 12.9122 2.81332C12.9805 2.81363 13.0462 2.83913 13.097 2.88498L21.6774 11.5095C21.7153 11.5612 21.7358 11.6237 21.7358 11.6879C21.7358 11.7522 21.7153 11.8147 21.6774 11.8664ZM39.6338 17.947L39.2507 17.547C38.9553 17.2685 38.7342 16.92 38.6076 16.5335C38.4809 16.1469 38.4528 15.7346 38.5259 15.3343C39.4919 10.9668 35.5294 7.28466 30.7551 4.17306C31.9045 3.89413 33.0815 3.74579 34.2638 3.73082C37.6883 3.73082 40.3444 5.40023 42.6317 8.98276C42.7577 9.18708 42.9334 9.35584 43.1422 9.4732C43.3509 9.59056 43.586 9.65268 43.8252 9.65369H46.4814C47.1629 9.65604 47.8161 9.92767 48.2999 10.4099L49.9337 12.0521C50.1741 12.2906 50.3645 12.5751 50.4938 12.8888C50.623 13.2025 50.6885 13.539 50.6863 13.8785V14.4075C50.6901 15.4398 51.1 16.4288 51.8266 17.1588C52.5533 17.8887 53.5377 18.3004 54.5653 18.304C54.8979 18.3015 55.2276 18.3659 55.535 18.4934C55.8424 18.6209 56.1213 18.809 56.3553 19.0465L57.2071 19.9031C57.6906 20.4042 57.9609 21.0747 57.9609 21.7725C57.9609 22.4704 57.6906 23.1408 57.2071 23.6419L53.3289 27.5248C52.8409 27.9991 52.1886 28.2644 51.5096 28.2644C50.8307 28.2644 50.1783 27.9991 49.6904 27.5248L48.5396 26.3829C48.2994 26.1411 48.1092 25.8538 47.9799 25.5378C47.8506 25.2218 47.7848 24.8832 47.7862 24.5415C47.7868 24.0296 47.6869 23.5227 47.4922 23.0497C47.2975 22.5767 47.0118 22.1469 46.6516 21.785C46.2913 21.4231 45.8636 21.1361 45.3928 20.9405C44.922 20.7448 44.4175 20.6444 43.908 20.645H43.3965C42.7101 20.6451 42.0515 20.3731 41.5637 19.8881C41.4502 19.7741 41.3496 19.6601 41.2519 19.5598L39.6338 17.947ZM57.5624 52.4449L56.4687 53.5437C56.0401 53.9494 55.4734 54.1754 54.8845 54.1754C54.2956 54.1754 53.729 53.9494 53.3003 53.5437L43.5085 43.71C43.4741 43.6702 43.4552 43.6193 43.4552 43.5666C43.4552 43.514 43.4741 43.4631 43.5085 43.4233L45.4975 41.4256L47.4866 39.4272C47.5048 39.4078 47.527 39.3926 47.5516 39.3827C47.5763 39.3728 47.6028 39.3684 47.6293 39.3698C47.6579 39.3671 47.6868 39.3709 47.7138 39.3808C47.7408 39.3907 47.7653 39.4066 47.7855 39.4272L57.5595 49.2472C57.979 49.6724 58.2146 50.2467 58.2153 50.8453C58.216 51.444 57.9809 52.0187 57.5624 52.4449Z" fill="#F93059"/>
</g>
<defs>
<filter id="filter0_d_4_463" x="0" y="0" width="65.0576" height="65.0535" filterUnits="userSpaceOnUse" color-interpolation-filters="sRGB">
<feFlood flood-opacity="0" result="BackgroundImageFix"/>
<feColorMatrix in="SourceAlpha" type="matrix" values="0 0 0 0 0 0 0 0 0 0 0 0 0 0 0 0 0 0 127 0" result="hardAlpha"/>
<feOffset dy="4"/>
<feGaussianBlur stdDeviation="2"/>
<feComposite in2="hardAlpha" operator="out"/>
<feColorMatrix type="matrix" values="0 0 0 0 0 0 0 0 0 0 0 0 0 0 0 0 0 0 0.25 0"/>
<feBlend mode="normal" in2="BackgroundImageFix" result="effect1_dropShadow_4_463"/>
<feBlend mode="normal" in="SourceGraphic" in2="effect1_dropShadow_4_463" result="shape"/>
</filter>
</defs>
</svg>
