<svg viewBox="0 0 56 55" fill="none" xmlns="http://www.w3.org/2000/svg">
<g filter="url(#filter0_d_30_38)">
<path opacity="0.1" fill-rule="evenodd" clip-rule="evenodd" d="M18.5625 9.77544L16.2569 12.0914L13.9512 14.3943C13.9367 14.4186 13.9161 14.4387 13.8914 14.4527C13.8668 14.4666 13.839 14.474 13.8108 14.474C13.7825 14.474 13.7547 14.4666 13.7301 14.4527C13.7055 14.4387 13.6849 14.4186 13.6703 14.3943L6.60182 7.29245C6.5676 7.25094 6.54889 7.19873 6.54889 7.14483C6.54889 7.09093 6.5676 7.03872 6.60182 6.99721L11.2013 2.37663C11.2387 2.33936 11.2891 2.3182 11.3418 2.3176C11.398 2.31785 11.4522 2.33885 11.494 2.37663L18.5625 9.48139C18.5937 9.524 18.6105 9.57551 18.6105 9.62842C18.6105 9.68132 18.5937 9.73284 18.5625 9.77544ZM33.3548 14.7846L33.0392 14.4551C32.7958 14.2257 32.6137 13.9386 32.5094 13.6201C32.405 13.3017 32.3819 12.962 32.4421 12.6322C33.2378 9.03439 29.9736 6.00104 26.0406 3.43774C26.9875 3.20795 27.957 3.08576 28.931 3.07342C31.7521 3.07342 33.9402 4.44866 35.8244 7.39992C35.9282 7.56824 36.0729 7.70726 36.2449 7.80394C36.4169 7.90062 36.6105 7.95179 36.8076 7.95262H38.9957C39.5571 7.95456 40.0953 8.17832 40.4938 8.57558L41.8397 9.92838C42.0377 10.1249 42.1946 10.3593 42.3011 10.6177C42.4076 10.8761 42.4615 11.1533 42.4597 11.4329V11.8687C42.4628 12.7192 42.8005 13.5339 43.3991 14.1352C43.9977 14.7365 44.8087 15.0757 45.6552 15.0786C45.9291 15.0766 46.2008 15.1296 46.454 15.2347C46.7073 15.3398 46.937 15.4947 47.1297 15.6904L47.8315 16.396C48.2297 16.8088 48.4524 17.3611 48.4524 17.936C48.4524 18.5109 48.2297 19.0632 47.8315 19.476L44.6366 22.6747C44.2347 23.0654 43.6973 23.2839 43.1379 23.2839C42.5786 23.2839 42.0412 23.0654 41.6393 22.6747L40.6913 21.734C40.4934 21.5348 40.3367 21.2981 40.2302 21.0378C40.1236 20.7775 40.0694 20.4985 40.0706 20.2171C40.0711 19.7954 39.9888 19.3778 39.8284 18.9881C39.668 18.5985 39.4327 18.2444 39.1359 17.9463C38.8392 17.6481 38.4868 17.4117 38.099 17.2506C37.7111 17.0894 37.2955 17.0067 36.8758 17.0072H36.4544C35.889 17.0073 35.3464 16.7832 34.9446 16.3836C34.8511 16.2897 34.7682 16.1958 34.6877 16.1132L33.3548 14.7846ZM48.1242 43.2036L47.2232 44.1088C46.8701 44.443 46.4033 44.6292 45.9182 44.6292C45.433 44.6292 44.9662 44.443 44.6131 44.1088L36.5467 36.0079C36.5184 35.9751 36.5028 35.9332 36.5028 35.8898C36.5028 35.8464 36.5184 35.8045 36.5467 35.7717L38.1852 34.126L39.8238 32.4797C39.8388 32.4638 39.8571 32.4513 39.8774 32.4431C39.8977 32.435 39.9195 32.4313 39.9414 32.4325C39.965 32.4303 39.9887 32.4334 40.011 32.4415C40.0332 32.4497 40.0534 32.4627 40.0701 32.4797L48.1218 40.5694C48.4673 40.9197 48.6615 41.3927 48.662 41.8859C48.6626 42.379 48.4689 42.8525 48.1242 43.2036Z" fill="white"/>
<path fill-rule="evenodd" clip-rule="evenodd" d="M49.7857 38.9131L41.7221 30.8116C41.2446 30.3531 40.6095 30.0972 39.949 30.0972C39.2885 30.0972 38.6534 30.3531 38.1758 30.8116L37.3566 31.6347L31.1661 25.4145L34.7824 21.3579C35.2995 20.7838 35.6336 20.0673 35.7415 19.3006C35.9777 19.3383 36.2164 19.3581 36.4556 19.3597H36.877C36.9902 19.3597 37.1023 19.3824 37.2067 19.4263C37.3111 19.4702 37.4058 19.5345 37.4853 19.6155C37.5647 19.6964 37.6275 19.7924 37.6697 19.8979C37.712 20.0034 37.733 20.1163 37.7315 20.23C37.7304 20.8182 37.8457 21.4006 38.0707 21.9436C38.2957 22.4865 38.6259 22.9791 39.0421 23.3927L39.9784 24.3451C40.3918 24.7626 40.8833 25.094 41.4246 25.32C41.9658 25.5461 42.5462 25.6625 43.1324 25.6625C43.7186 25.6625 44.2989 25.5461 44.8402 25.32C45.3815 25.094 45.8729 24.7626 46.2864 24.3451L49.4812 21.1352C49.901 20.7096 50.2328 20.2048 50.4578 19.6499C50.6827 19.095 50.7962 18.5009 50.7918 17.9017C50.793 17.3118 50.6778 16.7276 50.4528 16.1827C50.2278 15.6378 49.8976 15.1431 49.4812 14.7273L48.7906 14.0334C48.38 13.6181 47.8913 13.2888 47.353 13.0648C46.8146 12.8408 46.2373 12.7264 45.6546 12.7285C45.4283 12.7272 45.2117 12.6364 45.0517 12.4756C44.8917 12.3149 44.8013 12.0972 44.8 11.8699V11.4347C44.8021 10.8475 44.6883 10.2656 44.4653 9.72276C44.2422 9.17992 43.9144 8.68686 43.5006 8.27206L42.1435 6.90803C41.3063 6.0731 40.1748 5.60411 38.9951 5.60306H37.4389C35.1803 2.32231 32.3845 0.723261 28.9304 0.723261C26.8387 0.808434 24.7716 1.20871 22.7982 1.91072C22.5824 1.97967 22.3909 2.1098 22.247 2.28546C22.103 2.46111 22.0126 2.67483 21.9866 2.90088C21.9607 3.12694 22.0003 3.35571 22.1007 3.55969C22.2011 3.76366 22.358 3.93417 22.5525 4.05067C26.1223 6.14395 30.7917 9.27176 30.1594 12.1167C30.0405 12.6503 30.0327 13.2027 30.1364 13.7394C29.3932 13.8497 28.7 14.1815 28.1464 14.6918L24.1088 18.3251L18.7377 12.9281L20.2122 11.4347C20.4497 11.1986 20.6382 10.9175 20.7669 10.6077C20.8956 10.2979 20.9618 9.96557 20.9618 9.62988C20.9618 9.2942 20.8956 8.96184 20.7669 8.65205C20.6382 8.34226 20.4497 8.06118 20.2122 7.82506L13.1431 0.723261C12.6592 0.259028 12.0159 0 11.3468 0C10.6777 0 10.0343 0.259028 9.55042 0.723261L4.93976 5.34384C4.46704 5.82698 4.20215 6.47736 4.20215 7.15486C4.20215 7.83235 4.46704 8.48275 4.93976 8.96589L12.0083 16.0677C12.4892 16.5423 13.1364 16.8082 13.8105 16.8082C14.4846 16.8082 15.1318 16.5423 15.6127 16.0677L17.0873 14.5861L22.365 19.8887L18.234 23.6047C18.0265 23.8195 17.9078 24.1055 17.9022 24.4048C17.8966 24.7041 18.0043 24.9944 18.2036 25.217C18.4028 25.4396 18.6788 25.5778 18.9757 25.6037C19.2725 25.6297 19.5681 25.5413 19.8026 25.3567L24.0271 21.5586L25.7709 19.9832L29.7033 16.4438C29.9745 16.1896 30.3315 16.0483 30.7024 16.0483C31.0733 16.0483 31.4304 16.1896 31.7015 16.4438L33.0357 17.7842C33.2894 18.0546 33.4307 18.4121 33.4307 18.7836C33.4307 19.1552 33.2894 19.5127 33.0357 19.783L29.5011 23.7458L27.9448 25.4978L13.3394 41.8767C12.9628 42.2999 12.5034 42.6404 11.9899 42.8772C11.4764 43.1139 10.9199 43.2417 10.355 43.2526C9.84559 43.2684 9.33842 43.1784 8.86524 42.9882C8.39205 42.798 7.96304 42.5117 7.60507 42.1472L7.45285 41.9942C7.09287 41.6319 6.80895 41.2007 6.61794 40.7261C6.42693 40.2515 6.33272 39.7432 6.34089 39.2313C6.35394 38.6631 6.48329 38.1036 6.72091 37.5877C6.95852 37.0718 7.29931 36.6106 7.72203 36.2328L14.0653 30.5299C14.2954 30.3188 14.4331 30.0249 14.4484 29.7122C14.4637 29.3995 14.3553 29.0934 14.147 28.8606C14.0441 28.7462 13.9198 28.6532 13.7811 28.5871C13.6424 28.521 13.4922 28.483 13.3389 28.4754C13.1856 28.4677 13.0323 28.4905 12.8878 28.5424C12.7433 28.5943 12.6103 28.6743 12.4967 28.7779L6.15399 34.4809C5.4946 35.0782 4.9635 35.8045 4.59323 36.6152C4.22295 37.426 4.02129 38.3041 4.00059 39.1959C3.98922 40.021 4.14168 40.84 4.44906 41.6052C4.75644 42.3704 5.21257 43.0663 5.79078 43.6523L5.943 43.8053C7.10104 44.9588 8.66612 45.6053 10.2968 45.6039H10.3785C11.2662 45.5902 12.1415 45.392 12.9492 45.0217C13.7569 44.6513 14.4795 44.1169 15.0714 43.4522L29.6116 27.1624L35.7092 33.2887L34.9017 34.1C34.6679 34.3346 34.4824 34.6131 34.3558 34.9198C34.2293 35.2264 34.1641 35.5552 34.1641 35.8871C34.1641 36.2191 34.2293 36.5478 34.3558 36.8544C34.4824 37.1611 34.6679 37.4397 34.9017 37.6742L42.9534 45.7639C43.343 46.1558 43.8057 46.4666 44.315 46.6787C44.8242 46.8908 45.3701 47 45.9214 47C46.4727 47 47.0186 46.8908 47.5278 46.6787C48.0371 46.4666 48.4998 46.1558 48.8894 45.7639L49.7909 44.8587C50.5688 44.0663 51.0045 42.9978 51.0035 41.8848C51.0025 40.7718 50.565 39.7041 49.7857 38.9131ZM18.5625 9.77543L16.2569 12.0913L13.9513 14.3942C13.9367 14.4186 13.9161 14.4387 13.8915 14.4527C13.8669 14.4666 13.8391 14.474 13.8108 14.474C13.7825 14.474 13.7547 14.4666 13.7301 14.4527C13.7055 14.4387 13.6849 14.4186 13.6703 14.3942L6.60183 7.29244C6.56762 7.25093 6.5489 7.19872 6.5489 7.14482C6.5489 7.09092 6.56762 7.03871 6.60183 6.9972L11.2013 2.37662C11.2387 2.33935 11.2891 2.31819 11.3418 2.31759C11.398 2.31784 11.4522 2.33884 11.494 2.37662L18.5625 9.48138C18.5937 9.52398 18.6106 9.5755 18.6106 9.62841C18.6106 9.68131 18.5937 9.73283 18.5625 9.77543ZM33.3548 14.7845L33.0392 14.4551C32.7959 14.2257 32.6137 13.9386 32.5094 13.6201C32.4051 13.3017 32.3819 12.962 32.4421 12.6322C33.2378 9.03438 29.9736 6.00103 26.0406 3.43773C26.9875 3.20794 27.957 3.08575 28.931 3.07341C31.7521 3.07341 33.9402 4.44865 35.8244 7.39991C35.9282 7.56823 36.0729 7.70724 36.2449 7.80393C36.4169 7.90061 36.6106 7.95178 36.8076 7.95261H38.9957C39.5571 7.95455 40.0953 8.17831 40.4938 8.57557L41.8397 9.92837C42.0377 10.1249 42.1946 10.3593 42.3011 10.6177C42.4076 10.8761 42.4615 11.1533 42.4597 11.4329V11.8687C42.4628 12.7192 42.8005 13.5339 43.3991 14.1352C43.9977 14.7365 44.8087 15.0757 45.6552 15.0786C45.9292 15.0766 46.2008 15.1296 46.454 15.2347C46.7073 15.3398 46.937 15.4947 47.1297 15.6904L47.8315 16.396C48.2298 16.8088 48.4525 17.3611 48.4525 17.936C48.4525 18.5109 48.2298 19.0632 47.8315 19.476L44.6366 22.6746C44.2347 23.0654 43.6973 23.2839 43.138 23.2839C42.5786 23.2839 42.0412 23.0654 41.6393 22.6746L40.6913 21.734C40.4934 21.5348 40.3367 21.2981 40.2302 21.0378C40.1237 20.7774 40.0694 20.4985 40.0707 20.217C40.0711 19.7954 39.9888 19.3778 39.8284 18.9881C39.668 18.5985 39.4327 18.2444 39.136 17.9463C38.8392 17.6481 38.4868 17.4117 38.099 17.2505C37.7112 17.0894 37.2955 17.0067 36.8758 17.0071H36.4544C35.889 17.0073 35.3464 16.7832 34.9446 16.3836C34.8511 16.2897 34.7683 16.1958 34.6877 16.1131L33.3548 14.7845ZM48.1242 43.2036L47.2232 44.1088C46.8701 44.443 46.4033 44.6292 45.9182 44.6292C45.4331 44.6292 44.9662 44.443 44.6131 44.1088L36.5467 36.0079C36.5184 35.9751 36.5028 35.9332 36.5028 35.8898C36.5028 35.8464 36.5184 35.8044 36.5467 35.7717L38.1852 34.126L39.8238 32.4797C39.8388 32.4638 39.8571 32.4513 39.8774 32.4431C39.8977 32.435 39.9195 32.4313 39.9414 32.4325C39.965 32.4303 39.9887 32.4333 40.011 32.4415C40.0333 32.4497 40.0535 32.4627 40.0701 32.4797L48.1218 40.5694C48.4674 40.9197 48.6615 41.3927 48.662 41.8859C48.6626 42.379 48.4689 42.8525 48.1242 43.2036Z" fill="white"/>
</g>
<defs>
<filter id="filter0_d_30_38" x="0" y="0" width="55.0035" height="55" filterUnits="userSpaceOnUse" color-interpolation-filters="sRGB">
<feFlood flood-opacity="0" result="BackgroundImageFix"/>
<feColorMatrix in="SourceAlpha" type="matrix" values="0 0 0 0 0 0 0 0 0 0 0 0 0 0 0 0 0 0 127 0" result="hardAlpha"/>
<feOffset dy="4"/>
<feGaussianBlur stdDeviation="2"/>
<feComposite in2="hardAlpha" operator="out"/>
<feColorMatrix type="matrix" values="0 0 0 0 0 0 0 0 0 0 0 0 0 0 0 0 0 0 0.25 0"/>
<feBlend mode="normal" in2="BackgroundImageFix" result="effect1_dropShadow_30_38"/>
<feBlend mode="normal" in="SourceGraphic" in2="effect1_dropShadow_30_38" result="shape"/>
</filter>
</defs>
</svg>
