<svg width="750" height="750" viewBox="0 0 750 750" fill="none" xmlns="http://www.w3.org/2000/svg">
<g filter="url(#filter0_d_3_166)">
<path fill-rule="evenodd" clip-rule="evenodd" d="M67.1752 593.05C-12.0938 508.433 169.917 437.977 139.111 318.795C108.306 199.613 40.7419 64.9494 327.5 124.611C467.416 153.721 558.916 149.885 634.929 197.128C716.76 247.988 575.273 347.16 686.628 490.677C810.595 650.448 146.444 677.666 67.1752 593.05Z" fill="#64FCD9"/>
<path d="M188.125 541.213C185.995 534.516 158.895 544.962 149.348 546.347C146.797 546.717 158.515 253.128 168.062 185.112C168.703 180.543 171.971 174.456 176.112 176.519C181.97 179.439 188.836 179.254 195.382 179.02C313.768 174.796 432.349 175.991 550.625 182.599C554.623 182.823 558.956 183.185 561.934 185.851C564.776 188.394 565.669 192.403 566.386 196.141C580.037 267.381 581.829 490.418 576.527 562.752C572.504 562.72 545.418 557.762 545.418 557.762C545.418 557.762 195.382 530.418 188.125 541.213Z" fill="white"/>
<path fill-rule="evenodd" clip-rule="evenodd" d="M347.939 409.653C343.002 463.045 337.573 516.392 331.651 569.685C331.492 571.113 330.923 572.938 329.481 572.956C248.284 573.969 167.064 573.153 85.9043 570.508C85.0443 570.48 84.1057 570.422 83.4684 569.846C82.641 569.098 82.6665 567.818 82.7554 566.709C87.1887 511.409 91.6221 456.108 96.0554 400.808C97.0143 399.653 98.7157 399.53 100.22 399.497C180.206 397.752 260.255 396.007 340.196 399.217C342.076 399.293 344.079 399.412 345.6 400.515C348.277 402.455 348.243 406.369 347.939 409.653Z" fill="white"/>
<g filter="url(#filter1_d_3_166)">
<path fill-rule="evenodd" clip-rule="evenodd" d="M520.522 235.387C521.788 236.358 522.277 238.007 522.687 239.545C536.24 290.372 542.615 343.093 541.567 395.672C541.445 401.785 541.553 408.721 546.074 412.855C549.21 354.942 542.816 296.528 527.225 240.649C525.765 235.417 529.773 230.381 533.491 226.411L559.597 198.531C571.864 246.984 575.415 297.01 575.376 347.109C573.152 351.067 570.969 355.05 569.228 359.187C565.178 368.81 563.535 379.282 562.776 389.697C559.913 429.02 569.241 468.347 582.87 505.339C583.576 507.255 584.364 509.265 585.968 510.525C587.536 511.755 589.616 512.06 591.594 512.295C610.943 514.604 630.583 514.457 649.895 511.861C651.588 511.633 653.385 511.339 654.659 510.2C655.804 509.176 656.327 507.643 656.787 506.176C666.401 475.478 667.938 442.914 669.265 410.771C670.063 391.431 670.372 370.512 659.224 354.697C657.283 351.944 655.037 349.422 652.793 346.902C650.172 343.959 647.553 341.018 645.422 337.712C641.034 330.904 638.902 322.666 639.435 314.582C639.909 307.391 631.451 303.209 624.358 301.979C624.009 301.918 623.66 301.86 623.309 301.805C623.436 299.525 623.563 297.933 623.689 297.895C629.717 296.068 635.512 293.482 640.89 290.211C643.833 288.422 647.032 285.118 645.443 282.068C644.147 279.578 640.628 279.452 637.877 280.04C633.448 280.987 629.229 282.898 625.601 285.601C627.54 276.947 631.723 268.801 637.632 262.172C635.217 265.944 638.537 271.658 643.018 271.926C647.499 272.195 651.412 267.631 650.991 263.176C652.788 266.821 657.779 268.48 661.412 266.641C665.044 264.801 666.643 259.804 664.75 256.207C667.639 259.026 673.027 258.62 675.416 255.369C677.805 252.118 676.526 246.829 672.891 245.067C675.318 245.303 677.859 245.523 680.114 244.598C682.368 243.672 684.186 241.199 683.505 238.866C683.085 237.43 681.859 236.387 680.624 235.538C676.743 232.869 672.148 231.243 667.447 230.875C668.852 229.534 670.523 228.533 672.196 227.53C673.632 226.67 675.069 225.808 676.341 224.731C679.094 222.398 680.957 218.181 678.888 215.228C677.397 213.102 674.372 212.523 671.852 213.167C669.331 213.811 667.192 215.429 665.129 217.009L667.997 207.056C668.67 204.722 669.259 201.946 667.698 200.082C665.508 197.467 661.046 199.017 658.877 201.65C658.011 202.702 657.308 203.887 656.607 205.069C655.553 206.847 654.504 208.617 652.912 209.909C652.819 207.092 652.695 204.155 651.333 201.685C649.971 199.215 646.962 197.401 644.297 198.345C642.351 199.035 641.126 200.938 640.25 202.803C637.505 208.644 636.754 215.394 638.148 221.692C634.677 218.951 630.03 217.442 625.728 218.487C621.425 219.532 617.778 223.506 617.889 227.918C618 232.331 622.57 236.316 626.851 235.185C623.782 236.098 620.602 237.073 618.229 239.218C615.857 241.362 614.552 245.04 616.102 247.834C618.13 251.49 623.357 251.545 627.45 250.648C632.636 249.512 637.656 247.625 642.304 245.066L634.753 258.06C629.106 267.777 621.779 283.206 619.69 301.329C613.333 300.676 606.859 301.02 600.954 303.357C593.594 306.271 587.298 312.766 586.32 320.628C585.611 326.331 583.56 331.616 581.008 336.755C580.028 290.25 575.141 243.827 566.386 198.137C565.669 194.399 564.776 190.39 561.934 187.847C558.956 185.181 554.623 184.819 550.625 184.595C432.349 177.987 313.768 176.792 195.382 181.016C188.836 181.25 181.97 181.435 176.112 178.516C171.971 176.452 168.703 182.54 168.062 187.108C158.515 255.124 152.267 323.6 149.348 392.217C149.25 394.52 150.568 397.858 152.657 396.867C156.077 326.156 163.088 255.617 173.652 185.61L193.598 213.731C195.022 215.738 196.51 217.962 196.346 220.414L186.59 365.794C185.994 374.676 185.426 383.803 188.125 392.289C194.35 337.367 198.433 282.204 200.362 226.967C200.498 223.063 205.597 221.736 209.514 221.545C311.906 216.575 414.411 225.423 516.54 234.263C517.935 234.384 519.413 234.536 520.522 235.387ZM619.457 303.607C611.825 302.791 603.841 305.348 596.864 308.888C594.261 310.208 591.36 312.307 591.604 315.218C591.854 318.207 595.221 319.778 598.126 320.515C608.725 323.205 620.066 322.902 630.507 319.65C633.116 318.837 636.06 317.39 636.475 314.685C636.951 311.584 633.826 309.24 631.075 307.735C629.081 306.644 627.061 305.579 624.916 304.826C624.342 304.625 623.764 304.448 623.182 304.293C623.124 305.496 623.066 306.782 623.009 308.068C622.781 313.14 622.552 318.219 622.324 318.284C621.38 318.55 620.432 318.798 619.479 319.027C618.974 313.738 619.012 308.579 619.457 303.607ZM569.167 366.753C570.652 361.907 572.888 357.35 575.356 352.888C575.249 370.359 574.73 387.83 574.016 405.24C573.851 409.245 574.959 414.701 578.981 414.733C580.734 390.822 581.443 366.836 581.114 342.863C584.69 336.577 587.937 330.186 589.366 323.136C604.538 327.983 621.457 327.119 636.058 320.752C637.5 328.094 640.404 335.146 644.551 341.373C646.636 344.503 649.033 347.431 651.426 350.355C655.215 354.984 658.995 359.604 661.518 365C665.276 373.039 665.927 382.144 666.242 391.015C667.553 427.995 664.029 465.144 655.788 501.215C655.066 504.378 653.655 508.159 650.443 508.592C631.523 511.143 612.306 511.476 593.309 509.583C591.361 509.389 589.277 509.111 587.824 507.799C586.49 506.594 585.96 504.757 585.49 503.021C575.107 464.672 564.635 425.574 566.375 385.88C566.658 379.425 567.275 372.93 569.167 366.753ZM405.827 182.994L557.266 190.368C547.823 202.398 537.951 214.092 527.673 225.423C523.823 229.668 517.24 229.625 511.511 229.247C493.999 228.093 476.479 226.83 458.954 225.567H458.953H458.952H458.951H458.949H458.948H458.947H458.945H458.944H458.943H458.942L458.941 225.566H458.94H458.939H458.938H458.936H458.935H458.934H458.932C374.156 219.457 289.263 213.339 204.581 219.382C202.61 219.523 201.184 217.615 200.163 215.93L180.676 183.774C241.496 186.189 302.432 185.727 363.209 182.391C377.401 181.612 391.629 182.303 405.827 182.994ZM357.681 245.622C360.195 244.562 362.807 243.475 365.535 243.571C367.757 243.65 369.866 244.51 371.923 245.351C408.14 260.175 445.092 273.214 482.601 284.404C488.269 286.095 489.831 293.213 490.415 299.079L501.928 414.641C504.401 414.372 504.844 411.002 504.605 408.535L493.066 289.527C494.939 289.245 496.76 290.036 498.517 290.8C498.63 290.849 498.742 290.897 498.855 290.946L499.002 291.009L499.125 291.062C501.069 291.89 503.371 292.532 505.229 291.526C507.086 290.521 507.4 287.176 505.372 286.58C460.168 273.305 415.425 258.475 371.248 242.126C369.38 241.435 367.461 240.732 365.469 240.742C363.587 240.752 361.774 241.398 360.004 242.036L221.73 291.911C221.11 294.509 225.233 295.472 227.676 294.372C228.048 294.205 228.429 294.02 228.816 293.833C230.97 292.791 233.299 291.664 235.181 292.932C232.106 323.445 229.525 354.006 227.44 384.601C227.243 387.49 228.126 391.535 231.024 391.317L238.321 295.487C238.529 292.756 239.18 289.431 241.796 288.589C281.033 275.971 319.711 261.63 357.681 245.622ZM443.343 534.202C445.332 534.169 447.833 533.762 448.354 531.848C447.509 530.242 445.329 530.026 443.509 530.015L361.571 529.528C354.175 529.484 346.642 529.459 339.576 531.638C340.063 533.292 342.218 533.648 343.948 533.694C377.071 534.587 410.213 534.756 443.343 534.202ZM357.843 546.868C351.353 546.791 344.767 546.7 338.537 544.886C372.939 543.71 407.377 543.594 441.786 544.54C444.711 544.621 447.858 544.785 450.161 546.585C449.693 547.77 448.111 547.945 446.832 547.93L357.843 546.868ZM441.635 499.157C410.676 500.349 379.634 499.376 348.812 496.247C346.712 496.034 343.859 496.349 343.548 498.429C376.993 502.426 410.749 503.834 444.412 502.637C444.867 500.974 443.364 499.09 441.635 499.157ZM417.407 381.453C418.833 382.698 419.116 384.765 419.307 386.645L426.197 454.657C432.482 454.443 438.803 455.327 444.786 457.258L426.754 460.437C430.996 466.917 434.286 474.016 436.484 481.437C409.768 481.204 383.059 480.194 356.401 478.407C354.849 478.303 353.096 478.093 352.166 476.85C351.026 475.328 351.757 473.181 352.523 471.443L357.647 459.827C358.463 457.978 355.567 456.691 353.576 457.071C353.384 457.108 353.188 457.147 352.988 457.188C351.112 457.566 348.953 458.002 347.885 456.518C346.229 454.215 350.006 451.666 352.832 451.976C353.375 452.036 353.939 452.125 354.509 452.215C356.903 452.592 359.406 452.986 360.972 451.313C361.938 427.993 364.109 404.724 367.474 381.626C367.608 380.708 367.794 379.699 368.524 379.121C369.184 378.599 370.102 378.585 370.946 378.596C384.877 378.776 398.803 379.281 412.711 380.108C414.369 380.207 416.158 380.362 417.407 381.453ZM412.345 383.588C399.636 382.441 386.897 381.61 374.146 381.097C373.05 381.053 371.848 381.044 370.996 381.731C370.08 382.468 369.874 383.754 369.736 384.919C367.173 406.52 365.55 428.231 364.873 449.972C364.847 450.781 364.868 451.701 365.472 452.243C365.933 452.658 366.603 452.722 367.223 452.765C384.49 453.969 401.791 454.7 419.098 454.957C419.886 454.968 420.767 454.944 421.325 454.389C421.931 453.786 421.904 452.816 421.835 451.966L416.596 387.393C416.53 386.567 416.447 385.698 415.968 385.022C415.194 383.928 413.683 383.709 412.345 383.588ZM424.995 463.466C424.555 462.683 424.07 461.874 423.3 461.408C422.545 460.952 421.624 460.89 420.743 460.839L367.688 457.779C366.051 457.685 364.276 457.627 362.93 458.559C361.842 459.311 361.246 460.571 360.698 461.772L355.976 472.114C355.698 472.724 355.425 473.459 355.778 474.029C356.129 474.594 356.903 474.684 357.57 474.713L431.396 477.997C429.742 472.962 427.595 468.088 424.995 463.466ZM336.027 294.104C336.967 297.555 338.918 300.685 341.372 303.294C349.365 311.794 363.057 314.312 373.599 309.275C384.141 304.239 390.737 292.078 389.255 280.524C387.773 268.97 378.367 258.874 366.926 256.474C360.306 255.086 353.235 257.408 348.027 261.709C342.818 266.011 339.332 272.104 337.202 278.501C335.529 283.524 334.637 288.996 336.027 294.104ZM383.281 282.178C377.651 282.669 371.989 282.783 366.344 282.518C365.871 282.496 365.366 282.46 364.991 282.171C364.423 281.735 364.375 280.915 364.376 280.2L364.396 265.551C364.397 264.6 364.429 263.562 365.051 262.84C366.275 261.42 368.605 262.29 370.138 263.373C376.52 267.878 381.254 274.651 383.281 282.178ZM345.559 283.536C345.135 283.57 344.685 283.6 344.306 283.408C343.317 282.907 343.536 281.451 343.946 280.425C347.159 272.386 353.194 265.498 360.755 261.241L360.807 280.851C360.808 281.282 360.79 281.761 360.485 282.065C360.212 282.336 359.793 282.383 359.409 282.414L345.559 283.536ZM343.774 292.922C342.789 291.347 342.23 288.816 343.912 288.022C344.468 287.759 345.115 287.802 345.729 287.85L358.183 288.832C359.373 288.926 360.74 289.122 361.369 290.133C361.703 290.668 361.749 291.326 361.786 291.955L362.406 302.424C362.442 303.038 362.449 303.734 362.009 304.166C361.515 304.652 360.708 304.562 360.03 304.411C353.374 302.925 347.381 298.69 343.774 292.922ZM365.142 302.546L364.736 291.958C364.707 291.202 364.721 290.339 365.288 289.835C365.797 289.383 366.556 289.399 367.237 289.441L382.165 290.359C378.906 295.654 374.275 300.103 368.846 303.155C367.528 303.896 365.2 304.052 365.142 302.546ZM276.463 270.71C273.832 269.054 273.963 265.256 274.406 262.188L276.197 249.813C276.508 247.658 277.77 244.828 279.876 245.405C281.679 245.899 281.785 248.379 281.507 250.221L279.268 265.038C278.941 267.204 278.404 269.68 276.463 270.71ZM218.988 458.507C219.266 457.289 219.785 456.006 220.881 455.398C222.559 454.466 224.781 455.676 225.616 457.4C226.45 459.125 226.288 461.141 226.107 463.047C225.964 464.556 225.797 466.135 224.95 467.394C224.104 468.653 222.344 469.442 221.014 468.707C220.155 468.233 219.693 467.275 219.381 466.348C218.535 463.836 218.398 461.091 218.988 458.507ZM255.275 227.372C252.211 228.936 252.004 233.144 252.218 236.567C252.344 238.582 252.704 240.966 254.525 241.851C255.229 242.193 256.035 242.235 256.817 242.269C265.062 242.629 273.317 242.744 281.568 242.613C282.718 242.595 283.937 242.552 284.897 241.923C286.446 240.909 286.749 238.812 286.906 236.973C287.072 235.037 287.23 233.039 286.617 231.195C286.004 229.351 284.41 227.686 282.462 227.615L259.727 226.78C258.213 226.724 256.623 226.684 255.275 227.372ZM257.308 239.19C256.684 238.829 256.513 238.025 256.403 237.314C256.049 235.022 256.002 232.091 258.085 231.056C258.909 230.646 259.874 230.67 260.795 230.703L275.447 231.226C277.411 231.297 279.481 231.398 281.136 232.453C282.792 233.508 283.779 235.87 282.674 237.489C281.679 238.946 279.626 239.115 277.857 239.139L258.585 239.403C258.148 239.409 257.686 239.409 257.308 239.19ZM154.689 452.937C157.909 458.281 155.5 465.078 153.261 470.899C149.284 481.236 146.071 493.042 150.713 503.101C151.765 505.381 153.097 508.355 151.277 510.09C145.294 504.483 143.869 495.405 145.083 487.311C145.906 481.821 147.748 476.571 149.592 471.318V471.317L149.593 471.316V471.315V471.314V471.313L149.594 471.312C150.468 468.822 151.342 466.332 152.108 463.814C152.795 461.554 153.399 459.145 152.819 456.856C152.068 453.896 149.464 451.732 146.685 450.446C141.604 448.095 134.995 448.295 130.985 452.192C126.975 456.09 127.247 463.915 132.209 466.506C134.368 467.633 137.289 467.54 138.997 465.808C140.706 464.076 140.465 460.671 138.274 459.608C141.205 458.897 144.173 461.366 145.002 464.255C145.832 467.145 145.058 470.239 144.061 473.076C143.21 475.498 142.193 477.879 141.177 480.258C138.961 485.442 136.75 490.617 136.276 496.189C135.66 503.421 138.04 510.484 140.37 517.403C140.611 518.116 140.85 518.828 141.086 519.538C141.645 521.22 142.1 523.31 140.848 524.57C133.88 516.98 131.965 505.828 133.402 495.643C134.839 485.458 139.224 475.953 143.558 466.617C142.389 466.715 141.376 467.336 140.361 467.958C139.937 468.217 139.514 468.477 139.078 468.699C133.83 471.375 126.729 467.688 125.136 462.032C123.544 456.377 126.933 450.034 132.175 447.345C137.417 444.656 143.967 445.285 149.164 448.059C151.36 449.231 153.407 450.809 154.689 452.937ZM264.082 245.336C263.664 244.168 262.585 243.14 261.341 243.188C259.17 243.273 258.426 246.076 258.296 248.236L257.004 269.611C256.924 270.946 256.887 272.424 257.746 273.451C258.604 274.479 260.693 274.393 260.94 273.079C262.436 265.117 263.554 257.085 264.288 249.019C264.401 247.784 264.499 246.504 264.082 245.336ZM176.138 528.284C172.872 528.717 170.73 532.403 171.233 535.647C171.736 538.891 174.282 541.524 177.209 543.031C177.974 543.426 177.629 544.734 176.82 545.031C176.012 545.329 175.119 544.945 174.384 544.497C171.199 542.556 168.93 539.187 168.332 535.515C167.957 533.208 168.291 530.648 169.861 528.911C171.43 527.174 174.439 526.672 176.138 528.284ZM258.736 478.586V478.587C257.737 481.767 256.737 484.948 255.999 488.194C252.482 503.66 255.05 519.855 258.975 535.224C259.995 539.218 255.534 543.148 251.451 542.485C247.368 541.822 244.458 537.765 244.058 533.663C244.014 533.211 243.993 532.752 243.972 532.292C243.913 530.985 243.854 529.676 243.26 528.528C242.459 526.976 240.091 526.079 238.96 527.412C241.453 532.019 243.299 539.023 238.626 541.414C234.152 543.702 229.388 538.417 228.241 533.538C227.525 530.491 225.2 526.22 222.622 528.009C223.605 529.727 224.363 531.584 225.118 533.435C226.371 536.504 227.617 539.559 229.877 541.945C233.5 545.77 241.507 545.969 242.785 540.866C245.538 543.125 248.716 545.06 252.252 545.523C255.788 545.986 259.72 544.696 261.617 541.687C263.983 537.932 262.592 533.112 261.352 528.815L261.23 528.394C257.416 515.137 257.002 500.923 260.038 487.467C260.692 484.568 261.503 481.7 262.314 478.834L262.315 478.833V478.832V478.831L262.316 478.83C263.717 473.878 265.117 468.931 265.703 463.829C266.801 454.277 264.921 444.406 260.388 435.917C259.15 433.598 255.46 434.021 253.58 435.863C252.379 437.04 251.626 438.549 250.87 440.064C250.443 440.92 250.014 441.779 249.504 442.58C248.09 444.797 245.374 446.707 242.944 445.689C238.889 443.99 234.431 444.315 229.974 444.639H229.972H229.971H229.969C228.281 444.762 226.593 444.886 224.926 444.898C218.86 444.945 211.636 442.323 210.577 436.371C210.119 433.8 206.439 432.981 204.229 434.384C202.018 435.787 201.023 438.455 200.325 440.972C197.078 452.692 197.213 465.322 200.712 476.969C201.826 480.679 196.823 482.967 193.039 483.854C166.813 490.001 145.022 512.008 139.21 538.217C138.833 539.917 139.671 542.61 141.237 541.838C146.609 514.293 170.263 491.236 198.022 486.484C201.515 485.886 203.723 482.18 203.993 478.659C204.206 475.89 203.536 473.165 202.869 470.451C202.688 469.713 202.507 468.976 202.344 468.239C200.072 457.975 201.33 446.969 205.861 437.477C210.328 439.76 213.503 444.383 214.018 449.359C223.819 447.329 234.058 447.426 243.819 449.641C247.271 450.424 249.249 447.213 251.31 443.868C253.2 440.798 255.161 437.616 258.393 437.3C262.493 446.45 263.747 456.843 261.942 466.701C261.202 470.741 259.969 474.663 258.736 478.586ZM245.96 484.054L240.692 481.565C239.248 480.884 237.758 480.167 236.729 478.95C242.068 478.692 247.481 480.504 251.581 483.921C250.441 485.623 247.815 484.93 245.96 484.054ZM210.936 544.521C210.652 540.514 210.164 536.521 209.477 532.563C209.202 530.983 208.833 529.293 207.642 528.214C206.452 527.136 204.172 527.166 203.538 528.639C206.377 529.925 207.305 533.482 207.408 536.588C207.427 537.157 207.431 537.733 207.436 538.312C207.456 540.89 207.477 543.509 208.769 545.696C209.024 546.127 209.404 546.574 209.906 546.57C210.771 546.563 210.997 545.381 210.936 544.521ZM226.571 473.101C223.446 475.131 219.735 476.252 216.005 476.294C214.801 476.307 213.394 476.09 212.812 475.04C216.931 472.695 221.96 471.987 226.571 473.101ZM239.633 460.244C239.193 462.164 239.408 464.226 240.233 466.016C240.842 467.334 242.323 468.639 243.599 467.939C244.153 467.635 244.466 467.034 244.71 466.452C245.533 464.491 245.939 462.357 245.893 460.232C245.867 459.05 245.627 457.737 244.673 457.034C242.767 455.63 240.161 457.941 239.633 460.244ZM466.895 312.369C468.202 313.533 468.388 315.47 468.486 317.213L470.676 356.331C470.825 358.984 470.136 362.611 467.469 362.666L409.022 363.856C408.099 363.875 407.096 363.868 406.367 363.304C405.483 362.619 405.32 361.373 405.227 360.261L401.902 320.516C401.695 318.049 402.142 314.713 404.606 314.397C423.766 311.934 443.106 310.865 462.422 311.203C463.998 311.231 465.72 311.322 466.895 312.369ZM438.403 321.086C438.541 320.12 438.636 319.007 437.966 318.295C437.328 317.616 436.27 317.6 435.336 317.633L409.212 318.541C408.664 318.56 408.063 318.601 407.668 318.98C407.171 319.456 407.215 320.246 407.295 320.928L408.78 333.63C409.035 335.81 410.259 338.706 412.386 338.133C419.582 336.194 427.118 335.515 434.546 336.135C435.861 336.245 436.478 334.574 436.664 333.273L438.403 321.086ZM435.576 354.531L436.219 343.566C436.264 342.786 436.276 341.91 435.737 341.344C435.261 340.845 434.507 340.753 433.818 340.701C426.34 340.128 418.785 340.566 411.425 341.999C410.974 342.087 410.5 342.19 410.16 342.499C409.591 343.015 409.601 343.894 409.653 344.659L410.428 355.95C410.508 357.115 410.704 358.473 411.728 359.043C412.389 359.41 413.2 359.321 413.95 359.222L433.882 356.586C434.26 356.536 434.656 356.479 434.959 356.249C435.461 355.868 435.539 355.159 435.576 354.531ZM441.474 319.811L440.654 333.112C440.617 333.702 440.602 334.359 440.988 334.808C441.468 335.365 442.325 335.342 443.059 335.273L462 333.483C462.509 333.435 463.057 333.37 463.433 333.024C463.874 332.617 463.938 331.957 463.973 331.359L464.721 318.602C464.75 318.108 464.76 317.558 464.432 317.188C464.053 316.761 463.397 316.758 462.825 316.789L443.615 317.831C442.98 317.866 442.27 317.936 441.863 318.422C441.548 318.797 441.504 319.323 441.474 319.811ZM463.684 354.519C464.739 353.502 464.727 351.842 464.64 350.382L464.15 342.072C464.068 340.673 463.503 338.82 462.1 338.924L443.042 340.344C442.328 340.397 441.524 340.497 441.093 341.067C440.768 341.496 440.752 342.075 440.75 342.613L440.697 353.586C440.694 354.246 440.718 354.978 441.174 355.457C441.614 355.919 442.315 355.995 442.953 356.037C448.859 356.421 454.801 356.266 460.679 355.576C461.754 355.449 462.906 355.269 463.684 354.519ZM233.887 470.251C232.256 469.431 230.062 469.969 229 471.45C227.785 473.144 228.301 475.811 230.061 476.933C231.821 478.056 234.468 477.407 235.504 475.598C236.539 473.789 235.753 471.189 233.887 470.251ZM254.202 473.548C255.174 474.36 253.579 475.685 252.322 475.858C247.615 476.505 242.756 476.037 238.261 474.502C239.936 472.739 242.704 472.737 245.138 472.86L253.163 473.267C253.528 473.285 253.922 473.314 254.202 473.548ZM222.935 477.334L215.454 481.455C214.472 481.996 213.332 483.073 213.938 484.013C214.502 484.888 215.853 484.459 216.758 483.94L226.09 478.58C226.286 477.837 225.785 476.984 225.039 476.791C224.32 476.605 223.585 476.975 222.935 477.334ZM304.812 413.538C305.533 412.682 306.316 411.786 307.389 411.465C308.463 411.143 309.876 411.706 310.011 412.814C307.067 417.006 303.411 420.7 299.247 423.694C299.638 419.794 302.281 416.538 304.812 413.538ZM309.544 421.835L315.752 415.097C316.435 414.356 317.157 413.285 316.612 412.438C315.84 411.238 314 412.294 313.065 413.374L305.769 421.8C305.49 422.639 306.518 423.438 307.396 423.307C308.273 423.176 308.944 422.486 309.544 421.835ZM255.837 314.745C256.976 313.571 258.732 313.292 260.359 313.091C280.057 310.653 300.006 310.223 319.791 311.81C321.022 311.909 322.465 312.153 323.01 313.256C323.287 313.819 323.252 314.478 323.21 315.103L320.03 362.848C319.909 364.66 319.585 366.794 317.957 367.61C317.174 368.002 316.254 367.982 315.378 367.952L258.961 366.05C257.859 366.013 256.648 365.932 255.856 365.168C255.083 364.424 254.945 363.257 254.858 362.19C253.706 348.009 253.541 333.749 254.365 319.545C254.464 317.837 254.643 315.975 255.837 314.745ZM286.926 315.852C278.5 315.729 270.07 315.876 261.654 316.291C260.341 316.356 258.836 316.529 258.095 317.611C257.598 318.336 257.594 319.277 257.608 320.156L258.173 355.327C258.215 357.958 259.007 361.422 261.644 361.561L287.214 362.909C287.675 362.933 288.177 362.947 288.552 362.677C289.051 362.317 289.121 361.616 289.146 361.003L289.881 342.769C289.909 342.065 289.89 341.251 289.34 340.808C288.966 340.508 288.451 340.474 287.971 340.454C278.787 340.085 269.563 340.685 260.504 342.241C259.468 342.419 258.891 340.849 259.497 339.993C260.103 339.136 261.251 338.895 262.29 338.73C270.818 337.372 279.452 336.677 288.089 336.653C289.543 336.649 289.997 334.708 289.994 333.259L289.975 321.3C289.971 318.981 289.253 315.886 286.926 315.852ZM314.202 340.413L297.471 340.377C296.349 340.374 295.07 340.441 294.353 341.302C293.845 341.912 293.77 342.76 293.716 343.551L292.632 359.465C292.533 360.92 292.59 362.688 293.855 363.422C294.412 363.745 295.086 363.777 295.731 363.801L312.178 364.417C312.688 364.436 313.24 364.443 313.656 364.148C314.197 363.764 314.308 363.022 314.372 362.362L316.313 342.432C316.358 341.979 316.394 341.489 316.155 341.1C315.778 340.485 314.926 340.415 314.202 340.413ZM315.935 335.59C316.892 334.978 317.174 333.735 317.364 332.617C318.085 328.382 318.662 324.122 319.096 319.848C319.172 319.1 319.203 318.237 318.656 317.721C318.24 317.329 317.62 317.27 317.049 317.23L296.874 315.848C296.146 315.798 295.305 315.792 294.823 316.338C294.438 316.775 294.426 317.416 294.434 317.998L294.673 334.309C294.678 334.703 294.692 335.123 294.918 335.447C295.285 335.972 296.031 336.024 296.674 336.024L313.648 336.026C314.435 336.027 315.272 336.013 315.935 335.59ZM371.948 464.9C370.13 464.945 368.11 465.087 366.86 466.402C367.444 467.566 369.005 467.747 370.311 467.776L416.791 468.793C417.765 468.814 418.098 467.315 417.449 466.592C416.799 465.869 415.723 465.757 414.75 465.696C400.504 464.806 386.218 464.54 371.948 464.9ZM347.939 409.65C343.002 463.042 337.573 516.389 331.651 569.682C331.492 571.11 330.923 572.935 329.481 572.953C248.284 573.966 167.064 573.15 85.9043 570.506C85.0443 570.478 84.1057 570.419 83.4684 569.843C82.641 569.095 82.6665 567.815 82.7554 566.706L96.0554 400.805C97.0143 399.65 98.7157 399.527 100.22 399.494C180.206 397.749 260.255 396.004 340.196 399.215C342.076 399.29 344.079 399.409 345.6 400.512C348.277 402.452 348.243 406.367 347.939 409.65ZM307.675 430.476C247.741 424.342 187.326 422.873 127.163 426.087C126.391 426.128 125.551 426.197 124.981 426.718C124.377 427.271 124.26 428.162 124.179 428.975L112.995 542.271C112.915 543.081 112.858 543.98 113.356 544.626C113.95 545.398 115.067 545.482 116.044 545.498L290.701 548.504C291.78 548.523 292.988 548.492 293.749 547.729C294.381 547.095 294.515 546.136 294.616 545.248L307.675 430.476ZM311.79 430.075C310.995 431.559 310.791 433.276 310.601 434.947L298.372 542.396C298.211 543.812 298.061 545.306 298.639 546.609C299.288 548.07 300.719 549.003 302.076 549.852L327.338 565.676C333.966 512.797 340.598 459.871 343.67 406.67L316.286 425.759C314.564 426.959 312.78 428.228 311.79 430.075ZM315.323 422.22L337.799 405.454C292.282 401.569 246.585 402.229 200.873 402.889C168.407 403.358 135.934 403.827 103.51 402.669L117.143 417.519C119.304 419.873 121.924 422.424 125.12 422.224C185.485 418.444 246.166 419.695 306.322 425.959C309.636 426.304 312.655 424.21 315.323 422.22ZM300.531 553.303C297.692 552.376 294.655 552.306 291.669 552.244L116.542 548.617C113.588 548.555 110.538 548.511 107.804 549.626C105.545 550.546 103.674 552.19 101.85 553.805L86.1648 567.687C125.344 565.96 164.569 566.984 203.793 568.007H203.794C244.019 569.056 284.244 570.105 324.416 568.189L307.653 557.136C305.395 555.648 303.103 554.142 300.531 553.303ZM116.763 438.256C117.742 425.829 110.989 413.117 100.124 406.935C95.1695 458.823 90.6801 510.754 86.6565 562.721L103.648 549.374C105.886 547.617 108.31 545.528 108.533 542.698L116.763 438.256ZM384.577 408.379C382.82 406.404 380.076 405.346 377.443 405.629C374.458 405.949 371.726 408.006 370.602 410.779C369.478 413.552 370.01 416.923 371.935 419.218C374.761 422.588 380.435 423.053 383.776 420.188C387.117 417.324 387.501 411.665 384.577 408.379ZM375.82 409.503C376.911 408.888 378.231 408.688 379.457 408.951C382.582 409.622 384.44 413.634 382.926 416.438C381.411 419.242 377.027 419.907 374.743 417.678C372.46 415.45 373.037 411.069 375.82 409.503ZM646.186 228.933C642.59 225.807 640.664 221.028 640.486 216.276C640.309 211.523 641.764 206.808 644.054 202.636C644.668 201.516 646.393 201.472 647.416 202.24C648.439 203.008 648.915 204.289 649.278 205.513C651.506 213.026 651.387 221.212 648.942 228.657C648.855 228.92 648.76 229.192 648.566 229.391C647.942 230.032 646.86 229.52 646.186 228.933ZM640.028 234.198C635.415 234.375 630.774 233.822 626.332 232.567C623.868 231.87 621.137 230.616 620.509 228.14C619.966 225.999 621.367 223.708 623.322 222.668C625.277 221.628 627.629 221.62 629.812 221.999C634.974 222.897 639.736 225.898 642.764 230.16C643.204 230.779 643.626 231.496 643.518 232.247C643.312 233.682 641.481 234.142 640.028 234.198ZM640.73 238.481L641.098 243.764L628.194 247.635C625.717 248.378 622.966 249.106 620.625 248.008C618.285 246.911 617.322 243.08 619.584 241.829C625.553 238.529 632.448 236.915 639.267 237.222C639.734 237.243 640.267 237.309 640.532 237.693C640.688 237.919 640.711 238.207 640.73 238.481ZM666.723 254.415C661.071 251.778 657.209 246.488 653.599 241.413C653.433 241.18 653.259 240.918 653.289 240.634C653.362 239.956 654.342 239.931 655.003 240.106C661.44 241.81 668.267 243.745 672.687 248.711C673.627 249.768 674.476 251.1 674.261 252.496C674.032 253.984 672.591 255.073 671.098 255.3C669.605 255.526 668.091 255.053 666.723 254.415ZM662.234 261.41C662.112 262.82 661.228 264.253 659.854 264.609C659.014 264.827 658.118 264.624 657.318 264.288C653.226 262.57 651.366 257.863 650.44 253.534C649.672 249.946 649.253 246.284 649.19 242.616C654.505 246.251 658.758 251.409 661.306 257.31C661.868 258.611 662.356 260 662.234 261.41ZM663.153 202.171C664.261 201.888 665.679 202.779 665.443 203.894C663.51 213.051 660.536 223.077 652.477 227.873C653.071 219.511 655.918 211.318 660.639 204.381C661.281 203.438 662.046 202.454 663.153 202.171ZM678.624 241.786C677.249 241.77 675.877 241.655 674.51 241.504C667.749 240.753 661.091 239.09 654.773 236.575C662.577 231.757 673.598 232.932 680.204 239.286C680.538 239.608 680.883 239.987 680.899 240.45C680.933 241.436 679.613 241.798 678.624 241.786ZM639.57 263.88C639.533 258.272 641.852 252.686 645.852 248.744C645.728 248.286 646.757 248.562 646.421 248.896C648.2 253.895 648.587 259.378 647.529 264.576C647.048 266.941 645.635 269.725 643.218 269.619C640.705 269.509 639.586 266.387 639.57 263.88ZM641.09 286.727L622.845 296.218C622.373 294.256 622.662 292.122 623.639 290.355C625.716 286.598 630.265 285.088 634.399 283.896C636.7 283.233 639.051 282.563 641.444 282.659C641.982 282.68 642.559 282.759 642.951 283.126C644.116 284.216 642.507 285.99 641.09 286.727ZM671.313 217.294C672.621 216.694 674.452 216.283 675.266 217.466C676.056 218.613 675.097 220.137 674.113 221.123C669.832 225.416 664.345 228.28 658.87 230.896C657.364 231.615 654.973 231.953 654.557 230.341C659.031 224.78 664.817 220.274 671.313 217.294ZM647.914 239.829C646.334 240.344 644.227 239.599 643.932 237.968C643.744 236.931 644.325 235.906 645.023 235.114C646.456 233.485 648.492 232.396 650.646 232.106C651.172 232.035 651.737 232.016 652.203 232.27C653.706 233.085 652.769 235.368 651.686 236.688C650.633 237.971 649.494 239.315 647.914 239.829Z" fill="#00160A"/>
</g>
<g filter="url(#filter2_d_3_166)">
<path fill-rule="evenodd" clip-rule="evenodd" d="M636.058 320.75C621.457 327.117 604.538 327.981 589.366 323.134C586.171 338.9 573.879 351.371 569.167 366.751C567.275 372.928 566.658 379.423 566.375 385.878C564.635 425.572 575.107 464.67 585.49 503.019C585.96 504.755 586.49 506.592 587.824 507.797C589.277 509.109 591.361 509.387 593.309 509.581C612.306 511.474 631.523 511.141 650.443 508.591C653.655 508.158 655.066 504.376 655.788 501.214C664.029 465.142 667.553 427.993 666.242 391.013C665.927 382.143 665.276 373.038 661.518 364.998C657.402 356.194 649.938 349.458 644.551 341.371C640.404 335.145 637.5 328.093 636.058 320.75Z" fill="white"/>
<path fill-rule="evenodd" clip-rule="evenodd" d="M609.28 318.607C610.249 320.203 610.431 323.205 608.567 323.019C602.439 311.351 595.052 300.339 586.576 290.232C586.779 291.775 586.983 293.317 587.186 294.859C587.599 297.989 588.008 301.209 587.235 304.27C586.461 307.332 584.221 310.242 581.11 310.849C577.999 311.457 574.393 308.861 574.774 305.727C574.785 309.157 571.185 312.063 567.786 311.502C564.388 310.941 561.934 307.224 562.596 303.858C562.899 302.319 560.781 301.322 559.276 301.779C557.77 302.237 556.632 303.471 555.205 304.131C550.803 306.168 545.598 301.564 545.348 296.737C545.098 291.911 549.143 282.554 552.426 278.995C547.819 278.253 544.111 273.822 544.209 269.175C544.306 264.528 548.197 260.255 552.831 259.705C549.307 255.154 545.706 248.763 549.136 244.141C551.641 240.764 556.928 240.539 560.594 242.612C564.26 244.685 566.621 248.432 568.572 252.154C568.521 249.121 568.482 246.013 569.488 243.15C570.494 240.287 572.778 237.672 575.778 237.146C578.778 236.62 582.222 238.909 582.157 241.941C582.107 244.291 580.838 247.775 583.163 248.175C584.42 245.002 588.809 243.804 591.831 245.411C594.853 247.017 596.349 250.74 595.94 254.127C595.53 257.514 593.496 260.538 590.956 262.827C594.694 263.065 599.249 263.891 600.45 267.424C601.617 270.857 598.555 274.358 595.244 275.862C591.933 277.366 588.126 277.816 585.139 279.886C589.862 282.87 594.695 290.029 598.803 297.413C604.087 306.912 608.172 316.781 609.28 318.607Z" fill="white"/>
<path fill-rule="evenodd" clip-rule="evenodd" d="M584.129 279.886C588.679 283.483 592.804 287.612 596.394 292.161C597.367 288.449 598.509 284.47 601.528 282.088C604.548 279.706 610.033 280.21 611.187 283.87C611.613 285.219 611.374 286.68 611.057 288.057C609.731 293.816 607.078 299.268 603.361 303.872C605.331 307.117 607.301 310.362 609.271 313.607C610.239 315.203 610.421 318.205 608.558 318.019C602.429 306.351 595.043 295.339 586.566 285.232C586.77 286.775 586.973 288.317 587.177 289.859C587.589 292.989 587.998 296.209 587.225 299.27C586.452 302.332 584.211 305.242 581.1 305.849C577.989 306.457 574.383 303.861 574.764 300.727C574.776 304.157 571.175 307.063 567.777 306.502C564.378 305.941 561.925 302.224 562.586 298.858C562.889 297.319 560.772 296.322 559.266 296.779C557.76 297.237 556.623 298.471 555.195 299.131C550.794 301.168 545.588 296.564 545.338 291.737C545.088 286.911 548.133 282.554 551.417 278.995C546.809 278.253 543.101 273.822 543.199 269.175C543.296 264.528 547.187 260.255 551.822 259.705C548.297 255.154 544.696 248.763 548.126 244.141C550.632 240.764 555.919 240.539 559.585 242.612C563.251 244.685 565.611 248.432 567.562 252.154C567.512 249.121 567.472 246.013 568.478 243.15C569.484 240.287 571.769 237.672 574.768 237.146C577.768 236.62 581.212 238.909 581.148 241.941C581.098 244.291 579.828 247.775 582.153 248.175C583.41 245.002 587.799 243.804 590.821 245.411C593.843 247.017 595.34 250.74 594.93 254.127C594.52 257.514 592.486 260.538 589.946 262.827C593.684 263.065 598.239 263.891 599.44 267.424C600.607 270.857 597.546 274.358 594.234 275.862C590.923 277.366 587.117 277.816 584.129 279.886ZM551.585 245.068C548.883 247.117 549.276 251.397 550.992 254.315C554 259.432 559.724 262.225 565.159 264.645C566.332 265.168 568.099 265.47 568.563 264.276C568.777 263.723 568.555 263.108 568.335 262.559C566.728 258.553 565.116 254.536 563.032 250.756C561.862 248.632 560.48 246.523 558.433 245.215C556.386 243.907 553.52 243.6 551.585 245.068ZM546.267 268.19C545.565 271.949 549.249 275.381 553.053 275.898C556.858 276.415 560.608 274.878 564.139 273.375C565.071 272.978 566.08 272.51 566.514 271.597C567.396 269.744 565.36 267.891 563.597 266.833C560.657 265.069 557.567 263.256 554.141 263.051C550.716 262.845 546.894 264.829 546.267 268.19ZM591.588 252.323C591.744 251.566 591.846 250.754 591.55 250.039C591.032 248.794 589.483 248.297 588.133 248.387C584.029 248.661 581.273 252.651 579.631 256.406C578.172 259.742 577.075 263.235 576.366 266.804C583.741 265.648 590.091 259.608 591.588 252.323ZM577.851 280.541C575.573 280.902 575.324 284.046 575.666 286.318C576.007 288.573 576.347 290.828 576.687 293.083C577.237 296.729 578.215 300.964 581.601 302.456C585.127 296.602 585.088 288.796 581.503 282.977C580.689 281.655 579.389 280.297 577.851 280.541ZM567.426 301.997C567.69 302.333 568.002 302.673 568.42 302.769C569.453 303.008 570.123 301.723 570.359 300.693C571.959 293.713 571.899 286.476 571.832 279.317C571.781 278.786 570.939 279.091 570.615 279.516C568.144 282.767 566.007 286.376 565.162 290.366C564.316 294.356 564.903 298.785 567.426 301.997ZM580.955 268.351C580.427 268.623 579.89 268.91 579.494 269.35C578.179 270.808 579.098 273.347 580.825 274.287C582.552 275.228 584.676 274.984 586.584 274.504C589.404 273.795 592.105 272.623 594.547 271.051C595.488 270.445 596.506 269.479 596.199 268.406C596.066 267.941 595.7 267.58 595.319 267.281C591.32 264.15 585.47 266.018 580.955 268.351ZM572.404 264.364C575.527 257.528 577.1 249.996 576.973 242.487C576.966 242.046 576.945 241.58 576.701 241.212C575.849 239.924 573.868 241.227 573.095 242.563C569.299 249.123 569.031 257.579 572.404 264.364ZM566.82 279.987C567.591 279.672 567.266 278.367 566.48 278.095C565.693 277.823 564.845 278.21 564.104 278.59C559.529 280.933 554.757 283.555 552.158 287.976C551.277 289.475 550.775 291.603 552.053 292.784C553.218 293.86 555.145 293.415 556.448 292.508C560.973 289.355 561.712 282.079 566.82 279.987ZM606.63 283.574C605.938 282.854 604.743 283.528 604.031 284.228C601.694 286.526 599.624 289.277 598.988 292.486C598.351 295.695 599.469 299.411 602.292 301.083C605.594 296.374 607.28 290.563 607.01 284.827C606.989 284.381 606.94 283.896 606.63 283.574ZM569.643 270.511C570.622 273.47 572.658 276.07 575.3 277.737C576.136 278.264 576.948 276.978 577.006 275.994C577.188 272.916 575.956 269.783 573.723 267.646C572.839 266.799 571.526 266.077 570.434 266.633C569.145 267.289 569.19 269.143 569.643 270.511Z" fill="#FFB61D"/>
</g>
<g filter="url(#filter3_d_3_166)">
<path fill-rule="evenodd" clip-rule="evenodd" d="M457.362 415.893C453.094 416.006 448.768 416.151 444.685 417.394C454.545 466.17 455.556 516.228 460.702 565.718C460.8 566.664 460.932 567.682 461.586 568.376C462.328 569.163 463.514 569.297 464.595 569.382C534.61 574.872 605.014 575.435 675.109 571.063C675.997 571.008 676.96 570.921 677.613 570.32C678.403 569.594 678.459 568.391 678.453 567.321C678.335 548.565 675.656 529.928 672.983 511.362C668.838 482.571 664.692 453.781 660.547 424.991C660.39 423.896 660.165 422.683 659.275 422.021C658.612 421.528 657.732 421.464 656.906 421.419C590.447 417.773 523.898 414.126 457.362 415.893Z" fill="white"/>
<path d="M623.5 504C624.605 504 625.5 503.105 625.5 502C625.5 500.895 624.605 500 623.5 500C622.395 500 621.5 500.895 621.5 502C621.5 503.105 622.395 504 623.5 504Z" fill="#FFB61D"/>
<path d="M609 504C610.105 504 611 503.105 611 502C611 500.895 610.105 500 609 500C607.895 500 607 500.895 607 502C607 503.105 607.895 504 609 504Z" fill="#FFB61D"/>
<path d="M571 524C571.828 524 572.5 523.328 572.5 522.5C572.5 521.672 571.828 521 571 521C570.172 521 569.5 521.672 569.5 522.5C569.5 523.328 570.172 524 571 524Z" fill="#FFB61D"/>
<path d="M558.5 524C559.328 524 560 523.328 560 522.5C560 521.672 559.328 521 558.5 521C557.672 521 557 521.672 557 522.5C557 523.328 557.672 524 558.5 524Z" fill="#FFB61D"/>
<path d="M520 505C521.657 505 523 503.657 523 502C523 500.343 521.657 499 520 499C518.343 499 517 500.343 517 502C517 503.657 518.343 505 520 505Z" fill="#FFB61D"/>
<path d="M498 506C499.657 506 501 504.657 501 503C501 501.343 499.657 500 498 500C496.343 500 495 501.343 495 503C495 504.657 496.343 506 498 506Z" fill="#FFB61D"/>
<path fill-rule="evenodd" clip-rule="evenodd" d="M677.925 576.027C606.251 580.29 534.257 579.22 462.742 572.829C460.78 572.654 458.626 572.384 457.296 570.936C456.071 569.602 455.899 567.644 455.787 565.84C452.689 516.109 447.942 466.481 441.557 417.062C441.15 413.914 445.297 412.418 448.467 412.102C492.112 407.742 535.961 409.833 579.845 411.926C607.902 413.264 635.974 414.602 664.015 414.256C665.858 414.234 666.506 416.655 666.594 418.489C667.702 441.648 671.549 464.575 675.393 487.491C679.875 514.206 684.354 540.905 684.489 567.935C684.502 570.531 684.261 573.55 682.108 575.011C680.906 575.826 679.376 575.941 677.925 576.027ZM457.362 415.894C453.094 416.007 448.768 416.152 444.685 417.395C451.406 450.642 454.015 484.486 456.625 518.339C457.844 534.15 459.064 549.964 460.702 565.72C460.8 566.665 460.932 567.684 461.586 568.377C462.328 569.164 463.514 569.298 464.595 569.383C534.61 574.874 605.014 575.436 675.109 571.065C675.997 571.009 676.96 570.922 677.613 570.321C678.403 569.595 678.459 568.392 678.453 567.322C678.335 548.566 675.656 529.93 672.983 511.363L660.547 424.992C660.39 423.897 660.165 422.684 659.275 422.023C658.612 421.529 657.732 421.465 656.906 421.42C590.447 417.775 523.898 414.128 457.362 415.894ZM501.663 486.414C503.388 486.335 504.135 488.532 504.343 490.239C504.699 493.173 504.482 497.049 501.64 497.897C499.177 495.609 498.243 491.825 499.361 488.66C499.74 487.588 500.523 486.467 501.663 486.414ZM610.133 497.46C607.083 497.199 609.34 486.808 611.054 488.056C612.769 489.305 613.183 497.721 610.133 497.46ZM624.071 496.055C620.392 496.055 621.646 486.497 624.071 486.497C625.366 486.497 626.422 496.055 624.071 496.055ZM515.761 496.176C516.403 494.898 516.803 493.499 516.934 492.075C517.037 490.961 516.954 489.766 516.317 488.845C515.68 487.923 514.348 487.413 513.381 487.982C512.779 488.337 512.443 489.01 512.23 489.674C511.544 491.811 511.844 494.242 513.029 496.151C513.414 496.772 514.071 497.403 514.777 497.205C515.249 497.073 515.542 496.613 515.761 496.176ZM566.401 516.402C566.659 514.389 567.45 511.665 569.306 512.499C570.062 512.838 570.444 513.683 570.637 514.486C571.044 516.181 570.711 518.285 569.178 519.124C567.644 519.964 566.143 518.415 566.401 516.402ZM505.071 503.298C503.482 504.741 501.102 506.429 499.482 505.022C499.73 503.71 500.47 502.497 501.524 501.675C500.147 500.53 497.772 501.225 497.015 502.845C496.259 504.465 497.039 506.546 498.548 507.513C500.056 508.479 502.087 508.411 503.688 507.605C504.102 507.397 504.534 507.144 504.972 506.887C506.662 505.895 508.452 504.845 509.77 506.056C512.756 508.798 518.196 508.074 520.353 504.646C520.953 503.693 521.306 502.455 520.792 501.453C520.279 500.452 518.622 500.118 518.035 501.077C517.886 501.321 517.825 501.602 517.765 501.883C517.744 501.976 517.724 502.069 517.701 502.161C517.317 503.674 515.906 504.87 514.346 505.007C512.785 505.144 511.187 504.212 510.542 502.789C509.658 500.838 506.659 501.855 505.071 503.298ZM560.721 512.821C561.031 515.028 560.494 517.342 559.243 519.189C559.01 519.534 558.701 519.892 558.284 519.92C557.846 519.949 557.479 519.599 557.219 519.246C555.751 517.258 555.807 514.291 557.349 512.36C558.067 511.46 559.538 510.823 560.299 511.687C560.57 511.994 560.664 512.416 560.721 512.821ZM476.665 548.142C476.789 553.253 482.917 555.742 487.969 556.637C502.119 559.145 516.573 559.235 530.945 559.318C574.075 559.568 617.253 559.817 660.284 556.892C661.796 556.789 663.492 556.59 664.433 555.406C665.313 554.299 665.206 552.732 665.053 551.328C660.764 511.939 655.074 472.7 647.996 433.712C647.574 431.388 644.587 430.74 642.22 430.609C584.695 427.448 527.046 427.52 469.434 427.593C467.808 427.595 466.088 427.623 464.704 428.474C461.563 430.406 462.032 435.016 462.858 438.601C471.138 474.529 475.771 511.29 476.665 548.142ZM603.409 514.057C597.442 518.484 592.924 524.817 590.689 531.886C583.878 528.743 580.793 519.45 584.38 512.881C588.949 504.514 590.552 493.058 583.892 486.223C579.599 481.817 572.781 480.535 566.743 481.768C554.786 484.211 545.736 496.511 546.997 508.606C547.199 510.544 547.629 512.449 548.059 514.353C548.505 516.328 548.951 518.302 549.143 520.314C549.519 524.266 548.679 528.682 545.575 531.171C541.026 523.333 533.64 517.171 525.096 514.086C530.727 500.582 536.279 484.763 529.171 471.968C526.735 467.582 522.999 464.046 519.003 461.001C513.757 457.003 507.51 453.612 500.922 454.068C489.812 454.836 482.13 466.628 481.907 477.721C481.684 488.813 486.893 499.208 491.975 509.081L479.74 524.279C477.716 493.128 473.23 462.137 466.338 431.686C523.578 431.895 580.816 432.815 638.033 434.445C639.3 434.481 640.693 434.568 641.606 435.444C642.393 436.2 642.614 437.351 642.796 438.425L660.315 541.818C652.613 528.992 642.751 517.458 631.267 507.842C628.416 517.037 625.9 526.336 623.724 535.713L615.035 522.145C621.949 518.019 626.52 510.968 630.459 503.962C635.073 495.755 639.254 486.939 639.598 477.538C639.942 468.137 635.584 458.013 627.024 454.043C631.933 450.749 632.111 442.639 627.698 438.71C623.284 434.781 615.752 435.482 611.686 439.766C607.619 444.05 607.134 451.062 610.013 456.214C600.767 460.191 594.249 469.797 593.992 479.827C593.754 489.103 598.355 497.749 602.999 505.793C604.518 508.422 605.851 512.245 603.409 514.057ZM579.741 522.133L595.005 553.516C596.315 550.825 595.024 547.968 593.726 545.095C593.194 543.918 592.661 542.738 592.305 541.566C589.69 532.959 596.85 524.728 603.406 518.547C604.444 517.568 605.726 516.513 607.128 516.793C608.266 517.021 609.031 518.057 609.682 519.014C614.41 525.96 619.217 533.075 621.403 541.181C621.414 541.222 621.425 541.264 621.436 541.306C621.749 542.468 622.083 543.714 623.032 544.448C624.014 545.209 625.86 544.857 625.973 543.623C626.974 532.673 629.373 521.85 633.095 511.499L657.918 543.216C659.654 545.433 661.489 548.211 660.5 550.844C659.332 553.956 655.216 554.49 651.881 554.513L543.815 555.267C525.691 555.393 507.502 555.516 489.52 553.251C487.638 553.013 485.65 552.704 484.196 551.49C482.893 550.402 482.221 548.747 481.729 547.126C479.356 539.31 480.147 530.589 483.887 523.323C485.636 519.923 488.247 516.666 491.915 515.551C495.583 514.435 500.308 516.375 501.007 520.131C502.025 525.602 506.72 530.444 512.294 530.799C517.868 531.154 523.459 526.22 523.023 520.672C522.849 518.463 526.386 518.488 528.283 519.644C538.52 525.879 543.79 539.218 540.565 550.732C540.032 552.633 543.338 553.54 544.655 552.065C545.888 550.683 545.798 548.648 545.715 546.775C545.709 546.647 545.704 546.521 545.698 546.395C545.404 539.209 547.732 531.944 552.154 526.259C553.729 527.316 554.909 528.894 556.077 530.455C557.64 532.544 559.18 534.602 561.611 535.34C565.388 536.486 569.24 533.736 571.725 530.68C572.327 529.94 572.902 529.164 573.478 528.388C575.28 525.956 577.09 523.516 579.741 522.133ZM501.029 470.411C497.681 477.268 492.832 483.392 486.918 488.232C485.803 483.194 485.528 477.971 486.109 472.844C486.555 468.911 487.598 464.85 490.295 461.944C493.776 458.193 499.479 457.107 504.502 458.131C509.526 459.155 513.985 461.993 518.034 465.128C521.441 467.766 524.72 470.737 526.757 474.528C531.347 483.068 528.704 493.512 525.964 502.808C524.282 508.512 522.04 514.883 516.595 517.315C511.875 519.423 506.253 517.732 501.926 514.909C494.754 510.232 489.712 502.436 488.401 493.997C488.186 492.613 488.183 490.939 489.325 490.124C494.742 486.263 499.211 481.093 502.24 475.184C507.355 482.195 516.135 486.389 524.825 485.972C526.689 485.883 529.169 484.563 528.359 482.888C517.903 483.976 507.029 479.012 501.029 470.411ZM611.306 514.246C607.48 508.61 604.182 502.619 601.468 496.375C600.792 494.82 600.309 492.662 601.723 491.719C608.574 487.148 613.764 480.161 616.149 472.298L621.125 478.495C622.734 480.5 624.379 482.537 626.52 483.964C628.662 485.392 631.419 486.138 633.856 485.306C634.76 484.997 634.999 486.526 634.666 487.418C630.882 497.568 625.435 507.1 618.606 515.522C618.006 516.261 617.348 517.026 616.442 517.322C614.397 517.991 612.512 516.022 611.306 514.246ZM619.183 457.38C621.62 457.132 624.16 457.234 626.399 458.223C628.37 459.094 629.997 460.606 631.333 462.292C635.334 467.339 636.909 474.213 635.504 480.49C635.388 481.009 635.237 481.552 634.852 481.92C634.237 482.508 633.258 482.45 632.424 482.274C627.578 481.251 623.607 477.583 621.204 473.268C621.084 473.054 620.967 472.836 620.849 472.618C620.142 471.308 619.421 469.97 618.187 469.165C616.748 468.226 614.343 468.542 613.876 470.192C611.65 478.056 606.52 485.069 599.689 489.59C598.166 487.993 597.465 485.779 597.155 483.598C596.257 477.296 598.354 470.688 602.524 465.866C606.694 461.043 612.827 458.024 619.183 457.38ZM572.094 485.603C577.827 486.325 583.097 490.799 584.006 496.484C584.427 499.111 583.958 501.79 583.491 504.41C583.272 505.636 583.001 506.96 582.066 507.787C580.919 508.803 579.178 508.717 577.675 508.407C573.395 507.524 569.412 505.27 566.459 502.059C566.28 501.865 566.104 501.667 565.928 501.468C565.145 500.586 564.357 499.698 563.32 499.153C562.049 498.485 560.244 498.533 559.415 499.702C557.088 502.985 553.998 505.727 550.457 507.651C550.877 501.91 552.823 496.159 556.66 491.855C560.498 487.552 566.362 484.881 572.094 485.603ZM560.825 503.672C561.557 502.281 563.62 503.551 564.651 504.739C568.71 509.417 574.966 512.117 581.168 511.87C577.951 518.305 573.534 524.142 568.209 528.995C566.933 530.158 565.405 531.334 563.681 531.191C562.176 531.066 560.954 529.962 559.928 528.857C556.745 525.433 554.205 521.418 552.48 517.079C551.798 515.364 551.438 513.001 553.013 512.031C556.302 510.004 559.031 507.085 560.825 503.672ZM619.53 454.213C615.804 454.847 611.659 451.732 611.92 447.975C612.103 445.347 614.168 443.198 616.457 441.88C618.121 440.922 620.034 440.262 621.946 440.461C623.857 440.66 625.738 441.865 626.331 443.687C626.6 444.513 626.596 445.405 626.488 446.268C626.02 450.005 623.257 453.579 619.53 454.213ZM506.011 520.259C510.707 522.17 516.332 521.632 520.577 518.865C520.836 520.006 520.191 521.137 519.572 522.131C517.588 525.32 514.468 528.979 510.859 527.904C508.965 527.34 507.818 525.673 506.659 523.988C505.636 522.5 504.603 520.998 503.036 520.229C503.725 519.419 505.024 519.857 506.011 520.259Z" fill="#00160A"/>
</g>
</g>
<defs>
<filter id="filter0_d_3_166" x="43" y="110" width="663" height="538" filterUnits="userSpaceOnUse" color-interpolation-filters="sRGB">
<feFlood flood-opacity="0" result="BackgroundImageFix"/>
<feColorMatrix in="SourceAlpha" type="matrix" values="0 0 0 0 0 0 0 0 0 0 0 0 0 0 0 0 0 0 127 0" result="hardAlpha"/>
<feOffset dy="4"/>
<feGaussianBlur stdDeviation="2"/>
<feComposite in2="hardAlpha" operator="out"/>
<feColorMatrix type="matrix" values="0 0 0 0 0 0 0 0 0 0 0 0 0 0 0 0 0 0 0.25 0"/>
<feBlend mode="normal" in2="BackgroundImageFix" result="effect1_dropShadow_3_166"/>
<feBlend mode="normal" in="SourceGraphic" in2="effect1_dropShadow_3_166" result="shape"/>
</filter>
<filter id="filter1_d_3_166" x="78.7128" y="178.102" width="608.937" height="403.272" filterUnits="userSpaceOnUse" color-interpolation-filters="sRGB">
<feFlood flood-opacity="0" result="BackgroundImageFix"/>
<feColorMatrix in="SourceAlpha" type="matrix" values="0 0 0 0 0 0 0 0 0 0 0 0 0 0 0 0 0 0 127 0" result="hardAlpha"/>
<feOffset dy="4"/>
<feGaussianBlur stdDeviation="2"/>
<feComposite in2="hardAlpha" operator="out"/>
<feColorMatrix type="matrix" values="0 0 0 0 0 0 0 0 0 0 0 0 0 0 0 0 0 0 0.25 0"/>
<feBlend mode="normal" in2="BackgroundImageFix" result="effect1_dropShadow_3_166"/>
<feBlend mode="normal" in="SourceGraphic" in2="effect1_dropShadow_3_166" result="shape"/>
</filter>
<filter id="filter2_d_3_166" x="539.197" y="237.07" width="131.312" height="281.719" filterUnits="userSpaceOnUse" color-interpolation-filters="sRGB">
<feFlood flood-opacity="0" result="BackgroundImageFix"/>
<feColorMatrix in="SourceAlpha" type="matrix" values="0 0 0 0 0 0 0 0 0 0 0 0 0 0 0 0 0 0 127 0" result="hardAlpha"/>
<feOffset dy="4"/>
<feGaussianBlur stdDeviation="2"/>
<feComposite in2="hardAlpha" operator="out"/>
<feColorMatrix type="matrix" values="0 0 0 0 0 0 0 0 0 0 0 0 0 0 0 0 0 0 0.25 0"/>
<feBlend mode="normal" in2="BackgroundImageFix" result="effect1_dropShadow_3_166"/>
<feBlend mode="normal" in="SourceGraphic" in2="effect1_dropShadow_3_166" result="shape"/>
</filter>
<filter id="filter3_d_3_166" x="437.529" y="409.543" width="250.96" height="177.04" filterUnits="userSpaceOnUse" color-interpolation-filters="sRGB">
<feFlood flood-opacity="0" result="BackgroundImageFix"/>
<feColorMatrix in="SourceAlpha" type="matrix" values="0 0 0 0 0 0 0 0 0 0 0 0 0 0 0 0 0 0 127 0" result="hardAlpha"/>
<feOffset dy="4"/>
<feGaussianBlur stdDeviation="2"/>
<feComposite in2="hardAlpha" operator="out"/>
<feColorMatrix type="matrix" values="0 0 0 0 0 0 0 0 0 0 0 0 0 0 0 0 0 0 0.25 0"/>
<feBlend mode="normal" in2="BackgroundImageFix" result="effect1_dropShadow_3_166"/>
<feBlend mode="normal" in="SourceGraphic" in2="effect1_dropShadow_3_166" result="shape"/>
</filter>
</defs>
</svg>
