<svg viewBox="0 0 56 53" fill="none" xmlns="http://www.w3.org/2000/svg">
<g filter="url(#filter0_d_11_187)">
<path d="M52 10.617C50.1944 11.4045 48.2848 11.9279 46.33 12.171C48.39 10.9489 49.9303 9.01369 50.659 6.732C48.73 7.87601 46.6196 8.68163 44.419 9.114C43.0697 7.67334 41.3184 6.67176 39.3925 6.23938C37.4666 5.80701 35.4551 5.96383 33.6195 6.68947C31.7839 7.41511 30.209 8.67603 29.0993 10.3084C27.9896 11.9408 27.3965 13.8692 27.397 15.843C27.397 16.623 27.463 17.373 27.625 18.087C23.7102 17.8951 19.8801 16.879 16.3849 15.1054C12.8897 13.3317 9.80828 10.8402 7.342 7.794C6.07846 9.95957 5.68783 12.5253 6.24965 14.9688C6.81147 17.4123 8.2835 19.5498 10.366 20.946C8.80827 20.9042 7.28342 20.4885 5.92 19.734V19.842C5.92261 22.1143 6.708 24.3163 8.14395 26.0774C9.57991 27.8384 11.5787 29.051 13.804 29.511C12.9622 29.7329 12.0946 29.8418 11.224 29.835C10.5988 29.8461 9.97416 29.7898 9.361 29.667C9.99682 31.6201 11.2225 33.328 12.8692 34.5557C14.5159 35.7833 16.5027 36.4703 18.556 36.522C15.0728 39.2461 10.7769 40.7239 6.355 40.719C5.548 40.719 4.774 40.683 4 40.584C8.49965 43.4836 13.743 45.0175 19.096 45C37.204 45 47.104 30 47.104 16.998C47.104 16.563 47.089 16.143 47.068 15.726C49.0089 14.337 50.6802 12.6056 52 10.617Z" fill="#F93059"/>
</g>
<defs>
<filter id="filter0_d_11_187" x="0" y="0" width="56" height="56" filterUnits="userSpaceOnUse" color-interpolation-filters="sRGB">
<feFlood flood-opacity="0" result="BackgroundImageFix"/>
<feColorMatrix in="SourceAlpha" type="matrix" values="0 0 0 0 0 0 0 0 0 0 0 0 0 0 0 0 0 0 127 0" result="hardAlpha"/>
<feOffset dy="4"/>
<feGaussianBlur stdDeviation="2"/>
<feComposite in2="hardAlpha" operator="out"/>
<feColorMatrix type="matrix" values="0 0 0 0 0 0 0 0 0 0 0 0 0 0 0 0 0 0 0.25 0"/>
<feBlend mode="normal" in2="BackgroundImageFix" result="effect1_dropShadow_11_187"/>
<feBlend mode="normal" in="SourceGraphic" in2="effect1_dropShadow_11_187" result="shape"/>
</filter>
</defs>
</svg>
