<svg viewBox="0 0 56 56" fill="none" xmlns="http://www.w3.org/2000/svg">
<g clip-path="url(#clip0_11_189)" filter="url(#filter0_d_11_189)">
<path d="M37 0H19C15.0218 0 11.2064 1.58035 8.3934 4.3934C5.58035 7.20644 4 11.0218 4 15L4 33C4 36.9782 5.58035 40.7936 8.3934 43.6066C11.2064 46.4196 15.0218 48 19 48H37C40.9782 48 44.7936 46.4196 47.6066 43.6066C50.4196 40.7936 52 36.9782 52 33V15C52 11.0218 50.4196 7.20644 47.6066 4.3934C44.7936 1.58035 40.9782 0 37 0ZM47.5 33C47.5 38.79 42.79 43.5 37 43.5H19C13.21 43.5 8.5 38.79 8.5 33V15C8.5 9.21 13.21 4.5 19 4.5H37C42.79 4.5 47.5 9.21 47.5 15V33Z" fill="#F93059"/>
<path d="M28 12C24.8174 12 21.7652 13.2643 19.5147 15.5147C17.2643 17.7652 16 20.8174 16 24C16 27.1826 17.2643 30.2348 19.5147 32.4853C21.7652 34.7357 24.8174 36 28 36C31.1826 36 34.2348 34.7357 36.4853 32.4853C38.7357 30.2348 40 27.1826 40 24C40 20.8174 38.7357 17.7652 36.4853 15.5147C34.2348 13.2643 31.1826 12 28 12ZM28 31.5C26.0116 31.4976 24.1053 30.7067 22.6993 29.3007C21.2933 27.8947 20.5024 25.9884 20.5 24C20.5 19.863 23.866 16.5 28 16.5C32.134 16.5 35.5 19.863 35.5 24C35.5 28.134 32.134 31.5 28 31.5Z" fill="#F93059"/>
<path d="M40.9 12.699C41.7831 12.699 42.499 11.9831 42.499 11.1C42.499 10.2169 41.7831 9.50101 40.9 9.50101C40.0169 9.50101 39.301 10.2169 39.301 11.1C39.301 11.9831 40.0169 12.699 40.9 12.699Z" fill="#F93059"/>
</g>
<defs>
<filter id="filter0_d_11_189" x="0" y="0" width="56" height="56" filterUnits="userSpaceOnUse" color-interpolation-filters="sRGB">
<feFlood flood-opacity="0" result="BackgroundImageFix"/>
<feColorMatrix in="SourceAlpha" type="matrix" values="0 0 0 0 0 0 0 0 0 0 0 0 0 0 0 0 0 0 127 0" result="hardAlpha"/>
<feOffset dy="4"/>
<feGaussianBlur stdDeviation="2"/>
<feComposite in2="hardAlpha" operator="out"/>
<feColorMatrix type="matrix" values="0 0 0 0 0 0 0 0 0 0 0 0 0 0 0 0 0 0 0.25 0"/>
<feBlend mode="normal" in2="BackgroundImageFix" result="effect1_dropShadow_11_189"/>
<feBlend mode="normal" in="SourceGraphic" in2="effect1_dropShadow_11_189" result="shape"/>
</filter>
<clipPath id="clip0_11_189">
<rect width="48" height="48" fill="white" transform="translate(4)"/>
</clipPath>
</defs>
</svg>
