<svg viewBox="0 0 56 55" fill="none" xmlns="http://www.w3.org/2000/svg">
<g clip-path="url(#clip0_11_183)" filter="url(#filter0_d_11_183)">
<path d="M27.997 0C14.746 0 4.00001 10.788 4.00001 24.096C3.9946 29.1466 5.57656 34.0713 8.52231 38.1739C11.4681 42.2765 15.6286 45.3497 20.416 46.959C21.616 47.181 22.054 46.437 22.054 45.798C22.054 45.225 22.033 43.71 22.021 41.7C15.346 43.155 13.936 38.469 13.936 38.469C12.847 35.685 11.272 34.944 11.272 34.944C9.09101 33.45 11.434 33.48 11.434 33.48C13.843 33.651 15.109 35.964 15.109 35.964C17.251 39.645 20.728 38.583 22.096 37.965C22.312 36.408 22.933 35.346 23.62 34.743C18.292 34.134 12.688 32.067 12.688 22.836C12.688 20.205 13.624 18.054 15.16 16.368C14.911 15.759 14.089 13.308 15.394 9.993C15.394 9.993 17.41 9.345 21.994 12.462C23.9523 11.9268 25.973 11.6545 28.003 11.652C30.0332 11.656 32.0538 11.9294 34.012 12.465C38.593 9.348 40.606 9.996 40.606 9.996C41.914 13.314 41.092 15.762 40.846 16.371C42.385 18.057 43.312 20.208 43.312 22.839C43.312 32.094 37.702 34.131 32.356 34.728C33.217 35.472 33.985 36.942 33.985 39.189C33.985 42.411 33.955 45.009 33.955 45.798C33.955 46.443 34.387 47.193 35.605 46.956C40.3877 45.3429 44.5431 42.2685 47.4848 38.1669C50.4265 34.0653 52.0058 29.1434 52 24.096C52 10.788 41.254 0 27.997 0Z" fill="#F93059"/>
</g>
<defs>
<filter id="filter0_d_11_183" x="0" y="0" width="56" height="56" filterUnits="userSpaceOnUse" color-interpolation-filters="sRGB">
<feFlood flood-opacity="0" result="BackgroundImageFix"/>
<feColorMatrix in="SourceAlpha" type="matrix" values="0 0 0 0 0 0 0 0 0 0 0 0 0 0 0 0 0 0 127 0" result="hardAlpha"/>
<feOffset dy="4"/>
<feGaussianBlur stdDeviation="2"/>
<feComposite in2="hardAlpha" operator="out"/>
<feColorMatrix type="matrix" values="0 0 0 0 0 0 0 0 0 0 0 0 0 0 0 0 0 0 0.25 0"/>
<feBlend mode="normal" in2="BackgroundImageFix" result="effect1_dropShadow_11_183"/>
<feBlend mode="normal" in="SourceGraphic" in2="effect1_dropShadow_11_183" result="shape"/>
</filter>
<clipPath id="clip0_11_183">
<rect width="48" height="48" fill="white" transform="translate(4)"/>
</clipPath>
</defs>
</svg>
