<svg viewBox="0 0 53 55" fill="none" xmlns="http://www.w3.org/2000/svg">
<g filter="url(#filter0_d_11_166)">
<path d="M22.7667 43.2508H13.2907C10.2201 43.2396 7.73058 40.7592 7.70802 37.6887V18.8396C7.71405 17.8118 8.17399 16.8391 8.96463 16.1822L10.6332 14.9462C11.2424 14.2972 11.3043 13.3068 10.7808 12.5869C10.2572 11.8671 9.29598 11.6208 8.49082 12.0004L6.78102 13.2776C5.05628 14.6121 4.03278 16.6591 4 18.8396V37.7093C4.01133 42.8357 8.16427 46.9887 13.2907 47H22.7667C23.7906 47 24.6207 46.1699 24.6207 45.146C24.6207 44.122 23.7906 43.292 22.7667 43.292V43.2508Z" fill="white"/>
<path d="M48.5169 18.7985C48.4952 16.634 47.505 14.5931 45.8183 13.2364L31.5836 1.88578C28.4555 -0.628593 23.9996 -0.628593 20.8715 1.88578L16.3601 5.1612C15.5125 5.76987 15.3188 6.95042 15.9275 7.79801C16.5362 8.64561 17.7167 8.83929 18.5643 8.23061L23.1375 4.81099C24.9325 3.33322 27.5226 3.33322 29.3176 4.81099L43.5523 16.1617C44.3715 16.8111 44.8556 17.7943 44.8707 18.8397V37.7094C44.8707 40.7812 42.3805 43.2714 39.3086 43.2714H35.0856C34.6533 43.2714 34.3028 42.9209 34.3028 42.4886V33.9808C34.3028 31.2696 32.1111 29.0687 29.4 29.0573H23.2199C21.9142 29.0573 20.6619 29.576 19.7386 30.4994C18.8152 31.4227 18.2965 32.675 18.2965 33.9808V37.2356C18.2965 38.2595 19.1266 39.0896 20.1505 39.0896C21.1745 39.0896 22.0045 38.2595 22.0045 37.2356V33.9808C21.999 33.6603 22.1224 33.3511 22.3471 33.1226C22.5718 32.894 22.8789 32.7653 23.1993 32.7654H29.3794C30.0393 32.7654 30.5742 33.3003 30.5742 33.9602V42.4886C30.5855 44.9721 32.602 46.9794 35.0856 46.9794H39.2056C44.3367 46.9794 48.4963 42.8199 48.4963 37.6888L48.5169 18.7985Z" fill="white"/>
</g>
<defs>
<filter id="filter0_d_11_166" x="0" y="0" width="52.5168" height="55" filterUnits="userSpaceOnUse" color-interpolation-filters="sRGB">
<feFlood flood-opacity="0" result="BackgroundImageFix"/>
<feColorMatrix in="SourceAlpha" type="matrix" values="0 0 0 0 0 0 0 0 0 0 0 0 0 0 0 0 0 0 127 0" result="hardAlpha"/>
<feOffset dy="4"/>
<feGaussianBlur stdDeviation="2"/>
<feComposite in2="hardAlpha" operator="out"/>
<feColorMatrix type="matrix" values="0 0 0 0 0 0 0 0 0 0 0 0 0 0 0 0 0 0 0.25 0"/>
<feBlend mode="normal" in2="BackgroundImageFix" result="effect1_dropShadow_11_166"/>
<feBlend mode="normal" in="SourceGraphic" in2="effect1_dropShadow_11_166" result="shape"/>
</filter>
</defs>
</svg>
