<svg viewBox="0 0 65 68" fill="none" xmlns="http://www.w3.org/2000/svg">
<g filter="url(#filter0_d_4_457)">
<path d="M27.9575 55.2137H15.8604C11.9406 55.1994 8.76244 52.033 8.73364 48.1133V24.0506C8.74133 22.7384 9.3285 21.4967 10.3378 20.6582L12.468 19.0803C13.2456 18.2517 13.3247 16.9874 12.6563 16.0684C11.988 15.1494 10.7608 14.8351 9.73296 15.3197L7.55023 16.9501C5.34845 18.6538 4.04184 21.267 4 24.0506V48.1396C4.01446 54.6839 9.31608 59.9855 15.8604 60H27.9575C29.2646 60 30.3243 58.9403 30.3243 57.6332C30.3243 56.326 29.2646 55.2663 27.9575 55.2663V55.2137Z" fill="#F93059"/>
<path d="M60.83 23.998C60.8023 21.2349 59.5382 18.6294 57.3849 16.8976L39.213 2.40738C35.2198 -0.802458 29.5313 -0.802458 25.5381 2.40738L19.7788 6.58876C18.6968 7.36579 18.4495 8.87286 19.2265 9.9549C20.0036 11.0369 21.5106 11.2842 22.5927 10.5072L28.4308 6.14169C30.7223 4.25517 34.0288 4.25517 36.3202 6.14169L54.4922 20.6319C55.538 21.461 56.156 22.7161 56.1752 24.0506V48.1396C56.1752 52.0611 52.9962 55.2401 49.0748 55.2401H43.6837C43.1318 55.2401 42.6844 54.7926 42.6844 54.2407V43.3797C42.6844 39.9187 39.8864 37.1089 36.4254 37.0944H28.536C26.8691 37.0944 25.2704 37.7566 24.0917 38.9353C22.913 40.114 22.2508 41.7127 22.2508 43.3797V47.5347C22.2508 48.8419 23.3105 49.9016 24.6176 49.9016C25.9248 49.9016 26.9844 48.8419 26.9844 47.5347V43.3797C26.9774 42.9706 27.135 42.5758 27.4218 42.2841C27.7086 41.9923 28.1006 41.828 28.5097 41.8281H36.3991C37.2415 41.8281 37.9244 42.511 37.9244 43.3534V54.2407C37.9389 57.4112 40.5132 59.9737 43.6837 59.9737H48.9433C55.4936 59.9737 60.8037 54.6636 60.8037 48.1133L60.83 23.998Z" fill="#F93059"/>
</g>
<defs>
<filter id="filter0_d_4_457" x="0" y="0" width="64.83" height="68" filterUnits="userSpaceOnUse" color-interpolation-filters="sRGB">
<feFlood flood-opacity="0" result="BackgroundImageFix"/>
<feColorMatrix in="SourceAlpha" type="matrix" values="0 0 0 0 0 0 0 0 0 0 0 0 0 0 0 0 0 0 127 0" result="hardAlpha"/>
<feOffset dy="4"/>
<feGaussianBlur stdDeviation="2"/>
<feComposite in2="hardAlpha" operator="out"/>
<feColorMatrix type="matrix" values="0 0 0 0 0 0 0 0 0 0 0 0 0 0 0 0 0 0 0.25 0"/>
<feBlend mode="normal" in2="BackgroundImageFix" result="effect1_dropShadow_4_457"/>
<feBlend mode="normal" in="SourceGraphic" in2="effect1_dropShadow_4_457" result="shape"/>
</filter>
</defs>
</svg>
