<svg viewBox="0 0 703 703" fill="none" xmlns="http://www.w3.org/2000/svg">
<g filter="url(#filter0_d_3_222)">
<g filter="url(#filter1_d_3_222)">
<path d="M558.338 649.426C631.33 655.796 763.503 555.671 661.833 407.734C556.613 236.318 736.25 113.684 588.313 18.7114C481.079 -50.1295 352.182 98.6123 265.884 69.0833C81.7938 18.7114 -34.7009 204.8 46.4836 323.111C107.149 411.518 -39.9842 472.266 19.0878 542.278C84.8378 620.204 136.94 535.963 233.384 553.6C373.407 579.205 473.766 642.044 558.338 649.426Z" fill="#64FCD9"/>
</g>
<g filter="url(#filter2_d_3_222)">
<path d="M419.562 44.7315L420.723 45.4243L421.873 46.1232C438.076 56.0855 433.916 72.0311 455.213 95.7243C501.344 147.042 545.45 200.292 587.397 255.297L590.704 259.644L591.664 260.911C607.277 281.572 614.144 294.849 614.53 310.782C614.815 322.564 626.907 330.481 618.138 339.608L617.664 340.095L617.619 340.137L617.473 340.297C615.387 342.536 613.053 344.526 610.507 346.221L609.824 346.663L609.612 346.813C598.879 354.132 586.24 357.171 574.455 354.926L573.825 354.8L573.312 354.689L573.246 355.141C561.303 433.9 536.956 510.765 501.383 582.042L500.3 584.2L499.19 586.399L498.553 587.647L497.902 588.897C494.601 595.177 492.209 598.649 488.636 601.835C483.639 606.29 477.306 608.774 469.49 609.784C463.957 610.498 458.75 610.492 449.96 609.989L448.417 609.898C413.134 607.758 377.708 607.771 342.404 609.935L339.095 610.144L336.36 610.323L335.96 610.367C330.619 610.934 325.775 611.341 321.14 611.595L319.986 611.655L318.693 611.714L318.456 611.734C312.958 612.224 307.465 612.766 301.979 613.358L292.625 614.417L284.75 615.319L281.284 615.698C280.214 615.811 279.212 615.914 278.234 616.01L274.529 616.354L274.269 616.551C274.137 616.645 274.004 616.737 273.869 616.827L273.455 617.092L273.024 617.346L271.628 618.102L270.693 617.403L270.423 617.19L270.167 616.963L269.925 616.724L269.306 616.769C255.849 617.703 244.673 617.359 234.129 615.344L233.172 615.156L232.246 614.965C208.355 609.907 188.543 594.228 183.352 573.778C163.796 496.72 136.437 421.644 101.833 350.069L101.362 349.099L101.133 349.236C92.9264 353.886 82.6146 352.745 73.5325 346.852L73.0638 346.542L72.5877 346.217L72.4781 346.171C69.6302 344.908 67.1 342.64 65.2967 339.79L65.0447 339.378L64.8657 338.982L64.7975 339.012C61.857 335.403 59.6812 331.354 58.4648 327.139L58.2895 326.504L58.1288 325.869C54.2337 309.693 59.2441 293.026 71.5089 271.88C75.0728 265.734 96.7374 229.504 125.79 212.309C157.751 193.393 151.801 195.068 158.665 189.175C163.981 182.479 142.643 144.038 123.801 124.643C104.959 105.248 179.126 85.5184 184.892 87.6504C186.403 88.2093 187.799 88.9009 189.088 89.7264L189.634 90.088L189.693 90.1294L189.839 89.7544L190.269 90.5434L190.481 90.7017C193.09 92.69 195.23 95.2945 197.009 98.5174L197.337 99.1287L197.611 99.6595C199.616 103.637 203.519 105.65 205.38 113.076L206.643 118.214L207.004 119.66L207.357 121.038C208.816 126.645 211.468 130.611 213.097 133.982L213.294 134.384L213.394 134.584L213.849 133.981C240.752 98.5686 271.765 71.191 311.347 50.9375L311.059 50.9436C306.685 50.9436 318.125 45.7895 347.069 35.5459L348.711 34.97L350.408 34.3868C371.791 27.1129 397.107 31.4792 419.562 44.7315Z" fill="white"/>
</g>
<g filter="url(#filter3_d_3_222)">
<path d="M579.161 351.884L578.531 351.759L578.019 351.649L577.953 352.099C566.009 430.858 541.662 507.724 506.089 579L505.007 581.158L503.897 583.357L503.259 584.605C499.611 591.687 497.147 595.401 493.342 598.794C488.346 603.249 482.013 605.733 474.197 606.742C468.663 607.457 464.804 605.205 450.692 603.928C498.706 577.738 506.146 528.218 522.94 496.009C571.719 402.455 541.45 376.998 579.161 351.884Z" fill="#E7EAEE"/>
</g>
<g filter="url(#filter4_d_3_222)">
<path d="M364.402 696.561C363.775 698.053 361.748 698.619 360.51 697.649C361.262 696.598 362.05 695.515 363.149 694.902C364.25 694.287 365.756 694.284 366.598 695.256C365.95 695.732 365.301 696.209 364.652 696.687L364.402 696.561Z" fill="#00160A"/>
</g>
<g filter="url(#filter5_d_3_222)">
<path d="M364.848 701.394C363.401 701.524 361.956 701.653 360.51 701.782C361.143 700.976 361.776 700.17 362.408 699.364C363.238 699.328 364.143 699.309 364.813 699.734C365.482 700.159 365.627 701.211 364.878 701.524L364.848 701.394Z" fill="#00160A"/>
</g>
<g filter="url(#filter6_d_3_222)">
<path d="M412.165 642.12C411.497 641.807 411.539 640.925 411.942 640.366C412.346 639.807 412.993 639.403 413.368 638.828C413.768 638.214 413.815 637.479 413.851 636.773C413.968 634.497 414.086 632.22 414.203 629.944C415.361 631.821 415.586 634.118 414.813 636.141C415.986 635.964 417.253 636.555 417.736 637.504C416.001 639.151 414.138 640.693 412.165 642.12Z" fill="#00160A"/>
</g>
<g filter="url(#filter7_d_3_222)">
<path d="M410.28 640.903C408.404 640.526 406.89 638.791 406.778 636.888C408.07 637.374 409.526 636.417 410.151 635.191C410.775 633.965 410.817 632.54 411.004 631.179C411.433 628.08 412.7 625.101 414.639 622.639C415.83 624.548 415.372 627.304 413.627 628.73C410.946 630.923 413.351 635.77 411.22 638.499C410.644 639.236 409.72 640.153 410.28 640.903Z" fill="#00160A"/>
</g>
<g filter="url(#filter8_d_3_222)">
<path d="M198.57 182.227C190.458 190.979 176.256 194.78 166.098 188.498C157.785 183.358 154.193 173.384 150.256 164.461C146.209 155.295 141.233 146.537 135.426 138.365C131.564 132.93 126.047 127.199 119.426 128.114C120.678 125.942 123.742 125.389 126.105 126.244C128.467 127.098 130.27 129.002 131.921 130.89C140.231 140.402 147.064 151.193 152.106 162.761C154.586 168.451 156.665 174.384 160.173 179.509C163.681 184.635 168.957 188.977 175.148 189.624C180.529 190.185 185.761 187.934 190.7 185.733C193.323 184.564 195.947 183.396 198.57 182.227Z" fill="#00160A"/>
</g>
<g filter="url(#filter9_d_3_222)">
<path d="M289.255 686.006C297.494 682.051 306.888 681.676 315.988 681.369C327.916 680.969 339.996 680.58 351.641 683.24C355.646 684.155 360.353 686.391 360.493 690.576C360.633 694.758 359.932 698.97 358.447 702.872C356.651 699.553 352.014 699.677 348.335 700.212C328.729 703.06 308.563 704.728 289.272 700.165C287 699.628 284.532 698.849 283.302 696.828C282.09 694.836 282.513 692.133 283.823 690.207C285.133 688.279 287.175 687.004 289.255 686.006ZM312.236 699.332C305.986 698.853 299.749 698.2 293.535 697.377C291.709 697.135 289.82 696.853 288.277 695.831C286.733 694.807 285.645 692.821 286.217 691.037C284.406 691.406 283.953 694.105 285.042 695.625C286.132 697.144 288.059 697.725 289.856 698.154C309.283 702.775 329.569 700.532 349.389 698.228C353.362 697.767 358.363 696.298 358.723 692.238C359.096 688.027 354.078 685.709 350.001 684.944C333.43 681.839 316.388 683.048 299.648 684.994C297.088 685.291 294.467 685.625 292.173 686.822C289.878 688.017 287.94 690.27 287.819 692.895C293.665 697.414 301.891 695.838 309.109 697.162C310.43 697.404 311.971 697.989 312.236 699.332Z" fill="#00160A"/>
</g>
<g filter="url(#filter10_d_3_222)">
<path d="M293.23 523.051C294.559 524.448 295.136 526.504 294.504 528.28C293.872 530.057 291.957 531.415 289.963 531.314C287.97 531.212 286.162 529.514 286.239 527.642C286.341 525.192 287.007 522.086 289.573 521.627C290.929 521.385 292.311 522.084 293.23 523.051ZM288.902 526.588C287.894 527.889 289.926 529.812 291.518 529.214C293.111 528.615 293.572 526.545 292.849 525.086C292.62 524.626 292.291 524.195 291.834 523.924C290.343 523.038 288.108 524.821 288.799 526.344L288.902 526.588Z" fill="#00160A"/>
</g>
<g filter="url(#filter11_d_3_222)">
<path d="M356.081 661.631C355.528 661.254 354.976 660.876 354.422 660.499C356.048 656.644 356.303 652.225 355.131 648.208C360.199 650.42 355.198 660.545 360.186 662.933C360.486 658.297 364.138 654.424 368.353 652.503C372.57 650.583 377.306 650.246 381.926 649.936C399.577 648.756 417.651 647.618 434.652 652.521C437.919 653.464 441.661 655.256 442.057 658.642C442.45 662.015 439.195 664.665 436.062 665.949C431.025 668.011 425.486 668.422 420.051 668.652C404.764 669.298 389.426 668.718 374.231 666.916C370.001 666.414 365.392 665.615 362.603 662.385C360.629 664.567 357.098 665.127 354.548 663.662C355.06 662.985 355.571 662.308 356.081 661.631ZM370.832 653.775C369.612 654.014 368.273 654.345 367.572 655.374C366.632 656.756 367.394 658.771 368.748 659.749C370.101 660.727 371.84 660.94 373.498 661.121C385.759 662.47 398.02 663.818 410.282 665.166C398.598 666.102 386.786 665.429 375.284 663.17C371.72 662.471 368.007 661.528 365.36 659.034C364.401 659.941 364.746 661.654 365.717 662.548C366.69 663.441 368.056 663.726 369.354 663.963C389.302 667.604 409.807 668.155 429.922 665.591C432.937 665.206 436.205 664.616 438.218 662.333C440.23 660.05 439.757 655.56 436.794 654.879C415.205 649.908 392.575 649.53 370.832 653.775Z" fill="#00160A"/>
</g>
<g filter="url(#filter12_d_3_222)">
<path d="M287.255 483.116C286.578 483.877 287.052 485.08 287.402 486.052C288.144 488.114 288.153 490.372 288.153 492.574C288.153 498.234 288.152 503.894 288.152 509.555C288.152 510.591 287.859 511.97 286.865 512.012C286.829 505.17 286.794 498.329 286.76 491.487C286.746 488.874 286.68 486.077 285.238 483.939C284.349 482.623 286.367 480.899 287.785 481.534C289.204 482.169 289.782 483.921 290.08 485.5C290.718 488.884 290.788 492.353 290.855 495.801C290.939 500.106 291.021 504.41 291.105 508.716C291.138 510.458 290.801 512.716 289.161 513.055C289.934 507.4 289.905 501.662 289.874 495.949C289.851 491.502 289.734 486.737 287.255 483.116Z" fill="#00160A"/>
</g>
<g filter="url(#filter13_d_3_222)">
<path d="M283.246 619.152C284.292 620.844 285.339 622.538 286.385 624.231C286.326 620.937 287.769 617.644 290.245 615.425C289.049 618.097 288.693 621.128 289.239 623.998C290.825 621.335 291.905 618.381 292.408 615.333C292.618 617.569 292.828 619.805 293.038 622.041C298.284 619.524 304.283 619.128 310.11 618.777C315.667 618.441 321.224 618.106 326.782 617.77C343.97 616.731 361.228 615.694 378.394 617.046C383.591 617.457 388.993 618.163 393.321 621.024C396.399 623.058 398.872 626.615 398.12 630.188C397.063 635.198 390.879 637.03 385.745 637.847C370.486 640.278 355.137 642.168 339.74 643.51C321.091 645.135 301.537 645.814 284.477 638.223C281.871 637.062 279.163 635.525 278.064 632.925C276.964 630.327 278.559 626.586 281.42 626.594C280.895 624.726 279.507 623.11 277.722 622.289C279.852 621.083 283.002 622.628 283.307 625.028C283.286 623.07 283.265 621.111 283.246 619.152ZM291.944 636.082C300.917 637.353 309.889 638.625 318.863 639.896C307.481 640.675 295.96 639.417 285.028 636.2C291.064 639.306 297.689 641.298 304.458 642.042C309.537 642.601 314.668 642.462 319.775 642.252C343.667 641.269 367.492 638.751 391.05 634.717C395.56 633.945 396.477 627.24 393.445 623.864C390.415 620.487 385.445 619.702 380.887 619.288C359.12 617.309 337.201 618.991 315.407 620.671C306.727 621.341 297.945 622.031 289.688 624.749C286.897 625.668 283.732 627.426 283.677 630.322C283.611 633.972 288.273 635.561 291.944 636.082ZM281.088 628.482C279.334 629.127 279.235 631.737 280.411 633.172C281.217 634.157 282.445 634.798 283.726 634.901C281.984 633.552 281.272 631.055 282.045 629.01C281.919 628.637 281.479 628.394 281.088 628.482Z" fill="#00160A"/>
</g>
<g filter="url(#filter14_d_3_222)">
<path d="M342.677 436.378C343.076 436.213 343.477 436.754 343.463 437.26C343.45 437.767 343.173 438.202 342.91 438.597C342.095 439.821 341.115 441.151 339.81 441.218C339.807 439.104 341.013 437.063 342.677 436.378Z" fill="#00160A"/>
</g>
<g filter="url(#filter15_d_3_222)">
<path d="M406.29 469.904C382.168 483.923 357.983 497.974 332.451 509.216C328.333 511.031 323.683 512.791 319.458 511.244C316.491 510.156 314.32 507.62 312.401 505.108C305.73 496.378 300.348 486.663 296.486 476.374C295.517 473.791 294.63 471.092 294.775 468.336C294.921 465.58 296.312 462.729 298.82 461.583C305.377 458.588 311.934 455.591 318.49 452.596C319.548 452.113 320.649 451.596 321.368 450.678C322.213 449.599 322.384 448.154 322.523 446.79C323.574 436.548 324.623 426.306 325.673 416.063C325.931 413.539 326.327 410.748 328.275 409.127C330.223 407.506 334.104 408.519 333.95 411.05C333.85 412.705 335.501 413.861 336.949 414.667C344.659 418.957 352.37 423.248 360.081 427.54C361.526 428.344 363.282 429.162 364.755 428.408C371.3 425.06 377.976 421.969 384.762 419.141C387.052 418.187 389.601 417.252 391.953 418.047C393.847 418.688 395.202 420.33 396.416 421.922C403.414 431.108 409.188 441.226 413.538 451.925C414.706 454.796 415.787 457.924 415.072 460.94C414.079 465.135 410.014 467.74 406.29 469.904ZM297.629 471.088C300.038 479.598 304.318 487.572 310.079 494.279C313.064 497.753 316.641 501.004 321.073 502.148C326.631 503.583 332.433 501.474 337.721 499.241C353.545 492.559 368.731 484.471 383.892 476.396C392.692 471.708 401.493 467.021 410.293 462.334C411.497 461.693 412.808 460.928 413.219 459.626C413.552 458.573 413.201 457.437 412.838 456.395C408.786 444.772 402.794 433.83 395.185 424.16C393.813 422.415 392.228 420.61 390.063 420.123C387.825 419.617 385.557 420.652 383.495 421.662C355.835 435.206 328.387 449.183 301.162 463.586C299.641 464.39 298 465.331 297.402 466.945C296.915 468.265 297.247 469.734 297.629 471.088ZM410.116 464.65C405.161 467.314 400.207 469.978 395.252 472.642C376.204 482.886 357.123 493.143 337.239 501.645C330.473 504.538 322.144 507.073 316.228 502.694C313.135 500.403 311.365 496.579 308.081 494.574C311.627 501.518 316.763 509.475 324.55 509.321C327.329 509.268 329.954 508.117 332.485 506.969C359.348 494.785 385.317 480.63 410.116 464.65ZM333.922 416.241C333.049 416.408 332.593 417.34 332.026 418.027C331.46 418.715 330.232 419.139 329.787 418.367C329.963 417.584 330.139 416.801 330.316 416.018C330.031 415.541 329.265 415.601 328.872 415.993C328.478 416.386 328.361 416.969 328.264 417.516C326.492 427.449 325.23 437.472 324.486 447.534C324.433 448.242 324.468 449.111 325.093 449.444C327.138 448.528 326.917 445.624 326.673 443.396C326.103 438.217 327.35 432.765 330.541 428.651C333.733 424.536 338.947 421.931 344.133 422.348C344.714 421.866 344.038 420.969 343.401 420.565C340.851 418.948 338.142 417.583 335.327 416.493C334.877 416.319 334.396 416.15 333.922 416.241ZM334.021 437.713C333.718 439.585 333.498 442.062 331.648 442.464C331.287 443.749 333.519 444.333 334.407 443.339C335.294 442.343 335.209 440.853 335.325 439.524C335.643 435.894 337.986 432.509 341.27 430.94C344.555 429.37 348.658 429.675 351.676 431.711C353.262 432.781 355.38 434.305 356.787 433.007C357.642 432.218 357.502 430.744 356.773 429.838C356.043 428.932 354.9 428.477 353.786 428.144C349.815 426.958 345.42 426.888 341.609 428.518C337.798 430.148 334.686 433.619 334.021 437.713ZM351.574 424.965C346.272 422.825 339.908 423.561 335.235 426.857C330.56 430.152 327.723 435.903 327.949 441.622C328.001 442.943 328.204 444.252 328.408 445.557C328.516 446.251 328.818 447.125 329.519 447.131C330.447 447.141 330.524 445.776 330.345 444.864C329.374 439.924 330.881 434.56 334.28 430.848C337.678 427.138 342.889 425.174 347.887 425.718C349.201 425.86 350.81 426.045 351.574 424.965ZM337.17 442.456C341.504 442.417 344.411 438.227 347.311 435.003C347.545 434.744 347.802 434.476 348.139 434.388C348.611 434.266 349.152 434.591 349.265 435.066C348.773 435.629 348.281 436.191 347.789 436.754C349.552 437.118 351.502 436.101 352.213 434.445C349.554 431.724 345.056 431.026 341.698 432.815C338.34 434.602 336.404 438.726 337.17 442.456ZM329.536 413.251C330.825 413.551 332.276 412.803 332.779 411.578C331.443 410.324 328.902 410.89 328.223 412.593C328.639 412.854 329.055 413.115 329.472 413.376L329.536 413.251ZM358.687 429.899C358.286 430.875 359.984 431.751 360.609 430.901C361.235 430.052 360.117 428.687 359.129 429.054C358.789 429.179 358.519 429.436 358.257 429.687L358.687 429.899Z" fill="#00160A"/>
</g>
<g filter="url(#filter16_d_3_222)">
<path d="M477.795 493.503C472.475 489.973 470.753 483.05 469.785 476.739C467.191 459.823 466.969 442.547 469.126 425.57C469.448 423.042 469.88 420.384 471.497 418.415C474.465 414.803 479.927 414.993 484.599 415.212C496.938 415.789 509.371 414.33 521.24 410.909C523.221 410.339 525.349 411.697 526.346 413.501C527.342 415.306 527.479 417.444 527.595 419.502C528.218 430.661 528.842 441.82 529.465 452.978C529.996 462.481 530.356 472.686 525.272 480.731C518.679 491.162 505.158 494.569 492.872 495.733C487.71 496.221 482.115 496.368 477.795 493.503ZM479.289 417.082C477.918 417.178 476.506 417.352 475.316 418.042C473.103 419.324 472.203 422.021 471.605 424.507C469.409 433.644 468.892 443.182 470.092 452.504C479.47 452.954 488.886 452.574 498.197 451.371C498.717 451.304 499.262 451.223 499.677 450.907C500.437 450.329 500.482 449.222 500.451 448.268C500.222 440.999 499.637 433.741 498.699 426.528C498.408 424.288 498.01 421.898 496.455 420.258C495.065 418.792 492.998 418.204 491.016 417.813C487.162 417.053 483.208 416.807 479.289 417.082ZM489.605 489.863C492.26 489.674 495.385 489.187 496.576 486.808C496.996 485.97 497.096 485.013 497.189 484.08C497.872 477.245 498.555 470.409 499.24 463.575C499.348 462.484 499.434 461.294 498.832 460.38C497.678 458.629 495.04 459.077 493.026 459.659C485.888 461.72 478.485 462.865 471.056 463.052C469.077 468.059 471.908 473.537 472.623 478.873C472.854 480.599 472.867 482.383 473.488 484.01C474.583 486.883 477.445 488.786 480.427 489.541C483.407 490.296 486.538 490.082 489.605 489.863ZM513.999 481.042C510.232 485.434 503.551 487.211 501.232 492.511C515.999 491.387 528.511 477.186 527.761 462.399C527.024 447.854 526.287 433.309 525.549 418.765C525.492 417.631 525.422 416.451 524.866 415.461C523.641 413.281 520.605 412.913 518.168 413.477C515.731 414.041 513.422 415.267 510.921 415.328C518.114 419.538 518.929 429.425 518.907 437.758C518.898 441.539 518.888 445.319 518.878 449.1C520.717 447.316 524.265 448.669 524.896 451.152C525.528 453.634 523.657 456.291 521.22 457.083C517.523 458.285 517.533 463.396 517.719 467.279C517.953 472.143 517.171 477.346 513.999 481.042ZM507.23 416.307C505.971 416.147 504.696 416.333 503.44 416.518C502.127 416.712 500.813 416.906 499.5 417.099C503.656 420.904 505.805 426.472 506.727 432.029C507.647 437.588 507.474 443.259 507.746 448.886C507.77 449.376 507.836 449.939 508.244 450.213C508.562 450.427 508.979 450.387 509.359 450.338C511.07 450.118 512.781 449.897 514.491 449.678C514.91 449.625 515.357 449.559 515.674 449.279C516.07 448.931 516.151 448.354 516.207 447.829C517.007 440.258 517.785 432.441 515.547 425.165C514.285 421.069 511.483 416.843 507.23 416.307ZM496.71 492.401C499.067 491.4 501.344 489.86 502.446 487.548C503.237 485.885 503.348 483.991 503.444 482.152C503.999 471.546 504.556 460.94 505.112 450.335C505.693 439.244 505.882 426.934 498.621 418.527C504.375 438.44 502.127 459.672 499.83 480.272C499.28 485.203 497.618 491.354 492.705 492.052C487.898 491.896 483.092 491.74 478.286 491.584C483.893 494.575 490.859 494.883 496.71 492.401ZM515.971 465.598C516.044 463.555 516.118 461.513 516.191 459.47C512.967 459.307 509.716 459.692 506.62 460.603C505.896 468.258 505.542 475.948 505.557 483.637C505.557 483.794 505.559 483.958 505.626 484.101C505.889 484.652 506.723 484.392 507.233 484.056C508.959 482.917 510.707 481.759 512.062 480.199C515.435 476.316 515.784 470.738 515.971 465.598ZM471.578 461.686C479.074 460.314 486.571 458.942 494.067 457.57C495.885 457.237 497.986 456.975 499.38 458.188C499.768 457.188 500.164 456.129 499.99 455.071C499.817 454.013 498.843 453.006 497.79 453.208C490.075 454.683 482.15 455.053 474.331 454.303C472.559 454.132 470.742 455.27 470.12 456.938C469.498 458.606 470.127 460.655 471.578 461.686ZM519.341 450.506C515.878 451.256 512.415 452.006 508.954 452.756C508.436 452.868 507.883 453.001 507.531 453.394C507.091 453.886 507.1 454.621 507.135 455.278C507.193 456.402 507.251 457.525 507.309 458.648C510.914 457.852 514.519 457.057 518.125 456.261C519.586 455.939 521.142 455.564 522.162 454.47C523.182 453.375 523.28 451.31 521.975 450.577C521.19 450.137 520.219 450.315 519.341 450.506Z" fill="#00160A"/>
</g>
<g filter="url(#filter17_d_3_222)">
<path d="M424.432 42.2962L425.594 42.989C442.344 53.0779 455.331 65.3854 477.129 89.6362C523.26 140.954 567.367 194.204 609.314 249.209L612.621 253.556L613.58 254.823C629.192 275.484 636.061 288.761 636.447 304.694C636.732 316.476 631.777 328.046 623.008 337.173L622.534 337.66L622.489 337.701L622.343 337.862C620.258 340.101 617.923 342.091 615.377 343.786L614.694 344.228L614.483 344.377C603.749 351.696 591.111 354.735 579.326 352.49L578.695 352.365L578.182 352.254L578.117 352.706C566.173 431.465 541.826 508.33 506.253 579.607L505.171 581.764L504.06 583.963L503.423 585.211C499.775 592.293 497.311 596.008 493.506 599.4C488.509 603.855 482.176 606.339 474.361 607.348C468.828 608.063 463.62 608.057 454.83 607.554L453.288 607.463C418.004 605.322 382.578 605.336 347.274 607.499L343.965 607.709L341.23 607.888L340.831 607.932C335.489 608.499 330.646 608.906 326.01 609.16L324.856 609.22L323.563 609.278L323.327 609.299C317.828 609.788 312.335 610.33 306.849 610.923L297.495 611.981L289.62 612.883C287.113 613.164 285.059 613.383 283.105 613.575C260.73 614.475 246.028 614.252 239 612.909L238.043 612.72L237.116 612.529C213.226 607.471 193.413 591.792 188.223 571.343C168.667 494.285 141.309 419.208 106.703 347.633L106.232 346.664L106.003 346.8C97.7967 351.45 87.4849 350.31 78.4029 344.416L77.9341 344.107L77.458 343.782L77.3485 343.736C74.5005 342.473 71.9704 340.205 70.1671 337.354L69.9151 336.943L69.7787 336.71L69.6679 336.576C66.7274 332.967 64.5516 328.919 63.3352 324.704L63.1598 324.069L62.9991 323.434C59.104 307.258 64.1144 290.59 76.3793 269.444C98.705 230.952 126.14 202.043 158.855 185.846L159.848 185.358L161.633 188.538C132.742 207.082 107.698 231.595 88.5418 260.082C75.4052 279.615 68.1836 297.566 68.1617 314.644L68.1654 315.419L68.1751 316.061L68.208 315.999C76.4474 299.794 90.2172 286.275 112.198 270.237L113.146 269.549L114.027 268.911C138.047 251.588 164.209 235.249 194.446 218.359L198.501 216.104C220.856 203.727 239.874 193.861 276.951 175.198L315.647 155.717C326.272 150.337 334.233 146.249 343.154 141.601L345.4 140.422C363.567 130.815 377.348 121.776 388.233 111.549C402.252 98.3785 410.243 84.1046 411.427 68.1079C412.384 55.1856 407.598 42.9415 398.45 37.2139C389.56 31.6471 378.139 32.0574 362.237 36.7415C304.906 53.6295 253.559 90.1987 218.857 138.857C216.722 141.853 218.177 144.572 218.857 146.192C223.314 156.79 220.587 168.703 215.322 178.919L215.031 179.474L210.9 187.168L214.234 168.757C213.937 138.857 208.336 122.385 195.948 97.458L195.428 96.4206L195.123 95.8252L194.921 96.2234C189.16 107.297 178.095 115.928 164.595 120.675L163.895 120.917L163.224 121.141C152.03 124.816 142.372 125.897 122.766 126.428L118.127 126.54L117.572 125.687C114.207 120.507 117.489 114.055 123.774 108.963C137.129 98.1435 152.776 90.1744 169.38 85.735C177.761 83.4934 183.996 83.0831 189.763 85.2151C191.274 85.774 192.669 86.4656 193.959 87.2911L194.504 87.6527L194.564 87.6941L194.71 87.3191L195.14 88.1081L195.352 88.2664C197.961 90.2547 200.1 92.8592 201.879 96.0821L202.208 96.6934L202.482 97.2242C204.486 101.202 205.717 105.012 207.579 112.438L208.841 117.575L209.203 119.022C210.809 125.373 212.179 129.676 213.937 133.317L214.134 133.719L214.234 133.918L214.691 133.315C249.442 87.5699 297.78 52.278 351.939 33.1106L353.581 32.5347L355.279 31.9515C376.661 24.6776 401.977 29.0439 424.432 42.2962ZM332.08 352.947C309.587 354.134 287.538 364.201 271.463 380.491C264.182 387.87 259.494 395.235 257.768 403.008L257.616 403.719C256.606 408.68 256.677 413.23 257.539 422.172L276.017 607.077C276.162 608.517 276.334 609.531 276.595 610.299L276.662 610.484L277.945 610.377L278.121 610.215C280.316 608.09 281.779 604.849 282.222 601.294L282.286 600.706L282.299 600.561C282.599 597.116 282.25 594.211 281.036 588.108L280.693 586.395L280.178 583.765C276.491 564.562 274.723 546.934 272.532 513.954L271.844 503.531C269.006 461.371 266.673 441.773 260.608 418.123C257.871 407.45 261.046 395.342 268.475 385.73C274.77 377.587 283.711 371.199 295.29 365.812C309.339 359.276 323.962 355.641 338.263 355.403C349.809 355.21 361.264 357.025 377.18 360.974L378.715 361.362C391.814 364.705 399.558 367.966 406.133 373.96C412.743 379.985 417.012 388.066 420.953 400.037C429.682 426.545 433.031 455.764 432.544 490.965L432.473 495.045C432.238 506.328 431.713 516.863 430.616 533.902L429.03 558.014C428.278 569.781 427.897 577.023 427.587 585.55L427.554 586.581C427.426 591.24 427.687 593.725 428.772 596.194C429.843 598.63 431.934 600.442 434.079 600.916L434.376 600.971L435.679 512.582C436.159 476.602 435.838 459.233 433.77 438.321L433.703 437.652C432.586 426.524 431.119 417.354 428.919 408.773C427.804 404.425 426.469 400.135 424.923 395.921C420.549 384.009 415.204 375.256 407.848 369.315C399.566 362.628 390.628 359.816 372.223 356.731L370.574 356.458C351.451 353.329 342.764 352.383 332.08 352.947ZM285.311 604.534L285.3 604.581C284.792 606.5 284.022 608.308 283.006 609.915L286.9 609.508C288.021 609.388 289.227 609.254 290.564 609.102L297.094 608.35C296.604 608.288 296.117 608.223 295.631 608.154L294.455 607.981L292.933 607.751L292.899 606.083L292.735 606.179C291.274 606.989 289.659 607.519 287.999 607.716L287.583 607.759L285.936 607.899L285.311 604.534ZM230.67 605.992L230.552 606.155C230.366 606.397 230.155 606.617 229.924 606.813C232.504 607.664 235.161 608.381 237.874 608.956C238.747 609.141 239.624 609.314 240.508 609.474C237.321 608.604 234.193 607.511 231.157 606.205L230.67 605.992ZM332.733 271.384C256.715 275.563 178.756 295.646 99.9385 329.635L97.2147 330.815L100.008 332.128C106.382 335.124 109.991 340.246 114.742 350.663L122.237 367.289C136.083 398.11 144.169 416.866 152.452 437.784C164.139 467.295 173.127 494.098 179.817 520.303L183.453 534.819C183.915 536.638 184.337 538.277 184.756 539.872L185.311 541.962C189.186 556.407 192.864 566.924 197.669 576.239C203.819 588.16 211.49 597.1 221.398 603.185C224.144 604.872 227.496 604.772 227.832 603.447L227.854 603.327L228.136 600.782L230.451 601.878C242.542 607.604 256.36 609.626 269.588 607.645L270.31 607.531L252.147 426.782L251.975 425.053C250.814 413.268 250.826 406.574 252.716 399.435C255.217 389.982 261.239 381.313 270.108 373.195C285.562 359.049 305.585 349.988 326.413 347.715C340.363 346.193 354.462 347.398 374.031 350.997L375.738 351.315C390.884 354.19 400.214 357.238 408.698 363.031C419.546 370.439 427.022 381.569 431.87 396.157C435.723 407.747 437.782 420.733 439.016 437.663C442.831 489.976 442.831 542.566 439.016 594.879C438.656 599.825 445.17 603.161 453.88 603.568L454.317 603.586L455.543 603.627L457.025 603.669C472.126 604.045 480.764 602.493 487.664 596.763C491.44 593.626 493.96 589.9 497.859 582.474L498.169 581.88C533.364 514.342 557.562 441.088 569.531 365.878L569.891 363.598C571.195 355.225 572.599 349.342 574.886 344.096C577.824 337.364 581.984 332.652 587.753 330.272L588.224 330.084L588.78 329.869L588.536 329.681C583.746 326.033 578.024 322.62 570.549 318.736L568.889 317.88C499.299 282.294 417.293 266.736 332.733 271.384ZM336.214 361.166C324.039 361.648 311.483 364.958 298.739 370.721C280.377 379.024 267.997 391.171 266.151 405.63C266.032 406.56 265.956 407.507 265.921 408.478L265.901 409.186C265.819 413.299 266.347 417.015 267.803 423.789L268.932 428.912C272.637 445.934 274.631 462.557 276.612 488.632L278.124 509.162C281.344 552.253 283.938 576.57 288.742 602.989L288.894 603.825L289.144 603.756C290.606 603.311 291.963 602.505 293.038 601.422L293.301 601.146L296.384 597.766L296.521 604.588L297.296 604.694C304.975 605.705 313.012 606.007 321.784 605.695L323.246 605.639L325.962 605.401C329.658 605.085 333.358 604.793 337.056 604.523L340.837 604.257L343.832 603.927C347.752 603.484 351.501 603.012 358.664 602.086L364.888 601.287C384.719 598.785 395.041 597.935 406.997 598.183L408.613 598.224L413.186 598.38L414.416 598.405C417.593 598.446 419.985 598.281 422.16 597.79L422.363 597.742L422.328 595.158C422.193 582.598 422.606 569.902 423.588 552.269L424.426 538.094L425.22 524.895C425.832 514.392 426.144 507.929 426.398 500.326C427.713 461.051 424.917 430.799 415.807 403.214C411.663 390.672 406.944 382.21 399.867 376.502C393.739 371.559 386.791 369.018 373.79 366.025L371.893 365.593C356.617 362.145 346.607 360.755 336.214 361.166ZM438.018 601.778L438 603.014L439.527 603.081C438.975 602.676 438.471 602.242 438.018 601.778ZM426.038 598.873L426.07 600.47L424.755 600.877C421.711 601.817 418.644 602.115 414.349 602.057L412.735 602.021L409.048 601.891L408.51 601.875C402.349 601.699 396.732 601.807 390.132 602.277C403.23 602.12 416.33 602.258 429.419 602.689C428.075 601.701 426.909 600.391 426.038 598.873ZM591.519 332.087L589.978 333.247C585.889 336.325 582.605 340.469 580.519 345.143L580.363 345.499L580.431 345.515C585.819 346.645 588.959 346.718 591.938 345.489L592.216 345.37C596.107 343.654 597.977 338.321 595.565 335.863C594.413 334.689 593.221 333.565 591.969 332.475L591.519 332.087ZM99.3199 344.706L97.457 345.349C96.6765 345.612 95.9679 345.832 95.3141 346.009C98.3361 345.943 101.24 345.22 103.875 343.801C102.821 343.686 101.467 343.983 99.3199 344.706ZM411.343 42.1318L411.389 42.2353C418.808 59.5982 417.964 80.3679 408.867 96.9576C400.101 112.949 386.618 123.701 361.525 137.796L357.123 140.244C338.433 150.584 321.579 159.337 291.226 174.624L260.42 190.112C228.602 206.162 211.488 215.132 191.366 226.444C160.554 243.764 134.333 260.605 110.601 278.761L108.896 280.073C94.3242 291.344 85.0242 300.22 77.7649 310.743C72.8434 317.876 70.508 324.196 71.2983 330.146C71.4736 331.462 71.8839 332.79 72.4939 334.041L72.7314 334.508L72.7959 334.626L72.8434 334.683C74.5176 336.672 76.4304 338.479 78.4967 340.029L79.1201 340.486L79.2248 340.559L79.4293 340.639C80.4935 341.031 81.5699 341.217 82.6353 341.186L82.6986 341.181L82.6742 340.907C82.147 334.077 88.3774 328.179 97.7565 324.076L98.2046 323.883C182.163 288.047 264.827 267.659 345.081 265.073C434.04 262.206 519.783 281.899 590.462 323.451C592.619 324.719 594.459 325.905 596.019 327.084L597.07 327.913C599.988 330.322 601.776 332.775 602.749 335.916C603.748 339.141 602.942 342.788 601.055 345.476L600.938 345.636C604.661 345.097 608.353 343.76 611.823 341.707L612.369 341.377L612.65 341.202L613.097 340.894C615.05 339.516 616.904 337.998 618.63 336.372L619.361 335.667L619.797 335.232L619.976 335.038C622.537 332.22 624.624 329.026 626.103 325.643C631.358 313.633 630.589 298.727 624.749 284.394L624.326 283.37C619.836 272.684 613.976 264.014 601.474 247.989C567.309 204.203 531.219 160.353 493.013 116.094L489.309 111.811C473.232 93.2415 463.105 82.2649 451.751 71.6962L451.209 71.1933C438.141 59.0843 425.316 49.5749 411.888 42.4203L411.343 42.1318ZM95.0559 331.809L94.743 331.966C92.3151 333.188 90.9405 334.246 89.8945 335.741C88.3397 337.962 88.5881 341.191 90.3609 342.287C91.6795 343.103 93.0944 342.971 96.4647 341.829L97.3413 341.525C99.2201 340.865 100.717 340.414 102.005 340.208L102.125 340.19L101.407 339.256C100.552 338.164 99.6743 337.09 98.772 336.037L97.8625 334.99L95.0559 331.809ZM171.889 91.6306L171.453 91.7207L171.501 92.2053C171.868 95.9263 169.557 99.0177 165.552 101.793L165.194 102.037C159.345 105.967 152.834 108.905 146.018 110.691C140.462 112.147 136.073 112.21 132.329 110.181C131.923 109.96 130.99 110.305 129.813 111.281C127.118 113.519 124.753 116.157 122.819 119.079L122.42 119.694L136.278 119.61C140.94 119.559 143.545 119.444 146.516 119.128L146.849 119.091C163.039 117.297 178.423 108.944 188.744 96.3415L189.177 95.7972C190.117 94.5845 190.555 93.7395 190.658 92.8835C190.762 92.0081 190.246 91.1472 189.758 91.0778C183.829 90.2328 177.76 90.441 171.889 91.6306ZM169.371 92.3599C154.418 93.6457 140.493 101.206 134.333 108.897C134.333 109.449 134.823 109.793 135.685 109.951C137.691 107.487 140.493 105.041 143.864 102.815C145.027 106.26 152.258 104.805 157.287 103.52C164.017 99.8567 169.371 95.3443 169.371 92.3599ZM403.969 36.8085L404.104 36.9266C404.487 37.2711 404.859 37.6279 405.223 37.9932L404.72 37.0715L404.104 36.8547L403.969 36.8085Z" fill="#00160A"/>
</g>
<g filter="url(#filter18_d_3_222)">
<path d="M397.578 337.924C426.75 353.408 442.109 380.019 438.744 381.554C435.379 383.091 408.018 335.07 340.355 340.681C253.087 343.703 242.293 404.033 238.792 402.844C235.289 401.655 248.871 363.217 281.275 342.707C313.68 322.196 368.406 322.44 397.578 337.924Z" fill="#E7EAEE"/>
</g>
<g filter="url(#filter19_d_3_222)">
<path d="M379.575 463.261C379.307 462.34 378.889 461.471 378.336 460.687C377.514 459.652 376.628 458.672 375.68 457.751C374.472 456.496 369.751 452.513 369.509 451.465C369.425 451.289 369.288 451.142 369.12 451.045C368.868 450.847 368.591 450.684 368.331 450.496C367.701 450.038 367.089 449.553 366.44 449.123C366.202 448.965 365.813 449.008 365.611 448.827C364.794 448.099 364.066 447.269 363.224 446.574C362.209 445.736 361.085 445.033 360.061 444.207C359.12 443.528 358.048 443.056 356.912 442.819C355.478 442.385 353.949 442.383 352.514 442.811C351.199 443.219 350.394 444.121 349.565 445.032C348.776 445.895 348.412 447.066 348.571 448.224C348.454 448.213 348.337 448.194 348.223 448.169C346.406 447.646 344.852 448.303 343.44 449.336C342.529 449.993 341.787 450.856 341.275 451.856C340.789 452.721 340.539 453.699 340.547 454.691C340.529 455.064 340.49 455.434 340.43 455.802C340.344 456.809 340.261 457.816 340.183 458.823C340.143 459.367 340.267 459.982 340.056 460.444C339.597 461.372 339.429 462.416 339.574 463.44C339.655 463.971 339.706 464.506 340.246 464.631C340.121 464.849 340.025 465.082 339.957 465.325C339.888 465.808 339.88 466.3 339.848 466.788C339.747 468.307 339.623 469.825 339.555 471.346C339.521 472.121 339.62 472.903 339.601 473.68C339.473 475.562 339.821 477.447 340.613 479.16C341.121 480.268 341.865 481.252 342.791 482.042C343.656 482.734 344.557 483.385 345.691 483.554C346.333 483.649 346.984 483.69 347.631 483.748C348.116 483.792 349.101 483.852 349.464 483.897C349.947 483.765 350.529 483.808 350.993 483.702C351.155 483.664 351.318 483.626 351.481 483.589C352.469 483.218 353.603 482.691 354.277 482.378C355.756 481.678 357.059 480.654 358.088 479.382C358.802 478.601 359.291 477.639 359.498 476.602C359.71 475.24 359.572 473.845 359.098 472.55C358.525 471.024 357.872 469.527 357.274 468.008C356.662 466.45 356.042 464.892 355.489 463.312C355.236 462.771 355.147 462.167 355.236 461.576C355.299 460.906 355.225 460.23 355.017 459.59C354.797 458.594 354.501 457.615 354.236 456.629L354.475 456.535C354.63 456.772 354.773 457.017 354.94 457.246C355.336 457.908 355.808 458.523 356.347 459.076C356.877 459.557 357.272 460.171 357.49 460.854C357.848 461.779 358.08 462.757 358.474 463.666C359.252 465.467 360.075 467.248 360.941 469.01C361.271 469.701 361.703 470.337 362.224 470.899C363.875 472.646 366.037 473.825 368.401 474.265C369.788 474.504 371.209 474.448 372.572 474.101C374.358 473.738 375.99 472.837 377.25 471.52C377.668 471.055 378.034 470.544 378.344 470C378.878 469.17 379.341 468.297 379.728 467.388C380.246 466.022 379.991 464.603 379.575 463.261ZM362.069 446.217C363.09 447.144 364.09 448.091 365.162 449.087C364.73 449.222 364.459 449.412 364.14 448.954C363.802 448.59 363.432 448.258 363.034 447.961C362.903 447.771 362.802 447.562 362.734 447.343C362.471 447.329 362.004 447.36 362.105 446.778C361.783 446.686 361.486 446.6 361.109 446.493C361.458 446.008 361.766 445.943 362.069 446.217ZM361.51 445.82L360.523 446.137L360.745 445.405L360.085 445.608C359.822 445.384 359.604 445.132 359.85 444.744C360.365 445.076 360.878 445.41 361.51 445.82ZM358.67 444.098L359.84 444.739C359.266 444.97 358.889 444.716 358.592 444.263L358.67 444.098ZM350.279 450.638L350.798 451.341L350.603 451.499L350.106 450.763L350.279 450.638ZM341.339 459.603C341.496 457.782 341.604 455.953 341.857 454.145C341.941 453.306 342.23 452.5 342.696 451.798C343.519 450.712 344.447 449.675 345.971 449.422C346.853 449.198 347.783 449.261 348.626 449.604C348.777 449.659 348.906 449.76 348.996 449.892C349.601 451.102 350.397 452.206 351.357 453.16C352.097 453.985 352.611 454.987 352.85 456.07C353.038 456.801 353.133 457.556 353.262 458.303C353.282 458.483 353.292 458.664 353.293 458.846C351.255 458.288 349.246 458.473 347.278 458.72C345.314 458.968 343.388 459.52 341.393 459.95C341.357 459.838 341.339 459.721 341.339 459.603ZM350.9 451.717L351.094 451.636L351.597 452.072C351.397 452.13 351.195 452.237 351.15 452.19C351.043 452.046 350.959 451.886 350.9 451.717ZM351.719 452.496C351.826 452.502 351.985 452.464 352.033 452.52C352.191 452.707 352.478 452.909 351.978 453.267L351.719 452.496ZM340.224 462.271C340.254 461.668 340.354 461.178 341.112 460.972C341.883 460.764 342.567 460.244 343.333 460C344.292 459.694 345.275 459.472 346.272 459.334C347.485 459.149 348.71 459.06 349.936 459.065C351.117 459.117 352.292 459.259 353.452 459.486C354.114 459.693 354.608 460.247 354.738 460.929C353.798 461.212 351.672 461.242 351.533 461.264C350.284 461.458 349.03 461.617 347.782 461.814C347.199 461.907 346.629 462.075 346.048 462.18C345.857 462.214 344.322 462.551 343.843 462.674C342.677 462.976 341.494 463.219 340.227 463.507C340.224 463.113 340.204 462.691 340.224 462.271ZM342.739 481.287L341.324 479.404L341.418 479.316C341.535 479.445 341.653 479.572 341.767 479.701C342.068 480.04 342.381 480.372 342.661 480.727C342.752 480.884 342.822 481.052 342.867 481.228L342.739 481.287ZM344.479 482.377L344.375 482.465L343.635 481.963L344.329 481.717L344.479 482.377ZM345.573 482.882C345.202 482.921 344.932 482.778 344.894 482.409C344.884 482.304 345.135 482.154 345.29 482.067C345.403 482.134 345.492 482.236 345.543 482.356C345.576 482.53 345.586 482.707 345.573 482.882ZM347.599 483.144L347.453 483.261C347.181 483.024 346.907 482.785 346.613 482.53L346.37 483.144L345.889 482.449L346.026 482.226C346.532 482.311 347.037 482.397 347.597 482.491L347.599 483.144ZM348.759 483.227C348.162 483.309 348.151 483.298 348.024 482.51C348.142 482.494 348.261 482.476 348.38 482.462C348.499 482.449 348.619 482.443 348.745 482.432L348.759 483.227ZM349.891 483.222C349.3 483.36 349.194 483.246 349.18 482.484C349.365 482.483 349.55 482.482 349.722 482.48L349.891 483.222ZM351.877 482.712C351.877 482.785 351.747 482.927 351.708 482.916C351.604 482.88 351.515 482.814 351.451 482.725C351.352 482.565 351.229 482.421 351.087 482.299C350.962 482.681 351.246 483.232 350.643 483.228C350.452 483.228 350.262 482.764 350.016 482.439L351.821 481.897C351.844 482.179 351.879 482.445 351.877 482.712ZM352.981 482.524L352.406 482.688L352.212 481.827C352.43 481.718 352.615 481.626 352.828 481.52L352.981 482.524ZM353.412 482.18L353.261 481.342L353.905 481.012C354.095 481.98 354.066 482.047 353.412 482.18ZM355.515 481.034L355.129 480.383L354.94 480.422C354.931 480.599 354.948 480.778 354.993 480.951C355.099 481.2 355.156 481.39 354.829 481.486C354.531 481.573 354.4 481.42 354.346 481.152C354.316 480.996 354.277 480.843 354.244 480.699C354.706 480.361 355.145 480.04 355.604 479.704L356.151 480.618C355.959 480.742 355.737 480.889 355.515 481.034ZM358.045 471.519C358.279 472.057 358.475 472.612 358.63 473.178C358.671 473.325 358.717 473.473 358.77 473.618C359.128 474.599 359.181 475.666 358.922 476.677C358.916 476.703 358.866 476.719 358.837 476.74C358.837 477.393 358.547 478.013 358.045 478.433L357.311 478.052L357.176 478.196L357.817 478.851C357.666 479.021 357.466 479.249 357.263 479.475L356.781 478.869C356.417 479.244 356.532 479.465 357.139 479.669L356.388 480.351L355.972 479.395C356.605 478.43 357.177 477.425 357.682 476.386C357.767 475.897 357.878 475.412 358.016 474.936C358.049 474.823 358.223 474.735 358.351 474.673C358.474 474.627 358.602 474.597 358.732 474.58L358.746 474.424L358.168 474.247L358.045 471.519ZM357.564 472.3C357.806 473.587 357.68 474.917 357.201 476.137C356.695 477.876 355.525 479.346 353.944 480.233C353.064 480.754 352.143 481.206 351.193 481.583C350.451 481.845 349.667 481.959 348.883 481.919C347.579 481.89 346.283 481.704 345.024 481.365C344.061 481.067 342.265 479.323 342.175 479.189C341.893 478.766 341.612 478.339 341.373 477.891C340.797 476.908 340.414 475.821 340.248 474.694C340.14 473.668 340.101 472.635 340.133 471.604C340.165 470.488 340.304 469.377 340.4 468.263C340.491 467.212 340.571 466.16 340.696 465.114C340.748 464.913 340.887 464.745 341.076 464.657C341.6 464.447 342.137 464.27 342.685 464.129C343.077 464.025 343.499 464.032 343.892 463.929C345.549 463.501 347.182 462.945 348.86 462.64C350.281 462.382 351.76 462.472 353.197 462.278C354.269 462.135 354.638 462.628 354.873 463.543C355.131 464.554 355.51 465.534 355.828 466.531C355.866 466.651 356.309 467.737 356.442 468.292C356.762 469.641 357.244 470.951 357.564 472.3ZM353.662 454.583C353.529 454.59 353.289 454.632 353.279 454.601C353.233 454.409 353.204 454.212 353.192 454.012L353.522 453.967L353.662 454.583ZM352.646 454.005L352.467 453.218L352.65 453.154L353.217 453.753L352.646 454.005ZM352.678 452.558C351.759 451.597 350.78 450.69 350.216 449.436C349.36 447.813 349.924 445.803 351.499 444.862C352.538 444.159 353.773 443.802 355.026 443.844C356.456 443.852 357.838 444.372 358.921 445.309C360.1 446.306 361.288 447.296 362.452 448.31C362.877 448.68 363.244 449.112 363.69 449.57C363.058 449.87 362.453 450.14 361.862 450.44C360.149 451.293 358.544 452.35 357.083 453.586C356.638 453.995 356.236 454.449 355.885 454.942C355.625 455.286 355.442 455.385 355.103 455.027C354.311 454.191 353.476 453.392 352.678 452.558ZM354.026 455.335C353.945 455.167 353.897 454.987 353.883 454.802L354.027 454.743L354.474 455.118L354.473 455.301C354.317 455.317 354.072 455.399 354.026 455.335ZM354.856 456.457L354.56 455.685C354.689 455.678 354.842 455.622 354.943 455.672C355.292 455.841 355.191 456.066 354.856 456.457ZM356.603 458.295C356.198 457.994 355.844 457.628 355.555 457.214C355.437 457.036 355.516 456.657 355.617 456.415C356.188 455.161 357.094 454.09 358.236 453.318C359.892 452.06 361.713 451.035 363.646 450.27C363.958 450.151 364.271 450.029 364.573 449.888C365.892 449.273 367.276 449.987 368.021 451.268C367.584 451.367 367.169 451.448 366.761 451.556C362.936 452.399 359.554 454.616 357.255 457.787C357.098 458.013 356.66 458.339 356.603 458.295ZM358.801 462.478C358.458 461.545 358.061 460.632 357.614 459.744C357.431 459.496 357.468 459.15 357.698 458.946C357.972 458.666 358.227 458.364 358.51 458.095C360.307 456.39 362.17 454.768 364.389 453.621C365.063 453.264 365.757 452.948 366.47 452.673C367.139 452.402 367.839 452.211 368.554 452.102C368.84 452.066 369.214 452.385 369.482 452.62C370.121 453.18 370.73 453.776 371.334 454.375C372.47 455.5 373.617 456.614 374.715 457.774C375.949 459.076 376.736 460.642 377.362 462.724C377.456 463.776 377.483 464.834 377.443 465.89C377.294 467.107 376.652 468.209 375.669 468.94C374.707 469.754 373.675 470.485 372.588 471.122C370.687 472.205 368.398 472.372 366.36 471.577C365.162 471.107 364.055 470.429 363.093 469.573C362.323 468.833 361.639 468.007 361.057 467.111C360.076 465.69 359.315 464.128 358.801 462.478ZM363.564 471.573C363.354 471.154 363.202 470.849 363.031 470.51C362.71 470.712 362.498 470.457 362.296 470.146C361.93 469.586 361.555 469.035 361.184 468.478L361.306 468.384C362.153 469.253 362.769 470.374 364.036 470.764C363.869 471.049 363.764 471.23 363.564 471.573ZM365.108 472.245C364.447 472.232 364.174 471.879 364.29 471.133C365.145 471.567 365.145 471.567 365.108 472.245ZM379.362 464.81C379.275 465.091 379.699 465.644 378.905 465.56C378.811 465.585 378.738 465.657 378.711 465.75C378.734 465.845 378.805 465.922 378.898 465.955C379.096 465.981 379.297 465.988 379.497 465.978C379.435 466.362 379.348 466.742 379.239 467.116C379.22 467.17 378.883 467.147 378.704 467.108C378.48 467.045 378.26 466.968 378.045 466.877L377.936 467.124C378.288 467.308 378.639 467.492 379.047 467.705C378.913 468.045 378.75 468.373 378.562 468.688C378.215 469.178 377.982 468.401 377.529 468.627L378.142 469.378L377.588 470.048C377.009 471.221 376.033 472.15 374.831 472.669C374.526 472.812 374.397 472.79 374.244 472.506C374.114 472.301 373.968 472.109 373.807 471.928L373.605 472.057L374.081 473.055C373.757 473.282 373.442 473.581 373.086 473.206C372.873 472.936 372.685 472.647 372.527 472.342L372.359 472.401L372.727 473.61C372.43 473.599 372.032 473.697 371.787 473.546C371.543 473.396 371.454 472.997 371.261 472.64C370.904 473.054 371.239 473.357 371.324 473.693C370.637 474.291 370.577 473.456 370.226 473.109C370.172 473.353 370.187 473.543 370.098 473.636C369.964 473.775 369.789 473.866 369.599 473.896C369.523 473.907 369.382 473.693 369.332 473.558C369.262 473.327 369.206 473.092 369.164 472.853L368.966 472.875L368.865 473.872C368.572 473.753 368.223 473.717 368.095 473.53C367.951 473.319 368.007 472.972 367.977 472.685L367.749 472.664L367.583 473.478C366.753 473.549 367.013 472.745 366.656 472.261C366.556 472.585 366.482 472.827 366.406 473.07C365.628 472.801 365.437 472.5 365.678 471.887C366.912 472.398 368.242 472.631 369.577 472.571C370.809 472.513 372.004 472.132 373.042 471.466C374.007 470.866 374.939 470.216 375.837 469.52C376.654 468.859 377.293 468.006 377.697 467.037C378.154 465.863 378.223 464.575 377.893 463.359C377.673 462.446 377.474 461.527 377.254 460.552C377.807 460.907 378.236 461.427 378.48 462.038C378.713 462.552 378.916 463.078 379.089 463.614C379.232 463.878 379.189 464.204 378.98 464.421C378.621 464.835 379.156 464.696 379.362 464.81Z" fill="#FFB61D"/>
</g>
<g filter="url(#filter20_d_3_222)">
<path d="M376.611 469.203C376.753 469.904 376.998 470.098 377.585 470.045C377.607 469.996 377.646 469.922 377.637 469.916C377.316 469.686 376.99 469.463 376.611 469.203Z" fill="#F93059"/>
</g>
<g filter="url(#filter21_d_3_222)">
<path d="M377.588 470.046H377.585L377.58 470.056L377.588 470.046Z" fill="#F93059"/>
</g>
<g filter="url(#filter22_d_3_222)">
<path d="M374.44 471.412C374.684 471.708 374.926 472.004 375.169 472.3L375.384 472.092L374.636 471.241L374.44 471.412Z" fill="#F93059"/>
</g>
<g filter="url(#filter23_d_3_222)">
<path d="M375.465 470.564L376.248 471.27L376.426 471.057L375.63 470.369L375.465 470.564Z" fill="#F93059"/>
</g>
</g>
<defs>
<filter id="filter0_d_3_222" x="0.800293" y="0.320068" width="702.062" height="710.68" filterUnits="userSpaceOnUse" color-interpolation-filters="sRGB">
<feFlood flood-opacity="0" result="BackgroundImageFix"/>
<feColorMatrix in="SourceAlpha" type="matrix" values="0 0 0 0 0 0 0 0 0 0 0 0 0 0 0 0 0 0 127 0" result="hardAlpha"/>
<feOffset dy="4"/>
<feGaussianBlur stdDeviation="2"/>
<feComposite in2="hardAlpha" operator="out"/>
<feColorMatrix type="matrix" values="0 0 0 0 0 0 0 0 0 0 0 0 0 0 0 0 0 0 0.25 0"/>
<feBlend mode="normal" in2="BackgroundImageFix" result="effect1_dropShadow_3_222"/>
<feBlend mode="normal" in="SourceGraphic" in2="effect1_dropShadow_3_222" result="shape"/>
</filter>
<filter id="filter1_d_3_222" x="0.800293" y="0.320068" width="702.062" height="657.393" filterUnits="userSpaceOnUse" color-interpolation-filters="sRGB">
<feFlood flood-opacity="0" result="BackgroundImageFix"/>
<feColorMatrix in="SourceAlpha" type="matrix" values="0 0 0 0 0 0 0 0 0 0 0 0 0 0 0 0 0 0 127 0" result="hardAlpha"/>
<feOffset dy="4"/>
<feGaussianBlur stdDeviation="2"/>
<feComposite in2="hardAlpha" operator="out"/>
<feColorMatrix type="matrix" values="0 0 0 0 0 0 0 0 0 0 0 0 0 0 0 0 0 0 0.25 0"/>
<feBlend mode="normal" in2="BackgroundImageFix" result="effect1_dropShadow_3_222"/>
<feBlend mode="normal" in="SourceGraphic" in2="effect1_dropShadow_3_222" result="shape"/>
</filter>
<filter id="filter2_d_3_222" x="52.8332" y="30.8887" width="572.489" height="595.214" filterUnits="userSpaceOnUse" color-interpolation-filters="sRGB">
<feFlood flood-opacity="0" result="BackgroundImageFix"/>
<feColorMatrix in="SourceAlpha" type="matrix" values="0 0 0 0 0 0 0 0 0 0 0 0 0 0 0 0 0 0 127 0" result="hardAlpha"/>
<feOffset dy="4"/>
<feGaussianBlur stdDeviation="2"/>
<feComposite in2="hardAlpha" operator="out"/>
<feColorMatrix type="matrix" values="0 0 0 0 0 0 0 0 0 0 0 0 0 0 0 0 0 0 0.25 0"/>
<feBlend mode="normal" in2="BackgroundImageFix" result="effect1_dropShadow_3_222"/>
<feBlend mode="normal" in="SourceGraphic" in2="effect1_dropShadow_3_222" result="shape"/>
</filter>
<filter id="filter3_d_3_222" x="446.692" y="351.649" width="136.47" height="263.23" filterUnits="userSpaceOnUse" color-interpolation-filters="sRGB">
<feFlood flood-opacity="0" result="BackgroundImageFix"/>
<feColorMatrix in="SourceAlpha" type="matrix" values="0 0 0 0 0 0 0 0 0 0 0 0 0 0 0 0 0 0 127 0" result="hardAlpha"/>
<feOffset dy="4"/>
<feGaussianBlur stdDeviation="2"/>
<feComposite in2="hardAlpha" operator="out"/>
<feColorMatrix type="matrix" values="0 0 0 0 0 0 0 0 0 0 0 0 0 0 0 0 0 0 0.25 0"/>
<feBlend mode="normal" in2="BackgroundImageFix" result="effect1_dropShadow_3_222"/>
<feBlend mode="normal" in="SourceGraphic" in2="effect1_dropShadow_3_222" result="shape"/>
</filter>
<filter id="filter4_d_3_222" x="356.51" y="694.477" width="14.088" height="11.6531" filterUnits="userSpaceOnUse" color-interpolation-filters="sRGB">
<feFlood flood-opacity="0" result="BackgroundImageFix"/>
<feColorMatrix in="SourceAlpha" type="matrix" values="0 0 0 0 0 0 0 0 0 0 0 0 0 0 0 0 0 0 127 0" result="hardAlpha"/>
<feOffset dy="4"/>
<feGaussianBlur stdDeviation="2"/>
<feComposite in2="hardAlpha" operator="out"/>
<feColorMatrix type="matrix" values="0 0 0 0 0 0 0 0 0 0 0 0 0 0 0 0 0 0 0.25 0"/>
<feBlend mode="normal" in2="BackgroundImageFix" result="effect1_dropShadow_3_222"/>
<feBlend mode="normal" in="SourceGraphic" in2="effect1_dropShadow_3_222" result="shape"/>
</filter>
<filter id="filter5_d_3_222" x="356.51" y="699.347" width="12.8707" height="10.4355" filterUnits="userSpaceOnUse" color-interpolation-filters="sRGB">
<feFlood flood-opacity="0" result="BackgroundImageFix"/>
<feColorMatrix in="SourceAlpha" type="matrix" values="0 0 0 0 0 0 0 0 0 0 0 0 0 0 0 0 0 0 127 0" result="hardAlpha"/>
<feOffset dy="4"/>
<feGaussianBlur stdDeviation="2"/>
<feComposite in2="hardAlpha" operator="out"/>
<feColorMatrix type="matrix" values="0 0 0 0 0 0 0 0 0 0 0 0 0 0 0 0 0 0 0.25 0"/>
<feBlend mode="normal" in2="BackgroundImageFix" result="effect1_dropShadow_3_222"/>
<feBlend mode="normal" in="SourceGraphic" in2="effect1_dropShadow_3_222" result="shape"/>
</filter>
<filter id="filter6_d_3_222" x="407.649" y="629.944" width="14.0874" height="20.176" filterUnits="userSpaceOnUse" color-interpolation-filters="sRGB">
<feFlood flood-opacity="0" result="BackgroundImageFix"/>
<feColorMatrix in="SourceAlpha" type="matrix" values="0 0 0 0 0 0 0 0 0 0 0 0 0 0 0 0 0 0 127 0" result="hardAlpha"/>
<feOffset dy="4"/>
<feGaussianBlur stdDeviation="2"/>
<feComposite in2="hardAlpha" operator="out"/>
<feColorMatrix type="matrix" values="0 0 0 0 0 0 0 0 0 0 0 0 0 0 0 0 0 0 0.25 0"/>
<feBlend mode="normal" in2="BackgroundImageFix" result="effect1_dropShadow_3_222"/>
<feBlend mode="normal" in="SourceGraphic" in2="effect1_dropShadow_3_222" result="shape"/>
</filter>
<filter id="filter7_d_3_222" x="402.778" y="622.639" width="16.524" height="26.2639" filterUnits="userSpaceOnUse" color-interpolation-filters="sRGB">
<feFlood flood-opacity="0" result="BackgroundImageFix"/>
<feColorMatrix in="SourceAlpha" type="matrix" values="0 0 0 0 0 0 0 0 0 0 0 0 0 0 0 0 0 0 127 0" result="hardAlpha"/>
<feOffset dy="4"/>
<feGaussianBlur stdDeviation="2"/>
<feComposite in2="hardAlpha" operator="out"/>
<feColorMatrix type="matrix" values="0 0 0 0 0 0 0 0 0 0 0 0 0 0 0 0 0 0 0.25 0"/>
<feBlend mode="normal" in2="BackgroundImageFix" result="effect1_dropShadow_3_222"/>
<feBlend mode="normal" in="SourceGraphic" in2="effect1_dropShadow_3_222" result="shape"/>
</filter>
<filter id="filter8_d_3_222" x="115.426" y="125.861" width="87.1436" height="73.75" filterUnits="userSpaceOnUse" color-interpolation-filters="sRGB">
<feFlood flood-opacity="0" result="BackgroundImageFix"/>
<feColorMatrix in="SourceAlpha" type="matrix" values="0 0 0 0 0 0 0 0 0 0 0 0 0 0 0 0 0 0 127 0" result="hardAlpha"/>
<feOffset dy="4"/>
<feGaussianBlur stdDeviation="2"/>
<feComposite in2="hardAlpha" operator="out"/>
<feColorMatrix type="matrix" values="0 0 0 0 0 0 0 0 0 0 0 0 0 0 0 0 0 0 0.25 0"/>
<feBlend mode="normal" in2="BackgroundImageFix" result="effect1_dropShadow_3_222"/>
<feBlend mode="normal" in="SourceGraphic" in2="effect1_dropShadow_3_222" result="shape"/>
</filter>
<filter id="filter9_d_3_222" x="278.584" y="681.083" width="85.9257" height="29.9167" filterUnits="userSpaceOnUse" color-interpolation-filters="sRGB">
<feFlood flood-opacity="0" result="BackgroundImageFix"/>
<feColorMatrix in="SourceAlpha" type="matrix" values="0 0 0 0 0 0 0 0 0 0 0 0 0 0 0 0 0 0 127 0" result="hardAlpha"/>
<feOffset dy="4"/>
<feGaussianBlur stdDeviation="2"/>
<feComposite in2="hardAlpha" operator="out"/>
<feColorMatrix type="matrix" values="0 0 0 0 0 0 0 0 0 0 0 0 0 0 0 0 0 0 0.25 0"/>
<feBlend mode="normal" in2="BackgroundImageFix" result="effect1_dropShadow_3_222"/>
<feBlend mode="normal" in="SourceGraphic" in2="effect1_dropShadow_3_222" result="shape"/>
</filter>
<filter id="filter10_d_3_222" x="282.236" y="521.579" width="16.5239" height="17.7407" filterUnits="userSpaceOnUse" color-interpolation-filters="sRGB">
<feFlood flood-opacity="0" result="BackgroundImageFix"/>
<feColorMatrix in="SourceAlpha" type="matrix" values="0 0 0 0 0 0 0 0 0 0 0 0 0 0 0 0 0 0 127 0" result="hardAlpha"/>
<feOffset dy="4"/>
<feGaussianBlur stdDeviation="2"/>
<feComposite in2="hardAlpha" operator="out"/>
<feColorMatrix type="matrix" values="0 0 0 0 0 0 0 0 0 0 0 0 0 0 0 0 0 0 0.25 0"/>
<feBlend mode="normal" in2="BackgroundImageFix" result="effect1_dropShadow_3_222"/>
<feBlend mode="normal" in="SourceGraphic" in2="effect1_dropShadow_3_222" result="shape"/>
</filter>
<filter id="filter11_d_3_222" x="350.422" y="648.208" width="95.6675" height="28.699" filterUnits="userSpaceOnUse" color-interpolation-filters="sRGB">
<feFlood flood-opacity="0" result="BackgroundImageFix"/>
<feColorMatrix in="SourceAlpha" type="matrix" values="0 0 0 0 0 0 0 0 0 0 0 0 0 0 0 0 0 0 127 0" result="hardAlpha"/>
<feOffset dy="4"/>
<feGaussianBlur stdDeviation="2"/>
<feComposite in2="hardAlpha" operator="out"/>
<feColorMatrix type="matrix" values="0 0 0 0 0 0 0 0 0 0 0 0 0 0 0 0 0 0 0.25 0"/>
<feBlend mode="normal" in2="BackgroundImageFix" result="effect1_dropShadow_3_222"/>
<feBlend mode="normal" in="SourceGraphic" in2="effect1_dropShadow_3_222" result="shape"/>
</filter>
<filter id="filter12_d_3_222" x="281.019" y="481.398" width="14.0882" height="39.6572" filterUnits="userSpaceOnUse" color-interpolation-filters="sRGB">
<feFlood flood-opacity="0" result="BackgroundImageFix"/>
<feColorMatrix in="SourceAlpha" type="matrix" values="0 0 0 0 0 0 0 0 0 0 0 0 0 0 0 0 0 0 127 0" result="hardAlpha"/>
<feOffset dy="4"/>
<feGaussianBlur stdDeviation="2"/>
<feComposite in2="hardAlpha" operator="out"/>
<feColorMatrix type="matrix" values="0 0 0 0 0 0 0 0 0 0 0 0 0 0 0 0 0 0 0.25 0"/>
<feBlend mode="normal" in2="BackgroundImageFix" result="effect1_dropShadow_3_222"/>
<feBlend mode="normal" in="SourceGraphic" in2="effect1_dropShadow_3_222" result="shape"/>
</filter>
<filter id="filter13_d_3_222" x="273.714" y="615.333" width="128.542" height="37.2222" filterUnits="userSpaceOnUse" color-interpolation-filters="sRGB">
<feFlood flood-opacity="0" result="BackgroundImageFix"/>
<feColorMatrix in="SourceAlpha" type="matrix" values="0 0 0 0 0 0 0 0 0 0 0 0 0 0 0 0 0 0 127 0" result="hardAlpha"/>
<feOffset dy="4"/>
<feGaussianBlur stdDeviation="2"/>
<feComposite in2="hardAlpha" operator="out"/>
<feColorMatrix type="matrix" values="0 0 0 0 0 0 0 0 0 0 0 0 0 0 0 0 0 0 0.25 0"/>
<feBlend mode="normal" in2="BackgroundImageFix" result="effect1_dropShadow_3_222"/>
<feBlend mode="normal" in="SourceGraphic" in2="effect1_dropShadow_3_222" result="shape"/>
</filter>
<filter id="filter14_d_3_222" x="335.81" y="436.348" width="11.6531" height="12.8699" filterUnits="userSpaceOnUse" color-interpolation-filters="sRGB">
<feFlood flood-opacity="0" result="BackgroundImageFix"/>
<feColorMatrix in="SourceAlpha" type="matrix" values="0 0 0 0 0 0 0 0 0 0 0 0 0 0 0 0 0 0 127 0" result="hardAlpha"/>
<feOffset dy="4"/>
<feGaussianBlur stdDeviation="2"/>
<feComposite in2="hardAlpha" operator="out"/>
<feColorMatrix type="matrix" values="0 0 0 0 0 0 0 0 0 0 0 0 0 0 0 0 0 0 0.25 0"/>
<feBlend mode="normal" in2="BackgroundImageFix" result="effect1_dropShadow_3_222"/>
<feBlend mode="normal" in="SourceGraphic" in2="effect1_dropShadow_3_222" result="shape"/>
</filter>
<filter id="filter15_d_3_222" x="290.76" y="408.343" width="128.542" height="111.495" filterUnits="userSpaceOnUse" color-interpolation-filters="sRGB">
<feFlood flood-opacity="0" result="BackgroundImageFix"/>
<feColorMatrix in="SourceAlpha" type="matrix" values="0 0 0 0 0 0 0 0 0 0 0 0 0 0 0 0 0 0 127 0" result="hardAlpha"/>
<feOffset dy="4"/>
<feGaussianBlur stdDeviation="2"/>
<feComposite in2="hardAlpha" operator="out"/>
<feColorMatrix type="matrix" values="0 0 0 0 0 0 0 0 0 0 0 0 0 0 0 0 0 0 0.25 0"/>
<feBlend mode="normal" in2="BackgroundImageFix" result="effect1_dropShadow_3_222"/>
<feBlend mode="normal" in="SourceGraphic" in2="effect1_dropShadow_3_222" result="shape"/>
</filter>
<filter id="filter16_d_3_222" x="463.659" y="410.777" width="70.0969" height="93.2317" filterUnits="userSpaceOnUse" color-interpolation-filters="sRGB">
<feFlood flood-opacity="0" result="BackgroundImageFix"/>
<feColorMatrix in="SourceAlpha" type="matrix" values="0 0 0 0 0 0 0 0 0 0 0 0 0 0 0 0 0 0 127 0" result="hardAlpha"/>
<feOffset dy="4"/>
<feGaussianBlur stdDeviation="2"/>
<feComposite in2="hardAlpha" operator="out"/>
<feColorMatrix type="matrix" values="0 0 0 0 0 0 0 0 0 0 0 0 0 0 0 0 0 0 0.25 0"/>
<feBlend mode="normal" in2="BackgroundImageFix" result="effect1_dropShadow_3_222"/>
<feBlend mode="normal" in="SourceGraphic" in2="effect1_dropShadow_3_222" result="shape"/>
</filter>
<filter id="filter17_d_3_222" x="57.7036" y="28.4534" width="582.755" height="593.663" filterUnits="userSpaceOnUse" color-interpolation-filters="sRGB">
<feFlood flood-opacity="0" result="BackgroundImageFix"/>
<feColorMatrix in="SourceAlpha" type="matrix" values="0 0 0 0 0 0 0 0 0 0 0 0 0 0 0 0 0 0 127 0" result="hardAlpha"/>
<feOffset dy="4"/>
<feGaussianBlur stdDeviation="2"/>
<feComposite in2="hardAlpha" operator="out"/>
<feColorMatrix type="matrix" values="0 0 0 0 0 0 0 0 0 0 0 0 0 0 0 0 0 0 0.25 0"/>
<feBlend mode="normal" in2="BackgroundImageFix" result="effect1_dropShadow_3_222"/>
<feBlend mode="normal" in="SourceGraphic" in2="effect1_dropShadow_3_222" result="shape"/>
</filter>
<filter id="filter18_d_3_222" x="234.255" y="326.764" width="208.946" height="84.0974" filterUnits="userSpaceOnUse" color-interpolation-filters="sRGB">
<feFlood flood-opacity="0" result="BackgroundImageFix"/>
<feColorMatrix in="SourceAlpha" type="matrix" values="0 0 0 0 0 0 0 0 0 0 0 0 0 0 0 0 0 0 127 0" result="hardAlpha"/>
<feOffset dy="4"/>
<feGaussianBlur stdDeviation="2"/>
<feComposite in2="hardAlpha" operator="out"/>
<feColorMatrix type="matrix" values="0 0 0 0 0 0 0 0 0 0 0 0 0 0 0 0 0 0 0.25 0"/>
<feBlend mode="normal" in2="BackgroundImageFix" result="effect1_dropShadow_3_222"/>
<feBlend mode="normal" in="SourceGraphic" in2="effect1_dropShadow_3_222" result="shape"/>
</filter>
<filter id="filter19_d_3_222" x="335.524" y="442.492" width="48.4939" height="49.4048" filterUnits="userSpaceOnUse" color-interpolation-filters="sRGB">
<feFlood flood-opacity="0" result="BackgroundImageFix"/>
<feColorMatrix in="SourceAlpha" type="matrix" values="0 0 0 0 0 0 0 0 0 0 0 0 0 0 0 0 0 0 127 0" result="hardAlpha"/>
<feOffset dy="4"/>
<feGaussianBlur stdDeviation="2"/>
<feComposite in2="hardAlpha" operator="out"/>
<feColorMatrix type="matrix" values="0 0 0 0 0 0 0 0 0 0 0 0 0 0 0 0 0 0 0.25 0"/>
<feBlend mode="normal" in2="BackgroundImageFix" result="effect1_dropShadow_3_222"/>
<feBlend mode="normal" in="SourceGraphic" in2="effect1_dropShadow_3_222" result="shape"/>
</filter>
<filter id="filter20_d_3_222" x="372.611" y="469.203" width="9.02762" height="8.85059" filterUnits="userSpaceOnUse" color-interpolation-filters="sRGB">
<feFlood flood-opacity="0" result="BackgroundImageFix"/>
<feColorMatrix in="SourceAlpha" type="matrix" values="0 0 0 0 0 0 0 0 0 0 0 0 0 0 0 0 0 0 127 0" result="hardAlpha"/>
<feOffset dy="4"/>
<feGaussianBlur stdDeviation="2"/>
<feComposite in2="hardAlpha" operator="out"/>
<feColorMatrix type="matrix" values="0 0 0 0 0 0 0 0 0 0 0 0 0 0 0 0 0 0 0.25 0"/>
<feBlend mode="normal" in2="BackgroundImageFix" result="effect1_dropShadow_3_222"/>
<feBlend mode="normal" in="SourceGraphic" in2="effect1_dropShadow_3_222" result="shape"/>
</filter>
<filter id="filter21_d_3_222" x="373.58" y="470.046" width="8.00778" height="8.01001" filterUnits="userSpaceOnUse" color-interpolation-filters="sRGB">
<feFlood flood-opacity="0" result="BackgroundImageFix"/>
<feColorMatrix in="SourceAlpha" type="matrix" values="0 0 0 0 0 0 0 0 0 0 0 0 0 0 0 0 0 0 127 0" result="hardAlpha"/>
<feOffset dy="4"/>
<feGaussianBlur stdDeviation="2"/>
<feComposite in2="hardAlpha" operator="out"/>
<feColorMatrix type="matrix" values="0 0 0 0 0 0 0 0 0 0 0 0 0 0 0 0 0 0 0.25 0"/>
<feBlend mode="normal" in2="BackgroundImageFix" result="effect1_dropShadow_3_222"/>
<feBlend mode="normal" in="SourceGraphic" in2="effect1_dropShadow_3_222" result="shape"/>
</filter>
<filter id="filter22_d_3_222" x="370.44" y="471.241" width="8.94363" height="9.05933" filterUnits="userSpaceOnUse" color-interpolation-filters="sRGB">
<feFlood flood-opacity="0" result="BackgroundImageFix"/>
<feColorMatrix in="SourceAlpha" type="matrix" values="0 0 0 0 0 0 0 0 0 0 0 0 0 0 0 0 0 0 127 0" result="hardAlpha"/>
<feOffset dy="4"/>
<feGaussianBlur stdDeviation="2"/>
<feComposite in2="hardAlpha" operator="out"/>
<feColorMatrix type="matrix" values="0 0 0 0 0 0 0 0 0 0 0 0 0 0 0 0 0 0 0.25 0"/>
<feBlend mode="normal" in2="BackgroundImageFix" result="effect1_dropShadow_3_222"/>
<feBlend mode="normal" in="SourceGraphic" in2="effect1_dropShadow_3_222" result="shape"/>
</filter>
<filter id="filter23_d_3_222" x="371.465" y="470.369" width="8.96068" height="8.90112" filterUnits="userSpaceOnUse" color-interpolation-filters="sRGB">
<feFlood flood-opacity="0" result="BackgroundImageFix"/>
<feColorMatrix in="SourceAlpha" type="matrix" values="0 0 0 0 0 0 0 0 0 0 0 0 0 0 0 0 0 0 127 0" result="hardAlpha"/>
<feOffset dy="4"/>
<feGaussianBlur stdDeviation="2"/>
<feComposite in2="hardAlpha" operator="out"/>
<feColorMatrix type="matrix" values="0 0 0 0 0 0 0 0 0 0 0 0 0 0 0 0 0 0 0.25 0"/>
<feBlend mode="normal" in2="BackgroundImageFix" result="effect1_dropShadow_3_222"/>
<feBlend mode="normal" in="SourceGraphic" in2="effect1_dropShadow_3_222" result="shape"/>
</filter>
</defs>
</svg>
