<svg viewBox="0 0 573 538" fill="none" xmlns="http://www.w3.org/2000/svg">
<g filter="url(#filter0_d_3_386)">
<path d="M555.535 234.022C552.508 234.005 549.575 232.964 547.213 231.069L295.528 29.7208C293.147 27.8146 290.188 26.7761 287.138 26.7761C284.088 26.7761 281.129 27.8146 278.748 29.7208L26.9287 231.069C25.577 232.345 23.9751 233.326 22.2243 233.951C20.4736 234.575 18.6123 234.829 16.7582 234.697C14.9042 234.564 13.0978 234.048 11.4537 233.181C9.80947 232.314 8.36326 231.115 7.20666 229.66C6.05005 228.205 5.20825 226.526 4.73459 224.728C4.26092 222.931 4.16572 221.055 4.45501 219.219C4.7443 217.383 5.41177 215.627 6.41514 214.062C7.41852 212.497 8.73593 211.158 10.2839 210.129L261.969 8.78055C269.101 3.09573 277.951 0 287.071 0C296.191 0 305.041 3.09573 312.172 8.78055L563.858 210.129C566.624 212.344 568.402 215.562 568.804 219.083C569.206 222.603 568.2 226.14 566.006 228.922C564.756 230.503 563.165 231.784 561.353 232.667C559.54 233.55 557.552 234.013 555.535 234.022Z" fill="#55AAE1" fill-opacity="0.4" shape-rendering="crispEdges"/>
</g>
<g filter="url(#filter1_d_3_386)">
<path d="M340.764 529.333H233.378C229.818 529.333 226.404 527.919 223.886 525.402C221.369 522.884 219.955 519.47 219.955 515.91V274.292C219.955 263.612 224.197 253.369 231.749 245.817C239.302 238.265 249.544 234.022 260.224 234.022H313.917C324.598 234.022 334.84 238.265 342.392 245.817C349.944 253.369 354.187 263.612 354.187 274.292V515.91C354.187 519.47 352.773 522.884 350.255 525.402C347.738 527.919 344.324 529.333 340.764 529.333ZM246.801 502.487H327.341V274.292C327.341 270.732 325.926 267.318 323.409 264.8C320.892 262.283 317.477 260.869 313.917 260.869H260.224C256.664 260.869 253.25 262.283 250.733 264.8C248.215 267.318 246.801 270.732 246.801 274.292V502.487Z" fill="#55AAE1" fill-opacity="0.4" shape-rendering="crispEdges"/>
</g>
<g filter="url(#filter2_d_3_386)">
<path d="M461.573 529.333H112.569C101.889 529.333 91.646 525.091 84.0939 517.539C76.5419 509.987 72.2992 499.744 72.2992 489.064V169.054H99.1457V489.064C99.1457 492.624 100.56 496.038 103.077 498.555C105.595 501.073 109.009 502.487 112.569 502.487H461.573C465.133 502.487 468.547 501.073 471.065 498.555C473.582 496.038 474.996 492.624 474.996 489.064V169.054H501.843V489.064C501.843 499.744 497.6 509.987 490.048 517.539C482.496 525.091 472.253 529.333 461.573 529.333Z" fill="#55AAE1" fill-opacity="0.4" shape-rendering="crispEdges"/>
</g>
<g opacity="0.35" filter="url(#filter3_d_3_386)">
<path d="M461.573 140.06H448.15V435.371C448.15 446.051 443.907 456.294 436.355 463.846C428.803 471.398 418.56 475.64 407.88 475.64H72.2992V489.064C72.2992 499.744 76.5419 509.987 84.0939 517.539C91.646 525.091 101.889 529.333 112.569 529.333H461.573C472.253 529.333 482.496 525.091 490.048 517.539C497.6 509.987 501.843 499.744 501.843 489.064V180.329C501.843 169.649 497.6 159.406 490.048 151.854C482.496 144.302 472.253 140.06 461.573 140.06Z" fill="#55AAE1" fill-opacity="0.4" shape-rendering="crispEdges"/>
</g>
<g filter="url(#filter4_d_3_386)">
<path d="M488.419 126.636C484.859 126.636 481.445 125.222 478.928 122.705C476.41 120.188 474.996 116.773 474.996 113.213V32.6738C474.996 29.1138 476.41 25.6995 478.928 23.1822C481.445 20.6648 484.859 19.2506 488.419 19.2506C491.979 19.2506 495.394 20.6648 497.911 23.1822C500.428 25.6995 501.843 29.1138 501.843 32.6738V113.213C501.843 116.773 500.428 120.188 497.911 122.705C495.394 125.222 491.979 126.636 488.419 126.636Z" fill="#55AAE1" fill-opacity="0.4" shape-rendering="crispEdges"/>
</g>
<g filter="url(#filter5_d_3_386)">
<path d="M488.419 46.0971H381.034C377.473 46.0971 374.059 44.6828 371.542 42.1655C369.025 39.6481 367.61 36.2339 367.61 32.6738C367.61 29.1138 369.025 25.6995 371.542 23.1822C374.059 20.6648 377.473 19.2506 381.034 19.2506H488.419C491.979 19.2506 495.394 20.6648 497.911 23.1822C500.428 25.6995 501.843 29.1138 501.843 32.6738C501.843 36.2339 500.428 39.6481 497.911 42.1655C495.394 44.6828 491.979 46.0971 488.419 46.0971Z" fill="#55AAE1" fill-opacity="0.4" shape-rendering="crispEdges"/>
</g>
<defs>
<filter id="filter0_d_3_386" x="0.291443" y="0" width="572.599" height="242.731" filterUnits="userSpaceOnUse" color-interpolation-filters="sRGB">
<feFlood flood-opacity="0" result="BackgroundImageFix"/>
<feColorMatrix in="SourceAlpha" type="matrix" values="0 0 0 0 0 0 0 0 0 0 0 0 0 0 0 0 0 0 127 0" result="hardAlpha"/>
<feOffset dy="4"/>
<feGaussianBlur stdDeviation="2"/>
<feComposite in2="hardAlpha" operator="out"/>
<feColorMatrix type="matrix" values="0 0 0 0 0 0 0 0 0 0 0 0 0 0 0 0 0 0 0.25 0"/>
<feBlend mode="normal" in2="BackgroundImageFix" result="effect1_dropShadow_3_386"/>
<feBlend mode="normal" in="SourceGraphic" in2="effect1_dropShadow_3_386" result="shape"/>
</filter>
<filter id="filter1_d_3_386" x="215.955" y="234.022" width="142.232" height="303.311" filterUnits="userSpaceOnUse" color-interpolation-filters="sRGB">
<feFlood flood-opacity="0" result="BackgroundImageFix"/>
<feColorMatrix in="SourceAlpha" type="matrix" values="0 0 0 0 0 0 0 0 0 0 0 0 0 0 0 0 0 0 127 0" result="hardAlpha"/>
<feOffset dy="4"/>
<feGaussianBlur stdDeviation="2"/>
<feComposite in2="hardAlpha" operator="out"/>
<feColorMatrix type="matrix" values="0 0 0 0 0 0 0 0 0 0 0 0 0 0 0 0 0 0 0.25 0"/>
<feBlend mode="normal" in2="BackgroundImageFix" result="effect1_dropShadow_3_386"/>
<feBlend mode="normal" in="SourceGraphic" in2="effect1_dropShadow_3_386" result="shape"/>
</filter>
<filter id="filter2_d_3_386" x="68.2992" y="169.054" width="437.543" height="368.279" filterUnits="userSpaceOnUse" color-interpolation-filters="sRGB">
<feFlood flood-opacity="0" result="BackgroundImageFix"/>
<feColorMatrix in="SourceAlpha" type="matrix" values="0 0 0 0 0 0 0 0 0 0 0 0 0 0 0 0 0 0 127 0" result="hardAlpha"/>
<feOffset dy="4"/>
<feGaussianBlur stdDeviation="2"/>
<feComposite in2="hardAlpha" operator="out"/>
<feColorMatrix type="matrix" values="0 0 0 0 0 0 0 0 0 0 0 0 0 0 0 0 0 0 0.25 0"/>
<feBlend mode="normal" in2="BackgroundImageFix" result="effect1_dropShadow_3_386"/>
<feBlend mode="normal" in="SourceGraphic" in2="effect1_dropShadow_3_386" result="shape"/>
</filter>
<filter id="filter3_d_3_386" x="68.2992" y="140.06" width="437.543" height="397.274" filterUnits="userSpaceOnUse" color-interpolation-filters="sRGB">
<feFlood flood-opacity="0" result="BackgroundImageFix"/>
<feColorMatrix in="SourceAlpha" type="matrix" values="0 0 0 0 0 0 0 0 0 0 0 0 0 0 0 0 0 0 127 0" result="hardAlpha"/>
<feOffset dy="4"/>
<feGaussianBlur stdDeviation="2"/>
<feComposite in2="hardAlpha" operator="out"/>
<feColorMatrix type="matrix" values="0 0 0 0 0 0 0 0 0 0 0 0 0 0 0 0 0 0 0.25 0"/>
<feBlend mode="normal" in2="BackgroundImageFix" result="effect1_dropShadow_3_386"/>
<feBlend mode="normal" in="SourceGraphic" in2="effect1_dropShadow_3_386" result="shape"/>
</filter>
<filter id="filter4_d_3_386" x="470.996" y="19.2506" width="34.8465" height="115.386" filterUnits="userSpaceOnUse" color-interpolation-filters="sRGB">
<feFlood flood-opacity="0" result="BackgroundImageFix"/>
<feColorMatrix in="SourceAlpha" type="matrix" values="0 0 0 0 0 0 0 0 0 0 0 0 0 0 0 0 0 0 127 0" result="hardAlpha"/>
<feOffset dy="4"/>
<feGaussianBlur stdDeviation="2"/>
<feComposite in2="hardAlpha" operator="out"/>
<feColorMatrix type="matrix" values="0 0 0 0 0 0 0 0 0 0 0 0 0 0 0 0 0 0 0.25 0"/>
<feBlend mode="normal" in2="BackgroundImageFix" result="effect1_dropShadow_3_386"/>
<feBlend mode="normal" in="SourceGraphic" in2="effect1_dropShadow_3_386" result="shape"/>
</filter>
<filter id="filter5_d_3_386" x="363.61" y="19.2506" width="142.232" height="34.8464" filterUnits="userSpaceOnUse" color-interpolation-filters="sRGB">
<feFlood flood-opacity="0" result="BackgroundImageFix"/>
<feColorMatrix in="SourceAlpha" type="matrix" values="0 0 0 0 0 0 0 0 0 0 0 0 0 0 0 0 0 0 127 0" result="hardAlpha"/>
<feOffset dy="4"/>
<feGaussianBlur stdDeviation="2"/>
<feComposite in2="hardAlpha" operator="out"/>
<feColorMatrix type="matrix" values="0 0 0 0 0 0 0 0 0 0 0 0 0 0 0 0 0 0 0.25 0"/>
<feBlend mode="normal" in2="BackgroundImageFix" result="effect1_dropShadow_3_386"/>
<feBlend mode="normal" in="SourceGraphic" in2="effect1_dropShadow_3_386" result="shape"/>
</filter>
</defs>
</svg>
