<svg viewBox="0 0 52 52" fill="none" xmlns="http://www.w3.org/2000/svg">
<path d="M8.96555 14.3449C11.4413 14.3449 13.4483 12.3379 13.4483 9.86209C13.4483 7.38633 11.4413 5.37933 8.96555 5.37933C6.48979 5.37933 4.48279 7.38633 4.48279 9.86209C4.48279 12.3379 6.48979 14.3449 8.96555 14.3449Z" fill="#000000"/>
<path d="M22.4138 10.7586H47.5173H22.4138Z" fill="#000000"/>
<path d="M22.4138 10.7586H47.5173" stroke="#000000" stroke-width="2.5" stroke-miterlimit="10" stroke-linecap="round" stroke-linejoin="round"/>
<path d="M8.96555 30.4827C11.4413 30.4827 13.4483 28.4757 13.4483 26C13.4483 23.5242 11.4413 21.5172 8.96555 21.5172C6.48979 21.5172 4.48279 23.5242 4.48279 26C4.48279 28.4757 6.48979 30.4827 8.96555 30.4827Z" fill="#000000"/>
<path d="M22.4138 26.8965H47.5173H22.4138Z" fill="#000000"/>
<path d="M22.4138 26.8965H47.5173" stroke="#000000" stroke-width="2.5" stroke-miterlimit="10" stroke-linecap="round" stroke-linejoin="round"/>
<path d="M8.96555 46.6207C11.4413 46.6207 13.4483 44.6137 13.4483 42.1379C13.4483 39.6622 11.4413 37.6552 8.96555 37.6552C6.48979 37.6552 4.48279 39.6622 4.48279 42.1379C4.48279 44.6137 6.48979 46.6207 8.96555 46.6207Z" fill="#000000"/>
<path d="M22.4138 43.0345H47.5173H22.4138Z" fill="#000000"/>
<path d="M22.4138 43.0345H47.5173" stroke="#000000" stroke-width="2.5" stroke-miterlimit="10" stroke-linecap="round" stroke-linejoin="round"/>
</svg>
