<svg width="283" height="121" viewBox="0 0 283 121" fill="none" xmlns="http://www.w3.org/2000/svg">
<g filter="url(#filter0_d_1_36)">
<path d="M33.5625 66.9062H42.9062C42.7188 69.9688 41.875 72.6875 40.375 75.0625C38.8958 77.4375 36.8229 79.2917 34.1562 80.625C31.5104 81.9583 28.3229 82.625 24.5938 82.625C21.6771 82.625 19.0625 82.125 16.75 81.125C14.4375 80.1042 12.4583 78.6458 10.8125 76.75C9.1875 74.8542 7.94792 72.5625 7.09375 69.875C6.23958 67.1875 5.8125 64.1771 5.8125 60.8438V57.6875C5.8125 54.3542 6.25 51.3438 7.125 48.6562C8.02083 45.9479 9.29167 43.6458 10.9375 41.75C12.6042 39.8542 14.5938 38.3958 16.9062 37.375C19.2188 36.3542 21.8021 35.8438 24.6562 35.8438C28.4479 35.8438 31.6458 36.5312 34.25 37.9062C36.875 39.2812 38.9062 41.1771 40.3438 43.5938C41.8021 46.0104 42.6771 48.7604 42.9688 51.8438H33.5938C33.4896 50.0104 33.125 48.4583 32.5 47.1875C31.875 45.8958 30.9271 44.9271 29.6562 44.2812C28.4062 43.6146 26.7396 43.2812 24.6562 43.2812C23.0938 43.2812 21.7292 43.5729 20.5625 44.1562C19.3958 44.7396 18.4167 45.625 17.625 46.8125C16.8333 48 16.2396 49.5 15.8438 51.3125C15.4688 53.1042 15.2812 55.2083 15.2812 57.625V60.8438C15.2812 63.1979 15.4583 65.2708 15.8125 67.0625C16.1667 68.8333 16.7083 70.3333 17.4375 71.5625C18.1875 72.7708 19.1458 73.6875 20.3125 74.3125C21.5 74.9167 22.9271 75.2188 24.5938 75.2188C26.5521 75.2188 28.1667 74.9062 29.4375 74.2812C30.7083 73.6562 31.6771 72.7292 32.3438 71.5C33.0312 70.2708 33.4375 68.7396 33.5625 66.9062ZM66.75 74.375V59.3125C66.75 58.2292 66.5729 57.3021 66.2188 56.5312C65.8646 55.7396 65.3125 55.125 64.5625 54.6875C63.8333 54.25 62.8854 54.0312 61.7188 54.0312C60.7188 54.0312 59.8542 54.2083 59.125 54.5625C58.3958 54.8958 57.8333 55.3854 57.4375 56.0312C57.0417 56.6562 56.8438 57.3958 56.8438 58.25H47.8438C47.8438 56.8125 48.1771 55.4479 48.8438 54.1562C49.5104 52.8646 50.4792 51.7292 51.75 50.75C53.0208 49.75 54.5312 48.9688 56.2812 48.4062C58.0521 47.8438 60.0312 47.5625 62.2188 47.5625C64.8438 47.5625 67.1771 48 69.2188 48.875C71.2604 49.75 72.8646 51.0625 74.0312 52.8125C75.2188 54.5625 75.8125 56.75 75.8125 59.375V73.8438C75.8125 75.6979 75.9271 77.2188 76.1562 78.4062C76.3854 79.5729 76.7188 80.5938 77.1562 81.4688V82H68.0625C67.625 81.0833 67.2917 79.9375 67.0625 78.5625C66.8542 77.1667 66.75 75.7708 66.75 74.375ZM67.9375 61.4062L68 66.5H62.9688C61.7812 66.5 60.75 66.6354 59.875 66.9062C59 67.1771 58.2812 67.5625 57.7188 68.0625C57.1562 68.5417 56.7396 69.1042 56.4688 69.75C56.2188 70.3958 56.0938 71.1042 56.0938 71.875C56.0938 72.6458 56.2708 73.3438 56.625 73.9688C56.9792 74.5729 57.4896 75.0521 58.1562 75.4062C58.8229 75.7396 59.6042 75.9062 60.5 75.9062C61.8542 75.9062 63.0312 75.6354 64.0312 75.0938C65.0312 74.5521 65.8021 73.8854 66.3438 73.0938C66.9062 72.3021 67.1979 71.5521 67.2188 70.8438L69.5938 74.6562C69.2604 75.5104 68.8021 76.3958 68.2188 77.3125C67.6562 78.2292 66.9375 79.0938 66.0625 79.9062C65.1875 80.6979 64.1354 81.3542 62.9062 81.875C61.6771 82.375 60.2188 82.625 58.5312 82.625C56.3854 82.625 54.4375 82.1979 52.6875 81.3438C50.9583 80.4688 49.5833 79.2708 48.5625 77.75C47.5625 76.2083 47.0625 74.4583 47.0625 72.5C47.0625 70.7292 47.3958 69.1562 48.0625 67.7812C48.7292 66.4062 49.7083 65.25 51 64.3125C52.3125 63.3542 53.9479 62.6354 55.9062 62.1562C57.8646 61.6562 60.1354 61.4062 62.7188 61.4062H67.9375ZM101.031 72.6562C101.031 72.0104 100.844 71.4271 100.469 70.9062C100.094 70.3854 99.3958 69.9062 98.375 69.4688C97.375 69.0104 95.9271 68.5938 94.0312 68.2188C92.3229 67.8438 90.7292 67.375 89.25 66.8125C87.7917 66.2292 86.5208 65.5312 85.4375 64.7188C84.375 63.9062 83.5417 62.9479 82.9375 61.8438C82.3333 60.7188 82.0312 59.4375 82.0312 58C82.0312 56.5833 82.3333 55.25 82.9375 54C83.5625 52.75 84.4479 51.6458 85.5938 50.6875C86.7604 49.7083 88.1771 48.9479 89.8438 48.4062C91.5312 47.8438 93.4271 47.5625 95.5312 47.5625C98.4688 47.5625 100.99 48.0312 103.094 48.9688C105.219 49.9062 106.844 51.1979 107.969 52.8438C109.115 54.4688 109.688 56.3229 109.688 58.4062H100.688C100.688 57.5312 100.5 56.75 100.125 56.0625C99.7708 55.3542 99.2083 54.8021 98.4375 54.4062C97.6875 53.9896 96.7083 53.7812 95.5 53.7812C94.5 53.7812 93.6354 53.9583 92.9062 54.3125C92.1771 54.6458 91.6146 55.1042 91.2188 55.6875C90.8438 56.25 90.6562 56.875 90.6562 57.5625C90.6562 58.0833 90.7604 58.5521 90.9688 58.9688C91.1979 59.3646 91.5625 59.7292 92.0625 60.0625C92.5625 60.3958 93.2083 60.7083 94 61C94.8125 61.2708 95.8125 61.5208 97 61.75C99.4375 62.25 101.615 62.9062 103.531 63.7188C105.448 64.5104 106.969 65.5938 108.094 66.9688C109.219 68.3229 109.781 70.1042 109.781 72.3125C109.781 73.8125 109.448 75.1875 108.781 76.4375C108.115 77.6875 107.156 78.7812 105.906 79.7188C104.656 80.6354 103.156 81.3542 101.406 81.875C99.6771 82.375 97.7292 82.625 95.5625 82.625C92.4167 82.625 89.75 82.0625 87.5625 80.9375C85.3958 79.8125 83.75 78.3854 82.625 76.6562C81.5208 74.9062 80.9688 73.1146 80.9688 71.2812H89.5C89.5417 72.5104 89.8542 73.5 90.4375 74.25C91.0417 75 91.8021 75.5417 92.7188 75.875C93.6562 76.2083 94.6667 76.375 95.75 76.375C96.9167 76.375 97.8854 76.2188 98.6562 75.9062C99.4271 75.5729 100.01 75.1354 100.406 74.5938C100.823 74.0312 101.031 73.3854 101.031 72.6562ZM133.875 74.375V59.3125C133.875 58.2292 133.698 57.3021 133.344 56.5312C132.99 55.7396 132.438 55.125 131.688 54.6875C130.958 54.25 130.01 54.0312 128.844 54.0312C127.844 54.0312 126.979 54.2083 126.25 54.5625C125.521 54.8958 124.958 55.3854 124.562 56.0312C124.167 56.6562 123.969 57.3958 123.969 58.25H114.969C114.969 56.8125 115.302 55.4479 115.969 54.1562C116.635 52.8646 117.604 51.7292 118.875 50.75C120.146 49.75 121.656 48.9688 123.406 48.4062C125.177 47.8438 127.156 47.5625 129.344 47.5625C131.969 47.5625 134.302 48 136.344 48.875C138.385 49.75 139.99 51.0625 141.156 52.8125C142.344 54.5625 142.938 56.75 142.938 59.375V73.8438C142.938 75.6979 143.052 77.2188 143.281 78.4062C143.51 79.5729 143.844 80.5938 144.281 81.4688V82H135.188C134.75 81.0833 134.417 79.9375 134.188 78.5625C133.979 77.1667 133.875 75.7708 133.875 74.375ZM135.062 61.4062L135.125 66.5H130.094C128.906 66.5 127.875 66.6354 127 66.9062C126.125 67.1771 125.406 67.5625 124.844 68.0625C124.281 68.5417 123.865 69.1042 123.594 69.75C123.344 70.3958 123.219 71.1042 123.219 71.875C123.219 72.6458 123.396 73.3438 123.75 73.9688C124.104 74.5729 124.615 75.0521 125.281 75.4062C125.948 75.7396 126.729 75.9062 127.625 75.9062C128.979 75.9062 130.156 75.6354 131.156 75.0938C132.156 74.5521 132.927 73.8854 133.469 73.0938C134.031 72.3021 134.323 71.5521 134.344 70.8438L136.719 74.6562C136.385 75.5104 135.927 76.3958 135.344 77.3125C134.781 78.2292 134.062 79.0938 133.188 79.9062C132.312 80.6979 131.26 81.3542 130.031 81.875C128.802 82.375 127.344 82.625 125.656 82.625C123.51 82.625 121.562 82.1979 119.812 81.3438C118.083 80.4688 116.708 79.2708 115.688 77.75C114.688 76.2083 114.188 74.4583 114.188 72.5C114.188 70.7292 114.521 69.1562 115.188 67.7812C115.854 66.4062 116.833 65.25 118.125 64.3125C119.438 63.3542 121.073 62.6354 123.031 62.1562C124.99 61.6562 127.26 61.4062 129.844 61.4062H135.062Z" fill="black"/>
<path d="M176.812 66.9062H186.156C185.969 69.9688 185.125 72.6875 183.625 75.0625C182.146 77.4375 180.073 79.2917 177.406 80.625C174.76 81.9583 171.573 82.625 167.844 82.625C164.927 82.625 162.312 82.125 160 81.125C157.688 80.1042 155.708 78.6458 154.062 76.75C152.438 74.8542 151.198 72.5625 150.344 69.875C149.49 67.1875 149.062 64.1771 149.062 60.8438V57.6875C149.062 54.3542 149.5 51.3438 150.375 48.6562C151.271 45.9479 152.542 43.6458 154.188 41.75C155.854 39.8542 157.844 38.3958 160.156 37.375C162.469 36.3542 165.052 35.8438 167.906 35.8438C171.698 35.8438 174.896 36.5312 177.5 37.9062C180.125 39.2812 182.156 41.1771 183.594 43.5938C185.052 46.0104 185.927 48.7604 186.219 51.8438H176.844C176.74 50.0104 176.375 48.4583 175.75 47.1875C175.125 45.8958 174.177 44.9271 172.906 44.2812C171.656 43.6146 169.99 43.2812 167.906 43.2812C166.344 43.2812 164.979 43.5729 163.812 44.1562C162.646 44.7396 161.667 45.625 160.875 46.8125C160.083 48 159.49 49.5 159.094 51.3125C158.719 53.1042 158.531 55.2083 158.531 57.625V60.8438C158.531 63.1979 158.708 65.2708 159.062 67.0625C159.417 68.8333 159.958 70.3333 160.688 71.5625C161.438 72.7708 162.396 73.6875 163.562 74.3125C164.75 74.9167 166.177 75.2188 167.844 75.2188C169.802 75.2188 171.417 74.9062 172.688 74.2812C173.958 73.6562 174.927 72.7292 175.594 71.5C176.281 70.2708 176.688 68.7396 176.812 66.9062ZM210 74.375V59.3125C210 58.2292 209.823 57.3021 209.469 56.5312C209.115 55.7396 208.562 55.125 207.812 54.6875C207.083 54.25 206.135 54.0312 204.969 54.0312C203.969 54.0312 203.104 54.2083 202.375 54.5625C201.646 54.8958 201.083 55.3854 200.688 56.0312C200.292 56.6562 200.094 57.3958 200.094 58.25H191.094C191.094 56.8125 191.427 55.4479 192.094 54.1562C192.76 52.8646 193.729 51.7292 195 50.75C196.271 49.75 197.781 48.9688 199.531 48.4062C201.302 47.8438 203.281 47.5625 205.469 47.5625C208.094 47.5625 210.427 48 212.469 48.875C214.51 49.75 216.115 51.0625 217.281 52.8125C218.469 54.5625 219.062 56.75 219.062 59.375V73.8438C219.062 75.6979 219.177 77.2188 219.406 78.4062C219.635 79.5729 219.969 80.5938 220.406 81.4688V82H211.312C210.875 81.0833 210.542 79.9375 210.312 78.5625C210.104 77.1667 210 75.7708 210 74.375ZM211.188 61.4062L211.25 66.5H206.219C205.031 66.5 204 66.6354 203.125 66.9062C202.25 67.1771 201.531 67.5625 200.969 68.0625C200.406 68.5417 199.99 69.1042 199.719 69.75C199.469 70.3958 199.344 71.1042 199.344 71.875C199.344 72.6458 199.521 73.3438 199.875 73.9688C200.229 74.5729 200.74 75.0521 201.406 75.4062C202.073 75.7396 202.854 75.9062 203.75 75.9062C205.104 75.9062 206.281 75.6354 207.281 75.0938C208.281 74.5521 209.052 73.8854 209.594 73.0938C210.156 72.3021 210.448 71.5521 210.469 70.8438L212.844 74.6562C212.51 75.5104 212.052 76.3958 211.469 77.3125C210.906 78.2292 210.188 79.0938 209.312 79.9062C208.438 80.6979 207.385 81.3542 206.156 81.875C204.927 82.375 203.469 82.625 201.781 82.625C199.635 82.625 197.688 82.1979 195.938 81.3438C194.208 80.4688 192.833 79.2708 191.812 77.75C190.812 76.2083 190.312 74.4583 190.312 72.5C190.312 70.7292 190.646 69.1562 191.312 67.7812C191.979 66.4062 192.958 65.25 194.25 64.3125C195.562 63.3542 197.198 62.6354 199.156 62.1562C201.115 61.6562 203.385 61.4062 205.969 61.4062H211.188ZM235 55.5625V82H226V48.1875H234.469L235 55.5625ZM245.188 47.9688L245.031 56.3125C244.594 56.25 244.062 56.1979 243.438 56.1562C242.833 56.0938 242.281 56.0625 241.781 56.0625C240.51 56.0625 239.406 56.2292 238.469 56.5625C237.552 56.875 236.781 57.3438 236.156 57.9688C235.552 58.5938 235.094 59.3542 234.781 60.25C234.49 61.1458 234.323 62.1667 234.281 63.3125L232.469 62.75C232.469 60.5625 232.688 58.5521 233.125 56.7188C233.562 54.8646 234.198 53.25 235.031 51.875C235.885 50.5 236.927 49.4375 238.156 48.6875C239.385 47.9375 240.792 47.5625 242.375 47.5625C242.875 47.5625 243.385 47.6042 243.906 47.6875C244.427 47.75 244.854 47.8438 245.188 47.9688ZM264.375 82.625C261.75 82.625 259.396 82.2083 257.312 81.375C255.229 80.5208 253.458 79.3438 252 77.8438C250.562 76.3438 249.458 74.6042 248.688 72.625C247.917 70.625 247.531 68.5 247.531 66.25V65C247.531 62.4375 247.896 60.0938 248.625 57.9688C249.354 55.8438 250.396 54 251.75 52.4375C253.125 50.875 254.792 49.6771 256.75 48.8438C258.708 47.9896 260.917 47.5625 263.375 47.5625C265.771 47.5625 267.896 47.9583 269.75 48.75C271.604 49.5417 273.156 50.6667 274.406 52.125C275.677 53.5833 276.635 55.3333 277.281 57.375C277.927 59.3958 278.25 61.6458 278.25 64.125V67.875H251.375V61.875H269.406V61.1875C269.406 59.9375 269.177 58.8229 268.719 57.8438C268.281 56.8438 267.615 56.0521 266.719 55.4688C265.823 54.8854 264.677 54.5938 263.281 54.5938C262.094 54.5938 261.073 54.8542 260.219 55.375C259.365 55.8958 258.667 56.625 258.125 57.5625C257.604 58.5 257.208 59.6042 256.938 60.875C256.688 62.125 256.562 63.5 256.562 65V66.25C256.562 67.6042 256.75 68.8542 257.125 70C257.521 71.1458 258.073 72.1354 258.781 72.9688C259.51 73.8021 260.385 74.4479 261.406 74.9062C262.448 75.3646 263.625 75.5938 264.938 75.5938C266.562 75.5938 268.073 75.2812 269.469 74.6562C270.885 74.0104 272.104 73.0417 273.125 71.75L277.5 76.5C276.792 77.5208 275.823 78.5 274.594 79.4375C273.385 80.375 271.927 81.1458 270.219 81.75C268.51 82.3333 266.562 82.625 264.375 82.625Z" fill="#F93059"/>
</g>
<defs>
<filter id="filter0_d_1_36" x="1.8125" y="35.8438" width="280.438" height="54.7812" filterUnits="userSpaceOnUse" color-interpolation-filters="sRGB">
<feFlood flood-opacity="0" result="BackgroundImageFix"/>
<feColorMatrix in="SourceAlpha" type="matrix" values="0 0 0 0 0 0 0 0 0 0 0 0 0 0 0 0 0 0 127 0" result="hardAlpha"/>
<feOffset dy="4"/>
<feGaussianBlur stdDeviation="2"/>
<feComposite in2="hardAlpha" operator="out"/>
<feColorMatrix type="matrix" values="0 0 0 0 0 0 0 0 0 0 0 0 0 0 0 0 0 0 0.25 0"/>
<feBlend mode="normal" in2="BackgroundImageFix" result="effect1_dropShadow_1_36"/>
<feBlend mode="normal" in="SourceGraphic" in2="effect1_dropShadow_1_36" result="shape"/>
</filter>
</defs>
</svg>
