<svg viewBox="0 0 772 565" fill="none" xmlns="http://www.w3.org/2000/svg">
<g filter="url(#filter0_d_11_151)">
<path fill-rule="evenodd" clip-rule="evenodd" d="M766.795 210.528C757.337 281.042 746.661 318.29 684.352 392.134C622.042 465.98 336.908 514.559 231.495 514.559C126.081 514.559 -3.82958 433.274 4.36942 339.092C12.5684 244.91 55.344 167.932 157.729 158.456C262.361 148.772 354.272 193.617 456.996 169.566C545.806 148.772 572.978 69.5124 633.976 44.5071C757.337 -6.06598 773.228 162.557 766.795 210.528Z" fill="#64FCD9"/>
</g>
<g filter="url(#filter1_d_11_151)">
<path d="M703.328 244.968C699.844 250.877 655.724 280.768 628.961 285.192C623.782 286.048 618.127 286.342 613.629 283.637C610.971 282.039 608.99 279.548 607.11 277.084C602.808 271.449 598.706 265.662 594.811 259.739C592.764 256.626 590.734 253.377 590.039 249.717C588.197 240.025 596.009 231.321 603.73 225.181C621.477 211.065 642.258 200.781 664.244 195.234C668.137 194.252 672.264 193.42 676.12 194.535C682.378 196.346 686.12 202.678 688.508 208.74C690.896 214.801 692.759 221.432 697.531 225.866C698.621 226.878 706.813 239.061 703.328 244.968Z" fill="white"/>
</g>
<g filter="url(#filter2_d_11_151)">
<path fill-rule="evenodd" clip-rule="evenodd" d="M466.259 502.492C423.44 509.815 443.848 478.694 449.753 439.741C459.456 375.735 471.421 278.468 471.421 278.468C471.421 278.468 479.224 426.681 479.224 462.769C479.224 498.858 471.42 501.61 466.259 502.492Z" fill="white"/>
</g>
<g filter="url(#filter3_d_11_151)">
<path d="M420.507 467.231C421.6 477.538 422.752 488.063 427.132 497.456C424.742 476.185 422.353 454.914 419.963 433.643C419.668 431.016 419.755 427.672 422.172 426.601C424.217 450.62 427.265 474.554 431.307 498.319C431.786 501.14 427.548 502.753 425.169 501.163C422.788 499.574 422.027 496.48 421.486 493.669C417.542 473.191 415.373 452.371 415.013 431.519C409.991 432.508 406.47 437.376 405.454 442.392C404.439 447.407 405.418 452.588 406.396 457.612C409.545 473.781 412.695 489.95 415.843 506.119C417.316 513.682 418.789 521.496 417.163 529.029C410.914 500.493 405.889 471.691 402.108 442.726C354.153 472.05 292.363 477.503 240.013 457.03C228.58 452.559 217.225 446.635 209.673 436.955C203.725 429.33 200.551 419.864 198.887 410.337C192.981 376.503 205.084 341.99 221.512 311.828C227.745 300.382 234.844 288.462 234.34 275.44C234.167 270.956 233.201 265.993 235.819 262.348C236.19 263.023 218.679 137.767 225.704 110.061C242.615 43.36 297.55 34.327 332.723 35.1501C356.323 35.7017 505.915 65.4309 527.528 105.858C555.935 158.992 549.903 203.665 544.858 233.12C543.357 241.892 471.44 277.823 471.421 278.005C467.31 316.226 439.719 399.508 416.58 430.205C417.889 442.547 419.198 454.889 420.507 467.231Z" fill="white"/>
</g>
<g filter="url(#filter4_d_11_151)">
<path fill-rule="evenodd" clip-rule="evenodd" d="M75.2109 311.712C61.7242 306.328 45.652 307.925 33.4929 315.857C32.3157 316.624 30.6234 315.768 30.0406 314.491C29.4578 313.213 29.6759 311.727 29.9739 310.356C33.8573 292.484 49.3275 278.811 66.5319 272.526C83.7362 266.242 102.554 266.225 120.843 267.299C122.657 267.406 124.554 267.547 126.103 268.498C127.65 269.45 128.691 271.484 127.92 273.127C120.727 288.447 115.307 304.595 111.805 321.15C111.237 323.833 108.456 325.614 105.716 325.839C102.977 326.062 100.293 325.052 97.8064 323.882C90.0594 320.235 83.1642 314.887 75.2109 311.712Z" fill="white"/>
</g>
<g filter="url(#filter5_d_11_151)">
<path fill-rule="evenodd" clip-rule="evenodd" d="M489.753 41.9317C490.423 31.6805 489.65 21.3352 487.464 11.2974L487.418 11.0829C487.047 9.38527 486.665 7.63951 487.008 5.94083C487.763 2.18446 491.936 -0.0768105 495.767 0.00199445C499.599 0.0807994 503.147 1.90973 506.538 3.69598C522.798 12.2616 539.351 21.0429 552.153 34.2285C552.555 44.9033 550.039 55.4369 547.555 65.8359L547.322 66.8133C536.955 110.278 528.465 154.19 521.884 198.387C521.254 202.623 520.058 207.62 516.04 209.103C513.158 210.168 509.806 208.808 507.76 206.517C505.712 204.226 504.733 201.186 504.05 198.19C502.366 190.799 502.162 183.074 503.457 175.605C504.249 171.037 505.587 166.595 506.926 162.151L506.927 162.149C508.127 158.16 509.329 154.17 510.137 150.087C510.944 146.006 511.351 141.855 511.745 137.713C513.843 115.683 515.623 93.6245 517.084 71.5438C517.291 68.4233 517.478 65.2043 516.457 62.2492C514.639 56.9933 509.342 53.6704 503.993 52.1479C503.072 51.8852 502.135 51.6619 501.199 51.4386C499.019 50.9188 496.841 50.3989 494.853 49.3864C492.011 47.9384 489.545 45.1146 489.753 41.9317ZM499.688 41.0889C507.25 42.6847 514.639 45.0938 521.687 48.2624C523.107 48.9005 524.599 49.6469 525.366 51.0009C525.992 52.1063 526.028 53.4383 526.047 54.7091C526.268 69.6328 526.315 84.5969 524.735 99.4385C523.788 108.326 522.262 117.136 520.735 125.944C520.253 128.732 519.769 131.521 519.305 134.311C517.005 148.12 515.154 162.003 513.755 175.932C512.741 186.039 511.998 196.485 515.142 206.143C516.754 205.848 517.375 203.905 517.681 202.294L546.733 49.1643C547.438 45.4539 548.141 41.6176 547.311 37.9335C545.86 31.4835 540.134 26.9982 534.615 23.3589C523.988 16.354 512.677 10.3878 500.896 5.57307C499.916 17.3829 499.513 29.2397 499.688 41.0889ZM514.629 141.658C519.948 114.35 522.351 86.474 521.784 58.6581C521.741 56.5566 521.628 54.2986 520.343 52.6361C519.402 51.4179 517.963 50.7042 516.557 50.0749C511.28 47.7108 505.732 45.9519 500.057 44.8431C498.414 44.5224 495.999 44.8705 496.07 46.5429L516.47 54.9718C517.667 55.4665 518.941 56.0258 519.618 57.1301C520.281 58.2126 520.216 59.5731 520.13 60.8394L514.629 141.658ZM495.646 2.87181C493.965 1.7565 491.534 2.90574 490.598 4.69308C489.661 6.48042 489.803 8.61909 490.015 10.6253C490.327 13.5696 490.737 16.5149 491.147 19.4614C492.285 27.6341 493.424 35.8101 492.456 43.9664C494 44.4962 495.721 43.4082 496.47 41.9591C497.218 40.5099 497.237 38.808 497.24 37.1761L497.292 7.76428C497.295 5.96709 497.144 3.86453 495.646 2.87181ZM510.751 205.479C509.824 198.211 509.581 190.856 510.026 183.542C510.265 179.631 510.698 175.734 511.132 171.837C511.707 166.684 512.28 161.534 512.399 156.353C508.163 168.964 506.563 182.454 507.732 195.705C508.037 199.152 508.601 202.767 510.751 205.479ZM513.082 148.904C513.764 148.599 514.05 147.641 513.648 147.012C512.955 147.353 512.662 148.319 513.046 148.988L513.082 148.904ZM506.747 85.7462C473.03 64.9526 434.903 52.4938 396.776 41.7435C384.589 38.3067 372.298 35.0133 359.714 33.6036C322.425 29.4269 284.622 42.2918 253.617 63.4236C241.182 71.8995 229.185 82.3236 223.812 96.3805C219.826 106.81 219.855 118.292 220.239 129.45C221.564 167.935 226.503 206.194 231.434 244.385C235.292 243.689 235.672 238.355 235.113 234.477C229.985 198.862 227.109 162.921 226.509 126.944C226.342 116.856 226.394 106.512 229.886 97.0459C236.205 79.908 252.506 68.7013 268.5 59.8806C288.647 48.7724 310.546 39.4329 333.546 38.9382C361.407 38.3373 387.814 50.6955 412.153 64.2685C425.72 71.8349 439.479 80.2857 448.11 93.202C455.948 104.932 458.796 119.226 460.852 133.182C467.38 177.476 467.618 222.427 467.845 267.199C467.855 269.01 467.743 271.086 466.325 272.212C465.355 272.981 464.03 273.078 462.793 273.142L417.34 275.509C438.521 281.597 462.016 279.196 481.526 268.947L532.031 242.415C536.744 239.939 541.61 237.337 544.858 233.119C549.329 227.314 549.97 219.503 550.181 212.179C550.96 185.126 548.255 157.975 542.154 131.608C544.268 160.132 544.562 188.789 543.031 217.349C542.77 222.227 542.379 227.343 539.727 231.445C536.893 235.826 531.969 238.307 527.277 240.587L472.773 267.079C475.028 224.729 473.278 182.167 467.554 140.147C465.629 126.013 463.173 111.682 456.705 98.969C441.42 68.9246 407.588 54.0622 376.32 41.4698C423.067 55.1458 470.349 69.0483 512.406 93.6179C512.952 90.2238 509.673 87.551 506.747 85.7462ZM680.935 215.018C683.358 221.263 686.765 227.921 693.027 230.302C694.51 230.417 695.396 228.449 694.909 227.043C694.503 225.869 693.547 225.014 692.608 224.174C692.502 224.078 692.395 223.984 692.291 223.889C692.213 223.819 692.135 223.748 692.058 223.677C688.074 219.974 686.117 214.741 684.191 209.587C683.81 208.567 683.43 207.551 683.035 206.55C680.648 200.488 676.906 194.157 670.647 192.345C666.791 191.23 662.664 192.062 658.772 193.044C636.784 198.592 616.005 208.875 598.257 222.99C590.537 229.131 582.724 237.836 584.566 247.527C585.261 251.187 587.292 254.437 589.338 257.55C593.233 263.472 597.336 269.259 601.637 274.895C603.518 277.359 605.499 279.85 608.156 281.447C612.655 284.152 618.31 283.857 623.488 283.002C650.251 278.578 673.157 261.945 694.953 245.798C696.088 244.957 697.268 244.062 697.856 242.779C698.444 241.495 698.193 239.709 696.946 239.047C695.517 238.287 693.831 239.336 692.556 240.334C672.274 256.214 650.607 271.731 625.458 277.31C620.691 278.367 615.437 278.99 611.147 276.656C607.937 274.91 605.77 271.77 603.724 268.742L591.037 249.97C589.969 248.39 588.861 246.69 588.822 244.782C588.782 242.874 590.323 240.81 592.216 241.057C609.999 243.369 627.867 245.032 645.772 246.04C647.197 246.12 648.688 246.184 649.987 245.591C651.66 244.827 652.68 243.135 653.572 241.527C661.152 227.862 666.942 213.206 670.748 198.05C675.808 201.678 678.169 207.823 680.421 213.686C680.593 214.132 680.764 214.577 680.935 215.018ZM665.283 196.85C661.895 209.526 656.883 221.766 650.408 233.176C649.323 235.089 648.118 237.059 646.22 238.17C643.804 239.584 640.8 239.318 638.019 239.008L593.722 234.065C601.071 224.353 611.989 218.05 622.898 212.634C633.224 207.508 643.825 202.935 654.64 198.941C658.064 197.677 661.655 196.452 665.283 196.85ZM420.506 467.23C421.6 477.537 422.752 488.062 427.132 497.456L419.962 433.642C419.668 431.015 419.755 427.671 422.171 426.6C424.217 450.62 427.265 474.553 431.307 498.319C431.786 501.139 427.548 502.751 425.168 501.162C422.788 499.573 422.026 496.479 421.486 493.669C417.541 473.191 415.373 452.37 415.013 431.518C409.991 432.508 406.47 437.375 405.454 442.391C404.439 447.407 405.417 452.587 406.396 457.61L415.842 506.118C417.316 513.681 418.789 521.496 417.164 529.027C410.914 500.492 405.889 471.69 402.109 442.725C354.154 472.049 292.363 477.502 240.013 457.03C228.58 452.559 217.224 446.634 209.673 436.955C203.725 429.329 200.551 419.863 198.887 410.336C192.981 376.501 205.084 341.989 221.512 311.827C221.94 311.041 222.372 310.253 222.805 309.463C228.684 298.74 234.809 287.568 234.34 275.44C234.31 274.638 234.253 273.821 234.197 272.999C233.937 269.224 233.668 265.34 235.819 262.348C238.703 267.594 239.801 273.802 238.892 279.72C288.539 277.584 338.258 277.152 387.933 278.43C388.512 280.714 385.204 281.775 382.848 281.74C336.49 281.048 290.109 281.838 243.801 284.107C242.336 284.179 240.796 284.275 239.552 285.056C238.245 285.877 237.483 287.318 236.78 288.693C223.637 314.409 210.452 340.499 204.099 368.671C200.832 383.158 199.581 399.014 206.276 412.271C208.816 417.299 212.409 421.741 216.42 425.698C237.953 446.938 270.199 453.449 300.441 452.941C319.743 452.616 339.002 449.842 357.61 444.705C377.338 439.259 397.011 430.674 410.477 415.263C418.384 406.212 423.759 395.253 428.466 384.194C437.453 363.079 444.346 341.074 449.011 318.606C451.933 319.221 451.973 323.352 451.299 326.26C442.958 362.243 433.264 400.598 405.792 425.288C380.979 447.588 346.015 454.504 312.706 456.369C293.466 457.446 273.922 457.11 255.286 452.205C236.651 447.3 218.856 437.489 207.026 422.277C210.477 435.434 222.165 444.824 234.334 450.9C266.284 466.855 304.014 466.012 339.293 460.466C362.795 456.771 386.917 450.708 405.206 435.495C420.839 422.491 430.802 403.919 438.301 385.017C446.602 364.095 452.36 342.164 455.409 319.864C457.307 318.664 458.715 322.019 458.474 324.252C454.363 362.473 439.719 399.507 416.58 430.204L420.506 467.23ZM398.288 532.589C396.249 529.147 394.936 525.276 394.46 521.303L391.531 531.23L384.139 503.038C383.565 500.851 382.17 498.115 379.959 498.585C377.809 499.041 377.567 501.992 377.888 504.167C379.498 515.103 382.569 525.823 386.994 535.953L379.134 529.055C378.752 532.339 379.615 535.753 381.514 538.459C377.42 535.443 371.927 534.416 367.02 535.747C370.527 540.619 375.289 544.582 380.717 547.145L374.076 537.873C379.444 540.972 385.069 543.628 390.874 545.804L385.246 538.747L392.201 540.674C386.879 528.569 381.458 516.002 381.587 502.78C383.601 513.536 386.55 524.117 390.388 534.365C391.04 536.102 391.762 537.898 393.148 539.13C394.533 540.362 396.786 540.826 398.237 539.673C399.366 538.776 399.695 537.229 399.951 535.81L403.083 518.44L406.524 539.981C409.132 533.393 417.615 531.742 424.7 531.698C434.056 531.64 443.483 532.67 452.885 533.699H452.886H452.887C469.836 535.552 486.707 537.396 502.946 532.837C502.469 535.348 501.635 537.791 500.477 540.069C513.58 538.161 526.84 537.324 540.08 537.568C545.673 537.672 551.282 537.966 556.892 538.261C571.719 539.039 586.546 539.817 601.074 537.063L504.658 536.216C506.468 536.111 507.856 534.005 507.239 532.3C506.621 530.595 504.208 529.865 502.749 530.942C501.801 527.927 497.539 526.587 495.036 528.516C496.487 524.042 499.357 520.04 503.129 517.23C498.871 517.001 494.548 518.304 491.126 520.848L501.497 472.852C500.619 472.097 499.157 472.604 498.509 473.563C497.869 474.511 497.796 475.718 497.729 476.862L497.727 476.898C496.755 493.287 490.976 509.362 481.29 522.618L477.487 511.613L472.035 524.758C469.564 522.844 466.059 522.362 463.163 523.536C463.903 526.347 466.151 528.711 468.921 529.591L470.211 526.135L478.728 531.839C475.473 528.429 474.768 522.848 477.072 518.734L482.225 527.379L492.215 507.621C492.271 515.554 488.871 523.052 485.539 530.251C489.161 527.414 492.275 523.93 494.688 520.013C497.017 524.138 494.472 529.669 490.422 532.125C486.371 534.58 481.36 534.713 476.627 534.513C469.406 534.208 462.129 533.301 454.862 532.395C438.54 530.36 422.264 528.331 406.76 533.137L404.524 512.523C401.109 518.694 398.973 525.569 398.288 532.589ZM495.561 533.139C495.211 532.72 495.213 532.048 495.566 531.632L495.847 531.739C496.321 530.606 498.312 530.699 498.679 531.871C497.759 532.533 496.681 532.972 495.561 533.139ZM548.236 314.125C537.007 308.45 523.644 309.981 511.18 311.69C507.658 312.173 504.067 312.679 500.876 314.248C497.686 315.816 494.908 318.656 494.357 322.169C463.915 318.367 434.743 304.968 412.025 284.351C407.094 279.877 402.063 273.504 404.28 267.226C404.977 265.253 406.333 263.588 407.743 262.042C418.336 250.429 432.939 243.445 447.154 236.741C431.043 238.154 415.583 245.991 404.919 258.152C402.475 260.938 400.222 264.052 399.38 267.662C397.301 276.576 404.225 284.938 411.154 290.918C433.263 309.999 461.071 322.39 490.043 326.07C491.78 326.291 491.87 328.734 491.711 330.477C491.005 338.235 495.233 345.806 501.094 350.938C506.956 356.069 514.297 359.15 521.582 361.909C544.142 370.454 567.555 376.749 591.359 380.666C592.931 380.926 595.092 380.803 595.423 379.243C589.929 375.609 583.318 374.225 576.853 372.871C576.504 372.799 576.156 372.725 575.807 372.652C559.416 369.201 543.246 364.707 527.425 359.206C520.934 356.949 514.429 354.484 508.769 350.587C503.11 346.688 498.304 341.182 496.494 334.553C495.601 331.279 496.814 326.392 500.181 326.805C513.896 328.482 527.987 330.138 541.379 326.736C544.409 325.967 547.568 324.805 549.416 322.283C551.262 319.76 551.027 315.536 548.236 314.125ZM513.643 323.189C508.935 322.378 504.125 322.161 499.364 322.544C501.678 318.15 507.328 316.993 512.251 316.322C522.946 314.866 534.085 313.445 544.333 316.836C545.01 317.061 545.733 317.346 546.099 317.958C546.581 318.764 546.23 319.86 545.545 320.502C544.859 321.144 543.926 321.435 543.022 321.688C533.499 324.349 523.386 324.866 513.643 323.189ZM357.858 544.911C365.737 544.69 373.663 546.432 380.723 549.935C378.836 552.647 375.043 553.027 371.741 553.153L285.439 556.427C284.648 556.33 284.499 555.109 285.059 554.542C285.619 553.975 286.495 553.902 287.291 553.863L371.539 549.754C366.671 549.308 361.922 547.626 357.858 544.911ZM191.772 259.49C190.542 265.372 195.518 271.647 201.51 272.091C191.711 286.86 174.06 294.147 157.101 299.292C146.516 302.503 134.774 305.139 124.682 300.609C123.43 301.374 124.765 303.259 126.088 303.896C135.908 308.627 147.55 305.991 157.996 302.874C173.314 298.302 189.104 292.394 199.527 280.273C199.954 279.777 200.379 279.267 200.807 278.753V278.752H200.808C203.49 275.527 206.288 272.165 210.321 271.418C223.308 269.017 234.124 260.884 244.811 252.847L244.812 252.846L244.813 252.844C247.236 251.022 249.653 249.204 252.087 247.461C266.885 236.855 283.297 228.506 300.581 222.792C302.108 222.287 303.965 221.351 303.829 219.749C282.398 221.715 263.666 234.495 246.393 247.332L245.817 247.762C234.079 256.488 221.812 265.608 207.367 267.77C212.086 264.049 211.09 255.45 205.766 252.663C200.443 249.875 193.002 253.608 191.772 259.49ZM195.771 263.085C194.808 260.231 196.295 256.837 198.937 255.392C199.687 254.982 200.525 254.708 201.381 254.707C204.202 254.705 206.263 257.723 206.281 260.544C206.3 263.366 204.87 265.968 203.48 268.424C200.228 267.926 196.824 266.201 195.771 263.085ZM516.455 200.214C515.656 199.324 515.901 198.126 516.156 196.885C516.335 196.009 516.519 195.11 516.343 194.285C516.189 193.568 515.772 192.958 515.352 192.346C514.981 191.805 514.609 191.262 514.419 190.642C514.463 189.823 515.557 189.403 516.303 189.744C517.05 190.083 517.467 190.884 517.727 191.661C518.677 194.498 518.189 197.777 516.455 200.214ZM444.209 137.964C446.207 133.231 450.165 129.032 455.212 128.071C456.846 127.76 456.795 125.067 455.364 124.221C453.933 123.373 452.095 123.875 450.593 124.588C443.6 127.918 439.185 135.244 437.455 142.793C435.725 150.343 436.297 158.205 436.879 165.928L439.971 206.98C440.076 208.375 440.204 209.841 440.981 211.006C442.564 213.376 445.959 213.451 448.804 213.27L463.205 212.355C460.005 209.846 455.709 208.791 451.711 209.529C449.375 209.961 447.03 208.42 445.792 206.393C444.555 204.366 444.193 201.941 443.885 199.587C441.879 184.18 441.142 168.608 441.686 153.081C441.867 147.946 442.213 142.698 444.209 137.964ZM480.981 502.349C480.163 502.942 479.343 501.59 479.224 500.586C473.659 453.805 472.82 406.604 471.987 359.499L471.424 327.744C471.409 326.839 471.422 325.848 472.003 325.156C473.003 323.962 475.108 324.509 475.983 325.798C476.857 327.086 476.858 328.756 476.829 330.313C475.972 376.667 476.534 423.11 480.973 469.259C481.027 469.821 481.082 470.382 481.136 470.945C482.154 481.428 483.187 492.069 480.981 502.349ZM434.711 207.46C433.492 206.791 431.988 207.169 430.655 207.564C368.955 225.812 307.395 244.629 246.742 266.106C245.607 266.507 244.309 267.086 244.049 268.263C243.773 269.507 244.945 270.697 246.199 270.928C247.454 271.159 248.722 270.711 249.92 270.27C310.704 247.91 372.401 228.037 434.809 210.718C436.149 210.346 435.93 208.129 434.711 207.46Z" fill="#00160A"/>
</g>
<g filter="url(#filter6_d_11_151)">
<path fill-rule="evenodd" clip-rule="evenodd" d="M654.542 486.606C653.105 487.238 651.549 487.824 650.004 487.558C648.457 487.294 647.01 485.841 647.321 484.303C650.16 470.242 646.596 455.015 637.809 443.676C634.729 439.702 631.062 436.206 628.062 432.172C626.171 429.63 624.489 426.434 625.447 423.415C626.812 419.119 632.308 418.073 636.805 417.767C647.26 417.054 657.716 416.342 668.171 415.629C672.988 415.301 678.537 415.252 681.753 418.854C690.705 428.881 708.152 429.554 717.851 420.247C719.351 418.807 721.24 421.674 721.181 423.753C720.994 430.29 718.299 436.725 713.773 441.446C712.705 442.559 711.339 443.65 709.804 443.49C708.269 443.33 707.138 441.127 708.361 440.187C710.987 438.171 713.66 436.103 715.501 433.352C717.342 430.6 718.234 426.994 716.979 423.93C710.225 432.474 703.407 440.967 696.525 449.408C684.593 464.043 671.831 479.013 654.542 486.606ZM673.4 443.542C671.683 444.017 669.851 443.651 668.136 443.166C655.795 439.68 644.427 430.039 631.804 432.294C646.522 444.149 654.337 464.024 651.634 482.728C661.331 480.652 668.989 473.412 675.859 466.258C686.024 455.669 695.678 444.587 704.772 433.064C698.236 433.01 691.724 431.124 686.169 427.678C679.307 429.375 680.213 441.657 673.4 443.542ZM682.362 424.072C678.274 419.253 670.928 419.402 664.632 419.955C656.421 420.676 648.21 421.397 640 422.119C636.666 422.412 632.838 422.996 631.1 425.856C645.311 428.831 659.166 433.505 672.276 439.744C673.963 434.447 677.342 429.705 681.797 426.382C682.299 426.007 682.872 425.528 682.806 424.906C682.772 424.589 682.569 424.316 682.362 424.072Z" fill="#FFB61D"/>
</g>
<g filter="url(#filter7_d_11_151)">
<path fill-rule="evenodd" clip-rule="evenodd" d="M73.6201 309.151C61.2528 304.204 46.5149 305.672 35.3651 312.958C34.2857 313.663 32.7337 312.877 32.1994 311.704C31.6651 310.53 31.8649 309.165 32.1382 307.905C35.6992 291.487 49.8853 278.926 65.6615 273.152C81.4376 267.38 98.6942 267.363 115.464 268.35C117.128 268.448 118.867 268.578 120.287 269.453C121.706 270.326 122.662 272.194 121.954 273.704C115.357 287.778 110.388 302.613 107.177 317.82C106.656 320.286 104.105 321.923 101.594 322.128C99.0816 322.334 96.6201 321.405 94.3402 320.33C87.2357 316.981 80.9131 312.067 73.6201 309.151ZM75.0337 292.539C73.9316 293.435 72.2088 292.962 71.1717 291.992C70.1346 291.021 69.5437 289.679 68.7285 288.516C64.3557 282.278 54.3212 282.796 48.3731 287.555C42.4251 292.314 39.5469 299.834 36.926 306.987C54.3759 299.407 75.8685 302.127 90.8804 313.815C92.9294 315.411 94.963 317.208 97.4869 317.824C100.011 318.438 103.19 317.333 103.83 314.816C107.246 301.366 111.454 288.117 116.426 275.163C106.884 287.022 86.8471 282.941 75.0337 292.539ZM71.2366 285.372C72.2166 286.603 73.9957 286.93 75.5446 286.652C77.0933 286.374 78.5004 285.602 79.9435 284.975C84.9119 282.816 90.4153 282.334 95.7412 281.347C101.068 280.358 106.563 278.687 110.312 274.777C101.852 274.752 93.3913 274.727 84.9307 274.701C76.4282 274.676 67.2659 274.856 60.4353 279.919C64.5935 280.07 68.6454 282.116 71.2366 285.372Z" fill="#FFB61D"/>
</g>
<g filter="url(#filter8_d_11_151)">
<path fill-rule="evenodd" clip-rule="evenodd" d="M470.949 308.018C470.93 300.576 470.91 293.133 470.889 285.692C470.884 283.555 470.878 281.418 470.873 279.28C470.868 277.807 471.116 275.963 472.517 275.504C473.575 275.158 474.742 275.919 475.236 276.918C475.732 277.916 475.727 279.08 475.709 280.194C475.555 290.58 475.401 300.965 475.246 311.349C475.223 312.843 474.974 314.681 473.575 315.205C471.243 313.884 470.957 310.698 470.949 308.018Z" fill="#00160A"/>
</g>
<g filter="url(#filter9_d_11_151)">
<path fill-rule="evenodd" clip-rule="evenodd" d="M456.092 301.129C455.015 301.602 454.459 299.826 454.625 298.662C455.221 294.495 455.818 290.318 456.832 286.233C457.464 283.689 458.373 281.013 460.473 279.447C462.575 277.879 466.182 278.154 467.21 280.564C467.708 281.732 467.5 283.066 467.273 284.315C465.857 292.046 463.953 299.687 461.572 307.177C461.472 307.495 461.361 307.826 461.12 308.057C460.535 308.619 459.477 308.241 459.071 307.538C458.666 306.836 458.719 305.97 458.784 305.161C459.751 305.09 460.202 303.952 460.434 303.01C461.383 299.164 462.332 295.319 463.28 291.473C464.019 288.481 464.692 285.072 462.974 282.513C461.209 283.6 460.547 285.798 460.021 287.803C458.964 291.836 457.908 295.87 456.852 299.903C456.725 300.385 456.549 300.929 456.092 301.129Z" fill="#00160A"/>
</g>
<defs>
<filter id="filter0_d_11_151" x="0" y="35.1483" width="772" height="487.411" filterUnits="userSpaceOnUse" color-interpolation-filters="sRGB">
<feFlood flood-opacity="0" result="BackgroundImageFix"/>
<feColorMatrix in="SourceAlpha" type="matrix" values="0 0 0 0 0 0 0 0 0 0 0 0 0 0 0 0 0 0 127 0" result="hardAlpha"/>
<feOffset dy="4"/>
<feGaussianBlur stdDeviation="2"/>
<feComposite in2="hardAlpha" operator="out"/>
<feColorMatrix type="matrix" values="0 0 0 0 0 0 0 0 0 0 0 0 0 0 0 0 0 0 0.25 0"/>
<feBlend mode="normal" in2="BackgroundImageFix" result="effect1_dropShadow_11_151"/>
<feBlend mode="normal" in="SourceGraphic" in2="effect1_dropShadow_11_151" result="shape"/>
</filter>
<filter id="filter1_d_11_151" x="585.766" y="194.002" width="122.42" height="99.7911" filterUnits="userSpaceOnUse" color-interpolation-filters="sRGB">
<feFlood flood-opacity="0" result="BackgroundImageFix"/>
<feColorMatrix in="SourceAlpha" type="matrix" values="0 0 0 0 0 0 0 0 0 0 0 0 0 0 0 0 0 0 127 0" result="hardAlpha"/>
<feOffset dy="4"/>
<feGaussianBlur stdDeviation="2"/>
<feComposite in2="hardAlpha" operator="out"/>
<feColorMatrix type="matrix" values="0 0 0 0 0 0 0 0 0 0 0 0 0 0 0 0 0 0 0.25 0"/>
<feBlend mode="normal" in2="BackgroundImageFix" result="effect1_dropShadow_11_151"/>
<feBlend mode="normal" in="SourceGraphic" in2="effect1_dropShadow_11_151" result="shape"/>
</filter>
<filter id="filter2_d_11_151" x="435.706" y="278.468" width="47.5181" height="233.098" filterUnits="userSpaceOnUse" color-interpolation-filters="sRGB">
<feFlood flood-opacity="0" result="BackgroundImageFix"/>
<feColorMatrix in="SourceAlpha" type="matrix" values="0 0 0 0 0 0 0 0 0 0 0 0 0 0 0 0 0 0 127 0" result="hardAlpha"/>
<feOffset dy="4"/>
<feGaussianBlur stdDeviation="2"/>
<feComposite in2="hardAlpha" operator="out"/>
<feColorMatrix type="matrix" values="0 0 0 0 0 0 0 0 0 0 0 0 0 0 0 0 0 0 0.25 0"/>
<feBlend mode="normal" in2="BackgroundImageFix" result="effect1_dropShadow_11_151"/>
<feBlend mode="normal" in="SourceGraphic" in2="effect1_dropShadow_11_151" result="shape"/>
</filter>
<filter id="filter3_d_11_151" x="193.367" y="35.1016" width="359.752" height="501.927" filterUnits="userSpaceOnUse" color-interpolation-filters="sRGB">
<feFlood flood-opacity="0" result="BackgroundImageFix"/>
<feColorMatrix in="SourceAlpha" type="matrix" values="0 0 0 0 0 0 0 0 0 0 0 0 0 0 0 0 0 0 127 0" result="hardAlpha"/>
<feOffset dy="4"/>
<feGaussianBlur stdDeviation="2"/>
<feComposite in2="hardAlpha" operator="out"/>
<feColorMatrix type="matrix" values="0 0 0 0 0 0 0 0 0 0 0 0 0 0 0 0 0 0 0.25 0"/>
<feBlend mode="normal" in2="BackgroundImageFix" result="effect1_dropShadow_11_151"/>
<feBlend mode="normal" in="SourceGraphic" in2="effect1_dropShadow_11_151" result="shape"/>
</filter>
<filter id="filter4_d_11_151" x="25.6746" y="266.766" width="106.506" height="67.1038" filterUnits="userSpaceOnUse" color-interpolation-filters="sRGB">
<feFlood flood-opacity="0" result="BackgroundImageFix"/>
<feColorMatrix in="SourceAlpha" type="matrix" values="0 0 0 0 0 0 0 0 0 0 0 0 0 0 0 0 0 0 127 0" result="hardAlpha"/>
<feOffset dy="4"/>
<feGaussianBlur stdDeviation="2"/>
<feComposite in2="hardAlpha" operator="out"/>
<feColorMatrix type="matrix" values="0 0 0 0 0 0 0 0 0 0 0 0 0 0 0 0 0 0 0.25 0"/>
<feBlend mode="normal" in2="BackgroundImageFix" result="effect1_dropShadow_11_151"/>
<feBlend mode="normal" in="SourceGraphic" in2="effect1_dropShadow_11_151" result="shape"/>
</filter>
<filter id="filter5_d_11_151" x="120.182" y="0" width="581.977" height="564.427" filterUnits="userSpaceOnUse" color-interpolation-filters="sRGB">
<feFlood flood-opacity="0" result="BackgroundImageFix"/>
<feColorMatrix in="SourceAlpha" type="matrix" values="0 0 0 0 0 0 0 0 0 0 0 0 0 0 0 0 0 0 127 0" result="hardAlpha"/>
<feOffset dy="4"/>
<feGaussianBlur stdDeviation="2"/>
<feComposite in2="hardAlpha" operator="out"/>
<feColorMatrix type="matrix" values="0 0 0 0 0 0 0 0 0 0 0 0 0 0 0 0 0 0 0.25 0"/>
<feBlend mode="normal" in2="BackgroundImageFix" result="effect1_dropShadow_11_151"/>
<feBlend mode="normal" in="SourceGraphic" in2="effect1_dropShadow_11_151" result="shape"/>
</filter>
<filter id="filter6_d_11_151" x="621.17" y="415.488" width="104.013" height="80.1364" filterUnits="userSpaceOnUse" color-interpolation-filters="sRGB">
<feFlood flood-opacity="0" result="BackgroundImageFix"/>
<feColorMatrix in="SourceAlpha" type="matrix" values="0 0 0 0 0 0 0 0 0 0 0 0 0 0 0 0 0 0 127 0" result="hardAlpha"/>
<feOffset dy="4"/>
<feGaussianBlur stdDeviation="2"/>
<feComposite in2="hardAlpha" operator="out"/>
<feColorMatrix type="matrix" values="0 0 0 0 0 0 0 0 0 0 0 0 0 0 0 0 0 0 0.25 0"/>
<feBlend mode="normal" in2="BackgroundImageFix" result="effect1_dropShadow_11_151"/>
<feBlend mode="normal" in="SourceGraphic" in2="effect1_dropShadow_11_151" result="shape"/>
</filter>
<filter id="filter7_d_11_151" x="27.8638" y="267.861" width="98.3291" height="62.2964" filterUnits="userSpaceOnUse" color-interpolation-filters="sRGB">
<feFlood flood-opacity="0" result="BackgroundImageFix"/>
<feColorMatrix in="SourceAlpha" type="matrix" values="0 0 0 0 0 0 0 0 0 0 0 0 0 0 0 0 0 0 127 0" result="hardAlpha"/>
<feOffset dy="4"/>
<feGaussianBlur stdDeviation="2"/>
<feComposite in2="hardAlpha" operator="out"/>
<feColorMatrix type="matrix" values="0 0 0 0 0 0 0 0 0 0 0 0 0 0 0 0 0 0 0.25 0"/>
<feBlend mode="normal" in2="BackgroundImageFix" result="effect1_dropShadow_11_151"/>
<feBlend mode="normal" in="SourceGraphic" in2="effect1_dropShadow_11_151" result="shape"/>
</filter>
<filter id="filter8_d_11_151" x="466.873" y="275.419" width="12.8423" height="47.786" filterUnits="userSpaceOnUse" color-interpolation-filters="sRGB">
<feFlood flood-opacity="0" result="BackgroundImageFix"/>
<feColorMatrix in="SourceAlpha" type="matrix" values="0 0 0 0 0 0 0 0 0 0 0 0 0 0 0 0 0 0 127 0" result="hardAlpha"/>
<feOffset dy="4"/>
<feGaussianBlur stdDeviation="2"/>
<feComposite in2="hardAlpha" operator="out"/>
<feColorMatrix type="matrix" values="0 0 0 0 0 0 0 0 0 0 0 0 0 0 0 0 0 0 0.25 0"/>
<feBlend mode="normal" in2="BackgroundImageFix" result="effect1_dropShadow_11_151"/>
<feBlend mode="normal" in="SourceGraphic" in2="effect1_dropShadow_11_151" result="shape"/>
</filter>
<filter id="filter9_d_11_151" x="450.596" y="278.468" width="20.9197" height="37.8605" filterUnits="userSpaceOnUse" color-interpolation-filters="sRGB">
<feFlood flood-opacity="0" result="BackgroundImageFix"/>
<feColorMatrix in="SourceAlpha" type="matrix" values="0 0 0 0 0 0 0 0 0 0 0 0 0 0 0 0 0 0 127 0" result="hardAlpha"/>
<feOffset dy="4"/>
<feGaussianBlur stdDeviation="2"/>
<feComposite in2="hardAlpha" operator="out"/>
<feColorMatrix type="matrix" values="0 0 0 0 0 0 0 0 0 0 0 0 0 0 0 0 0 0 0.25 0"/>
<feBlend mode="normal" in2="BackgroundImageFix" result="effect1_dropShadow_11_151"/>
<feBlend mode="normal" in="SourceGraphic" in2="effect1_dropShadow_11_151" result="shape"/>
</filter>
</defs>
</svg>
