<svg width="52" height="52" viewBox="0 0 52 52" fill="none" xmlns="http://www.w3.org/2000/svg">
<mask id="path-1-inside-1_136_477" fill="white">
<path d="M26 21.8947C23.8348 21.8947 21.7183 21.2527 19.918 20.0498C18.1177 18.8469 16.7145 17.1371 15.886 15.1368C15.0574 13.1364 14.8406 10.9352 15.263 8.81165C15.6854 6.68807 16.728 4.73743 18.259 3.20641C19.7901 1.6754 21.7407 0.632762 23.8643 0.210356C25.9879 -0.212051 28.189 0.00474329 30.1894 0.833324C32.1897 1.6619 33.8995 3.06506 35.1024 4.86534C36.3053 6.66563 36.9474 8.78219 36.9474 10.9474C36.9474 13.8508 35.794 16.6353 33.741 18.6883C31.6879 20.7414 28.9034 21.8947 26 21.8947ZM26 2.73685C24.3761 2.73685 22.7887 3.21839 21.4385 4.12057C20.0883 5.02275 19.0359 6.30506 18.4145 7.80534C17.793 9.30562 17.6304 10.9565 17.9472 12.5492C18.264 14.1419 19.046 15.6048 20.1943 16.7531C21.3425 17.9014 22.8055 18.6833 24.3982 19.0001C25.9909 19.3169 27.6418 19.1543 29.142 18.5329C30.6423 17.9115 31.9246 16.8591 32.8268 15.5089C33.729 14.1587 34.2105 12.5713 34.2105 10.9474C34.2105 8.76981 33.3455 6.68143 31.8057 5.14165C30.2659 3.60188 28.1776 2.73685 26 2.73685ZM52 52H49.2632V50.6316C49.2632 44.4618 46.8122 38.5447 42.4495 34.182C38.0868 29.8194 32.1698 27.3684 26 27.3684C19.8302 27.3684 13.9132 29.8194 9.55046 34.182C5.18778 38.5447 2.73684 44.4618 2.73684 50.6316V52H0V50.6316C0 43.736 2.73928 37.1228 7.61522 32.2468C12.4912 27.3709 19.1044 24.6316 26 24.6316C32.8956 24.6316 39.5088 27.3709 44.3848 32.2468C49.2607 37.1228 52 43.736 52 50.6316V52Z"/>
</mask>
<path d="M26 21.8947C23.8348 21.8947 21.7183 21.2527 19.918 20.0498C18.1177 18.8469 16.7145 17.1371 15.886 15.1368C15.0574 13.1364 14.8406 10.9352 15.263 8.81165C15.6854 6.68807 16.728 4.73743 18.259 3.20641C19.7901 1.6754 21.7407 0.632762 23.8643 0.210356C25.9879 -0.212051 28.189 0.00474329 30.1894 0.833324C32.1897 1.6619 33.8995 3.06506 35.1024 4.86534C36.3053 6.66563 36.9474 8.78219 36.9474 10.9474C36.9474 13.8508 35.794 16.6353 33.741 18.6883C31.6879 20.7414 28.9034 21.8947 26 21.8947ZM26 2.73685C24.3761 2.73685 22.7887 3.21839 21.4385 4.12057C20.0883 5.02275 19.0359 6.30506 18.4145 7.80534C17.793 9.30562 17.6304 10.9565 17.9472 12.5492C18.264 14.1419 19.046 15.6048 20.1943 16.7531C21.3425 17.9014 22.8055 18.6833 24.3982 19.0001C25.9909 19.3169 27.6418 19.1543 29.142 18.5329C30.6423 17.9115 31.9246 16.8591 32.8268 15.5089C33.729 14.1587 34.2105 12.5713 34.2105 10.9474C34.2105 8.76981 33.3455 6.68143 31.8057 5.14165C30.2659 3.60188 28.1776 2.73685 26 2.73685ZM52 52H49.2632V50.6316C49.2632 44.4618 46.8122 38.5447 42.4495 34.182C38.0868 29.8194 32.1698 27.3684 26 27.3684C19.8302 27.3684 13.9132 29.8194 9.55046 34.182C5.18778 38.5447 2.73684 44.4618 2.73684 50.6316V52H0V50.6316C0 43.736 2.73928 37.1228 7.61522 32.2468C12.4912 27.3709 19.1044 24.6316 26 24.6316C32.8956 24.6316 39.5088 27.3709 44.3848 32.2468C49.2607 37.1228 52 43.736 52 50.6316V52Z" fill="#F93059"/>
<path d="M26 21.8947V25.8947V21.8947ZM26 2.73685V6.73685V2.73685ZM34.2105 10.9474H38.2105H34.2105ZM52 52V56H56V52H52ZM49.2632 52H45.2632V56H49.2632V52ZM2.73684 50.6316H-1.26316H2.73684ZM2.73684 52V56H6.73684V52H2.73684ZM0 52H-4V56H0V52ZM0 50.6316H-4H0ZM26 17.8947C24.6259 17.8947 23.2827 17.4873 22.1403 16.7239L17.6957 23.3757C20.1538 25.0181 23.0437 25.8947 26 25.8947V17.8947ZM22.1403 16.7239C20.9978 15.9605 20.1073 14.8755 19.5815 13.606L12.1904 16.6675C13.3218 19.3988 15.2376 21.7332 17.6957 23.3757L22.1403 16.7239ZM19.5815 13.606C19.0556 12.3366 18.9181 10.9397 19.1861 9.59201L11.3398 8.03129C10.7631 10.9308 11.0591 13.9362 12.1904 16.6675L19.5815 13.606ZM19.1861 9.59201C19.4542 8.24435 20.1159 7.00645 21.0875 6.03484L15.4306 0.377987C13.3402 2.46841 11.9166 5.13178 11.3398 8.03129L19.1861 9.59201ZM21.0875 6.03484C22.0591 5.06324 23.297 4.40156 24.6446 4.1335L23.0839 -3.71279C20.1844 -3.13604 17.521 -1.71244 15.4306 0.377987L21.0875 6.03484ZM24.6446 4.1335C25.9923 3.86543 27.3892 4.00301 28.6586 4.52884L31.7201 -2.86219C28.9888 -3.99353 25.9834 -4.28953 23.0839 -3.71279L24.6446 4.1335ZM28.6586 4.52884C29.9281 5.05467 31.0131 5.94513 31.7765 7.08762L38.4283 2.64306C36.7858 0.184978 34.4514 -1.73086 31.7201 -2.86219L28.6586 4.52884ZM31.7765 7.08762C32.5399 8.23011 32.9474 9.57331 32.9474 10.9474H40.9474C40.9474 7.99106 40.0707 5.10114 38.4283 2.64306L31.7765 7.08762ZM32.9474 10.9474C32.9474 12.7899 32.2154 14.557 30.9125 15.8599L36.5694 21.5168C39.3726 18.7136 40.9474 14.9117 40.9474 10.9474H32.9474ZM30.9125 15.8599C29.6096 17.1628 27.8426 17.8947 26 17.8947V25.8947C29.9643 25.8947 33.7662 24.3199 36.5694 21.5168L30.9125 15.8599ZM26 -1.26315C23.585 -1.26315 21.2242 -0.547018 19.2162 0.794692L23.6608 7.44645C24.3532 6.98379 25.1672 6.73685 26 6.73685V-1.26315ZM19.2162 0.794692C17.2082 2.1364 15.6431 4.04342 14.7189 6.27461L22.11 9.33607C22.4287 8.5667 22.9683 7.90911 23.6608 7.44645L19.2162 0.794692ZM14.7189 6.27461C13.7948 8.50579 13.5529 10.9609 14.0241 13.3295L21.8704 11.7688C21.7079 10.952 21.7913 10.1054 22.11 9.33607L14.7189 6.27461ZM14.0241 13.3295C14.4952 15.6981 15.6582 17.8738 17.3659 19.5815L23.0227 13.9247C22.4339 13.3358 22.0328 12.5856 21.8704 11.7688L14.0241 13.3295ZM17.3659 19.5815C19.0735 21.2892 21.2492 22.4521 23.6178 22.9233L25.1786 15.077C24.3618 14.9145 23.6116 14.5135 23.0227 13.9247L17.3659 19.5815ZM23.6178 22.9233C25.9865 23.3944 28.4416 23.1526 30.6728 22.2284L27.6113 14.8374C26.8419 15.1561 25.9953 15.2395 25.1786 15.077L23.6178 22.9233ZM30.6728 22.2284C32.9039 21.3042 34.811 19.7392 36.1527 17.7312L29.5009 13.2866C29.0383 13.979 28.3807 14.5187 27.6113 14.8374L30.6728 22.2284ZM36.1527 17.7312C37.4944 15.7232 38.2105 13.3624 38.2105 10.9474H30.2105C30.2105 11.7801 29.9636 12.5942 29.5009 13.2866L36.1527 17.7312ZM38.2105 10.9474C38.2105 7.70894 36.9241 4.60315 34.6341 2.31323L28.9773 7.97008C29.7669 8.75971 30.2105 9.83067 30.2105 10.9474H38.2105ZM34.6341 2.31323C32.3442 0.0233089 29.2384 -1.26315 26 -1.26315V6.73685C27.1167 6.73685 28.1877 7.18045 28.9773 7.97008L34.6341 2.31323ZM52 48H49.2632V56H52V48ZM53.2632 52V50.6316H45.2632V52H53.2632ZM53.2632 50.6316C53.2632 43.4009 50.3908 36.4665 45.278 31.3536L39.6211 37.0105C43.2337 40.623 45.2632 45.5227 45.2632 50.6316H53.2632ZM45.278 31.3536C40.1651 26.2408 33.2306 23.3684 26 23.3684V31.3684C31.1089 31.3684 36.0086 33.3979 39.6211 37.0105L45.278 31.3536ZM26 23.3684C18.7694 23.3684 11.8349 26.2408 6.72204 31.3536L12.3789 37.0105C15.9914 33.3979 20.8911 31.3684 26 31.3684V23.3684ZM6.72204 31.3536C1.6092 36.4665 -1.26316 43.4009 -1.26316 50.6316H6.73684C6.73684 45.5227 8.76635 40.623 12.3789 37.0105L6.72204 31.3536ZM-1.26316 50.6316V52H6.73684V50.6316H-1.26316ZM2.73684 48H0V56H2.73684V48ZM4 52V50.6316H-4V52H4ZM4 50.6316C4 44.7968 6.31785 39.201 10.4437 35.0752L4.7868 29.4184C-0.839295 35.0445 -4 42.6751 -4 50.6316H4ZM10.4437 35.0752C14.5695 30.9494 20.1652 28.6316 26 28.6316V20.6316C18.0435 20.6316 10.4129 23.7923 4.7868 29.4184L10.4437 35.0752ZM26 28.6316C31.8348 28.6316 37.4305 30.9494 41.5564 35.0752L47.2132 29.4184C41.5871 23.7923 33.9565 20.6316 26 20.6316V28.6316ZM41.5564 35.0752C45.6821 39.201 48 44.7968 48 50.6316H56C56 42.6751 52.8393 35.0445 47.2132 29.4184L41.5564 35.0752ZM48 50.6316V52H56V50.6316H48Z" fill="#F93059" mask="url(#path-1-inside-1_136_477)"/>
</svg>
