<svg viewBox="0 0 42 41" fill="none" xmlns="http://www.w3.org/2000/svg">
<g filter="url(#filter0_d_3_411)">
<path d="M19.125 11.25V25C19.1228 26.9884 18.3319 28.8948 16.9258 30.3008C15.5198 31.7069 13.6134 32.4978 11.625 32.5C11.2935 32.5 10.9755 32.3683 10.7411 32.1339C10.5067 31.8995 10.375 31.5815 10.375 31.25C10.375 30.9185 10.5067 30.6005 10.7411 30.3661C10.9755 30.1317 11.2935 30 11.625 30C12.9506 29.9985 14.2215 29.4712 15.1589 28.5339C16.0962 27.5965 16.6235 26.3256 16.625 25V23.75H7.25C6.58719 23.7492 5.95175 23.4856 5.48307 23.0169C5.01439 22.5483 4.75076 21.9128 4.75 21.25V11.25C4.75076 10.5872 5.01439 9.95175 5.48307 9.48307C5.95175 9.01439 6.58719 8.75076 7.25 8.75H16.625C17.2878 8.75076 17.9233 9.01439 18.3919 9.48307C18.8606 9.95175 19.1242 10.5872 19.125 11.25ZM34.75 8.75H25.375C24.7122 8.75076 24.0767 9.01439 23.6081 9.48307C23.1394 9.95175 22.8758 10.5872 22.875 11.25V21.25C22.8758 21.9128 23.1394 22.5483 23.6081 23.0169C24.0767 23.4856 24.7122 23.7492 25.375 23.75H34.75V25C34.7485 26.3256 34.2212 27.5965 33.2839 28.5339C32.3465 29.4712 31.0756 29.9985 29.75 30C29.4185 30 29.1005 30.1317 28.8661 30.3661C28.6317 30.6005 28.5 30.9185 28.5 31.25C28.5 31.5815 28.6317 31.8995 28.8661 32.1339C29.1005 32.3683 29.4185 32.5 29.75 32.5C31.7384 32.4978 33.6448 31.7069 35.0508 30.3008C36.4569 28.8948 37.2478 26.9884 37.25 25V11.25C37.2492 10.5872 36.9856 9.95175 36.5169 9.48307C36.0483 9.01439 35.4128 8.75076 34.75 8.75Z" fill="#F93059"/>
</g>
<defs>
<filter id="filter0_d_3_411" x="0.75" y="8.75" width="40.5" height="31.75" filterUnits="userSpaceOnUse" color-interpolation-filters="sRGB">
<feFlood flood-opacity="0" result="BackgroundImageFix"/>
<feColorMatrix in="SourceAlpha" type="matrix" values="0 0 0 0 0 0 0 0 0 0 0 0 0 0 0 0 0 0 127 0" result="hardAlpha"/>
<feOffset dy="4"/>
<feGaussianBlur stdDeviation="2"/>
<feComposite in2="hardAlpha" operator="out"/>
<feColorMatrix type="matrix" values="0 0 0 0 0 0 0 0 0 0 0 0 0 0 0 0 0 0 0.25 0"/>
<feBlend mode="normal" in2="BackgroundImageFix" result="effect1_dropShadow_3_411"/>
<feBlend mode="normal" in="SourceGraphic" in2="effect1_dropShadow_3_411" result="shape"/>
</filter>
</defs>
</svg>
