<svg width="60" height="60" viewBox="0 0 60 60" fill="none" xmlns="http://www.w3.org/2000/svg">
<path d="M54.096 10.0381H28.62C27.531 10.0381 26.4866 10.4703 25.716 11.2398C24.9454 12.0092 24.5116 13.0531 24.51 14.1421V22.1401H5.91005C4.82105 22.1401 3.77656 22.5723 3.00596 23.3418C2.23536 24.1112 1.80164 25.1551 1.80005 26.2441V40.1101C1.80164 41.198 2.23453 42.241 3.00384 43.0103C3.77314 43.7796 4.81609 44.2125 5.90405 44.2141H13.62L17.976 49.6141C18.0591 49.7152 18.1636 49.7966 18.2818 49.8526C18.4 49.9086 18.5292 49.9378 18.66 49.9381C18.7907 49.9384 18.9197 49.9088 19.0372 49.8516C19.1547 49.7944 19.2576 49.7111 19.338 49.6081L23.664 44.2081H31.38C32.469 44.2081 33.5135 43.7759 34.2841 43.0064C35.0547 42.2369 35.4885 41.1931 35.49 40.1041V32.1181H36.33L40.692 37.5181C40.7749 37.6267 40.8822 37.7142 41.0052 37.7736C41.1282 37.833 41.2635 37.8627 41.4 37.8601C41.5315 37.8599 41.6613 37.8302 41.7797 37.7731C41.8981 37.7159 42.0021 37.6329 42.084 37.5301L46.41 32.1301H54.096C54.6363 32.1293 55.1711 32.022 55.6698 31.8144C56.1685 31.6067 56.6215 31.3028 57.0026 30.9199C57.3838 30.5371 57.6857 30.0829 57.8912 29.5832C58.0967 29.0836 58.2016 28.5483 58.2 28.0081V14.1421C58.1985 13.0541 57.7656 12.0112 56.9963 11.2419C56.227 10.4726 55.184 10.0397 54.096 10.0381ZM33.744 40.1101C33.7348 40.7342 33.4827 41.3301 33.0414 41.7714C32.6 42.2127 32.0041 42.4648 31.38 42.4741H23.244C23.114 42.474 22.9856 42.503 22.8683 42.5591C22.7509 42.6152 22.6477 42.6968 22.566 42.7981L18.654 47.6941L14.718 42.7981C14.6349 42.697 14.5305 42.6156 14.4123 42.5596C14.294 42.5036 14.1649 42.4744 14.034 42.4741H5.90405C5.27812 42.4725 4.67836 42.2227 4.23633 41.7796C3.79429 41.3364 3.54605 40.736 3.54605 40.1101V26.2441C3.54605 25.6187 3.79448 25.0189 4.23669 24.5767C4.6789 24.1345 5.27867 23.8861 5.90405 23.8861H31.38C32.006 23.8861 32.6064 24.1343 33.0495 24.5764C33.4927 25.0184 33.7425 25.6182 33.744 26.2441V40.1101ZM56.454 28.0081C56.454 28.634 56.2058 29.2344 55.7638 29.6776C55.3217 30.1207 54.722 30.3705 54.096 30.3721H45.96C45.8286 30.3722 45.6988 30.402 45.5804 30.4591C45.462 30.5162 45.358 30.5993 45.276 30.7021L41.4 35.5921L37.458 30.6961C37.3761 30.5952 37.2728 30.5137 37.1556 30.4577C37.0383 30.4017 36.91 30.3724 36.78 30.3721H35.52V26.2441C35.5193 25.7023 35.4114 25.1661 35.2026 24.6661C34.9938 24.1662 34.6883 23.7125 34.3035 23.3311C33.9188 22.9497 33.4624 22.6481 32.9607 22.4437C32.459 22.2393 31.9218 22.1361 31.38 22.1401H26.256V14.1421C26.2576 13.5162 26.5074 12.9164 26.9506 12.4744C27.3937 12.0323 27.9941 11.7841 28.62 11.7841H54.096C54.7214 11.7841 55.3212 12.0325 55.7634 12.4747C56.2056 12.9169 56.454 13.5167 56.454 14.1421V28.0081Z" fill="black"/>
<path d="M26.022 30.996L21.45 30.396L19.368 26.28C19.2915 26.1412 19.1808 26.0242 19.0464 25.9402C18.912 25.8562 18.7584 25.8079 18.6 25.8C18.4375 25.803 18.2791 25.8512 18.1424 25.9392C18.0057 26.0271 17.8962 26.1514 17.826 26.298L15.828 30.456L11.274 31.164C11.1157 31.1909 10.9678 31.2607 10.8465 31.366C10.7252 31.4712 10.6351 31.6078 10.5862 31.7608C10.5373 31.9138 10.5313 32.0773 10.5691 32.2334C10.6068 32.3895 10.6867 32.5322 10.8 32.646L14.136 35.826L13.386 40.38C13.359 40.5413 13.3779 40.7069 13.4406 40.858C13.5034 41.009 13.6075 41.1393 13.7409 41.2339C13.8743 41.3284 14.0317 41.3835 14.195 41.3927C14.3582 41.4019 14.5208 41.365 14.664 41.286L18.72 39.096L22.8 41.202C22.945 41.2769 23.1082 41.3096 23.2708 41.2962C23.4335 41.2828 23.5891 41.2239 23.7199 41.1263C23.8507 41.0287 23.9513 40.8962 24.0104 40.7441C24.0695 40.592 24.0846 40.4263 24.054 40.266L23.226 35.73L26.496 32.478C26.6098 32.3626 26.6893 32.218 26.7258 32.0602C26.7623 31.9023 26.7543 31.7375 26.7027 31.5839C26.6511 31.4303 26.5579 31.2941 26.4335 31.1903C26.3091 31.0865 26.1584 31.0193 25.998 30.996H26.022ZM21.696 34.8C21.596 34.8999 21.5215 35.0223 21.4787 35.157C21.4358 35.2917 21.426 35.4347 21.45 35.574L22.05 38.826L19.11 37.32C18.985 37.2548 18.8461 37.2208 18.705 37.2208C18.564 37.2208 18.4251 37.2548 18.3 37.32L15.396 38.886L15.918 35.628C15.9401 35.4887 15.9281 35.3461 15.8832 35.2124C15.8382 35.0787 15.7617 34.9578 15.66 34.86L13.26 32.58L16.518 32.07C16.6584 32.0485 16.7915 31.993 16.9055 31.9083C17.0195 31.8236 17.111 31.7122 17.172 31.584L18.6 28.584L20.094 31.53C20.1584 31.6558 20.2519 31.7645 20.3666 31.8469C20.4814 31.9294 20.6143 31.9832 20.754 32.004L24.03 32.442L21.696 34.8ZM50.07 18H32.67C32.4393 18 32.218 18.0917 32.0549 18.2548C31.8917 18.418 31.8 18.6393 31.8 18.87C31.8 19.1007 31.8917 19.322 32.0549 19.4852C32.218 19.6483 32.4393 19.74 32.67 19.74H50.07C50.3008 19.74 50.5221 19.6483 50.6852 19.4852C50.8484 19.322 50.94 19.1007 50.94 18.87C50.94 18.6393 50.8484 18.418 50.6852 18.2548C50.5221 18.0917 50.3008 18 50.07 18ZM50.07 22.8H37.02C36.801 22.8182 36.5968 22.918 36.448 23.0797C36.2991 23.2415 36.2165 23.4532 36.2165 23.673C36.2165 23.8928 36.2991 24.1045 36.448 24.2663C36.5968 24.428 36.801 24.5278 37.02 24.546H50.07C50.2891 24.5278 50.4933 24.428 50.6421 24.2663C50.791 24.1045 50.8736 23.8928 50.8736 23.673C50.8736 23.4532 50.791 23.2415 50.6421 23.0797C50.4933 22.918 50.2891 22.8182 50.07 22.8Z" fill="black"/>
</svg>
