<svg viewBox="0 0 1038 579" fill="none" xmlns="http://www.w3.org/2000/svg">
<g filter="url(#filter0_d_3_191)">
<path fill-rule="evenodd" clip-rule="evenodd" d="M962.069 394.603C962.069 176.727 785.446 0.10376 567.57 0.10376C349.694 0.10376 156.383 177.098 173.071 394.603C192.962 653.842 962.069 604.465 962.069 394.603Z" fill="#64FCD9"/>
</g>
<g filter="url(#filter1_d_3_191)">
<path d="M256.145 389.612C257.434 389.496 259.118 389.63 259.485 390.873C259.496 392.371 257.597 392.995 256.108 393.179C248.091 394.177 240.071 395.173 232.054 396.171C235.782 399.333 236.151 405.61 232.998 409.346C229.844 413.083 223.817 413.848 219.692 411.228C218.316 410.353 217.142 409.168 215.695 408.415C214.248 407.662 212.337 407.439 211.084 408.483C208.253 410.842 203.981 410.205 200.592 408.756C197.233 407.321 193.918 404.871 193.136 401.302C192.362 397.767 194.293 394.203 196.577 391.393C198.859 388.586 201.619 386.041 202.99 382.691C205.004 377.778 210.946 375.332 216.211 376.026C221.475 376.721 226.085 379.925 229.92 383.6C232.389 385.965 236.393 385.037 239.657 384.017C242.921 382.996 247.02 382.242 249.306 384.786" fill="white"/>
</g>
<g filter="url(#filter2_d_3_191)">
<path fill-rule="evenodd" clip-rule="evenodd" d="M719.079 375.815C719.079 339.022 746.275 330.544 763.532 330.978C780.787 331.411 797.246 342.521 803.651 358.016C810.056 373.511 806.065 392.502 793.944 404.381C781.823 416.261 756.233 416.407 748.856 414.168C741.478 411.927 719.079 396.35 719.079 375.815Z" fill="white"/>
</g>
<g filter="url(#filter3_d_3_191)">
<path fill-rule="evenodd" clip-rule="evenodd" d="M761.385 350.376C767.578 349.88 773.941 352.139 778.433 356.429C785.395 363.077 787.193 374.511 782.607 382.975C778.02 391.438 767.46 396.176 758.09 393.973C749.164 391.876 742.016 383.701 741.128 374.576C740.24 365.453 745.678 356.053 754.03 352.273C756.348 351.224 758.849 350.579 761.385 350.376ZM772.133 354.654C769.941 353.043 767.531 351.695 764.926 351.174C761.962 350.583 758.857 351.102 756.076 352.361C749.01 355.56 744.193 363.848 744.652 372.114C745.113 380.379 750.855 388.007 758.264 390.115C765.673 392.224 774.178 388.607 778.222 381.574C782.265 374.541 781.478 364.654 776.338 358.512C775.101 357.036 773.656 355.774 772.133 354.654Z" fill="#00160A"/>
</g>
<g filter="url(#filter4_d_3_191)">
<path fill-rule="evenodd" clip-rule="evenodd" d="M347.004 378.445C346.85 376.048 346.869 373.626 347.292 371.261C347.614 369.469 348.164 367.725 348.714 365.988C349.898 362.244 351.086 358.489 352.709 354.912C360.665 337.379 379.684 325.504 398.932 326.005C418.178 326.503 436.535 339.323 443.679 357.201C450.823 375.08 446.373 396.993 432.852 410.701C419.333 424.409 397.518 429.168 379.5 422.382C361.482 415.594 348.237 397.659 347.004 378.445Z" fill="white"/>
</g>
<g filter="url(#filter5_d_3_191)">
<path fill-rule="evenodd" clip-rule="evenodd" d="M398.633 161.83C398.733 169.441 396.787 177.58 400.308 184.328C406.832 196.829 425.148 194.505 438.622 190.35C427.548 177.746 416.474 165.143 405.401 152.539C428.34 129.116 451.281 105.693 474.221 82.2703C476.134 80.3177 478.342 78.2308 481.075 78.1778C484.228 78.1165 486.693 80.752 488.71 83.1737C496.225 92.1875 503.739 101.2 511.253 110.213C517.444 117.639 523.34 129.666 515.761 135.67C544.19 133.742 572.621 131.813 601.049 129.884C595.725 99.4774 605.508 62.0497 615.165 32.7309C616.128 29.8086 617.292 26.6294 619.962 25.1011C621.832 24.0303 624.096 23.9872 626.253 23.9723C678.158 23.6143 730.062 23.2562 781.967 22.8982C785.11 22.8767 788.427 22.8982 791.143 24.4812C793.474 25.8387 795.045 28.1676 796.517 30.4302C840.429 97.9376 867.843 182.723 875.727 262.87C876.715 272.923 889.599 344.915 875.727 347.05C809.665 357.219 822.612 297.347 752.84 306.105C695.515 313.301 706.346 347.05 673.213 353.626C643.45 359.533 541.931 361.002 509.022 362.65C463.878 364.911 460.687 296.664 391.937 299.435C323.188 302.208 324.763 380.271 287.724 371.334C286.181 370.962 269.412 361.209 269.034 360.041C263.575 343.173 259.483 281.436 259.483 281.436L246.556 278.563C246.556 278.563 245.606 246.693 246.556 245.676C248.228 243.881 277.535 247.1 290.219 245.676C286.473 219.654 282.725 193.633 278.978 167.611C278.654 165.364 278.374 162.896 279.596 160.981C280.953 158.854 283.68 158.15 286.151 157.633C319.203 150.727 352.838 146.608 386.58 145.332C394.186 145.044 398.536 154.218 398.633 161.83Z" fill="white"/>
</g>
<g filter="url(#filter6_d_3_191)">
<path fill-rule="evenodd" clip-rule="evenodd" d="M331.937 232.822L317.058 233.883L308.694 153.388L321.723 151.247L331.937 232.822Z" fill="#FFB61D"/>
</g>
<g filter="url(#filter7_d_3_191)">
<path fill-rule="evenodd" clip-rule="evenodd" d="M683.322 79.5124C687.352 78.7384 764.649 132.38 763.848 133.25C763.048 134.121 681.728 79.8191 683.322 79.5124Z" fill="#E7EAEE"/>
</g>
<g filter="url(#filter8_d_3_191)">
<path fill-rule="evenodd" clip-rule="evenodd" d="M716.473 79.5073C719.599 78.9504 759.217 105.735 758.114 107.296C757.014 108.856 714.476 79.8621 716.473 79.5073Z" fill="#E7EAEE"/>
</g>
<g filter="url(#filter9_d_3_191)">
<path fill-rule="evenodd" clip-rule="evenodd" d="M675.035 96.0883C673.531 93.4328 717.869 124.111 716.676 123.877C705.253 121.644 675.475 96.8673 675.035 96.0883Z" fill="#E7EAEE"/>
</g>
<g filter="url(#filter10_d_3_191)">
<path fill-rule="evenodd" clip-rule="evenodd" d="M669.795 182.632C670.768 183.4 670.37 185.145 669.271 185.72C668.174 186.296 666.777 185.911 665.805 185.142C662.881 182.823 663.488 177.908 666.047 175.193C668.608 172.478 672.409 171.396 676.013 170.428C677.508 170.027 679.003 169.624 680.498 169.223C683.549 168.404 686.793 167.583 689.82 168.49C692.845 169.397 695.366 172.752 694.193 175.686C693.453 177.53 691.499 178.648 689.543 179.001C687.587 179.354 685.58 179.085 683.598 178.949C679.702 178.684 675.772 178.939 671.943 179.707C671.192 179.858 670.4 180.051 669.863 180.597C669.324 181.142 669.195 182.157 669.795 182.632Z" fill="#00160A"/>
</g>
<g filter="url(#filter11_d_3_191)">
<path fill-rule="evenodd" clip-rule="evenodd" d="M689.409 349.82C688.396 354.007 687.384 358.196 686.371 362.383C686.062 363.663 685.721 365.004 684.823 365.967C683.488 367.399 681.327 367.604 679.373 367.715C617.837 371.241 556.256 373.938 494.648 375.804C490.482 375.93 486.557 373.555 483.824 370.411C481.09 367.264 479.352 363.399 477.651 359.595C480.345 358.945 482.895 361.087 484.535 363.32C486.176 365.554 487.62 368.189 490.169 369.275C491.845 369.991 493.741 369.905 495.561 369.807C555.387 366.595 615.215 363.382 675.041 360.17C677.196 360.054 679.537 359.865 681.138 358.418C682.787 356.93 683.182 354.541 684.146 352.54C685.113 350.54 687.483 348.713 689.409 349.82Z" fill="#00160A"/>
</g>
<g filter="url(#filter12_d_3_191)">
<path fill-rule="evenodd" clip-rule="evenodd" d="M229.093 385.595C226.184 382.487 222.508 380.105 218.482 378.72C215.75 377.78 212.619 377.329 210.053 378.658C207.487 379.988 206.057 383.658 207.86 385.915C208.81 387.104 206.666 388.229 205.181 388.554C200.742 389.527 197.392 394.448 198.651 398.816C199.909 403.182 206.017 405.459 209.541 402.588C210.815 401.549 211.671 400.033 213.053 399.141C214.435 398.247 216.764 398.436 217.19 400.026C218.085 403.377 221.142 406.04 224.585 406.47C226.832 406.751 229.493 405.832 230.189 403.678C231.424 399.858 225.791 395.902 227.709 392.376C228.676 390.598 231.016 390.215 233.032 390.034C240.736 389.34 248.44 388.647 256.145 387.954C257.434 387.838 259.118 387.972 259.483 389.215C259.496 390.714 257.597 391.337 256.108 391.521C248.091 392.519 240.071 393.515 232.054 394.513C235.782 397.676 236.151 403.953 232.998 407.689C229.844 411.425 223.817 412.191 219.692 409.57C218.316 408.695 217.142 407.51 215.695 406.757C214.248 406.005 212.337 405.781 211.084 406.825C208.253 409.184 203.981 408.547 200.592 407.099C197.233 405.663 193.918 403.213 193.136 399.645C192.362 396.109 194.293 392.545 196.577 389.736C198.859 386.928 201.619 384.384 202.99 381.034C205.004 376.121 210.946 373.674 216.211 374.369C221.475 375.063 226.085 378.267 229.92 381.942C232.389 384.307 236.393 383.379 239.657 382.36C242.921 381.339 247.02 380.584 249.306 383.129C244.6 384.196 239.894 385.265 235.186 386.334C233.093 386.81 230.562 387.163 229.093 385.595Z" fill="#E7EAEE"/>
</g>
<g filter="url(#filter13_d_3_191)">
<path fill-rule="evenodd" clip-rule="evenodd" d="M323.319 381.036C323.092 377.502 323.118 373.933 323.743 370.449C324.217 367.805 325.028 365.238 325.838 362.677C327.584 357.157 329.334 351.623 331.726 346.352C343.453 320.51 371.484 303.008 399.852 303.744C428.219 304.482 455.277 323.375 465.806 349.726C476.336 376.077 469.774 408.372 449.849 428.576C429.923 448.78 397.77 455.795 371.214 445.792C344.658 435.79 325.137 409.354 323.319 381.036ZM338.2 354.601C336.939 357.955 335.956 361.469 335.959 365.05C335.971 376.032 336.836 387.176 340.566 397.506C348.401 419.22 369.523 435.474 392.51 437.574C415.499 439.674 439.177 427.557 450.994 407.728C462.812 387.9 462.226 361.361 449.615 342.027C437.006 322.693 413.011 311.463 390.077 314.081C367.141 316.696 346.326 332.995 338.2 354.601Z" fill="#00160A"/>
</g>
<g filter="url(#filter14_d_3_191)">
<path fill-rule="evenodd" clip-rule="evenodd" d="M787.102 314.019C811.15 324.127 827.888 349.573 827.648 375.658C827.407 401.742 810.202 426.877 785.972 436.539C761.741 446.202 731.963 439.804 713.838 421.044C695.714 402.284 690.347 372.302 700.839 348.42C703.321 342.772 706.679 337.379 711.448 333.469C722.26 324.604 733.454 315.549 746.827 311.473C759.956 307.471 774.45 308.7 787.102 314.019ZM731.164 326.643C728.007 328.662 725.023 331.019 722.688 333.951C720.22 337.05 718.549 340.697 716.903 344.304C714.436 349.709 711.957 355.146 710.418 360.885C705.129 380.604 712.283 403.078 727.927 416.197C743.571 429.317 766.873 432.463 785.484 424.062C804.094 415.664 817.132 396.179 817.911 375.776C818.69 355.373 807.233 335 789.447 324.97C771.664 314.939 748.368 315.646 731.164 326.643Z" fill="#00160A"/>
</g>
<g filter="url(#filter15_d_3_191)">
<path fill-rule="evenodd" clip-rule="evenodd" d="M765.844 46.2965C724.136 47.1833 682.427 48.0717 640.72 48.9602C639.679 48.9817 638.525 49.0497 637.796 49.7923C637.323 50.273 637.123 50.9492 636.945 51.5973C627.696 85.3287 635.19 121.067 641.474 155.473C645.391 176.925 648.825 198.464 651.774 220.07C653.896 235.628 655.77 251.273 655.639 266.977C655.598 271.97 659.105 276.482 663.478 278.893C667.849 281.305 672.964 281.957 677.952 282.199C688.457 282.709 699.041 281.592 709.208 278.9C711.101 278.398 713.064 277.838 714.99 278.197C716.914 278.559 718.768 280.176 718.652 282.131C718.516 284.392 716.069 285.691 713.936 286.45C700.511 291.227 685.774 292.253 671.817 289.384C665.121 288.008 658.139 285.409 654.3 279.752C652.115 276.535 651.184 272.653 650.334 268.857C641.784 230.673 637.516 191.678 633.347 152.771C629.559 117.412 625.837 81.7782 629.014 46.3595C629.112 45.2655 629.231 44.1267 629.811 43.1935C631.058 41.1929 633.809 40.921 636.165 40.863C680.282 39.7806 724.4 38.6966 768.517 37.6125C771.019 37.5512 773.707 37.5429 775.773 38.9568C777.294 40.0011 778.246 41.6735 779.144 43.2863C795.138 71.9986 811.132 100.712 827.125 129.425C830.326 135.17 833.63 141.769 831.639 148.036C830.162 152.684 825.952 156.055 821.382 157.754C816.811 159.453 811.853 159.73 806.983 159.99C798.243 160.456 789.501 160.923 780.759 161.389C759.164 162.541 737.569 163.695 715.975 164.847C714.736 164.913 713.352 164.93 712.436 164.093C711.1 162.871 711.676 160.486 713.104 159.37C714.529 158.255 716.447 158.061 718.252 157.908C750.84 155.16 783.427 152.412 816.015 149.664C818.569 149.448 820.341 146.766 820.455 144.205C820.571 141.646 819.463 139.206 818.37 136.887C804.251 106.885 788.965 77.432 772.555 48.6187C771.322 46.4523 768.337 46.2434 765.844 46.2965Z" fill="#00160A"/>
</g>
<g filter="url(#filter16_d_3_191)">
<path fill-rule="evenodd" clip-rule="evenodd" d="M372.515 334.404C387.09 326.337 406.053 327.281 420.086 336.259C434.118 345.236 442.86 361.704 443.044 378.362C443.232 395.329 434.034 412.712 418.668 419.911C413.311 422.42 407.408 423.668 401.498 423.899C379.958 424.739 358.404 410.575 351.502 390.154C344.6 369.733 353.654 344.843 372.515 334.404ZM405.784 416.601C411.446 415.657 416.949 413.637 421.765 410.512C426.701 407.31 430.886 402.959 433.893 397.902C441.718 384.737 440.719 367.056 432.032 354.444C423.346 341.83 407.634 334.634 392.348 335.567C386.649 335.916 380.994 337.318 375.898 339.894C358.32 348.788 350.248 372.261 357.687 390.504C365.124 408.747 386.351 419.841 405.784 416.601Z" fill="#00160A"/>
</g>
<g filter="url(#filter17_d_3_191)">
<path fill-rule="evenodd" clip-rule="evenodd" d="M524.976 305.057C522.438 302.802 518.387 302.917 515.914 300.593C516.61 298.072 518.937 296.416 520.572 294.374C524.432 289.547 524.026 281.841 519.68 277.445C517.482 275.222 514.291 273.52 513.709 270.447C518.254 269.666 522.849 268.201 526.27 265.109C529.693 262.02 531.677 257.009 530.174 252.649C529.713 251.31 528.939 250.032 528.922 248.617C528.904 247.199 530.134 245.633 531.497 246.021C538.788 248.101 547.311 243.251 549.249 235.921C550.081 232.772 554.714 233.082 557.625 234.547C560.534 236.013 564.238 237.866 566.711 235.746C568.803 233.949 569.188 229.78 571.944 229.832C573.372 229.858 574.383 231.159 575.377 232.182C578.81 235.711 584.522 236.78 588.999 234.733C590.565 234.017 592.014 232.951 593.715 232.678C595.415 232.404 597.511 233.36 597.618 235.079C597.95 240.277 603.629 244.43 608.682 243.165C610.61 242.683 613.884 242.789 613.231 244.665C611.237 250.397 615.502 257.418 621.507 258.292C623.035 258.514 624.66 258.408 626.044 259.096C627.426 259.784 628.343 261.746 627.303 262.888C622.835 267.793 624.721 276.891 630.771 279.615C632.402 280.349 632.018 282.893 630.783 284.188C629.549 285.482 627.769 286.268 626.866 287.811C625.296 290.495 627.166 293.916 629.447 296.028C631.729 298.141 634.597 299.915 635.666 302.835C631.369 301.194 626.049 302.883 623.484 306.701C620.92 310.517 621.369 316.083 624.512 319.439C622.853 322.423 618.419 321.234 615.018 321.534C610.88 321.899 607.259 325.481 606.849 329.613C606.67 331.412 607.025 333.298 606.385 334.989C605.745 336.678 603.408 337.899 602.13 336.621C597.378 331.871 588.286 332.826 584.625 338.461C583.754 339.799 582.899 341.511 581.31 341.655C578.807 341.883 578.008 338.266 575.971 336.795C573.446 334.972 569.861 337.041 568.086 339.598C566.31 342.158 565.201 345.355 562.587 347.051C557.625 343.406 559.13 333.089 553.03 332.245C550.396 331.881 548.077 333.837 545.583 334.758C543.09 335.68 539.246 334.448 539.711 331.831C540.474 327.548 539.829 321.839 535.622 320.729C531.472 319.633 526.161 323.949 523.297 320.752C526.4 315.904 529.279 308.88 524.976 305.057ZM527.741 278.39C525.836 281.841 526.182 286.028 525.828 289.953C525.471 293.878 523.822 298.31 520.054 299.467C524.314 299.771 528.299 302.592 529.998 306.509C531.699 310.427 531.037 315.264 528.349 318.582C531.838 315.967 537.162 316.729 540.33 319.726C543.497 322.723 544.634 327.452 543.988 331.763C547.58 329.197 552.64 328.872 556.531 330.958C560.421 333.043 562.95 337.44 562.8 341.851C563.872 337.938 566.947 334.516 570.872 333.487C574.797 332.456 579.4 334.132 581.376 337.676C581.557 335.005 584.078 333.114 586.556 332.101C591.867 329.93 598.091 330.119 603.259 332.608C602.627 324.276 611.341 316.628 619.521 318.335C616.962 315.665 617.106 311.319 618.528 307.904C620.32 303.6 624.517 299.85 629.155 300.344C626.463 299.359 624.288 297.054 623.463 294.309C622.077 289.703 624.602 284.564 628.525 281.784C623.572 280.743 621.976 274.584 621.363 269.56C621.043 266.941 621.199 263.511 623.698 262.669C618.54 261.211 613.881 258.037 610.637 253.768C609.137 251.794 608.063 248.676 609.969 247.09C606.012 246.885 602.112 245.698 598.712 243.667C596.123 242.121 593.577 239.288 594.558 236.439C587.635 239.86 578.913 239.316 572.466 235.063C570.519 238.128 566.7 239.613 563.068 239.6C559.436 239.586 555.937 238.293 552.614 236.833C553.007 239.235 551.386 241.494 549.629 243.178C545.162 247.463 539.155 250.107 532.977 250.508C535.725 259.958 528.402 270.985 518.627 272.119C520.988 275.01 524.228 277.127 527.741 278.39Z" fill="#00160A"/>
</g>
<g filter="url(#filter18_d_3_191)">
<path fill-rule="evenodd" clip-rule="evenodd" d="M767.942 413.792C761.753 414.636 755.37 414.036 749.446 412.048C730.664 405.75 718.388 384.271 722.494 364.891C726.598 345.511 746.532 330.855 766.253 332.713C785.975 334.572 802.819 352.695 803.232 372.499C803.644 392.305 787.569 411.114 767.942 413.792ZM782.118 405.423C795.314 397.416 802.557 380.668 799.356 365.567C796.156 350.467 782.743 338.098 767.433 336.131C752.123 334.163 736.018 342.738 729.102 356.538C722.187 370.338 724.96 388.372 735.701 399.458C747.422 411.554 767.718 414.162 782.118 405.423Z" fill="#00160A"/>
</g>
<g filter="url(#filter19_d_3_191)">
<path fill-rule="evenodd" clip-rule="evenodd" d="M575.127 240.239C591.964 240.047 608.515 250.07 616.143 265.081C623.771 280.093 622.112 299.369 612.031 312.857C601.95 326.344 583.93 333.392 567.373 330.326C552.748 327.616 539.768 317.241 533.902 303.571C528.037 289.903 529.463 273.346 537.577 260.879C545.692 248.414 560.255 240.408 575.127 240.239ZM618.088 282.91C617.665 276.203 615.618 269.604 612.168 263.838C601.651 246.256 577.275 238.558 558.568 246.914C539.861 255.268 529.324 278.557 535.399 298.124C541.472 317.692 563.345 330.919 583.494 327.211C603.645 323.503 619.375 303.357 618.088 282.91Z" fill="#00160A"/>
</g>
<g filter="url(#filter20_d_3_191)">
<path fill-rule="evenodd" clip-rule="evenodd" d="M598.681 285.784C595.5 289.499 590.415 291.486 585.56 290.913C583.882 290.714 581.29 291.133 581.741 292.763C587.481 294.78 593.219 296.797 598.959 298.814C602.137 299.932 603.047 304.5 601.155 307.288C599.264 310.076 595.525 311.118 592.18 310.707C588.836 310.295 585.775 308.687 582.8 307.107C579.801 305.513 576.801 303.92 573.801 302.327C577.849 300.725 582.239 303.182 586.075 305.239C589.911 307.294 595.004 308.901 598.295 306.051C598.792 305.62 599.233 305.067 599.322 304.414C599.534 302.852 597.799 301.813 596.339 301.219C591.729 299.343 587.119 297.468 582.508 295.592C580.181 294.644 577.439 295.466 575.443 296.994C573.448 298.523 572.031 300.663 570.583 302.718C567.52 307.067 563.832 311.437 558.724 312.919C553.615 314.399 546.981 311.508 546.456 306.215C546.126 302.889 548.215 299.776 550.688 297.526C553.163 295.277 556.105 293.553 558.371 291.093C558.656 290.783 558.944 290.432 558.979 290.011C559.052 289.134 558.066 288.594 557.24 288.291C552.79 286.648 548.339 285.005 543.889 283.363C541.962 282.652 543.161 279.328 545.198 279.081C547.233 278.834 549.02 280.308 550.648 281.556C554.943 284.853 560.898 287.162 565.695 284.649C569.113 282.859 571.082 278.662 570.272 274.886C569.17 269.742 571.099 264.062 575.109 260.656C579.118 257.249 585.036 256.263 589.934 258.183C586.194 259.941 584.489 265.047 586.42 268.701C588.351 272.355 593.529 273.82 597.089 271.722C598.394 270.952 600.129 269.817 601.18 270.908C601.474 271.209 601.613 271.625 601.726 272.032C603.04 276.741 601.86 282.071 598.681 285.784ZM574.668 271.465C574.654 277.092 577.81 282.885 583.03 284.987C588.25 287.087 595.173 284.486 596.876 279.123C597.254 277.929 596.606 276.01 595.465 276.527C592.354 277.934 588.686 276.306 586.058 274.125C584.346 272.703 582.795 270.962 582.142 268.836C581.489 266.709 581.916 264.143 583.62 262.713C580.945 262.114 577.966 263.233 576.348 265.444C575.097 267.155 574.673 269.346 574.668 271.465ZM551.989 306.923C558.782 313.64 562.826 304.841 564.47 302.953C568.281 298.574 572.322 294.395 576.571 290.439C577.406 289.661 577.436 288.295 576.952 287.261C576.468 286.229 575.579 285.451 574.716 284.705C573.43 283.595 571.359 283.913 570.02 284.957C568.679 286 545.198 300.208 551.989 306.923Z" fill="#FFB61D"/>
</g>
<g filter="url(#filter21_d_3_191)">
<path fill-rule="evenodd" clip-rule="evenodd" d="M395.065 353.69C401.257 353.195 407.621 355.454 412.113 359.744C419.074 366.392 420.873 377.826 416.286 386.29C411.7 394.753 401.14 399.49 391.769 397.288C382.843 395.191 375.696 387.016 374.808 377.891C373.919 368.768 379.358 359.368 387.71 355.588C390.027 354.539 392.529 353.894 395.065 353.69ZM405.812 360.661C403.621 359.17 401.211 357.924 398.605 357.442C395.641 356.895 392.537 357.375 389.755 358.539C382.689 361.499 377.872 369.169 378.332 376.817C378.792 384.465 384.534 391.524 391.943 393.475C399.353 395.424 407.858 392.08 411.902 385.57C415.945 379.063 415.158 369.915 410.017 364.233C408.781 362.865 407.335 361.698 405.812 360.661Z" fill="#00160A"/>
</g>
<g filter="url(#filter22_d_3_191)">
<path fill-rule="evenodd" clip-rule="evenodd" d="M398.633 151.885C398.733 159.496 396.787 167.635 400.309 174.383C406.832 186.884 425.148 184.56 438.622 180.405C427.548 167.8 416.474 155.198 405.401 142.594C428.34 119.171 451.281 95.7481 474.221 72.3251C476.134 70.3725 478.342 68.2857 481.075 68.2326C484.228 68.1713 486.693 70.8068 488.712 73.2285C496.225 82.2423 503.739 91.2544 511.253 100.268C517.446 107.694 523.34 119.721 515.761 125.725C544.19 123.797 572.621 121.868 601.05 119.938C595.725 89.5322 605.508 58.7348 615.165 29.4159C616.128 26.4936 617.292 23.3144 619.962 21.7861C621.832 20.7154 624.096 20.6723 626.253 20.6574C678.158 20.2993 730.062 19.9413 781.967 19.5833C785.11 19.5617 788.427 19.5833 791.143 21.1662C793.474 22.5238 795.045 24.8527 796.517 27.1152C840.429 94.6226 867.844 172.778 875.727 252.924C876.715 262.978 877.797 273.962 884.893 281.151C895.695 292.096 896.858 311.169 887.464 323.344C894.373 328.358 892.667 339.931 886.342 345.662C880.015 351.39 871.026 352.855 862.577 354.074C851.367 355.691 839.173 357.133 829.372 351.456C845.423 347.695 861.495 344.022 877.587 340.439C870.449 293.432 863.312 246.425 856.174 199.418C853.819 183.917 851.454 168.361 847.066 153.308C842.34 137.101 835.327 121.667 828.337 106.298C817.329 82.0931 806.32 57.8878 795.312 33.6825C794.112 31.0436 792.812 28.2821 790.447 26.608C787.583 24.5825 783.802 24.5874 780.295 24.6703C731.431 25.8339 682.568 26.9959 633.703 28.1595C630.887 28.2274 627.851 28.3683 625.638 30.1137C623.816 31.5475 622.893 33.8134 622.096 35.9898C602.855 88.5659 614.126 146.808 625.6 201.605C627.708 211.671 614.033 216.814 603.788 217.713C486.814 227.967 369.84 238.222 252.868 248.477C251.432 257.751 251.028 267.184 251.663 276.548C259.448 277.233 267.232 277.915 275.018 278.6C272.548 279.573 270.08 280.544 267.61 281.516C272.213 305.708 274.757 330.291 275.207 354.912C275.344 362.406 281.839 368.572 288.993 370.805C296.147 373.039 303.849 372.207 311.295 371.355C303.37 374.674 295.111 378.054 286.528 377.634C277.947 377.213 268.961 371.801 267.376 363.356C262.41 336.873 259.549 309.996 258.832 283.062C254.321 283.172 249.811 283.281 245.301 283.392C243.776 272.121 243.161 260.727 243.466 249.357C243.532 246.911 243.731 244.237 245.4 242.449C247.075 240.655 249.73 240.276 252.168 240.002C264.852 238.578 277.535 237.154 290.219 235.731C286.473 209.709 282.725 183.688 278.978 157.666C278.654 155.419 278.376 152.95 279.596 151.036C280.953 148.909 283.68 148.205 286.151 147.688C319.203 140.782 352.838 136.663 386.58 135.387C394.186 135.099 398.536 144.273 398.633 151.885ZM295.006 233.103C295.089 233.841 295.217 234.658 295.798 235.121C296.364 235.57 297.163 235.523 297.882 235.455C331.07 232.303 364.257 229.152 397.443 226.001C398.36 225.914 399.402 225.754 399.903 224.981C400.296 224.375 400.215 223.591 400.119 222.875C396.727 197.411 393.336 171.946 389.944 146.483C389.852 145.783 389.737 145.037 389.265 144.513C388.628 143.811 387.568 143.738 386.621 143.718C353.828 143 320.95 146.34 288.973 153.64C288.102 153.837 287.149 154.094 286.652 154.837C286.185 155.531 286.263 156.441 286.357 157.273C289.24 182.549 292.122 207.827 295.006 233.103ZM603.773 131.304C603.632 130.124 603.385 128.775 602.359 128.173C601.706 127.79 600.897 127.822 600.141 127.865C570.594 129.532 541.048 131.2 511.5 132.869C510.85 132.906 510.147 132.962 509.655 133.39C508.936 134.014 508.977 135.122 509.078 136.067C511.782 161.578 514.487 187.088 517.19 212.598C517.276 213.402 517.393 214.272 517.964 214.842C518.699 215.575 519.881 215.53 520.915 215.435C551.573 212.626 582.23 209.815 612.886 207.003C609.849 181.77 606.811 156.537 603.773 131.304ZM445.06 174.285C445.489 174.678 445.96 175.087 446.539 175.155C447.356 175.251 448.07 174.643 448.665 174.076C468.639 155.094 491.927 139.426 511.901 120.444C512.799 119.589 513.769 118.574 513.728 117.334C513.699 116.504 513.212 115.766 512.741 115.082C504.78 103.497 493.003 88.9438 484.072 78.0901C483.194 77.0243 482.062 75.8557 480.693 76.0298C479.819 76.1408 479.12 76.784 478.486 77.3939C456.424 98.6488 434.362 119.904 412.3 141.159C411.808 141.631 411.281 142.186 411.291 142.869C411.299 143.552 411.844 144.094 412.35 144.553C423.253 154.464 434.157 164.374 445.06 174.285ZM508.902 184.721C508.732 183.627 508.49 182.414 507.585 181.774C506.783 181.207 505.708 181.276 504.73 181.369C474.19 184.277 443.649 187.184 413.107 190.093C411.511 190.244 409.64 190.579 408.945 192.024C408.562 192.82 408.658 193.751 408.761 194.628C409.792 203.348 410.823 212.071 411.854 220.791C411.998 222.021 412.234 223.403 413.256 224.101C414.075 224.658 415.151 224.595 416.137 224.509C447.724 221.769 479.31 219.031 510.897 216.291C511.684 216.223 512.561 216.108 513.055 215.492C513.565 214.859 513.466 213.947 513.34 213.143C511.861 203.668 510.381 194.195 508.902 184.721ZM502.556 139.176C502.483 138.646 502.236 137.966 501.704 138.008C501.478 138.026 501.291 138.182 501.122 138.329C485.41 152.055 469.7 165.782 453.989 179.508C470.324 178.139 486.645 176.581 502.945 174.837C504.346 174.686 505.962 174.396 506.633 173.158C507.071 172.349 506.958 171.366 506.832 170.454C505.407 160.028 503.981 149.602 502.556 139.176ZM881.694 286.145C883.201 294.829 884.706 303.513 886.211 312.197C886.36 313.059 886.668 314.097 887.522 314.284C888.909 314.589 889.39 312.502 889.2 311.093C888.182 303.579 887.162 296.066 886.145 288.55C885.962 287.206 885.697 285.714 884.61 284.9C883.522 284.088 881.464 284.808 881.694 286.145Z" fill="#00160A"/>
</g>
<g filter="url(#filter23_d_3_191)">
<path fill-rule="evenodd" clip-rule="evenodd" d="M134.591 458.301C105.567 458.761 5.75725 466.157 4.03305 462.452C1.82734 457.715 110.669 451.486 134.394 451.109L141.826 451.01C163.398 450.776 134.591 458.301 134.591 458.301ZM356.271 449.235C363.321 449.235 368.837 451.515 364.093 453.181C359.348 454.849 343.994 458.354 318.281 458.946C292.571 459.538 262.77 460.15 218.732 461.016C216.179 461.066 214.067 459.037 214.018 456.483C213.968 453.93 215.997 451.819 218.55 451.769L296.529 450.179C320.203 449.667 335.021 449.235 356.271 449.235ZM708.507 446.526C711.062 446.485 713.165 448.523 713.205 451.076C713.245 453.63 711.207 455.734 708.653 455.774L697.818 455.906L664.662 456.135C657.99 456.203 388.038 457.928 384.378 453.97C380.718 450.012 386.336 449.296 388.889 449.235C388.889 449.235 664.574 446.878 671.782 446.824L699.354 446.642C702.558 446.611 705.461 446.574 708.507 446.526ZM1008.21 437.63C1008.21 437.63 1016.52 436.196 1077.13 440.735C1079.68 440.925 1081.59 443.145 1081.4 445.692C1081.21 448.238 1051.23 446.952 1010.25 446.881L998.985 446.899C968.895 447.032 940.942 447.846 894.548 449.755L835.993 452.23C811.006 453.252 796.098 453.751 777.969 454.179C775.416 454.239 773.298 452.218 773.237 449.666C773.177 447.111 775.198 444.993 777.752 444.933L792.308 444.552C809.627 444.051 827.421 443.355 858.971 442.008L892.425 440.587C944.736 438.424 973.824 437.63 1008.21 437.63Z" fill="#00160A"/>
</g>
<defs>
<filter id="filter0_d_3_191" x="168.064" y="0.10376" width="798.005" height="578.896" filterUnits="userSpaceOnUse" color-interpolation-filters="sRGB">
<feFlood flood-opacity="0" result="BackgroundImageFix"/>
<feColorMatrix in="SourceAlpha" type="matrix" values="0 0 0 0 0 0 0 0 0 0 0 0 0 0 0 0 0 0 127 0" result="hardAlpha"/>
<feOffset dy="4"/>
<feGaussianBlur stdDeviation="2"/>
<feComposite in2="hardAlpha" operator="out"/>
<feColorMatrix type="matrix" values="0 0 0 0 0 0 0 0 0 0 0 0 0 0 0 0 0 0 0.25 0"/>
<feBlend mode="normal" in2="BackgroundImageFix" result="effect1_dropShadow_3_191"/>
<feBlend mode="normal" in="SourceGraphic" in2="effect1_dropShadow_3_191" result="shape"/>
</filter>
<filter id="filter1_d_3_191" x="188.962" y="375.91" width="74.5226" height="44.8638" filterUnits="userSpaceOnUse" color-interpolation-filters="sRGB">
<feFlood flood-opacity="0" result="BackgroundImageFix"/>
<feColorMatrix in="SourceAlpha" type="matrix" values="0 0 0 0 0 0 0 0 0 0 0 0 0 0 0 0 0 0 127 0" result="hardAlpha"/>
<feOffset dy="4"/>
<feGaussianBlur stdDeviation="2"/>
<feComposite in2="hardAlpha" operator="out"/>
<feColorMatrix type="matrix" values="0 0 0 0 0 0 0 0 0 0 0 0 0 0 0 0 0 0 0.25 0"/>
<feBlend mode="normal" in2="BackgroundImageFix" result="effect1_dropShadow_3_191"/>
<feBlend mode="normal" in="SourceGraphic" in2="effect1_dropShadow_3_191" result="shape"/>
</filter>
<filter id="filter2_d_3_191" x="715.079" y="330.962" width="95.6012" height="92.3242" filterUnits="userSpaceOnUse" color-interpolation-filters="sRGB">
<feFlood flood-opacity="0" result="BackgroundImageFix"/>
<feColorMatrix in="SourceAlpha" type="matrix" values="0 0 0 0 0 0 0 0 0 0 0 0 0 0 0 0 0 0 127 0" result="hardAlpha"/>
<feOffset dy="4"/>
<feGaussianBlur stdDeviation="2"/>
<feComposite in2="hardAlpha" operator="out"/>
<feColorMatrix type="matrix" values="0 0 0 0 0 0 0 0 0 0 0 0 0 0 0 0 0 0 0.25 0"/>
<feBlend mode="normal" in2="BackgroundImageFix" result="effect1_dropShadow_3_191"/>
<feBlend mode="normal" in="SourceGraphic" in2="effect1_dropShadow_3_191" result="shape"/>
</filter>
<filter id="filter3_d_3_191" x="737.033" y="350.308" width="52.1042" height="52.2026" filterUnits="userSpaceOnUse" color-interpolation-filters="sRGB">
<feFlood flood-opacity="0" result="BackgroundImageFix"/>
<feColorMatrix in="SourceAlpha" type="matrix" values="0 0 0 0 0 0 0 0 0 0 0 0 0 0 0 0 0 0 127 0" result="hardAlpha"/>
<feOffset dy="4"/>
<feGaussianBlur stdDeviation="2"/>
<feComposite in2="hardAlpha" operator="out"/>
<feColorMatrix type="matrix" values="0 0 0 0 0 0 0 0 0 0 0 0 0 0 0 0 0 0 0.25 0"/>
<feBlend mode="normal" in2="BackgroundImageFix" result="effect1_dropShadow_3_191"/>
<feBlend mode="normal" in="SourceGraphic" in2="effect1_dropShadow_3_191" result="shape"/>
</filter>
<filter id="filter4_d_3_191" x="342.916" y="325.989" width="108.143" height="107.454" filterUnits="userSpaceOnUse" color-interpolation-filters="sRGB">
<feFlood flood-opacity="0" result="BackgroundImageFix"/>
<feColorMatrix in="SourceAlpha" type="matrix" values="0 0 0 0 0 0 0 0 0 0 0 0 0 0 0 0 0 0 127 0" result="hardAlpha"/>
<feOffset dy="4"/>
<feGaussianBlur stdDeviation="2"/>
<feComposite in2="hardAlpha" operator="out"/>
<feColorMatrix type="matrix" values="0 0 0 0 0 0 0 0 0 0 0 0 0 0 0 0 0 0 0.25 0"/>
<feBlend mode="normal" in2="BackgroundImageFix" result="effect1_dropShadow_3_191"/>
<feBlend mode="normal" in="SourceGraphic" in2="effect1_dropShadow_3_191" result="shape"/>
</filter>
<filter id="filter5_d_3_191" x="242.134" y="22.8945" width="643.984" height="357.151" filterUnits="userSpaceOnUse" color-interpolation-filters="sRGB">
<feFlood flood-opacity="0" result="BackgroundImageFix"/>
<feColorMatrix in="SourceAlpha" type="matrix" values="0 0 0 0 0 0 0 0 0 0 0 0 0 0 0 0 0 0 127 0" result="hardAlpha"/>
<feOffset dy="4"/>
<feGaussianBlur stdDeviation="2"/>
<feComposite in2="hardAlpha" operator="out"/>
<feColorMatrix type="matrix" values="0 0 0 0 0 0 0 0 0 0 0 0 0 0 0 0 0 0 0.25 0"/>
<feBlend mode="normal" in2="BackgroundImageFix" result="effect1_dropShadow_3_191"/>
<feBlend mode="normal" in="SourceGraphic" in2="effect1_dropShadow_3_191" result="shape"/>
</filter>
<filter id="filter6_d_3_191" x="304.694" y="151.247" width="31.2423" height="90.6357" filterUnits="userSpaceOnUse" color-interpolation-filters="sRGB">
<feFlood flood-opacity="0" result="BackgroundImageFix"/>
<feColorMatrix in="SourceAlpha" type="matrix" values="0 0 0 0 0 0 0 0 0 0 0 0 0 0 0 0 0 0 127 0" result="hardAlpha"/>
<feOffset dy="4"/>
<feGaussianBlur stdDeviation="2"/>
<feComposite in2="hardAlpha" operator="out"/>
<feColorMatrix type="matrix" values="0 0 0 0 0 0 0 0 0 0 0 0 0 0 0 0 0 0 0.25 0"/>
<feBlend mode="normal" in2="BackgroundImageFix" result="effect1_dropShadow_3_191"/>
<feBlend mode="normal" in="SourceGraphic" in2="effect1_dropShadow_3_191" result="shape"/>
</filter>
<filter id="filter7_d_3_191" x="679.299" y="79.5042" width="88.5552" height="61.7566" filterUnits="userSpaceOnUse" color-interpolation-filters="sRGB">
<feFlood flood-opacity="0" result="BackgroundImageFix"/>
<feColorMatrix in="SourceAlpha" type="matrix" values="0 0 0 0 0 0 0 0 0 0 0 0 0 0 0 0 0 0 127 0" result="hardAlpha"/>
<feOffset dy="4"/>
<feGaussianBlur stdDeviation="2"/>
<feComposite in2="hardAlpha" operator="out"/>
<feColorMatrix type="matrix" values="0 0 0 0 0 0 0 0 0 0 0 0 0 0 0 0 0 0 0.25 0"/>
<feBlend mode="normal" in2="BackgroundImageFix" result="effect1_dropShadow_3_191"/>
<feBlend mode="normal" in="SourceGraphic" in2="effect1_dropShadow_3_191" result="shape"/>
</filter>
<filter id="filter8_d_3_191" x="712.405" y="79.4988" width="49.7319" height="35.8584" filterUnits="userSpaceOnUse" color-interpolation-filters="sRGB">
<feFlood flood-opacity="0" result="BackgroundImageFix"/>
<feColorMatrix in="SourceAlpha" type="matrix" values="0 0 0 0 0 0 0 0 0 0 0 0 0 0 0 0 0 0 127 0" result="hardAlpha"/>
<feOffset dy="4"/>
<feGaussianBlur stdDeviation="2"/>
<feComposite in2="hardAlpha" operator="out"/>
<feColorMatrix type="matrix" values="0 0 0 0 0 0 0 0 0 0 0 0 0 0 0 0 0 0 0.25 0"/>
<feBlend mode="normal" in2="BackgroundImageFix" result="effect1_dropShadow_3_191"/>
<feBlend mode="normal" in="SourceGraphic" in2="effect1_dropShadow_3_191" result="shape"/>
</filter>
<filter id="filter9_d_3_191" x="670.997" y="95.9253" width="49.7022" height="35.9534" filterUnits="userSpaceOnUse" color-interpolation-filters="sRGB">
<feFlood flood-opacity="0" result="BackgroundImageFix"/>
<feColorMatrix in="SourceAlpha" type="matrix" values="0 0 0 0 0 0 0 0 0 0 0 0 0 0 0 0 0 0 127 0" result="hardAlpha"/>
<feOffset dy="4"/>
<feGaussianBlur stdDeviation="2"/>
<feComposite in2="hardAlpha" operator="out"/>
<feColorMatrix type="matrix" values="0 0 0 0 0 0 0 0 0 0 0 0 0 0 0 0 0 0 0.25 0"/>
<feBlend mode="normal" in2="BackgroundImageFix" result="effect1_dropShadow_3_191"/>
<feBlend mode="normal" in="SourceGraphic" in2="effect1_dropShadow_3_191" result="shape"/>
</filter>
<filter id="filter10_d_3_191" x="659.858" y="168.093" width="38.6286" height="25.9036" filterUnits="userSpaceOnUse" color-interpolation-filters="sRGB">
<feFlood flood-opacity="0" result="BackgroundImageFix"/>
<feColorMatrix in="SourceAlpha" type="matrix" values="0 0 0 0 0 0 0 0 0 0 0 0 0 0 0 0 0 0 127 0" result="hardAlpha"/>
<feOffset dy="4"/>
<feGaussianBlur stdDeviation="2"/>
<feComposite in2="hardAlpha" operator="out"/>
<feColorMatrix type="matrix" values="0 0 0 0 0 0 0 0 0 0 0 0 0 0 0 0 0 0 0.25 0"/>
<feBlend mode="normal" in2="BackgroundImageFix" result="effect1_dropShadow_3_191"/>
<feBlend mode="normal" in="SourceGraphic" in2="effect1_dropShadow_3_191" result="shape"/>
</filter>
<filter id="filter11_d_3_191" x="473.651" y="349.485" width="219.758" height="34.3237" filterUnits="userSpaceOnUse" color-interpolation-filters="sRGB">
<feFlood flood-opacity="0" result="BackgroundImageFix"/>
<feColorMatrix in="SourceAlpha" type="matrix" values="0 0 0 0 0 0 0 0 0 0 0 0 0 0 0 0 0 0 127 0" result="hardAlpha"/>
<feOffset dy="4"/>
<feGaussianBlur stdDeviation="2"/>
<feComposite in2="hardAlpha" operator="out"/>
<feColorMatrix type="matrix" values="0 0 0 0 0 0 0 0 0 0 0 0 0 0 0 0 0 0 0.25 0"/>
<feBlend mode="normal" in2="BackgroundImageFix" result="effect1_dropShadow_3_191"/>
<feBlend mode="normal" in="SourceGraphic" in2="effect1_dropShadow_3_191" result="shape"/>
</filter>
<filter id="filter12_d_3_191" x="188.962" y="374.252" width="74.5209" height="44.8638" filterUnits="userSpaceOnUse" color-interpolation-filters="sRGB">
<feFlood flood-opacity="0" result="BackgroundImageFix"/>
<feColorMatrix in="SourceAlpha" type="matrix" values="0 0 0 0 0 0 0 0 0 0 0 0 0 0 0 0 0 0 127 0" result="hardAlpha"/>
<feOffset dy="4"/>
<feGaussianBlur stdDeviation="2"/>
<feComposite in2="hardAlpha" operator="out"/>
<feColorMatrix type="matrix" values="0 0 0 0 0 0 0 0 0 0 0 0 0 0 0 0 0 0 0.25 0"/>
<feBlend mode="normal" in2="BackgroundImageFix" result="effect1_dropShadow_3_191"/>
<feBlend mode="normal" in="SourceGraphic" in2="effect1_dropShadow_3_191" result="shape"/>
</filter>
<filter id="filter13_d_3_191" x="319.188" y="303.722" width="155.598" height="154.583" filterUnits="userSpaceOnUse" color-interpolation-filters="sRGB">
<feFlood flood-opacity="0" result="BackgroundImageFix"/>
<feColorMatrix in="SourceAlpha" type="matrix" values="0 0 0 0 0 0 0 0 0 0 0 0 0 0 0 0 0 0 127 0" result="hardAlpha"/>
<feOffset dy="4"/>
<feGaussianBlur stdDeviation="2"/>
<feComposite in2="hardAlpha" operator="out"/>
<feColorMatrix type="matrix" values="0 0 0 0 0 0 0 0 0 0 0 0 0 0 0 0 0 0 0.25 0"/>
<feBlend mode="normal" in2="BackgroundImageFix" result="effect1_dropShadow_3_191"/>
<feBlend mode="normal" in="SourceGraphic" in2="effect1_dropShadow_3_191" result="shape"/>
</filter>
<filter id="filter14_d_3_191" x="691.515" y="309.108" width="140.135" height="139.897" filterUnits="userSpaceOnUse" color-interpolation-filters="sRGB">
<feFlood flood-opacity="0" result="BackgroundImageFix"/>
<feColorMatrix in="SourceAlpha" type="matrix" values="0 0 0 0 0 0 0 0 0 0 0 0 0 0 0 0 0 0 127 0" result="hardAlpha"/>
<feOffset dy="4"/>
<feGaussianBlur stdDeviation="2"/>
<feComposite in2="hardAlpha" operator="out"/>
<feColorMatrix type="matrix" values="0 0 0 0 0 0 0 0 0 0 0 0 0 0 0 0 0 0 0.25 0"/>
<feBlend mode="normal" in2="BackgroundImageFix" result="effect1_dropShadow_3_191"/>
<feBlend mode="normal" in="SourceGraphic" in2="effect1_dropShadow_3_191" result="shape"/>
</filter>
<filter id="filter15_d_3_191" x="623.814" y="37.5925" width="212.428" height="261.384" filterUnits="userSpaceOnUse" color-interpolation-filters="sRGB">
<feFlood flood-opacity="0" result="BackgroundImageFix"/>
<feColorMatrix in="SourceAlpha" type="matrix" values="0 0 0 0 0 0 0 0 0 0 0 0 0 0 0 0 0 0 127 0" result="hardAlpha"/>
<feOffset dy="4"/>
<feGaussianBlur stdDeviation="2"/>
<feComposite in2="hardAlpha" operator="out"/>
<feColorMatrix type="matrix" values="0 0 0 0 0 0 0 0 0 0 0 0 0 0 0 0 0 0 0.25 0"/>
<feBlend mode="normal" in2="BackgroundImageFix" result="effect1_dropShadow_3_191"/>
<feBlend mode="normal" in="SourceGraphic" in2="effect1_dropShadow_3_191" result="shape"/>
</filter>
<filter id="filter16_d_3_191" x="345.197" y="328.896" width="101.851" height="103.038" filterUnits="userSpaceOnUse" color-interpolation-filters="sRGB">
<feFlood flood-opacity="0" result="BackgroundImageFix"/>
<feColorMatrix in="SourceAlpha" type="matrix" values="0 0 0 0 0 0 0 0 0 0 0 0 0 0 0 0 0 0 127 0" result="hardAlpha"/>
<feOffset dy="4"/>
<feGaussianBlur stdDeviation="2"/>
<feComposite in2="hardAlpha" operator="out"/>
<feColorMatrix type="matrix" values="0 0 0 0 0 0 0 0 0 0 0 0 0 0 0 0 0 0 0.25 0"/>
<feBlend mode="normal" in2="BackgroundImageFix" result="effect1_dropShadow_3_191"/>
<feBlend mode="normal" in="SourceGraphic" in2="effect1_dropShadow_3_191" result="shape"/>
</filter>
<filter id="filter17_d_3_191" x="509.709" y="229.831" width="129.957" height="125.22" filterUnits="userSpaceOnUse" color-interpolation-filters="sRGB">
<feFlood flood-opacity="0" result="BackgroundImageFix"/>
<feColorMatrix in="SourceAlpha" type="matrix" values="0 0 0 0 0 0 0 0 0 0 0 0 0 0 0 0 0 0 127 0" result="hardAlpha"/>
<feOffset dy="4"/>
<feGaussianBlur stdDeviation="2"/>
<feComposite in2="hardAlpha" operator="out"/>
<feColorMatrix type="matrix" values="0 0 0 0 0 0 0 0 0 0 0 0 0 0 0 0 0 0 0.25 0"/>
<feBlend mode="normal" in2="BackgroundImageFix" result="effect1_dropShadow_3_191"/>
<feBlend mode="normal" in="SourceGraphic" in2="effect1_dropShadow_3_191" result="shape"/>
</filter>
<filter id="filter18_d_3_191" x="717.701" y="332.554" width="89.5382" height="89.6099" filterUnits="userSpaceOnUse" color-interpolation-filters="sRGB">
<feFlood flood-opacity="0" result="BackgroundImageFix"/>
<feColorMatrix in="SourceAlpha" type="matrix" values="0 0 0 0 0 0 0 0 0 0 0 0 0 0 0 0 0 0 127 0" result="hardAlpha"/>
<feOffset dy="4"/>
<feGaussianBlur stdDeviation="2"/>
<feComposite in2="hardAlpha" operator="out"/>
<feColorMatrix type="matrix" values="0 0 0 0 0 0 0 0 0 0 0 0 0 0 0 0 0 0 0.25 0"/>
<feBlend mode="normal" in2="BackgroundImageFix" result="effect1_dropShadow_3_191"/>
<feBlend mode="normal" in="SourceGraphic" in2="effect1_dropShadow_3_191" result="shape"/>
</filter>
<filter id="filter19_d_3_191" x="526.323" y="240.236" width="98.5806" height="98.7998" filterUnits="userSpaceOnUse" color-interpolation-filters="sRGB">
<feFlood flood-opacity="0" result="BackgroundImageFix"/>
<feColorMatrix in="SourceAlpha" type="matrix" values="0 0 0 0 0 0 0 0 0 0 0 0 0 0 0 0 0 0 127 0" result="hardAlpha"/>
<feOffset dy="4"/>
<feGaussianBlur stdDeviation="2"/>
<feComposite in2="hardAlpha" operator="out"/>
<feColorMatrix type="matrix" values="0 0 0 0 0 0 0 0 0 0 0 0 0 0 0 0 0 0 0.25 0"/>
<feBlend mode="normal" in2="BackgroundImageFix" result="effect1_dropShadow_3_191"/>
<feBlend mode="normal" in="SourceGraphic" in2="effect1_dropShadow_3_191" result="shape"/>
</filter>
<filter id="filter20_d_3_191" x="538.916" y="257.213" width="67.3383" height="64.0913" filterUnits="userSpaceOnUse" color-interpolation-filters="sRGB">
<feFlood flood-opacity="0" result="BackgroundImageFix"/>
<feColorMatrix in="SourceAlpha" type="matrix" values="0 0 0 0 0 0 0 0 0 0 0 0 0 0 0 0 0 0 127 0" result="hardAlpha"/>
<feOffset dy="4"/>
<feGaussianBlur stdDeviation="2"/>
<feComposite in2="hardAlpha" operator="out"/>
<feColorMatrix type="matrix" values="0 0 0 0 0 0 0 0 0 0 0 0 0 0 0 0 0 0 0.25 0"/>
<feBlend mode="normal" in2="BackgroundImageFix" result="effect1_dropShadow_3_191"/>
<feBlend mode="normal" in="SourceGraphic" in2="effect1_dropShadow_3_191" result="shape"/>
</filter>
<filter id="filter21_d_3_191" x="370.713" y="353.623" width="52.1042" height="52.2026" filterUnits="userSpaceOnUse" color-interpolation-filters="sRGB">
<feFlood flood-opacity="0" result="BackgroundImageFix"/>
<feColorMatrix in="SourceAlpha" type="matrix" values="0 0 0 0 0 0 0 0 0 0 0 0 0 0 0 0 0 0 127 0" result="hardAlpha"/>
<feOffset dy="4"/>
<feGaussianBlur stdDeviation="2"/>
<feComposite in2="hardAlpha" operator="out"/>
<feColorMatrix type="matrix" values="0 0 0 0 0 0 0 0 0 0 0 0 0 0 0 0 0 0 0.25 0"/>
<feBlend mode="normal" in2="BackgroundImageFix" result="effect1_dropShadow_3_191"/>
<feBlend mode="normal" in="SourceGraphic" in2="effect1_dropShadow_3_191" result="shape"/>
</filter>
<filter id="filter22_d_3_191" x="239.39" y="19.5796" width="658.427" height="366.09" filterUnits="userSpaceOnUse" color-interpolation-filters="sRGB">
<feFlood flood-opacity="0" result="BackgroundImageFix"/>
<feColorMatrix in="SourceAlpha" type="matrix" values="0 0 0 0 0 0 0 0 0 0 0 0 0 0 0 0 0 0 127 0" result="hardAlpha"/>
<feOffset dy="4"/>
<feGaussianBlur stdDeviation="2"/>
<feComposite in2="hardAlpha" operator="out"/>
<feColorMatrix type="matrix" values="0 0 0 0 0 0 0 0 0 0 0 0 0 0 0 0 0 0 0.25 0"/>
<feBlend mode="normal" in2="BackgroundImageFix" result="effect1_dropShadow_3_191"/>
<feBlend mode="normal" in="SourceGraphic" in2="effect1_dropShadow_3_191" result="shape"/>
</filter>
<filter id="filter23_d_3_191" x="0" y="437.415" width="1085.41" height="34.0718" filterUnits="userSpaceOnUse" color-interpolation-filters="sRGB">
<feFlood flood-opacity="0" result="BackgroundImageFix"/>
<feColorMatrix in="SourceAlpha" type="matrix" values="0 0 0 0 0 0 0 0 0 0 0 0 0 0 0 0 0 0 127 0" result="hardAlpha"/>
<feOffset dy="4"/>
<feGaussianBlur stdDeviation="2"/>
<feComposite in2="hardAlpha" operator="out"/>
<feColorMatrix type="matrix" values="0 0 0 0 0 0 0 0 0 0 0 0 0 0 0 0 0 0 0.25 0"/>
<feBlend mode="normal" in2="BackgroundImageFix" result="effect1_dropShadow_3_191"/>
<feBlend mode="normal" in="SourceGraphic" in2="effect1_dropShadow_3_191" result="shape"/>
</filter>
</defs>
</svg>
