<svg viewBox="0 0 55 55" fill="none" xmlns="http://www.w3.org/2000/svg">
<g clip-path="url(#clip0_132_34)">
<path fill-rule="evenodd" clip-rule="evenodd" d="M52.1695 16.5049L50.3538 13.5894C48.8177 11.1224 45.4135 10.2714 42.7439 11.6869C41.4731 12.3796 39.9567 12.5761 38.5291 12.2331C37.1015 11.8902 35.88 11.0358 35.134 9.85849C34.654 9.11017 34.3961 8.25784 34.3863 7.38769C34.4296 5.99262 33.8608 4.64073 32.8095 3.64C31.7582 2.63926 30.314 2.0749 28.8057 2.07547H25.1476C23.67 2.07547 22.2533 2.6203 21.211 3.58945C20.1686 4.5586 19.5866 5.87215 19.5937 7.23944C19.5499 10.0624 17.0642 12.3296 14.0131 12.3293C13.0728 12.3203 12.1517 12.0816 11.343 11.6375C8.6733 10.2219 5.26916 11.073 3.73307 13.54L1.78387 16.5049C0.249644 18.9689 1.15684 22.1169 3.81318 23.5467C5.53984 24.4692 6.60351 26.1739 6.60351 28.0189C6.60351 29.8638 5.53984 31.5686 3.81318 32.491C1.16022 33.9112 0.252028 37.0516 1.78387 39.5081L3.62627 42.4483C4.34599 43.65 5.55355 44.5368 6.98175 44.9124C8.40995 45.288 9.94102 45.1215 11.2362 44.4497C12.5094 43.7622 14.0266 43.5739 15.4506 43.9265C16.8746 44.2791 18.0874 45.1435 18.8194 46.3275C19.2993 47.0758 19.5573 47.9281 19.567 48.7983C19.567 51.6503 22.0655 53.9623 25.1476 53.9623H28.8057C31.8774 53.9623 34.3716 51.6653 34.3863 48.823C34.3792 47.4514 34.9648 46.1341 36.0129 45.1642C37.0611 44.1944 38.4847 43.6524 39.9669 43.659C40.905 43.6823 41.8223 43.9199 42.6371 44.3509C45.2997 45.7705 48.7017 44.9311 50.247 42.473L52.1695 39.5081C52.9136 38.3262 53.1179 36.9185 52.737 35.5968C52.3561 34.2751 51.4215 33.1484 50.1402 32.4663C48.8588 31.7842 47.9242 30.6575 47.5433 29.3358C47.1624 28.0141 47.3667 26.6065 48.1108 25.4245C48.5948 24.6427 49.2953 23.9945 50.1402 23.5467C52.7806 22.1176 53.6856 18.988 52.1695 16.5296V16.5049Z" stroke="black" stroke-width="2.5" stroke-linecap="round" stroke-linejoin="round"/>
<path d="M26.9899 35.1343C31.2367 35.1343 34.6794 31.9486 34.6794 28.0188C34.6794 24.0891 31.2367 20.9034 26.9899 20.9034C22.743 20.9034 19.3003 24.0891 19.3003 28.0188C19.3003 31.9486 22.743 35.1343 26.9899 35.1343Z" stroke="black" stroke-width="2.5" stroke-linecap="round" stroke-linejoin="round"/>
</g>
<defs>
<clipPath id="clip0_132_34">
<rect width="55" height="55" fill="white"/>
</clipPath>
</defs>
</svg>
