<svg viewBox="0 0 762 652" fill="none" xmlns="http://www.w3.org/2000/svg">
<path d="M253.469 217.443C226.848 305.967 273.301 388.368 305.841 433.304C338.382 478.241 423.852 530.538 514.57 519.608C574.019 512.447 583.785 479.713 593.994 445.492C599.365 427.492 604.857 409.08 617.769 393.761C626.314 383.623 637.03 373.844 648.068 363.771C685.416 329.688 726.466 292.228 699.678 226.037C682.096 182.592 644.969 172.104 603.123 160.283C562.37 148.77 517.143 135.995 481.137 90.2813C408.162 -2.36918 280.092 128.92 253.469 217.443Z" fill="#64FCD9"/>
<path d="M144.611 451.485C193.24 537.095 347.581 602.777 394.974 586.967C442.368 571.157 433.414 548.56 410.839 534.996C407.155 532.782 401.658 530.186 394.82 526.958C359.756 510.403 289.453 477.211 247.888 393.613C214.914 327.294 225.591 268.787 232.958 228.41C236.689 207.968 239.571 192.172 235.511 182.364C223.43 153.184 200.453 127.557 158.506 179.382C116.558 231.207 95.9845 365.874 144.611 451.485Z" fill="#64FCD9"/>
<g filter="url(#filter0_d_12_5)">
<path fill-rule="evenodd" clip-rule="evenodd" d="M458.066 309.356C456.751 309.647 456.195 311.332 456.631 312.588C457.067 313.845 458.163 314.749 459.21 315.586C460.54 316.649 462.744 315.249 462.82 313.564C462.895 311.879 461.513 310.434 459.969 309.704C459.376 309.423 458.708 309.213 458.066 309.356Z" fill="white"/>
</g>
<g filter="url(#filter1_d_12_5)">
<path fill-rule="evenodd" clip-rule="evenodd" d="M444.383 310.406C444.98 310.78 445.774 310.509 446.379 310.145C447.087 309.716 447.721 309.165 448.242 308.527C447.25 308.056 446.133 307.574 445.083 307.902C444.034 308.229 443.454 309.822 444.383 310.406Z" fill="white"/>
</g>
<g filter="url(#filter2_d_12_5)">
<path fill-rule="evenodd" clip-rule="evenodd" d="M127.64 509.298C127.64 509.298 111.749 499.466 111.432 509.298C111.115 519.129 100.435 532.069 89.5562 524.997C78.6774 517.924 92.0483 495.039 97.407 482.393C102.767 469.746 111.91 472.155 105.532 417.953C105.589 389.956 114.933 366.161 114.933 366.161C114.933 366.161 118.791 350.664 105.532 363.752C92.2723 376.84 94.615 378.224 85.455 378.224C76.2937 378.224 81.5477 360.211 91.5628 357.73C101.577 355.248 116.165 345.828 116.165 345.828C116.165 345.828 145.111 301.691 152.15 288.813C159.189 275.935 184.671 235.556 202.136 183.081C203.669 178.747 213.044 153.617 202.136 150.341C189.423 146.524 155.764 171.486 158.42 150.341C161.075 129.198 216.886 91.5207 222.01 83.1098C231.783 67.0687 259.888 89.0262 251.6 78.8303C249.787 76.5996 247.569 74.4063 244.895 72.2696C244.138 55.5708 262.715 47.1455 284.642 47.1455C304.104 47.1455 332.208 56.3175 328.844 75.3843C328.667 76.3925 339.56 72.0299 353.154 64.414C372.129 53.7821 392.27 32.4364 396.622 35.5777C396.076 37.8999 443.141 31.1754 442.326 33.4121C438.867 42.9033 422.156 67.1204 429.773 83.9746C432.695 90.439 459.775 93.9501 459.775 93.9501C459.775 93.9501 479.027 101.682 468.393 108.549C448.971 121.093 390.228 139.384 394.707 146.801C328.474 114.671 297.778 130.594 294.665 138.671C283.912 166.571 280.236 201.823 303.973 242.04C318.149 265.515 321.218 268.153 321.218 268.153L330.363 280.306C330.363 280.306 332.697 264.07 339.907 264.07C347.118 264.07 359.155 278.03 348.961 306.841C346.795 316.338 348.886 322.245 355.706 337.79C358.095 346.573 357.109 351.237 357.109 351.237C357.109 351.237 355.845 361.948 362.252 372.121C368.661 382.292 380.77 399.873 370.772 411.89C364.24 419.028 360.772 407.189 360.772 407.189C360.772 407.189 347.071 443.957 344.764 455.987C342.457 468.016 331.811 487.102 330.363 504.605C329.133 492.217 318.69 455.651 307.29 474.08C302.097 496.555 303.973 505.468 303.973 522.654C289.546 498.34 276.716 469.746 254.18 482.393C242.271 489.076 250.158 507.674 250.158 517.924C252.49 527.901 254.486 543.7 252.321 556.407C248.056 526.214 222.778 517.615 213.36 524.997C203.943 532.378 213.36 566.103 213.36 573.33C213.36 580.557 217.128 596.974 207.556 614.108C206.637 589.479 210.205 533.644 171.422 532.378C132.639 531.113 160.555 580.003 158.42 591.954C156.021 591.442 154.758 575.699 143.117 545.589C139.103 535.207 127.64 509.298 127.64 509.298Z" fill="white"/>
</g>
<g filter="url(#filter3_d_12_5)">
<path fill-rule="evenodd" clip-rule="evenodd" d="M604.308 372.06C602.955 366.735 594.322 366.825 591.217 371.359C588.11 375.895 589.175 382.058 591.135 387.191C591.57 388.329 592.044 389.464 592.519 390.6C594.187 394.586 595.862 398.593 595.849 402.868C591.767 402.484 587.89 400.286 585.47 396.982C585.611 401.062 586.652 405.106 588.497 408.749C576.045 405.966 568.423 390.315 573.924 378.825C578.154 369.991 570.939 359.63 562.436 354.749C558.974 352.762 555.246 351.246 551.526 349.734H551.524C546.103 347.53 540.7 345.333 536.165 341.697C529.692 336.506 525.817 329.098 521.927 321.659C520.015 318.006 518.1 314.345 515.872 310.935C502.334 290.226 475.37 279.241 451.179 284.582C446.657 285.579 442.111 282.107 440.296 277.855C438.482 273.603 438.728 268.796 439.013 264.183C439.846 250.775 441.253 236.186 450.545 226.467C458.861 217.771 471.69 215.068 483.73 214.755C501.994 214.281 520.36 218.352 536.705 226.501C540.718 228.502 545.821 226.548 548.719 223.13C551.617 219.712 552.787 215.189 553.683 210.802C555.316 202.806 556.357 194.589 557.398 186.378C559.868 166.879 562.333 147.417 572.71 131.033C580.678 118.455 592.692 108.911 605.447 101.205C632.01 85.1538 664.208 76.095 694.458 83.0881C682.877 86.9894 672.986 95.6508 667.606 106.604C696.655 96.8011 728.908 96.7312 758 106.409C739.172 114.436 721.162 126.271 710.552 143.745C698.451 163.676 697.508 187.852 696.591 211.381V211.386C696.472 214.449 696.353 217.5 696.209 220.531C694.966 246.84 690.076 275.739 669.676 292.451C662.803 298.081 660.362 307.756 661.281 316.582C662.201 325.408 665.981 333.647 669.709 341.704C672.333 347.375 675.144 353.283 680.14 357.045C685.138 360.809 693.021 361.548 697.252 356.944C700.766 353.123 707.595 358.612 706.649 363.712C705.702 368.812 700.761 372.027 696.268 374.633C700.518 374.412 704.984 374.231 708.796 376.116C712.607 378.001 715.376 382.709 713.616 386.574C712.782 388.408 711.127 389.713 709.531 390.944L696.158 401.269L710.959 416.829C712.491 418.44 714.077 420.141 714.67 422.281C715.899 426.705 712.223 431.288 707.863 432.751C703.502 434.216 698.744 433.404 694.218 432.577C698.389 438.064 702.404 446.394 697.313 451.042C693.977 454.087 689.297 453.115 684.545 452.129C680.094 451.204 675.58 450.267 672.055 452.608C674.413 460.646 674.694 470.198 669.159 476.494C663.625 482.79 650.969 482.079 648.735 474.007C641.223 482.624 631.913 489.674 621.575 494.573C616.588 496.938 608.55 497.377 607.588 491.951C607.202 489.776 608.348 487.652 609.454 485.737L623.364 461.635C611.907 470.83 597.681 476.544 583.036 477.834C578.09 478.27 571.342 476.547 571.527 471.597C571.591 469.893 572.571 468.374 573.554 466.978C579.378 458.705 586.499 451.2 593.589 443.727C606.412 430.21 619.136 416.799 623.906 399.144C625.534 393.112 625.948 386.114 622.14 381.155C615.999 373.154 603.602 375.225 593.919 378.09C595.486 374.067 600.03 371.43 604.308 372.06ZM443.265 267.487C442.721 268.397 442.763 269.529 442.823 270.587C442.955 272.96 443.26 275.662 445.197 277.043C448.461 274.837 448.862 269.466 445.961 266.802C445.179 266.084 443.808 266.575 443.265 267.487ZM452.183 275.957C453.247 276.317 454.08 277.283 454.28 278.386C454.325 278.636 454.34 278.894 454.289 279.143C454.208 279.532 453.96 279.883 453.62 280.089C452.949 280.496 452.037 280.286 451.434 279.783C450.832 279.281 450.475 278.549 450.177 277.824C450.057 277.535 449.943 277.23 449.972 276.919C450.057 275.999 451.305 275.659 452.183 275.957Z" fill="white"/>
</g>
<g filter="url(#filter4_d_12_5)">
<path fill-rule="evenodd" clip-rule="evenodd" d="M162.255 76.6358C109.625 84.6925 59.6708 109.344 21.2996 146.193C11.1323 155.958 1.04401 169.245 4.80426 182.82C11.2116 161.726 27.4214 144.988 44.9752 131.615C93.4526 94.6836 154.969 77.7451 215.864 74.4967C230.813 73.6993 249.435 75.9926 254.712 89.9765C257.015 96.082 255.911 103.04 253.236 108.992C244.267 128.945 221.227 137.269 200.446 144.779C199.678 145.056 198.911 145.333 198.15 145.609C138.152 167.355 81.6922 203.705 46.3393 256.757C43.984 260.293 41.6535 264.726 43.4647 268.566C79.7963 212.68 136.419 170.253 200.323 151.034C196.935 219.58 157.26 280.323 118.901 337.278C125.816 334.658 130.187 327.977 134.081 321.7L172.478 259.817C175.835 272.407 169.651 284.739 163.629 296.751C162.21 299.579 160.801 302.389 159.528 305.182C150.835 324.236 148.148 345.384 145.562 366.16C148.549 365.839 149.948 362.384 150.73 359.488L168.617 293.206C169.578 298.967 172.271 304.429 176.259 308.704C180.182 302.517 180.205 294.794 180.228 287.417V287.399L180.229 286.704C180.23 286.457 180.231 286.212 180.232 285.967C180.507 234.044 200.583 182.466 235.499 143.978C236.982 142.342 238.495 140.725 240.009 139.107V139.106C245.886 132.823 251.777 126.525 256.036 119.087C261.392 109.735 263.841 97.9345 259.305 88.159C258.599 86.6377 257.733 85.1731 256.867 83.7109C255.103 80.7274 253.345 77.7571 252.983 74.3581C252.336 68.2972 256.519 62.5422 261.795 59.4708C267.07 56.3994 273.282 55.4612 279.324 54.5807C289.09 53.157 299.308 51.7706 308.624 55.0203C317.941 58.2688 325.876 67.7564 323.832 77.3934C322.9 81.7909 320.119 85.5127 317.418 89.1286L317.196 89.4273L316.963 89.7393C283.494 134.665 268.495 192.894 276.105 248.365C279.969 233.471 281.549 217.989 280.775 202.625C292.434 228.534 306.931 253.171 323.925 275.951C325.727 268.151 321.138 260.467 316.951 253.639C298.25 223.133 283.52 186.595 293.214 152.163C294.86 146.319 297.275 140.531 301.442 136.109C313.228 123.605 333.709 126.352 349.962 131.97C379.474 142.171 406.763 158.73 429.421 180.186C418.64 159.272 399.303 143.488 377.637 134.243C355.972 124.999 332.072 121.907 308.512 122.191L330.218 86.1029C331.742 83.5699 333.357 80.9418 335.871 79.382C339.73 76.9887 344.673 77.6825 349.149 78.4582L480.971 101.295C439.725 78.0269 390.666 74.2365 343.402 70.9639C374.041 58.0038 400.735 35.9162 419.177 8.2675C420.993 5.54539 421.994 0.720275 418.799 0C398.181 30.1419 369.288 54.5855 336.12 69.9449C335.116 55.9971 320.434 47.0696 306.718 44.2258C293.724 41.5314 280.06 42.1156 267.345 45.9085C258.547 48.533 250.315 52.621 242.075 56.7126C235.27 60.0912 228.461 63.4721 221.326 66.0328C207.597 70.9591 193.061 72.7249 178.528 74.4894C173.089 75.1495 167.651 75.8107 162.255 76.6358ZM328.901 491.426C324.516 510.53 323.738 531.144 331.247 549.24C332.944 509.525 341.291 470.105 355.831 433.132L356.058 432.557V432.556C357.437 429.056 358.832 425.519 359.267 421.785C359.58 419.093 358.515 415.466 355.817 415.544C353.443 415.613 352.371 418.492 351.822 420.811C350.632 425.84 349.061 430.77 347.393 435.66C345.495 441.224 343.466 446.747 341.438 452.271L341.437 452.272C336.703 465.164 331.97 478.053 328.901 491.426ZM154.027 643.175L152.116 643.188C156.706 604.94 151.262 564.936 132.639 531.111C132.096 530.125 131.54 529.142 130.985 528.156C128.335 523.463 125.676 518.752 124.239 513.586C122.501 507.336 122.828 500.119 126.897 495.038C136.142 510.377 145.433 525.813 151.855 542.502C160.143 564.039 163.455 587.288 162.939 610.327C162.68 621.864 161.208 634.079 154.027 643.175ZM200.411 545.002C199.137 541.003 197.683 537.064 196.229 533.126L194.324 527.966L190.693 518.13C196.492 517.038 202.423 520.397 205.96 525.097C209.498 529.797 211.094 535.634 212.429 541.353C215.896 556.197 218.119 571.489 216.814 586.672C215.508 601.856 210.471 617.006 200.693 628.735C209.122 601.659 209.022 572.022 200.411 545.002ZM255.074 549.917C254.716 553.052 254.161 556.295 252.327 558.875C251.24 520.826 239.4 483.137 218.506 451.21C217.989 450.421 217.466 449.633 216.944 448.844C213.447 443.577 209.923 438.268 208.104 432.25C207.638 430.709 207.293 429.033 207.823 427.512C208.355 425.992 210.061 424.774 211.593 425.305C212.633 425.665 213.278 426.67 213.843 427.607C225.183 446.404 236.575 465.305 244.69 485.678C252.803 506.051 257.56 528.149 255.074 549.917ZM319.365 332.413C314.819 347.879 307.627 362.563 298.195 375.634C293.247 382.492 287.075 389.29 278.813 391.083C278.993 403.622 282.468 416.1 288.796 426.924C291.174 416.632 297.665 407.986 304.061 399.468C305.146 398.022 306.229 396.58 307.289 395.133C319.324 378.709 328.957 360.526 335.788 341.343C336.727 338.705 339.742 335.512 341.585 337.62C342.469 338.629 342.139 340.177 341.749 341.461C332.244 372.713 316.591 402.081 295.945 427.389C293.664 430.187 295.205 434.334 296.823 437.562L308.479 460.823C313.993 447.224 322.785 435.252 331.489 423.438L349.338 399.21C352.366 402.336 349.836 407.472 347.252 410.973C329.319 435.275 310.796 461.1 307.341 491.109C306.108 501.811 306.87 512.581 307.631 523.354C307.942 527.743 308.251 532.132 308.427 536.518C309.033 551.668 307.823 567.555 300.028 580.556L297.953 486.53C297.755 477.567 297.531 468.448 294.708 459.941C292.363 452.873 288.346 446.579 284.322 440.273V440.272C282.22 436.98 280.117 433.685 278.249 430.274C262.41 401.357 264.319 366.302 267.68 333.498C268.341 327.05 269.185 320.237 273.172 315.129C274.287 313.701 276.443 312.414 277.739 313.678C278.516 314.437 278.444 315.685 278.316 316.764L272.537 365.683C277.947 357.886 281.096 348.542 281.513 339.062C282.543 340.13 283.374 341.39 283.95 342.758C289.039 330.383 300.834 321.016 314.036 318.868C327.237 316.721 341.392 321.865 350.137 331.991L347.672 324.939C347.416 324.206 347.159 323.397 347.435 322.671C348.295 320.403 351.725 322.309 352.931 324.414C356.618 330.846 358.805 338.133 359.269 345.533C359.426 348.02 359.301 350.765 357.641 352.623C355.98 354.481 352.293 354.482 351.456 352.135C348.615 344.165 344.3 336.725 338.792 330.304C334.806 325.657 327.817 321.373 323.069 325.235C320.974 326.938 320.159 329.712 319.396 332.308L319.365 332.413ZM316.693 323.486C303.493 324.232 292.222 334.28 286.42 346.165C280.618 358.051 279.337 371.581 278.584 384.787C278.548 385.436 278.539 386.167 278.991 386.635C279.903 387.582 281.437 386.542 282.297 385.547C290.16 376.442 298.056 367.292 304.418 357.08C310.779 346.869 315.592 335.467 316.693 323.486ZM119.018 357.728C113.186 360.31 110.675 366.96 109.057 373.01C101.285 402.036 100.704 432.873 107.374 462.161C107.445 462.469 107.52 462.786 107.692 463.055C108.477 464.276 110.471 463.639 111.493 462.599C115.087 458.945 114.329 453.112 113.526 448.106C109.012 419.953 110.886 390.839 118.977 363.459C119.537 361.565 120.093 359.398 119.018 357.728ZM147.337 430.332C147.456 424.431 149.846 418.606 153.898 414.339C158.376 437.921 165.016 461.401 177.127 482.088C178.434 484.321 175.431 487.072 172.91 486.541C170.39 486.008 168.711 483.668 167.336 481.476C159.971 469.728 154.086 457.042 149.867 443.817C148.471 439.44 147.244 434.927 147.337 430.332ZM449.472 10.2886C449.106 9.14074 447.892 8.16633 446.725 8.49635C445.674 8.79386 445.149 9.92967 444.755 10.9402C437.684 29.0964 430.707 47.2888 423.828 65.5173C422.918 67.9275 422.591 71.5577 425.104 72.1925C427.115 72.6996 428.712 70.5604 429.641 68.7224C438.443 51.3274 445.07 32.852 449.323 13.8526C449.586 12.6771 449.838 11.4353 449.472 10.2886ZM154.89 85.8681C155.603 85.4441 156.836 85.2791 156.968 86.1066C154.407 87.5676 152.366 89.7416 150.323 91.9181C148.361 94.0079 146.398 96.1001 143.969 97.5623C143.391 97.0058 143.924 96.0423 144.457 95.4412C147.609 91.8916 150.829 88.2867 154.89 85.8681ZM190.693 81.986C189.748 81.6343 188.813 82.4775 188.137 83.2447L183.061 89.0129C182.417 89.7441 181.843 91.063 182.681 91.5399C186.083 89.1298 188.87 85.8054 190.693 81.986ZM161.786 91.3593C165.302 90.1572 168.303 87.6868 170.029 84.5781C171.144 82.5702 173.938 82.0969 176.346 81.915C176.709 81.8873 177.145 81.8921 177.35 82.174C177.692 82.6473 177.03 83.1773 176.5 83.4615C174.627 84.4661 173.275 86.0921 171.94 87.7013L171.938 87.7025H171.937V87.7037L171.936 87.7049V87.7061H171.935C171.671 88.0241 171.407 88.3421 171.14 88.654C169.52 90.5438 167.498 92.3903 164.932 92.7119C163.69 92.8673 162.183 92.4722 161.786 91.3593ZM173.834 91.77C173.792 92.2253 174.101 92.7432 174.549 92.7444L182.735 84.99C183.27 84.4829 183.798 83.5446 183.205 83.1086C179.847 84.984 176.852 87.5351 174.444 90.5727C174.162 90.9269 173.878 91.3159 173.834 91.77ZM186.509 359.03C187.239 360.058 187.975 361.096 188.448 362.264C188.832 363.21 189.036 364.217 189.237 365.217L191.409 375.995C191.733 377.603 192.058 379.252 191.811 380.874C191.526 382.749 189.827 384.734 188.042 384.11C186.803 383.678 186.262 382.253 185.879 380.994C183.312 372.564 180.953 364.07 178.805 355.523C178.702 355.111 178.598 354.682 178.675 354.263C178.887 353.125 180.383 352.642 181.46 353.057C182.538 353.473 183.269 354.466 183.939 355.41L186.509 359.03ZM157.507 89.3418C155.939 90.6414 154.453 92.0458 153.06 93.5442C152.319 94.3415 151.682 95.8291 152.619 96.3578C155.14 94.4018 157.417 92.106 159.377 89.5489C158.789 89.2237 158.027 88.9106 157.507 89.3418ZM203.09 81.2887C203.698 80.7563 204.828 80.3684 205.147 81.1116C203.198 83.276 201.375 85.5525 199.686 87.9265C198.858 87.6483 199.075 86.4101 199.511 85.6513C200.454 84.012 201.669 82.5317 203.09 81.2887ZM161.915 87.9265L166.604 85.2237C165.769 84.2794 164.25 84.0312 163.158 84.66C162.067 85.2899 161.519 86.7293 161.915 87.9265ZM138.292 91.2207C137.742 91.5207 137.097 91.6134 136.492 91.4809C136.48 89.7067 138.753 88.4697 140.105 89.514C139.619 90.1993 138.99 90.7727 138.278 91.181L138.292 91.2207ZM212.844 82.5606C212.418 83.0918 212.087 84.0011 212.748 84.2649C213.168 84.4311 213.622 84.1372 213.965 83.8614L217.722 80.8382C218.117 80.5202 218.552 80.0613 218.341 79.6205C216.17 78.9869 214.184 80.8791 212.844 82.5606ZM225.21 79.0423C224.862 79.6265 224.481 80.2408 223.851 80.5503C223.221 80.8587 222.275 80.6876 222.055 80.0517C221.908 79.6289 222.134 79.1592 222.47 78.8448C223.307 78.0619 224.852 78.1173 225.623 78.958L225.21 79.0423ZM119.632 103.807C119.591 104.334 120.073 104.917 120.579 104.764C120.827 104.689 120.999 104.471 121.154 104.264C121.852 103.339 122.501 101.894 121.592 101.176C121.188 101.597 120.791 102.024 120.398 102.455C120.043 102.845 119.673 103.28 119.632 103.807ZM196.934 80.2299C197.572 79.5627 198.919 79.0857 199.125 80.0071C197.157 82.8822 194.902 85.5405 192.41 87.9265C191.512 87.576 191.95 86.1511 192.547 85.3646C193.914 83.5675 195.38 81.8524 196.934 80.2299ZM126.309 98.7089C126.962 98.9414 127.899 98.4319 127.632 97.9357L127.617 97.8851C128.264 97.5165 128.19 96.6626 127.484 96.3578C126.803 96.5421 126.132 96.8408 125.811 97.319C125.489 97.796 125.657 98.4753 126.309 98.7089ZM209.666 80.7551C210.214 81.0321 209.91 81.9222 209.537 82.4353C208.415 83.9831 206.966 85.6922 205.147 85.5031C205.918 83.6699 207.184 82.0812 208.751 80.9803C209.025 80.7876 209.37 80.6045 209.666 80.7551ZM416.587 96.2868C417.315 96.5638 418.389 95.9772 418.054 95.4364L418.339 95.3629L418.325 93.9489C417.508 94.0115 416.66 94.244 416.202 94.7366C415.743 95.228 415.86 96.0109 416.587 96.2868ZM456.234 253.64C455.002 251.237 455.889 247.962 458.166 246.512C460.441 245.062 463.781 245.644 465.434 247.778C467.086 249.914 466.816 253.296 464.846 255.141C462.875 256.985 459.486 257.028 457.468 255.235C456.964 254.786 456.543 254.241 456.234 253.64ZM461.353 250.733C461.008 251.453 461.677 252.429 462.473 252.367C463.268 252.306 463.779 251.239 463.327 250.58C462.875 249.921 461.697 250.012 461.353 250.733ZM604.308 372.06C600.03 371.43 595.487 374.067 593.92 378.09C603.602 375.225 615.999 373.154 622.14 381.155C625.948 386.114 625.534 393.112 623.906 399.144C619.136 416.799 606.412 430.21 593.59 443.727C586.499 451.2 579.378 458.705 573.554 466.978C572.571 468.374 571.591 469.893 571.527 471.597C571.342 476.547 578.09 478.27 583.036 477.834C597.681 476.544 611.907 470.83 623.364 461.635L609.454 485.737C608.348 487.652 607.203 489.776 607.588 491.951C608.55 497.377 616.588 496.938 621.575 494.573C631.913 489.674 641.223 482.624 648.735 474.007C650.969 482.079 663.625 482.79 669.159 476.494C674.694 470.198 674.414 460.646 672.055 452.608C675.58 450.267 680.094 451.204 684.545 452.129C689.297 453.115 693.977 454.087 697.313 451.043C702.404 446.394 698.389 438.064 694.218 432.577C698.744 433.404 703.503 434.216 707.863 432.751C712.223 431.288 715.899 426.705 714.67 422.281C714.075 420.141 712.491 418.44 710.959 416.829L696.158 401.269L709.531 390.944C711.127 389.713 712.782 388.408 713.616 386.574C715.376 382.709 712.607 378.001 708.796 376.116C704.984 374.231 700.518 374.412 696.268 374.633C700.761 372.027 705.702 368.812 706.649 363.712C707.595 358.612 700.766 353.122 697.252 356.944C693.021 361.548 685.138 360.809 680.14 357.046C675.144 353.283 672.333 347.375 669.709 341.704C665.981 333.647 662.201 325.408 661.281 316.582C660.362 307.756 662.803 298.081 669.676 292.451C690.076 275.739 694.966 246.84 696.209 220.531C696.353 217.499 696.472 214.446 696.591 211.381C697.508 187.852 698.451 163.676 710.552 143.745C721.162 126.271 739.172 114.436 758 106.409C728.908 96.7312 696.655 96.8011 667.606 106.604C672.986 95.6508 682.877 86.9894 694.458 83.0882C664.208 76.095 632.01 85.1538 605.448 101.205C592.692 108.911 580.678 118.455 572.71 131.033C562.333 147.417 559.868 166.879 557.398 186.378C556.357 194.589 555.316 202.805 553.683 210.802C552.787 215.189 551.617 219.712 548.719 223.13C545.821 226.548 540.718 228.502 536.705 226.501C520.36 218.352 501.994 214.281 483.73 214.755C471.69 215.068 458.861 217.771 450.545 226.467C441.253 236.186 439.846 250.775 439.013 264.183C438.728 268.796 438.482 273.603 440.296 277.855C442.111 282.107 446.657 285.579 451.179 284.582C475.371 279.241 502.334 290.226 515.872 310.936C518.1 314.345 520.016 318.006 521.927 321.659C525.817 329.098 529.692 336.506 536.165 341.697C540.7 345.333 546.104 347.53 551.526 349.734C555.246 351.246 558.974 352.762 562.436 354.749C570.939 359.63 578.154 369.991 573.924 378.825C568.423 390.315 576.045 405.966 588.497 408.749C586.652 405.106 585.611 401.062 585.47 396.982C587.89 400.286 591.767 402.484 595.849 402.868C595.862 398.593 594.186 394.586 592.519 390.6C592.044 389.464 591.57 388.329 591.135 387.191C589.175 382.058 588.11 375.895 591.217 371.359C594.322 366.825 602.956 366.735 604.308 372.06ZM490.581 221.572C505.871 221.665 521.119 225.871 534.287 233.629C527.257 237.58 524.437 247.536 528.355 254.575C533.024 244.307 543.686 239.388 554.302 234.492C558.023 232.775 561.737 231.061 565.187 229.121C586.582 217.086 598.825 194.92 611.054 172.782C623.487 150.275 635.904 127.797 657.905 116.016C670.025 109.525 683.904 107.082 697.61 105.919C713.459 104.572 729.581 104.834 745.052 108.516C720.635 117.938 701.23 139.407 694.344 164.614C690.545 178.525 690.423 193.005 690.3 207.503C690.191 220.545 690.081 233.601 687.294 246.27C681.765 271.397 665.309 293.93 643.032 306.874C646.971 309.371 652.132 309.834 656.453 308.076C655.315 321.981 661.17 335.063 666.961 348.001C668.432 351.287 669.899 354.564 671.245 357.843C677.895 374.031 681.049 394.599 669.111 407.41L677.386 404.822C679.9 418.652 685.029 432.002 692.427 443.961C689.279 448.697 681.43 447.771 677.64 443.529C673.851 439.286 673.112 433.193 672.899 427.513C672.879 426.963 672.861 426.41 672.843 425.856C672.675 420.689 672.503 415.393 670.112 410.848L665.009 466.681C664.723 469.799 664.068 473.469 661.222 474.785C657.923 476.311 654.008 473.182 653.268 469.629C652.556 466.208 653.81 462.737 655.002 459.435L655.138 459.056C658.673 449.248 661.151 439.06 662.518 428.727C662.923 425.666 661.472 421.09 658.58 422.187C655.449 429.015 653.248 436.206 651.048 443.398C649.136 449.647 647.223 455.898 644.699 461.917C639.268 474.861 629.961 487.38 616.442 491.243C629.071 459.197 642.203 426.336 665.67 401.091C654.618 407.885 646.858 418.823 639.834 429.717C639.147 430.781 638.465 431.849 637.779 432.919C631.456 442.803 625.062 452.794 616.134 460.36C606.239 468.746 592.337 473.728 580.069 469.493C597.799 454.922 612.532 436.735 623.094 416.38C627.53 407.83 631.32 398.297 629.767 388.795C627.657 375.887 616.159 366.416 604.085 361.331C597.855 358.708 591.324 356.925 584.791 355.141C578.662 353.468 572.533 351.795 566.65 349.427C552.845 343.872 540.618 334.469 531.715 322.564C529.098 319.066 526.753 315.347 524.411 311.632C520.085 304.774 515.771 297.931 509.782 292.525C500.909 284.516 489.227 280.458 477.781 276.983C467.994 274.012 457.171 270.611 452.012 261.797C446.307 252.048 450.315 238.735 458.855 231.33C467.395 223.925 479.267 221.504 490.581 221.572ZM594.095 116.795C617.306 98.1742 646.607 87.2412 676.366 86.1005C671.926 87.0364 668.787 90.9786 666.62 94.9582C666.094 95.9254 665.596 96.9155 665.099 97.9068C663.549 100.996 661.995 104.091 659.543 106.491C657.083 108.898 653.932 110.395 650.802 111.882C650.121 112.205 649.441 112.529 648.769 112.86C635.276 119.527 624.23 130.44 615.56 142.724C606.891 155.01 600.435 168.694 594.369 182.446C594.165 182.905 593.963 183.365 593.761 183.825C590.354 191.564 586.922 199.362 581.911 206.167C576.603 213.377 569.251 219.485 560.504 221.447C563.575 196.039 568.409 170.842 574.956 146.098C576.144 141.611 577.403 137.098 579.561 132.987C582.953 126.52 588.396 121.369 594.095 116.795ZM690.623 426.753C689.959 426.269 689.633 425.461 689.338 424.696L682.097 405.904C680.661 402.178 679.224 397.988 680.785 394.312C681.271 393.169 682.863 392.096 683.59 393.104C691.366 403.887 700.225 413.893 709.992 422.922C710.608 423.49 710.344 424.59 709.689 425.113C709.032 425.635 708.147 425.739 707.312 425.822L693.669 427.189C692.624 427.294 691.471 427.372 690.623 426.753ZM583.401 374.577C582.184 373.512 580.497 375.273 580.009 376.812C578.082 382.903 579.22 389.588 581.515 395.55L581.558 395.663C582.632 398.454 583.881 401.7 582.283 404.213C580.564 403.168 579.527 401.309 578.719 399.471C575.5 392.146 574.731 383.773 576.564 375.987C577.329 372.74 578.925 369.203 582.116 368.209C582.713 368.022 582.814 367.145 582.453 366.633C582.107 366.142 581.516 365.903 580.955 365.676L580.885 365.648C577.324 364.202 574.146 361.831 571.752 358.829C571.505 358.52 571.253 358.143 571.348 357.76C571.528 357.037 572.58 357.123 573.28 357.376L592.81 364.424C592.209 365.52 591.011 365.947 589.787 366.383C589.003 366.661 588.208 366.944 587.554 367.41C584.963 369.254 585.364 373.144 586.045 376.248L590.555 396.815C583.718 391.997 580.652 382.466 583.401 374.577ZM705.095 383.775C706.06 384.028 707.065 384.302 707.802 384.971C705.139 387.06 702.332 388.964 699.406 390.668C696.778 392.2 693.746 393.613 690.79 392.886C688.713 392.374 687.001 390.844 685.833 389.054C684.664 387.264 683.97 385.215 683.303 383.185C682.984 382.209 682.675 381.108 683.143 380.195C683.951 378.62 686.24 378.836 687.955 379.285L705.095 383.775ZM693.06 369.986C692.113 370.796 691.098 371.617 689.875 371.867C688.418 372.165 686.927 371.598 685.599 370.925C684.055 370.141 682.592 369.196 681.24 368.112C680.731 367.704 680.196 367.008 680.576 366.478C680.775 366.199 681.147 366.12 681.486 366.063C686.941 365.152 692.515 364.954 698.022 365.479C696.414 367.031 694.759 368.534 693.06 369.986ZM443.265 267.487C443.809 266.575 445.179 266.084 445.961 266.802C448.861 269.466 448.461 274.837 445.197 277.043C443.26 275.662 442.955 272.96 442.823 270.587C442.764 269.529 442.721 268.397 443.265 267.487ZM454.28 278.386C454.325 278.636 454.34 278.894 454.289 279.143C454.208 279.532 453.96 279.883 453.62 280.089C452.949 280.496 452.037 280.286 451.434 279.783C450.832 279.281 450.475 278.549 450.177 277.824C450.059 277.535 449.943 277.23 449.972 276.919C450.057 275.999 451.305 275.659 452.183 275.957C453.247 276.317 454.08 277.283 454.28 278.386Z" fill="#00160A"/>
</g>
<g filter="url(#filter5_d_12_5)">
<path fill-rule="evenodd" clip-rule="evenodd" d="M284.641 272.304C284.666 268.532 284.131 264.782 283.597 261.049C283.316 259.086 282.875 256.867 281.202 255.841C279.45 254.765 277.072 255.577 275.641 257.062C274.458 258.29 273.74 259.869 273.027 261.437C272.877 261.767 272.726 262.098 272.572 262.423C268.049 271.993 259.53 278.878 251.29 285.418C246.6 289.142 244.136 295.548 245.102 301.508C246.068 307.469 250.423 312.739 256.042 314.744C259.31 315.91 263.118 315.962 266.078 314.135C268.471 312.657 270.043 310.161 271.511 307.742C278.12 296.854 284.555 285.088 284.641 272.304ZM273.254 291.137C271.451 299.357 265.232 306.436 257.387 309.197C256.806 309.401 256.168 309.583 255.583 309.389C254.416 309.001 254.171 307.457 254.181 306.212C254.288 291.605 261.581 277.233 273.237 268.654C273.753 268.276 274.497 267.914 274.965 268.352C275.28 268.644 275.271 269.141 275.238 269.573L274.111 284.204C273.932 286.527 273.753 288.861 273.254 291.137ZM179.88 458.284C176.877 456.168 175.264 452.622 174.128 449.142C168.472 431.813 171.825 411.838 182.839 397.272C185.612 393.605 190.308 389.963 194.405 392.078C196.971 393.403 198.021 396.452 198.736 399.236C201.635 410.516 202.826 422.195 202.733 433.837C202.678 440.732 202.041 448.023 198.024 453.645C194.007 459.268 185.541 462.273 179.88 458.284ZM187.792 452.446C191.158 452.735 193.417 449.132 194.555 445.972C199.882 431.18 198.963 414.276 192.064 400.14C191.527 399.039 190.84 397.855 189.663 397.49C187.665 396.873 185.926 398.945 184.958 400.788C177.618 414.74 176.58 431.819 182.178 446.547C183.194 449.224 184.923 452.199 187.792 452.446ZM88.3553 530.125C82.3618 525.843 81.5536 517.136 82.7798 509.823C84.7503 498.076 90.5655 487.039 99.0269 478.742C103.326 474.526 108.493 470.914 114.389 469.843C115.007 469.731 115.678 469.655 116.233 469.952C116.971 470.345 117.257 471.251 117.46 472.07C120.729 485.262 120.294 499.368 116.221 512.329C114.277 518.513 111.345 524.667 106.277 528.655C101.209 532.642 93.5995 533.872 88.3553 530.125ZM99.4232 524.477C100.816 523.785 101.825 522.509 102.715 521.224C110.337 510.218 112.444 496.051 111.013 482.697C110.857 481.247 110.626 479.711 109.688 478.601C108.751 477.49 106.862 477.082 105.879 478.152C97.7345 487.017 92.1734 498.275 90.0584 510.18C89.4369 513.682 89.1418 517.458 90.698 520.651C92.2553 523.845 96.2614 526.046 99.4232 524.477ZM183.31 312.715C190.403 315.003 197.53 317.444 203.855 321.37C210.179 325.298 215.714 330.881 218.243 337.851C220.771 344.821 219.846 353.257 214.807 358.718C209.766 364.18 200.419 365.608 194.622 360.946C192.822 359.497 191.445 357.601 190.131 355.704C186.058 349.832 182.346 343.713 179.022 337.393C175.946 331.544 173.131 325.114 173.986 318.57C174.345 315.83 175.717 312.829 178.404 312.119C180.019 311.691 181.72 312.202 183.31 312.715ZM182.541 322.558C182.792 333.096 187.415 343.465 195.099 350.733C197.625 353.123 200.616 355.25 204.064 355.765C207.513 356.281 211.455 354.764 212.822 351.577C214.084 348.632 212.916 345.248 211.503 342.371C207.498 334.211 201.478 327.035 194.12 321.651C191.677 319.863 188.895 318.213 185.862 318.267C185.086 318.282 184.276 318.425 183.67 318.906C182.629 319.731 182.51 321.236 182.541 322.558ZM124.874 421.47C128.29 425.492 134.188 427.542 139.142 425.703C145.38 423.388 148.209 416.263 149.673 409.793C152.15 398.835 152.778 387.463 151.52 376.301C151.311 374.444 149.218 373.263 147.349 373.397C145.479 373.532 143.827 374.62 142.325 375.738C136.29 380.228 131.061 385.793 126.96 392.088C124.081 396.508 121.726 401.385 121.03 406.607C120.334 411.83 121.459 417.45 124.874 421.47ZM142.973 407.932C141.884 410.639 139.996 412.939 138.072 415.137C136.01 417.494 133.292 420.001 130.203 419.446C127.599 418.978 125.831 416.337 125.547 413.716C125.263 411.094 126.142 408.496 127.096 406.036C131.042 395.866 136.57 386.224 144.006 378.221L144.286 396.797C144.343 400.559 144.379 404.439 142.973 407.932ZM374.611 414.004C372.254 416.427 368.97 418.688 365.73 417.726C363.332 417.013 361.772 414.743 360.547 412.561C352.753 398.674 350.661 381.16 357.151 366.619C357.94 364.852 359.1 362.94 361.003 362.599C363.766 362.107 365.75 365.119 366.898 367.682C370.699 376.176 374.231 384.793 377.484 393.512C379.004 397.586 380.483 401.977 379.452 406.201C378.717 409.211 376.771 411.783 374.611 414.004ZM361.668 377.067C360.775 377.628 360.731 378.891 360.789 379.945L361.679 395.911C361.934 400.494 362.509 405.7 366.205 408.417C366.953 408.968 367.909 409.394 368.795 409.115C370.107 408.702 370.511 407.066 370.631 405.695C371.517 395.479 368.183 384.983 361.668 377.067ZM205.907 517.711C207.633 518.477 209.451 519.257 211.332 519.11C213.357 518.952 215.151 517.738 216.632 516.343C220.174 513.002 222.519 508.119 221.914 503.277C221.425 499.355 219.06 495.831 215.985 493.362C212.909 490.893 209.167 489.388 205.365 488.362C199.01 486.646 192.322 486.181 185.791 487.001C183.483 487.291 181.05 487.813 179.389 489.447C177.361 491.445 177.01 494.723 177.914 497.427C178.818 500.132 180.773 502.351 182.871 504.273C189.461 510.311 197.745 514.092 205.907 517.711ZM217.789 507.057C217.826 508.73 217.186 510.475 215.861 511.491C214.431 512.59 212.483 512.691 210.688 512.556C200.914 511.824 191.856 504.986 188.443 495.765C187.905 494.311 188.931 492.646 190.318 491.962C191.704 491.278 193.326 491.333 194.867 491.465C199.005 491.814 203.151 492.608 206.936 494.326C210.72 496.045 214.14 498.746 216.258 502.331C217.11 503.772 217.752 505.382 217.789 507.057ZM97.3334 377.36C94.5101 379.963 90.8822 382.192 87.0532 381.765C82.3052 381.235 78.7917 376.464 78.6809 371.722C78.5701 366.979 81.2441 362.511 84.796 359.338C88.348 356.165 92.7239 354.078 97.0359 352.032L118.042 342.07C119.344 342.886 119.814 344.614 119.566 346.122C119.317 347.631 118.489 348.974 117.666 350.265C113.481 356.84 109.007 363.234 104.264 369.423C102.125 372.213 99.9206 374.974 97.3334 377.36ZM83.7168 370.897C83.4398 373.65 86.6244 375.757 89.3923 375.431C92.1602 375.105 94.4294 373.159 96.3927 371.194C102.478 365.108 107.485 357.962 111.115 350.181C101.295 353.549 92.4035 359.548 85.6344 367.373C84.743 368.402 83.8529 369.547 83.7168 370.897ZM349.401 265.095C346.067 261.84 340.879 260.296 336.657 262.199C331.161 264.677 329.21 271.676 329.208 277.803C329.203 292.152 336.722 306.281 348.524 314.094C349.452 314.709 350.771 314.213 351.449 313.321C352.128 312.428 352.329 311.263 352.508 310.149L353.881 301.664C355.166 293.717 356.453 285.601 355.186 277.651C354.446 273.006 352.733 268.351 349.401 265.095ZM334.024 277.336C334.011 275.204 334.739 273.074 336.049 271.412C336.836 270.416 337.847 269.574 339.036 269.166C341.711 268.246 344.75 269.769 346.4 272.106C348.05 274.442 348.577 277.405 348.806 280.275C349.367 287.298 348.399 294.445 345.99 301.051C345.823 301.506 345.575 302.024 345.105 302.106C344.537 302.203 344.113 301.6 343.844 301.078C341.027 295.607 338.397 290.035 335.96 284.375C334.993 282.127 334.039 279.791 334.024 277.336Z" fill="#FFB61D"/>
</g>
<g filter="url(#filter6_d_12_5)">
<path fill-rule="evenodd" clip-rule="evenodd" d="M432.727 277.685C433.67 276.999 434.639 276.3 435.761 275.982C436.883 275.664 438.209 275.8 439.035 276.622C439.852 277.433 440.002 278.689 440.019 279.84C440.036 281.079 439.508 282.734 438.273 282.613C433.835 285.376 429.022 287.538 424.009 289.02C422.778 289.384 421.698 287.803 422.005 286.557C422.311 285.313 423.42 284.456 424.457 283.702C427.214 281.696 429.971 279.691 432.727 277.685Z" fill="#FFB61D"/>
</g>
<g filter="url(#filter7_d_12_5)">
<path fill-rule="evenodd" clip-rule="evenodd" d="M443.412 315.887C442.538 316.169 441.73 316.646 440.83 316.832C437.699 317.479 434.851 314.036 435.236 310.912C435.623 307.786 438.268 305.342 441.159 303.993C444.048 302.645 447.256 302.123 450.284 301.111C451.44 300.726 452.649 300.205 453.283 299.178C453.792 298.354 453.844 297.341 453.839 296.376C453.819 292.662 453.168 288.952 451.922 285.446C452.607 283.706 455.444 284.006 456.59 285.491C457.737 286.976 457.789 288.98 458.138 290.813C459.062 295.66 462.255 299.728 464.704 304.031C467.152 308.333 468.899 313.656 466.754 318.112C466.345 318.961 465.796 319.759 465.061 320.36C462.063 322.816 457.524 321.181 454.21 319.158C450.896 317.134 447.118 314.694 443.412 315.887ZM458.066 309.354C456.751 309.647 456.195 311.332 456.631 312.588C457.067 313.845 458.162 314.748 459.21 315.585C460.54 316.649 462.744 315.248 462.82 313.564C462.895 311.879 461.513 310.432 459.969 309.702C459.376 309.423 458.708 309.212 458.066 309.354ZM444.383 310.403C444.98 310.779 445.774 310.508 446.379 310.142C447.088 309.713 447.721 309.164 448.242 308.524C447.25 308.054 446.133 307.573 445.083 307.901C444.034 308.227 443.454 309.821 444.383 310.403Z" fill="#FFB61D"/>
</g>
<defs>
<filter id="filter0_d_12_5" x="452.485" y="309.31" width="14.3379" height="14.646" filterUnits="userSpaceOnUse" color-interpolation-filters="sRGB">
<feFlood flood-opacity="0" result="BackgroundImageFix"/>
<feColorMatrix in="SourceAlpha" type="matrix" values="0 0 0 0 0 0 0 0 0 0 0 0 0 0 0 0 0 0 127 0" result="hardAlpha"/>
<feOffset dy="4"/>
<feGaussianBlur stdDeviation="2"/>
<feComposite in2="hardAlpha" operator="out"/>
<feColorMatrix type="matrix" values="0 0 0 0 0 0 0 0 0 0 0 0 0 0 0 0 0 0 0.25 0"/>
<feBlend mode="normal" in2="BackgroundImageFix" result="effect1_dropShadow_12_5"/>
<feBlend mode="normal" in="SourceGraphic" in2="effect1_dropShadow_12_5" result="shape"/>
</filter>
<filter id="filter1_d_12_5" x="439.918" y="307.794" width="12.3246" height="10.7916" filterUnits="userSpaceOnUse" color-interpolation-filters="sRGB">
<feFlood flood-opacity="0" result="BackgroundImageFix"/>
<feColorMatrix in="SourceAlpha" type="matrix" values="0 0 0 0 0 0 0 0 0 0 0 0 0 0 0 0 0 0 127 0" result="hardAlpha"/>
<feOffset dy="4"/>
<feGaussianBlur stdDeviation="2"/>
<feComposite in2="hardAlpha" operator="out"/>
<feColorMatrix type="matrix" values="0 0 0 0 0 0 0 0 0 0 0 0 0 0 0 0 0 0 0.25 0"/>
<feBlend mode="normal" in2="BackgroundImageFix" result="effect1_dropShadow_12_5"/>
<feBlend mode="normal" in="SourceGraphic" in2="effect1_dropShadow_12_5" result="shape"/>
</filter>
<filter id="filter2_d_12_5" x="76.715" y="32.9494" width="398.881" height="589.158" filterUnits="userSpaceOnUse" color-interpolation-filters="sRGB">
<feFlood flood-opacity="0" result="BackgroundImageFix"/>
<feColorMatrix in="SourceAlpha" type="matrix" values="0 0 0 0 0 0 0 0 0 0 0 0 0 0 0 0 0 0 127 0" result="hardAlpha"/>
<feOffset dy="4"/>
<feGaussianBlur stdDeviation="2"/>
<feComposite in2="hardAlpha" operator="out"/>
<feColorMatrix type="matrix" values="0 0 0 0 0 0 0 0 0 0 0 0 0 0 0 0 0 0 0.25 0"/>
<feBlend mode="normal" in2="BackgroundImageFix" result="effect1_dropShadow_12_5"/>
<feBlend mode="normal" in="SourceGraphic" in2="effect1_dropShadow_12_5" result="shape"/>
</filter>
<filter id="filter3_d_12_5" x="434.815" y="80.6997" width="327.185" height="423.543" filterUnits="userSpaceOnUse" color-interpolation-filters="sRGB">
<feFlood flood-opacity="0" result="BackgroundImageFix"/>
<feColorMatrix in="SourceAlpha" type="matrix" values="0 0 0 0 0 0 0 0 0 0 0 0 0 0 0 0 0 0 127 0" result="hardAlpha"/>
<feOffset dy="4"/>
<feGaussianBlur stdDeviation="2"/>
<feComposite in2="hardAlpha" operator="out"/>
<feColorMatrix type="matrix" values="0 0 0 0 0 0 0 0 0 0 0 0 0 0 0 0 0 0 0.25 0"/>
<feBlend mode="normal" in2="BackgroundImageFix" result="effect1_dropShadow_12_5"/>
<feBlend mode="normal" in="SourceGraphic" in2="effect1_dropShadow_12_5" result="shape"/>
</filter>
<filter id="filter4_d_12_5" x="0" y="0" width="762" height="651.188" filterUnits="userSpaceOnUse" color-interpolation-filters="sRGB">
<feFlood flood-opacity="0" result="BackgroundImageFix"/>
<feColorMatrix in="SourceAlpha" type="matrix" values="0 0 0 0 0 0 0 0 0 0 0 0 0 0 0 0 0 0 127 0" result="hardAlpha"/>
<feOffset dy="4"/>
<feGaussianBlur stdDeviation="2"/>
<feComposite in2="hardAlpha" operator="out"/>
<feColorMatrix type="matrix" values="0 0 0 0 0 0 0 0 0 0 0 0 0 0 0 0 0 0 0.25 0"/>
<feBlend mode="normal" in2="BackgroundImageFix" result="effect1_dropShadow_12_5"/>
<feBlend mode="normal" in="SourceGraphic" in2="effect1_dropShadow_12_5" result="shape"/>
</filter>
<filter id="filter5_d_12_5" x="74.6776" y="255.348" width="309.118" height="285.029" filterUnits="userSpaceOnUse" color-interpolation-filters="sRGB">
<feFlood flood-opacity="0" result="BackgroundImageFix"/>
<feColorMatrix in="SourceAlpha" type="matrix" values="0 0 0 0 0 0 0 0 0 0 0 0 0 0 0 0 0 0 127 0" result="hardAlpha"/>
<feOffset dy="4"/>
<feGaussianBlur stdDeviation="2"/>
<feComposite in2="hardAlpha" operator="out"/>
<feColorMatrix type="matrix" values="0 0 0 0 0 0 0 0 0 0 0 0 0 0 0 0 0 0 0.25 0"/>
<feBlend mode="normal" in2="BackgroundImageFix" result="effect1_dropShadow_12_5"/>
<feBlend mode="normal" in="SourceGraphic" in2="effect1_dropShadow_12_5" result="shape"/>
</filter>
<filter id="filter6_d_12_5" x="417.952" y="275.824" width="26.0673" height="21.2497" filterUnits="userSpaceOnUse" color-interpolation-filters="sRGB">
<feFlood flood-opacity="0" result="BackgroundImageFix"/>
<feColorMatrix in="SourceAlpha" type="matrix" values="0 0 0 0 0 0 0 0 0 0 0 0 0 0 0 0 0 0 127 0" result="hardAlpha"/>
<feOffset dy="4"/>
<feGaussianBlur stdDeviation="2"/>
<feComposite in2="hardAlpha" operator="out"/>
<feColorMatrix type="matrix" values="0 0 0 0 0 0 0 0 0 0 0 0 0 0 0 0 0 0 0.25 0"/>
<feBlend mode="normal" in2="BackgroundImageFix" result="effect1_dropShadow_12_5"/>
<feBlend mode="normal" in="SourceGraphic" in2="effect1_dropShadow_12_5" result="shape"/>
</filter>
<filter id="filter7_d_12_5" x="431.201" y="284.256" width="40.521" height="45.3385" filterUnits="userSpaceOnUse" color-interpolation-filters="sRGB">
<feFlood flood-opacity="0" result="BackgroundImageFix"/>
<feColorMatrix in="SourceAlpha" type="matrix" values="0 0 0 0 0 0 0 0 0 0 0 0 0 0 0 0 0 0 127 0" result="hardAlpha"/>
<feOffset dy="4"/>
<feGaussianBlur stdDeviation="2"/>
<feComposite in2="hardAlpha" operator="out"/>
<feColorMatrix type="matrix" values="0 0 0 0 0 0 0 0 0 0 0 0 0 0 0 0 0 0 0.25 0"/>
<feBlend mode="normal" in2="BackgroundImageFix" result="effect1_dropShadow_12_5"/>
<feBlend mode="normal" in="SourceGraphic" in2="effect1_dropShadow_12_5" result="shape"/>
</filter>
</defs>
</svg>
