<svg viewBox="0 0 668 671" fill="none" xmlns="http://www.w3.org/2000/svg">
<g opacity="0.4">
<g filter="url(#filter0_d_3_397)">
<path d="M173.985 573.611L203.447 603.074C205.133 604.811 207.256 606.062 209.593 606.694C211.929 607.327 214.393 607.319 216.726 606.67L256.977 595.881C259.298 595.259 261.415 594.036 263.115 592.337C264.815 590.637 266.037 588.52 266.659 586.199L277.448 545.948C278.693 541.106 277.448 536.127 273.852 532.531L244.528 503.207C241.9 500.579 238.303 499.057 234.707 499.057C233.462 499.057 232.356 499.196 231.111 499.61L190.86 510.261C186.157 511.644 182.422 515.379 181.177 520.082L170.389 560.333C169.144 565.036 170.527 570.153 173.985 573.611ZM205.798 535.02L230.558 528.381L248.677 546.501L242.038 571.26L217.279 577.899L199.159 559.78L205.798 535.02Z" fill="#0096E6"/>
</g>
<g filter="url(#filter1_d_3_397)">
<path d="M173.985 573.611L203.447 603.074C205.133 604.811 207.256 606.062 209.593 606.694C211.929 607.327 214.393 607.319 216.726 606.67L256.977 595.881C259.298 595.259 261.415 594.036 263.115 592.337C264.815 590.637 266.037 588.52 266.659 586.199L277.448 545.948C278.693 541.106 277.448 536.127 273.852 532.531L244.528 503.207C241.9 500.579 238.303 499.057 234.707 499.057C233.462 499.057 232.356 499.196 231.111 499.61L190.86 510.261C186.157 511.644 182.422 515.379 181.177 520.082L170.389 560.333C169.144 565.036 170.527 570.153 173.985 573.611ZM205.798 535.02L230.558 528.381L248.677 546.501L242.038 571.26L217.279 577.899L199.159 559.78L205.798 535.02Z" fill="#0096E6"/>
</g>
<g filter="url(#filter2_d_3_397)">
<path d="M173.985 573.611L203.447 603.074C205.133 604.811 207.256 606.062 209.593 606.694C211.929 607.327 214.393 607.319 216.726 606.67L256.977 595.881C259.298 595.259 261.415 594.036 263.115 592.337C264.815 590.637 266.037 588.52 266.659 586.199L277.448 545.948C278.693 541.106 277.448 536.127 273.852 532.531L244.528 503.207C241.9 500.579 238.303 499.057 234.707 499.057C233.462 499.057 232.356 499.196 231.111 499.61L190.86 510.261C186.157 511.644 182.422 515.379 181.177 520.082L170.389 560.333C169.144 565.036 170.527 570.153 173.985 573.611ZM205.798 535.02L230.558 528.381L248.677 546.501L242.038 571.26L217.279 577.899L199.159 559.78L205.798 535.02Z" fill="#0096E6"/>
</g>
<g filter="url(#filter3_d_3_397)">
<path d="M146.321 630.737C156.507 640.93 168.605 649.011 181.921 654.518C195.237 660.025 209.509 662.848 223.918 662.828C253.242 662.828 280.768 651.347 301.516 630.737C333.606 598.509 342.458 551.342 325.03 510.399L515.081 320.21C528.636 325.881 543.16 328.924 557.96 328.924C587.146 328.924 614.671 317.443 635.419 296.834C650.194 282.221 660.47 263.679 665.03 243.405C669.59 223.131 668.242 201.975 661.147 182.443C659.487 177.879 655.752 174.559 651.049 173.591C646.485 172.484 641.644 174.006 638.324 177.326L578.985 236.665L540.394 198.074L599.733 138.734C603.052 135.415 604.436 130.574 603.467 126.009C602.361 121.306 599.041 117.572 594.615 115.912C582.719 111.624 570.271 109.549 557.684 109.549C528.498 109.549 500.973 120.891 480.225 141.639C448.688 173.314 439.697 221.45 456.849 261.839L266.659 452.028C253.242 446.357 238.58 443.453 223.918 443.453C194.595 443.453 167.069 454.795 146.321 475.543C125.711 496.291 114.231 523.816 114.231 553.14C114.231 582.464 125.573 609.989 146.321 630.737ZM165.962 495.046C173.561 487.423 182.595 481.383 192.543 477.276C202.492 473.168 213.156 471.075 223.918 471.117C237.474 471.117 251.029 474.436 262.924 480.937C265.537 482.349 268.535 482.883 271.474 482.46C274.413 482.036 277.139 480.678 279.246 478.586L483.406 274.564C487.694 270.138 488.662 263.499 485.757 258.104C468.467 226.567 474.277 186.731 499.866 161.281C507.965 153.125 517.698 146.776 528.426 142.652C539.154 138.528 550.634 136.721 562.11 137.351L511.07 188.391C509.788 189.671 508.77 191.191 508.076 192.864C507.382 194.537 507.025 196.331 507.025 198.143C507.025 199.954 507.382 201.748 508.076 203.421C508.77 205.095 509.788 206.615 511.07 207.894L569.164 265.989C570.444 267.271 571.964 268.288 573.637 268.982C575.31 269.676 577.104 270.034 578.916 270.034C580.727 270.034 582.521 269.676 584.194 268.982C585.868 268.288 587.388 267.271 588.667 265.989L639.845 214.949C641.09 237.771 632.791 260.317 615.778 277.192C603.352 289.726 587.188 297.88 569.723 300.425C552.259 302.97 534.44 299.768 518.954 291.301C513.56 288.396 506.92 289.365 502.494 293.652L298.473 497.674C294.185 502.1 293.216 508.739 296.121 514.134C304.634 529.641 307.848 547.505 305.277 565.007C302.705 582.509 294.488 598.693 281.874 611.096C274.283 618.737 265.252 624.799 255.305 628.93C245.357 633.061 234.69 635.179 223.918 635.164C202.064 635.164 181.454 626.588 165.962 611.096C158.321 603.505 152.26 594.474 148.129 584.527C143.998 574.579 141.879 563.911 141.895 553.14C141.865 542.346 143.977 531.654 148.108 521.682C152.24 511.71 158.308 502.656 165.962 495.046Z" fill="#0096E6"/>
</g>
<g filter="url(#filter4_d_3_397)">
<path d="M165.962 611.096C173.554 618.737 182.584 624.799 192.532 628.93C202.48 633.061 213.147 635.179 223.918 635.163C245.773 635.163 266.383 626.588 281.874 611.096C294.488 598.692 302.705 582.509 305.277 565.007C307.848 547.505 304.634 529.641 296.121 514.134C293.217 508.739 294.185 502.1 298.473 497.674L502.494 293.652C506.92 289.364 513.56 288.396 518.954 291.301C534.44 299.767 552.259 302.97 569.723 300.425C587.188 297.88 603.352 289.726 615.778 277.192C623.981 269.122 630.37 259.397 634.52 248.664C638.67 237.931 640.485 226.438 639.846 214.948L588.667 265.988C587.388 267.271 585.868 268.288 584.194 268.982C582.521 269.676 580.727 270.033 578.916 270.033C577.104 270.033 575.31 269.676 573.637 268.982C571.964 268.288 570.444 267.271 569.164 265.988L511.07 207.894C505.675 202.5 505.675 193.786 511.07 188.391L562.11 137.351C539.011 136.106 516.326 144.682 499.866 161.28C474.277 186.731 468.467 226.567 485.757 258.104C488.662 263.499 487.694 270.138 483.406 274.564L279.246 478.586C277.139 480.678 274.414 482.036 271.474 482.46C268.535 482.883 265.537 482.349 262.925 480.937C251.029 474.436 237.474 471.116 223.918 471.116C202.064 471.116 181.454 479.554 165.962 495.046C158.308 502.656 152.24 511.71 148.108 521.682C143.977 531.654 141.865 542.346 141.895 553.14C141.895 574.994 150.471 595.604 165.962 611.096ZM170.389 560.333L181.178 520.082C182.422 515.379 186.157 511.644 190.86 510.261L231.111 499.61C232.356 499.195 233.462 499.057 234.707 499.057C238.304 499.057 241.9 500.578 244.528 503.207L273.852 532.53C275.584 534.249 276.829 536.397 277.46 538.754C278.092 541.11 278.088 543.593 277.448 545.947L266.659 586.198C266.037 588.52 264.815 590.637 263.115 592.337C261.415 594.036 259.298 595.259 256.977 595.881L216.726 606.67C211.885 608.053 206.905 606.531 203.447 603.073L173.985 573.611C170.527 570.153 169.144 565.035 170.389 560.333Z" fill="#D0E8F9"/>
</g>
<g filter="url(#filter5_d_3_397)">
<path d="M166.101 213.565L178.964 226.429L198.468 245.932L208.565 256.168C224.057 271.66 251.029 271.66 266.659 256.168L412.033 110.656C420.204 102.442 424.791 91.3271 424.791 79.7411C424.791 68.1551 420.204 57.0404 412.033 48.8267L376.07 12.8636C367.771 4.56439 356.844 -0.000152588 345.225 -0.000152588C333.467 -0.000152588 322.54 4.56439 314.241 12.8636L166.101 161.004C159.046 168.058 155.173 177.464 155.173 187.285C155.173 197.244 159.046 206.649 166.101 213.565ZM185.604 180.645L333.882 32.3666C339.83 26.4189 350.342 26.2806 356.429 32.3666L392.53 68.4681C398.754 74.6925 398.754 84.7897 392.53 91.0141L247.018 236.526C244.528 239.016 241.208 240.538 237.612 240.538C234.016 240.538 230.696 239.016 228.068 236.526L185.604 194.062C183.806 192.264 182.837 189.913 182.837 187.285C182.837 184.795 183.806 182.443 185.604 180.645Z" fill="#0096E6"/>
</g>
<g filter="url(#filter6_d_3_397)">
<path d="M182.837 187.285C182.837 184.795 183.806 182.443 185.604 180.645L333.882 32.3666C339.83 26.4188 350.342 26.2805 356.429 32.3666L392.53 68.468C398.754 74.6924 398.754 84.7897 392.53 91.0141L247.018 236.526C244.528 239.016 241.208 240.538 237.612 240.538C234.016 240.538 230.696 239.016 228.068 236.526L185.604 194.062C183.806 192.264 182.837 189.913 182.837 187.285Z" fill="white"/>
</g>
<g filter="url(#filter7_d_3_397)">
<path d="M198.44 212.639C201.175 212.639 203.849 213.451 206.123 214.971C208.397 216.491 210.169 218.651 211.216 221.178C212.263 223.705 212.537 226.486 212.003 229.168C211.47 231.851 210.153 234.315 208.219 236.25L27.7811 416.688C26.5052 418.009 24.9789 419.063 23.2913 419.788C21.6038 420.513 19.7888 420.894 17.9522 420.91C16.1156 420.926 14.2942 420.576 12.5943 419.881C10.8944 419.185 9.35001 418.158 8.05128 416.859C6.75256 415.561 5.72551 414.016 5.03003 412.316C4.33453 410.616 3.98457 408.795 4.00053 406.958C4.01649 405.122 4.39807 403.307 5.123 401.619C5.84792 399.932 6.90161 398.405 8.22272 397.129L188.661 216.692C189.943 215.405 191.468 214.385 193.146 213.689C194.824 212.994 196.623 212.637 198.44 212.639Z" fill="#0096E6"/>
</g>
</g>
<defs>
<filter id="filter0_d_3_397" x="165.939" y="499.057" width="115.978" height="116.106" filterUnits="userSpaceOnUse" color-interpolation-filters="sRGB">
<feFlood flood-opacity="0" result="BackgroundImageFix"/>
<feColorMatrix in="SourceAlpha" type="matrix" values="0 0 0 0 0 0 0 0 0 0 0 0 0 0 0 0 0 0 127 0" result="hardAlpha"/>
<feOffset dy="4"/>
<feGaussianBlur stdDeviation="2"/>
<feComposite in2="hardAlpha" operator="out"/>
<feColorMatrix type="matrix" values="0 0 0 0 0 0 0 0 0 0 0 0 0 0 0 0 0 0 0.25 0"/>
<feBlend mode="normal" in2="BackgroundImageFix" result="effect1_dropShadow_3_397"/>
<feBlend mode="normal" in="SourceGraphic" in2="effect1_dropShadow_3_397" result="shape"/>
</filter>
<filter id="filter1_d_3_397" x="165.939" y="499.057" width="115.978" height="116.106" filterUnits="userSpaceOnUse" color-interpolation-filters="sRGB">
<feFlood flood-opacity="0" result="BackgroundImageFix"/>
<feColorMatrix in="SourceAlpha" type="matrix" values="0 0 0 0 0 0 0 0 0 0 0 0 0 0 0 0 0 0 127 0" result="hardAlpha"/>
<feOffset dy="4"/>
<feGaussianBlur stdDeviation="2"/>
<feComposite in2="hardAlpha" operator="out"/>
<feColorMatrix type="matrix" values="0 0 0 0 0 0 0 0 0 0 0 0 0 0 0 0 0 0 0.25 0"/>
<feBlend mode="normal" in2="BackgroundImageFix" result="effect1_dropShadow_3_397"/>
<feBlend mode="normal" in="SourceGraphic" in2="effect1_dropShadow_3_397" result="shape"/>
</filter>
<filter id="filter2_d_3_397" x="165.939" y="499.057" width="115.978" height="116.106" filterUnits="userSpaceOnUse" color-interpolation-filters="sRGB">
<feFlood flood-opacity="0" result="BackgroundImageFix"/>
<feColorMatrix in="SourceAlpha" type="matrix" values="0 0 0 0 0 0 0 0 0 0 0 0 0 0 0 0 0 0 127 0" result="hardAlpha"/>
<feOffset dy="4"/>
<feGaussianBlur stdDeviation="2"/>
<feComposite in2="hardAlpha" operator="out"/>
<feColorMatrix type="matrix" values="0 0 0 0 0 0 0 0 0 0 0 0 0 0 0 0 0 0 0.25 0"/>
<feBlend mode="normal" in2="BackgroundImageFix" result="effect1_dropShadow_3_397"/>
<feBlend mode="normal" in="SourceGraphic" in2="effect1_dropShadow_3_397" result="shape"/>
</filter>
<filter id="filter3_d_3_397" x="110.231" y="109.549" width="561.448" height="561.279" filterUnits="userSpaceOnUse" color-interpolation-filters="sRGB">
<feFlood flood-opacity="0" result="BackgroundImageFix"/>
<feColorMatrix in="SourceAlpha" type="matrix" values="0 0 0 0 0 0 0 0 0 0 0 0 0 0 0 0 0 0 127 0" result="hardAlpha"/>
<feOffset dy="4"/>
<feGaussianBlur stdDeviation="2"/>
<feComposite in2="hardAlpha" operator="out"/>
<feColorMatrix type="matrix" values="0 0 0 0 0 0 0 0 0 0 0 0 0 0 0 0 0 0 0.25 0"/>
<feBlend mode="normal" in2="BackgroundImageFix" result="effect1_dropShadow_3_397"/>
<feBlend mode="normal" in="SourceGraphic" in2="effect1_dropShadow_3_397" result="shape"/>
</filter>
<filter id="filter4_d_3_397" x="137.895" y="137.232" width="506.076" height="505.931" filterUnits="userSpaceOnUse" color-interpolation-filters="sRGB">
<feFlood flood-opacity="0" result="BackgroundImageFix"/>
<feColorMatrix in="SourceAlpha" type="matrix" values="0 0 0 0 0 0 0 0 0 0 0 0 0 0 0 0 0 0 127 0" result="hardAlpha"/>
<feOffset dy="4"/>
<feGaussianBlur stdDeviation="2"/>
<feComposite in2="hardAlpha" operator="out"/>
<feColorMatrix type="matrix" values="0 0 0 0 0 0 0 0 0 0 0 0 0 0 0 0 0 0 0.25 0"/>
<feBlend mode="normal" in2="BackgroundImageFix" result="effect1_dropShadow_3_397"/>
<feBlend mode="normal" in="SourceGraphic" in2="effect1_dropShadow_3_397" result="shape"/>
</filter>
<filter id="filter5_d_3_397" x="151.173" y="-0.00012207" width="277.618" height="275.787" filterUnits="userSpaceOnUse" color-interpolation-filters="sRGB">
<feFlood flood-opacity="0" result="BackgroundImageFix"/>
<feColorMatrix in="SourceAlpha" type="matrix" values="0 0 0 0 0 0 0 0 0 0 0 0 0 0 0 0 0 0 127 0" result="hardAlpha"/>
<feOffset dy="4"/>
<feGaussianBlur stdDeviation="2"/>
<feComposite in2="hardAlpha" operator="out"/>
<feColorMatrix type="matrix" values="0 0 0 0 0 0 0 0 0 0 0 0 0 0 0 0 0 0 0.25 0"/>
<feBlend mode="normal" in2="BackgroundImageFix" result="effect1_dropShadow_3_397"/>
<feBlend mode="normal" in="SourceGraphic" in2="effect1_dropShadow_3_397" result="shape"/>
</filter>
<filter id="filter6_d_3_397" x="178.837" y="27.8538" width="222.361" height="220.684" filterUnits="userSpaceOnUse" color-interpolation-filters="sRGB">
<feFlood flood-opacity="0" result="BackgroundImageFix"/>
<feColorMatrix in="SourceAlpha" type="matrix" values="0 0 0 0 0 0 0 0 0 0 0 0 0 0 0 0 0 0 127 0" result="hardAlpha"/>
<feOffset dy="4"/>
<feGaussianBlur stdDeviation="2"/>
<feComposite in2="hardAlpha" operator="out"/>
<feColorMatrix type="matrix" values="0 0 0 0 0 0 0 0 0 0 0 0 0 0 0 0 0 0 0.25 0"/>
<feBlend mode="normal" in2="BackgroundImageFix" result="effect1_dropShadow_3_397"/>
<feBlend mode="normal" in="SourceGraphic" in2="effect1_dropShadow_3_397" result="shape"/>
</filter>
<filter id="filter7_d_3_397" x="0" y="212.639" width="216.269" height="216.272" filterUnits="userSpaceOnUse" color-interpolation-filters="sRGB">
<feFlood flood-opacity="0" result="BackgroundImageFix"/>
<feColorMatrix in="SourceAlpha" type="matrix" values="0 0 0 0 0 0 0 0 0 0 0 0 0 0 0 0 0 0 127 0" result="hardAlpha"/>
<feOffset dy="4"/>
<feGaussianBlur stdDeviation="2"/>
<feComposite in2="hardAlpha" operator="out"/>
<feColorMatrix type="matrix" values="0 0 0 0 0 0 0 0 0 0 0 0 0 0 0 0 0 0 0.25 0"/>
<feBlend mode="normal" in2="BackgroundImageFix" result="effect1_dropShadow_3_397"/>
<feBlend mode="normal" in="SourceGraphic" in2="effect1_dropShadow_3_397" result="shape"/>
</filter>
</defs>
</svg>
