<svg width="56" height="80" viewBox="0 0 56 80" fill="none" xmlns="http://www.w3.org/2000/svg">
<path d="M28 0H0V16H30C31.1046 16 32 16.8954 32 18V20H48C48 8.9543 39.0456 0 28 0ZM52 24H28V32H52V24Z" fill="#F93059"/>
<path fill-rule="evenodd" clip-rule="evenodd" d="M56 64C56 72.8366 48.8366 80 40 80C31.1634 80 24 72.8366 24 64C24 50 40 36 40 36C40 36 56 50 56 64ZM32.0754 60.4358C30.9708 60.449 30.065 59.5642 30.0518 58.4596C30.0102 54.9338 32.8348 52.0418 36.3606 52C37.4652 51.987 38.3712 52.8718 38.3842 53.9764C38.3972 55.0808 37.5124 55.9868 36.408 55.9998C35.091 56.0154 34.036 57.0956 34.0516 58.4124C34.0646 59.517 33.1798 60.4228 32.0754 60.4358ZM44 54C42.8954 54 42 54.8954 42 56C42 57.1046 42.8954 58 44 58C45.1046 58 46 58.8954 46 60C46 61.1046 46.8954 62 48 62C49.1046 62 50 61.1046 50 60C50 56.6862 47.3138 54 44 54ZM39.1762 69.8538C39.413 70.9328 38.7304 71.9994 37.6514 72.2362C34.2074 72.9922 30.8024 70.8132 30.0464 67.369C29.8096 66.2902 30.4922 65.2236 31.571 64.9866C32.65 64.7498 33.7166 65.4324 33.9534 66.5114C34.2358 67.7978 35.5074 68.6116 36.7938 68.3292C37.8728 68.0924 38.9394 68.775 39.1762 69.8538ZM48 70C49.1046 70 50 69.1046 50 68C50 66.8954 49.1046 66 48 66C46.8954 66 46 66.8954 46 68C46 69.1046 46.8954 70 48 70ZM44 48C44 49.1046 43.1046 50 42 50C40.8954 50 40 49.1046 40 48C40 46.8954 40.8954 46 42 46C43.1046 46 44 46.8954 44 48ZM40 64C41.1046 64 42 63.1046 42 62C42 60.8954 41.1046 60 40 60C38.8954 60 38 60.8954 38 62C38 63.1046 38.8954 64 40 64Z" fill="#F93059"/>
</svg>
