<svg width="72" height="72" viewBox="0 0 72 72" fill="none" xmlns="http://www.w3.org/2000/svg">
<path d="M11.9754 5C11.9754 7.76142 9.737 10 6.97548 10C4.21406 10 1.97548 7.76142 1.97548 5C1.97548 2.23858 4.21406 0 6.97548 0C9.737 0 11.9754 2.23858 11.9754 5ZM15.9754 5.00006C15.9754 7.02254 15.3084 8.8892 14.1822 10.392C19.4448 12.0964 24.722 14.215 28.2026 17.9968C28.401 18.2124 28.7406 18.2238 28.9498 18.0186C30.5954 16.4032 32.439 14.9908 34.4392 13.8202C34.7094 13.662 34.777 13.2982 34.5704 13.0632C29.8716 7.72054 23.0318 5.42262 15.8872 3.73486C15.9454 4.14824 15.9754 4.57064 15.9754 5.00006ZM9.439 13.6586C8.656 13.881 7.82968 14 6.97548 14C5.18796 14 3.52216 13.479 2.12172 12.5804L0.169962 34.9048L0.00506226 39.5824C-0.141798 43.7404 2.92318 47.317 7.05474 47.8086L7.41596 47.8516C10.5938 48.2298 13.6912 46.6778 15.2906 43.9058L19.6828 36.2936C19.9026 35.9126 19.559 35.454 19.1318 35.5578L15.5832 36.4198C15.534 36.4318 15.4832 36.4362 15.4326 36.433L10.1002 36.0864L6.6402 35.6746C6.35992 35.6414 6.1628 35.3828 6.20488 35.1036L9.439 13.6586Z" fill="#F93059"/>
<path fill-rule="evenodd" clip-rule="evenodd" d="M50.2038 14C37.4662 14 26.9474 23.9508 26.2408 36.6688L25.6174 47.889C25.5538 49.0354 26.4662 50 27.6144 50H70.9134C71.4984 50 71.9584 49.5 71.9098 48.917L70.7294 34.7508C70.5998 33.196 69.3 32 67.7398 32H60.0872C60.0372 32 59.995 31.9632 59.9882 31.9138L57.9792 17.4498C57.7046 15.4722 56.0138 14 54.0172 14H50.2038ZM51.0644 22.431C51.0282 21.9066 50.5914 21.4968 50.0666 21.5234C41.5338 21.956 34.6786 28.2964 34.152 36.992L34.0818 38.1496C34.0412 38.8208 34.6612 39.34 35.3148 39.1822L46.9248 36.3776C47.6664 36.1276 48.45 35.9998 49.24 35.9998H51.4644C51.7542 35.9998 51.9832 35.7544 51.9632 35.4654L51.0644 22.431ZM22 63C22 58.0294 26.0294 54 31 54H63C67.9706 54 72 58.0294 72 63C72 67.9706 67.9706 72 63 72H31C26.0294 72 22 67.9706 22 63ZM38 63C38 64.6568 36.6568 66 35 66C33.3432 66 32 64.6568 32 63C32 61.3432 33.3432 60 35 60C36.6568 60 38 61.3432 38 63ZM47 66C48.6568 66 50 64.6568 50 63C50 61.3432 48.6568 60 47 60C45.3432 60 44 61.3432 44 63C44 64.6568 45.3432 66 47 66ZM62 63C62 64.6568 60.6568 66 59 66C57.3432 66 56 64.6568 56 63C56 61.3432 57.3432 60 59 60C60.6568 60 62 61.3432 62 63Z" fill="#F93059"/>
</svg>
